<svg width="44" height="44" viewBox="0 0 44 44" fill="none" xmlns="http://www.w3.org/2000/svg">
    <path fill-rule="evenodd" clip-rule="evenodd" d="M12 22C12 16.4771 16.4771 12 22 12C27.5229 12 32 16.4771 32 22C32 27.5229 27.5229 32 22 32C16.4771 32 12 27.5229 12 22ZM26.4787 18.83H23.6944V19.5216H26.4787V18.83ZM21.3142 25.0162C21.5098 24.8698 21.6724 24.6882 21.8033 24.4731C22.0093 24.1482 22.1104 23.7802 22.1107 23.37C22.1107 22.9733 22.0209 22.6356 21.8413 22.3573C21.6629 22.0782 21.396 21.8753 21.0442 21.7467C21.2764 21.6284 21.452 21.4973 21.5707 21.3533C21.7842 21.0964 21.8902 20.7582 21.8902 20.3356C21.8902 19.9258 21.7853 19.5736 21.574 19.2798C21.2216 18.8009 20.6249 18.5571 19.7833 18.5433H16.4444V25.4567H19.5578C19.9082 25.4567 20.2336 25.4253 20.534 25.3633C20.8336 25.3013 21.0942 25.1853 21.3142 25.0162ZM23.9487 23.1298H27.5542C27.5604 22.7009 27.5451 22.3727 27.5113 22.1462C27.4504 21.758 27.3198 21.4169 27.1164 21.122C26.8918 20.7871 26.6067 20.5436 26.2616 20.3887C25.9156 20.234 25.5276 20.1571 25.0971 20.1571C24.3711 20.1571 23.782 20.3853 23.3256 20.844C22.8709 21.3018 22.6442 21.9593 22.6442 22.8184C22.6442 23.7347 22.8967 24.3951 23.3993 24.8022C23.9036 25.208 24.4844 25.4116 25.1438 25.4116C25.9418 25.4116 26.5631 25.1702 27.0062 24.6887C27.2922 24.3856 27.4513 24.0876 27.486 23.7936H26.1644C26.0878 23.938 25.9991 24.0522 25.8984 24.1333C25.714 24.2862 25.4742 24.3607 25.18 24.3607C24.9009 24.3607 24.6627 24.2996 24.4662 24.1747C24.1404 23.9756 23.9684 23.6276 23.9487 23.1298ZM20.5131 20.4898C20.5131 20.7809 20.4197 20.9836 20.2326 21.0976C20.0455 21.2118 19.8024 21.2689 19.502 21.2689H18.0391V19.7438H19.3257C19.6562 19.7438 19.9288 19.7807 20.1417 19.852C20.3895 19.9547 20.5131 20.1682 20.5131 20.4898ZM24.3251 21.5089C24.5075 21.3207 24.7646 21.2249 25.0975 21.2249C25.4033 21.2249 25.6598 21.3144 25.8651 21.4929C26.072 21.6709 26.1869 21.9313 26.2111 22.2756H23.98C24.0269 21.9522 24.1413 21.6967 24.3251 21.5089ZM20.2144 22.5307C20.0506 22.4549 19.8195 22.4162 19.5231 22.4136H18.0391V24.256H19.5C19.8002 24.256 20.0324 24.2167 20.2002 24.1347C20.5026 23.984 20.6542 23.6971 20.6542 23.2713C20.6542 22.9122 20.5073 22.664 20.2144 22.5307Z" fill="#C5C5C6"/>
</svg>
