<svg width="44" height="44" viewBox="0 0 44 44" fill="none" xmlns="http://www.w3.org/2000/svg">
    <path d="M17.0242 12.3101C17.7752 12.5645 18.4896 12.9161 19.1492 13.3561C20.0808 13.118 21.0387 12.9984 22.0002 13.0001C22.9932 13.0001 23.9512 13.1241 24.8492 13.3551C25.5086 12.9155 26.2227 12.5642 26.9732 12.3101C27.6702 12.0731 28.6632 11.6891 29.2532 12.3421C29.6532 12.7861 29.7532 13.5301 29.8242 14.0981C29.9042 14.7321 29.9232 15.5581 29.7132 16.3781C30.5162 17.4151 31.0002 18.6521 31.0002 20.0001C31.0002 22.0421 29.8942 23.8151 28.2572 25.0431C27.4694 25.6266 26.5956 26.0841 25.6672 26.3991C25.8812 26.8891 26.0002 27.4311 26.0002 28.0001V31.0001C26.0002 31.2653 25.8949 31.5196 25.7073 31.7072C25.5198 31.8947 25.2654 32.0001 25.0002 32.0001H19.0002C18.735 32.0001 18.4807 31.8947 18.2931 31.7072C18.1056 31.5196 18.0002 31.2653 18.0002 31.0001V30.0091C17.0452 30.1261 16.2442 30.0221 15.5632 29.7331C14.8512 29.4311 14.3552 28.9631 13.9822 28.5151C13.6282 28.0911 13.2422 27.1351 12.6842 26.9491C12.5596 26.9076 12.4444 26.8419 12.3451 26.7559C12.2459 26.6699 12.1645 26.5651 12.1057 26.4477C11.987 26.2104 11.9674 25.9358 12.0512 25.6841C12.135 25.4324 12.3154 25.2243 12.5526 25.1056C12.7899 24.9869 13.0645 24.9673 13.3162 25.0511C13.9822 25.2731 14.4162 25.7531 14.7132 26.1391C15.1932 26.7591 15.5832 27.5691 16.3432 27.8921C16.6562 28.0251 17.1152 28.1121 17.8332 28.0141L18.0002 27.9801C18.0021 27.4359 18.1155 26.8978 18.3332 26.3991C17.4048 26.0841 16.531 25.6266 15.7432 25.0431C14.1062 23.8151 13.0002 22.0431 13.0002 20.0001C13.0002 18.6541 13.4832 17.4181 14.2842 16.3821C14.0742 15.5621 14.0922 14.7341 14.1722 14.0991L14.1772 14.0611C14.2502 13.4791 14.3352 12.7941 14.7432 12.3421C15.3332 11.6891 16.3272 12.0741 17.0232 12.3111L17.0242 12.3101Z" fill="#C5C5C6"/>
</svg>
