<svg width="44" height="44" viewBox="0 0 44 44" fill="none" xmlns="http://www.w3.org/2000/svg">
    <path d="M15.92 17.8432C16.9867 17.8432 17.84 16.9758 17.84 15.9216C17.84 14.8674 16.9733 14 15.92 14C14.8667 14 14 14.8674 14 15.9216C14 16.9758 14.8667 17.8432 15.92 17.8432ZM19.6667 19.2977V30H22.9733V24.7156C22.9733 23.3144 23.24 21.9666 24.96 21.9666C26.68 21.9666 26.68 23.568 26.68 24.7957V30H30V24.1284C30 21.246 29.3867 19.0309 26.0267 19.0309C24.4133 19.0309 23.3333 19.9116 22.8933 20.7523H22.8533V19.2844H19.68L19.6667 19.2977ZM14.2667 19.2977H17.5867V30H14.2667V19.2977Z" fill="#C5C5C6"/>
</svg>
