<svg width="44" height="44" viewBox="0 0 44 44" fill="none" xmlns="http://www.w3.org/2000/svg">
    <path fill-rule="evenodd" clip-rule="evenodd" d="M28.2985 14.4681C28.5183 14.3756 28.7589 14.3437 28.9953 14.3757C29.2316 14.4077 29.455 14.5025 29.6423 14.6502C29.8295 14.7979 29.9738 14.993 30.0601 15.2154C30.1463 15.4377 30.1714 15.6791 30.1327 15.9145L28.1153 28.1513C27.9196 29.3317 26.6245 30.0086 25.542 29.4207C24.6364 28.9288 23.2915 28.1709 22.0818 27.3801C21.4769 26.9843 19.6241 25.7168 19.8518 24.8148C20.0475 24.0436 23.1608 21.1456 24.9398 19.4227C25.638 18.7457 25.3196 18.3553 24.495 18.9779C22.4474 20.5239 19.1598 22.8748 18.0728 23.5366C17.1139 24.1201 16.614 24.2197 16.0163 24.1201C14.9257 23.9387 13.9144 23.6576 13.0889 23.3151C11.9735 22.8526 12.0277 21.3191 13.088 20.8725L28.2985 14.4681Z" fill="#C5C5C6"/>
</svg>
