<svg width="199" height="26" viewBox="0 0 199 26" fill="none" xmlns="http://www.w3.org/2000/svg">
    <path d="M47.957 3.63574C51.0734 3.63574 53.5628 4.30881 55.4253 5.65495C57.3062 7.00109 58.2466 9.08484 58.2466 11.9062V14.7276C58.2466 17.6042 57.3154 19.7064 55.4529 21.0341C53.6089 22.3434 51.1103 22.998 47.957 22.998H39.1333C38.9305 22.998 38.7553 22.9243 38.6078 22.7767C38.4602 22.6292 38.3865 22.454 38.3865 22.2512V4.38257C38.3865 4.17973 38.4602 4.00455 38.6078 3.85703C38.7553 3.7095 38.9305 3.63574 39.1333 3.63574H47.957ZM48.0953 17.6042C48.962 17.6042 49.6443 17.4014 50.1421 16.9957C50.6585 16.5716 50.9166 15.9815 50.9166 15.2255V11.4083C50.9166 10.6523 50.6585 10.0714 50.1421 9.66571C49.6443 9.24159 48.962 9.02952 48.0953 9.02952H45.5782V17.6042H48.0953Z" fill="#1D1D1D"/>
    <path d="M80.5025 17.6042C80.7053 17.6042 80.8805 17.678 81.028 17.8255C81.1755 17.9731 81.2493 18.1482 81.2493 18.3511V22.2512C81.2493 22.454 81.1755 22.6292 81.028 22.7767C80.8805 22.9243 80.7053 22.998 80.5025 22.998H63.0211C62.8182 22.998 62.6431 22.9243 62.4955 22.7767C62.348 22.6292 62.2743 22.454 62.2743 22.2512V4.38257C62.2743 4.17973 62.348 4.00455 62.4955 3.85703C62.6431 3.7095 62.8182 3.63574 63.0211 3.63574H80.2259C80.4287 3.63574 80.6039 3.7095 80.7514 3.85703C80.8989 4.00455 80.9727 4.17973 80.9727 4.38257V8.28269C80.9727 8.48553 80.8989 8.66072 80.7514 8.80824C80.6039 8.95576 80.4287 9.02952 80.2259 9.02952H69.466V10.7721H78.7045C78.9074 10.7721 79.0826 10.8459 79.2301 10.9934C79.3776 11.1409 79.4514 11.3161 79.4514 11.519V15.1148C79.4514 15.3177 79.3776 15.4928 79.2301 15.6404C79.0826 15.7879 78.9074 15.8616 78.7045 15.8616H69.466V17.6042H80.5025Z" fill="#1D1D1D"/>
    <path d="M105.303 3.63574C105.469 3.63574 105.607 3.70028 105.718 3.82937C105.847 3.94001 105.912 4.07831 105.912 4.24427L105.884 4.4379L99.522 22.0852C99.4298 22.3434 99.2823 22.5647 99.0795 22.7491C98.8766 22.915 98.6092 22.998 98.2773 22.998H91.8324C91.5005 22.998 91.2331 22.915 91.0303 22.7491C90.8274 22.5647 90.6891 22.3711 90.6154 22.1682L84.1982 4.4379L84.1705 4.24427C84.1705 4.07831 84.2258 3.94001 84.3365 3.82937C84.4655 3.70028 84.6131 3.63574 84.779 3.63574H90.6154C90.9473 3.63574 91.2147 3.73716 91.4175 3.94001C91.6388 4.12441 91.7863 4.32725 91.8601 4.54854L95.041 15.1425L98.222 4.54854C98.2957 4.30881 98.434 4.09675 98.6369 3.91235C98.8397 3.72794 99.1163 3.63574 99.4667 3.63574H105.303Z" fill="#1D1D1D"/>
    <path d="M129.523 22.1406C129.56 22.2143 129.578 22.2973 129.578 22.3895C129.578 22.5555 129.514 22.703 129.384 22.8321C129.274 22.9427 129.136 22.998 128.97 22.998H122.691C122.432 22.998 122.193 22.9335 121.971 22.8044C121.769 22.6753 121.621 22.5094 121.529 22.3065L119.095 16.8298H116.771V22.2512C116.771 22.454 116.698 22.6292 116.55 22.7767C116.403 22.9243 116.227 22.998 116.024 22.998H110.05C109.847 22.998 109.672 22.9243 109.524 22.7767C109.377 22.6292 109.303 22.454 109.303 22.2512V4.38257C109.303 4.17973 109.377 4.00455 109.524 3.85703C109.672 3.7095 109.847 3.63574 110.05 3.63574H120.81C122.469 3.63574 123.917 3.90313 125.152 4.4379C126.406 4.97266 127.365 5.74715 128.029 6.76137C128.693 7.77558 129.025 8.96498 129.025 10.3296C129.025 12.8374 128.057 14.6538 126.121 15.7787L129.523 22.1406ZM120.229 11.7126C120.635 11.7126 120.948 11.5835 121.169 11.3253C121.391 11.0487 121.501 10.7076 121.501 10.3019C121.501 9.89622 121.391 9.54585 121.169 9.25081C120.966 8.93732 120.653 8.78058 120.229 8.78058H116.771V11.7126H120.229Z" fill="#1D1D1D"/>
    <path d="M138.059 22.0576C137.819 22.6845 137.404 22.998 136.814 22.998H131.586C131.421 22.998 131.273 22.9427 131.144 22.8321C131.033 22.703 130.978 22.5555 130.978 22.3895L131.006 22.2235L137.036 4.54854C137.109 4.30881 137.248 4.09675 137.45 3.91235C137.653 3.72794 137.93 3.63574 138.28 3.63574H145.97C146.32 3.63574 146.597 3.72794 146.8 3.91235C147.003 4.09675 147.141 4.30881 147.215 4.54854L153.245 22.2235L153.272 22.3895C153.272 22.5555 153.208 22.703 153.079 22.8321C152.968 22.9427 152.83 22.998 152.664 22.998H147.436C146.846 22.998 146.431 22.6845 146.191 22.0576L145.5 20.1213H138.751L138.059 22.0576ZM142.125 8.9742L140.161 14.7276H144.089L142.125 8.9742Z" fill="#1D1D1D"/>
    <path d="M175.086 3.63574C175.288 3.63574 175.464 3.7095 175.611 3.85703C175.759 4.00455 175.832 4.17973 175.832 4.38257V8.8359C175.832 9.03874 175.759 9.21392 175.611 9.36145C175.464 9.50897 175.288 9.58273 175.086 9.58273H169.139V22.2512C169.139 22.454 169.065 22.6292 168.917 22.7767C168.77 22.9243 168.595 22.998 168.392 22.998H162.694C162.491 22.998 162.316 22.9243 162.168 22.7767C162.021 22.6292 161.947 22.454 161.947 22.2512V9.58273H156C155.797 9.58273 155.622 9.50897 155.474 9.36145C155.327 9.21392 155.253 9.03874 155.253 8.8359V4.38257C155.253 4.17973 155.327 4.00455 155.474 3.85703C155.622 3.7095 155.797 3.63574 156 3.63574H175.086Z" fill="#1D1D1D"/>
    <path d="M198.005 17.6042C198.208 17.6042 198.383 17.678 198.531 17.8255C198.678 17.9731 198.752 18.1482 198.752 18.3511V22.2512C198.752 22.454 198.678 22.6292 198.531 22.7767C198.383 22.9243 198.208 22.998 198.005 22.998H180.524C180.321 22.998 180.146 22.9243 179.998 22.7767C179.851 22.6292 179.777 22.454 179.777 22.2512V4.38257C179.777 4.17973 179.851 4.00455 179.998 3.85703C180.146 3.7095 180.321 3.63574 180.524 3.63574H197.729C197.931 3.63574 198.107 3.7095 198.254 3.85703C198.402 4.00455 198.475 4.17973 198.475 4.38257V8.28269C198.475 8.48553 198.402 8.66072 198.254 8.80824C198.107 8.95576 197.931 9.02952 197.729 9.02952H186.969V10.7721H196.207C196.41 10.7721 196.585 10.8459 196.733 10.9934C196.88 11.1409 196.954 11.3161 196.954 11.519V15.1148C196.954 15.3177 196.88 15.4928 196.733 15.6404C196.585 15.7879 196.41 15.8616 196.207 15.8616H186.969V17.6042H198.005Z" fill="#1D1D1D"/>
    <path d="M13.6756 14.4351C11.3047 17.2012 10.5144 18.7817 8.93385 19.1768C7.88272 19.327 6.99838 19.3728 5.77266 19.572C3.77287 19.897 1.52088 20.7578 1.03091 20.7575C0.801638 20.7575 1.82105 18.7823 4.98236 16.8062C6.35975 15.9452 6.9581 15.6206 10.5144 14.8303L10.5167 14.8298C11.3099 14.6536 14.0704 14.0402 13.6756 14.4351Z" fill="#8133F1"/>
    <path d="M13.6756 14.4351C11.3047 17.2012 10.5144 18.7817 8.93385 19.1768C7.88272 19.327 6.99838 19.3728 5.77266 19.572C3.77287 19.897 1.52088 20.7578 1.03091 20.7575C0.801638 20.7575 1.82105 18.7823 4.98236 16.8062C6.35975 15.9452 6.9581 15.6206 10.5144 14.8303L10.5167 14.8298C11.3099 14.6536 14.0704 14.0402 13.6756 14.4351Z" fill="#8133F1"/>
    <path d="M6.9573 6.15948C4.2767 9.40407 2.91097 13.5872 3.80725 14.4568C4.19206 14.8302 6.9226 10.8944 21.9845 10.9003C24.3432 10.9012 26.7263 9.71561 26.7263 8.92521C26.7263 6.79695 25.924 3.78752 22.3675 2.60261C15.2548 0.232874 8.9347 3.76604 6.9573 6.15948Z" fill="#8133F1"/>
    <path d="M14.0708 1C12.8853 1 12.8853 2.18545 12.8853 2.18545H15.6514C15.6514 2.18545 15.2562 1 14.0708 1Z" fill="#8133F1"/>
    <path d="M13.6756 14.4351C11.3047 17.2012 10.5144 18.7817 8.93385 19.1768C7.88272 19.327 6.99838 19.3728 5.77266 19.572C3.77287 19.897 1.52088 20.7578 1.03091 20.7575C0.801638 20.7575 1.82105 18.7823 4.98236 16.8062C6.35975 15.9452 6.9581 15.6206 10.5144 14.8303L10.5167 14.8298C11.3099 14.6536 14.0704 14.0402 13.6756 14.4351Z" stroke="#B78AF7" stroke-linecap="round"/>
    <path d="M13.6756 14.4351C11.3047 17.2012 10.5144 18.7817 8.93385 19.1768C7.88272 19.327 6.99838 19.3728 5.77266 19.572C3.77287 19.897 1.52088 20.7578 1.03091 20.7575C0.801638 20.7575 1.82105 18.7823 4.98236 16.8062C6.35975 15.9452 6.9581 15.6206 10.5144 14.8303L10.5167 14.8298C11.3099 14.6536 14.0704 14.0402 13.6756 14.4351Z" stroke="#B78AF7" stroke-linecap="round"/>
    <path d="M6.9573 6.15948C4.2767 9.40407 2.91097 13.5872 3.80725 14.4568C4.19206 14.8302 6.9226 10.8944 21.9845 10.9003C24.3432 10.9012 26.7263 9.71561 26.7263 8.92521C26.7263 6.79695 25.924 3.78752 22.3675 2.60261C15.2548 0.232874 8.9347 3.76604 6.9573 6.15948Z" stroke="#B78AF7" stroke-linecap="round"/>
    <path d="M14.0708 1C12.8853 1 12.8853 2.18545 12.8853 2.18545H15.6514C15.6514 2.18545 15.2562 1 14.0708 1Z" stroke="#B78AF7" stroke-linecap="round"/>
    <path d="M27.1199 12.4597C23.1685 14.8304 17.4251 13.1337 16.8461 14.4355C15.2627 17.9952 12.4603 20.6262 10.8795 21.4165C9.29871 22.2068 13.687 26.6859 21.1953 24.3142C28.7035 21.9424 28.8142 11.4432 27.1199 12.4597Z" fill="#C5C5C6" stroke="white" stroke-linecap="round"/>
</svg>
