<svg width="188" height="276" viewBox="0 0 188 276" fill="none" xmlns="http://www.w3.org/2000/svg">
<g clip-path="url(#clip0_8097_35459)">
<path d="M131.186 1.84271L131.186 1.84273L131.186 1.84277L131.182 1.84325L131.158 1.84621C131.137 1.84909 131.102 1.85388 131.057 1.8611C130.965 1.87553 130.828 1.89965 130.65 1.93764C130.295 2.01362 129.781 2.1449 129.159 2.36457C127.915 2.80399 126.241 3.59577 124.539 5.00337C121.151 7.80579 117.584 13.1044 117.15 23.1186L117.15 23.1186C117.061 25.1795 116.96 27.1242 116.866 28.9573C116.571 34.6735 116.332 39.3045 116.653 42.9869C117.075 47.8209 118.447 50.8372 121.789 52.4857L121.789 52.4858C124.211 53.6814 127.076 53.7913 129.699 52.9664L131.186 1.84271ZM131.186 1.84271L131.187 1.84268L131.228 1.83816L131.269 1.82661L131.269 1.82653L131.269 1.8264L131.271 1.82599L131.284 1.82244C131.297 1.81908 131.317 1.81381 131.345 1.80699C131.4 1.79334 131.486 1.77349 131.6 1.75035C131.828 1.70407 132.169 1.64464 132.613 1.5953C133.5 1.49662 134.794 1.43836 136.4 1.606C139.608 1.9409 144.075 3.1786 149.045 6.81947C151.446 8.57818 153.269 11.7493 154.636 15.6084C155.999 19.4537 156.884 23.9105 157.458 28.1564C158.032 32.3993 158.292 36.415 158.408 39.371C158.466 40.8486 158.489 42.0603 158.496 42.9019C158.5 43.309 158.5 43.6294 158.5 43.8514L129.7 52.9662L131.186 1.84271Z" fill="#303032" stroke="#1D1D1D"/>
<path d="M144.58 34.4043L145.672 47.7102L134.174 51.5568V34.4043H144.58Z" fill="#D9AAA7" stroke="#1D1D1D"/>
<path d="M108.414 147.115L108.414 147.115L108.413 147.123C108.086 149.143 107.263 150.853 106.225 151.99C105.184 153.129 103.977 153.645 102.842 153.443L102.842 153.443C101.701 153.239 100.718 152.328 100.091 150.884C99.4658 149.447 99.228 147.544 99.5545 145.524L99.5545 145.524L99.5556 145.516C99.7907 143.913 100.416 142.397 101.372 141.098L101.442 141.003L101.462 140.888L104.477 123.628L111.921 125.213L108.076 142.043L108.046 142.177L108.087 142.307C108.585 143.869 108.697 145.517 108.414 147.115Z" fill="#D9AAA7" stroke="#1D1D1D"/>
<path d="M135.18 202.5L135.497 264.5H126.967L121.546 202.5H135.18Z" fill="#D9AAA7" stroke="#1D1D1D"/>
<path d="M114.929 275.114V275.118C117.395 275.103 120.313 274.976 122.681 274.849C123.944 274.781 125.048 274.712 125.839 274.661C126.235 274.635 126.553 274.614 126.773 274.598C126.937 274.587 127.041 274.579 127.085 274.576C127.101 274.575 127.109 274.574 127.108 274.574L127.157 274.569L127.206 274.574C128.205 274.668 131.195 274.914 133.989 274.847C135.39 274.813 136.713 274.701 137.704 274.463C138.201 274.343 138.584 274.199 138.847 274.037C139.109 273.875 139.198 273.729 139.221 273.62L139.221 273.62C139.652 271.604 139.012 269.469 138.918 269.167L138.903 269.118L138.898 269.068C138.415 264.186 138.086 261.736 137.853 260.503C137.76 260.008 137.686 259.734 137.634 259.585C137.628 259.587 137.621 259.589 137.614 259.591C137.487 259.627 137.309 259.697 137.074 259.81C136.623 260.029 136.014 260.385 135.248 260.886C135.239 260.924 135.227 260.974 135.211 261.034C135.179 261.157 135.131 261.321 135.064 261.51C134.929 261.888 134.712 262.378 134.373 262.851C134.034 263.324 133.565 263.79 132.925 264.096C132.28 264.405 131.493 264.537 130.549 264.385L130.548 264.385C128.189 264.003 127.293 263.461 126.935 263.08L126.461 262.576L127.089 262.284C127.232 262.217 127.389 262.111 127.494 261.945C127.649 261.7 127.708 261.343 127.564 260.814L127.563 260.812C127.21 259.506 126.252 257.64 125.919 257.011L113.039 265.851L112.973 265.896L112.895 265.919L104.662 268.311C104.662 268.311 104.662 268.311 104.662 268.311C104.186 268.451 103.804 268.794 103.608 269.262C103.34 269.914 103.511 270.671 104.022 271.14L114.929 275.114ZM114.929 275.114H114.429M114.929 275.114H114.429M114.429 275.114C113.197 275.114 112.117 275.086 111.317 275.008L111.315 275.008M114.429 275.114L111.315 275.008M111.315 275.008C109.86 274.872 108.412 274.253 107.126 273.481M111.315 275.008L107.126 273.481M107.126 273.481C105.844 272.712 104.754 271.808 104.023 271.14L107.126 273.481Z" fill="#B78AF7" stroke="#1D1D1D"/>
<path d="M162.154 202.5L162.497 264.5H153.327L147.549 202.5H162.154Z" fill="#D9AAA7" stroke="#1D1D1D"/>
<path d="M141.44 275.118V275.114H140.94C139.709 275.114 138.628 275.086 137.828 275.008L137.827 275.008C136.372 274.872 134.923 274.253 133.637 273.481C132.356 272.712 131.266 271.808 130.534 271.14C130.023 270.672 129.852 269.914 130.12 269.262C130.315 268.794 130.698 268.451 131.173 268.311C131.173 268.311 131.174 268.311 131.174 268.311L139.407 265.919L139.484 265.896L139.551 265.851L152.431 257.011C152.764 257.64 153.722 259.506 154.075 260.812L154.075 260.814C154.22 261.342 154.161 261.7 154.006 261.945C153.901 262.111 153.744 262.217 153.6 262.284L152.973 262.576L153.447 263.08C153.805 263.461 154.701 264.003 157.06 264.385L157.06 264.385C158.004 264.537 158.792 264.405 159.436 264.096C160.076 263.79 160.546 263.324 160.885 262.851C161.224 262.378 161.441 261.888 161.575 261.51C161.643 261.321 161.691 261.157 161.723 261.034C161.739 260.974 161.751 260.924 161.76 260.886C162.529 260.385 163.137 260.029 163.589 259.81C163.822 259.696 164 259.627 164.127 259.591C164.133 259.589 164.14 259.587 164.146 259.585C164.198 259.734 164.272 260.008 164.365 260.503C164.598 261.736 164.927 264.186 165.41 269.068L165.415 269.118L165.43 269.167C165.523 269.469 166.164 271.604 165.733 273.62L165.733 273.62C165.709 273.729 165.621 273.875 165.358 274.037C165.096 274.199 164.713 274.343 164.216 274.463C163.224 274.701 161.902 274.813 160.5 274.847C157.706 274.914 154.717 274.668 153.717 274.574L153.669 274.569L153.62 274.574C153.621 274.574 153.613 274.575 153.596 274.576C153.553 274.579 153.449 274.587 153.284 274.598C153.064 274.614 152.747 274.635 152.351 274.661C151.559 274.712 150.455 274.781 149.193 274.849C146.825 274.976 143.906 275.103 141.44 275.118Z" fill="#B78AF7" stroke="#1D1D1D"/>
<path d="M182.891 145.179L182.89 145.179L182.893 145.187C183.511 147.125 183.547 149.025 183.132 150.523C182.715 152.026 181.868 153.061 180.76 153.422C179.652 153.781 178.37 153.44 177.166 152.464C175.966 151.492 174.9 149.925 174.282 147.987L174.282 147.987L174.28 147.98C173.768 146.455 173.645 144.818 173.913 143.217L173.933 143.101L173.899 142.989L168.822 126.299L176.17 124.178L180.311 140.86L180.345 140.995L180.443 141.093C181.589 142.237 182.427 143.64 182.891 145.179Z" fill="#D9AAA7" stroke="#1D1D1D"/>
<path d="M181.747 196.563L181.747 196.564C142.236 208.52 116.161 204.221 105.341 201.207C102.253 200.344 100.208 197.254 100.534 193.911L120.313 109.5H155.905L186.198 187.934C187.304 191.616 185.273 195.499 181.747 196.563Z" fill="#303032" stroke="#303032"/>
<mask id="path-10-inside-1_8097_35459" fill="white">
<path fill-rule="evenodd" clip-rule="evenodd" d="M164.069 113.832H117.492L111.438 137.53H99.8867C99.8867 137.53 117.405 53.7783 118.893 50.2588C119.856 47.9787 126.139 47.3226 130.445 47.1433L130.489 47H148.045C148.045 47 148.045 47 148.045 47H153.217L153.256 47.189C157.254 47.491 161.837 48.2595 162.648 50.1792C164.136 53.6987 181.654 137.45 181.654 137.45H170.103L164.069 113.832Z"/>
</mask>
<path fill-rule="evenodd" clip-rule="evenodd" d="M164.069 113.832H117.492L111.438 137.53H99.8867C99.8867 137.53 117.405 53.7783 118.893 50.2588C119.856 47.9787 126.139 47.3226 130.445 47.1433L130.489 47H148.045C148.045 47 148.045 47 148.045 47H153.217L153.256 47.189C157.254 47.491 161.837 48.2595 162.648 50.1792C164.136 53.6987 181.654 137.45 181.654 137.45H170.103L164.069 113.832Z" fill="#F6B798"/>
<path d="M117.492 113.832V112.832H116.716L116.524 113.585L117.492 113.832ZM164.069 113.832L165.038 113.585L164.846 112.832H164.069V113.832ZM111.438 137.53V138.53H112.215L112.407 137.777L111.438 137.53ZM99.8867 137.53L98.9079 137.325L98.6559 138.53H99.8867V137.53ZM118.893 50.2588L117.972 49.8695V49.8695L118.893 50.2588ZM130.445 47.1433L130.487 48.1424L131.194 48.113L131.401 47.4364L130.445 47.1433ZM130.489 47V46H129.75L129.533 46.7069L130.489 47ZM153.217 47L154.197 46.798L154.032 46H153.217V47ZM153.256 47.189L152.277 47.3909L152.429 48.1294L153.181 48.1861L153.256 47.189ZM162.648 50.1792L163.569 49.7899V49.7899L162.648 50.1792ZM181.654 137.45V138.45H182.885L182.633 137.245L181.654 137.45ZM170.103 137.45L169.134 137.698L169.326 138.45H170.103V137.45ZM117.492 114.832H164.069V112.832H117.492V114.832ZM112.407 137.777L118.461 114.08L116.524 113.585L110.47 137.282L112.407 137.777ZM99.8867 138.53H111.438V136.53H99.8867V138.53ZM117.972 49.8695C117.844 50.1708 117.67 50.7832 117.466 51.5669C117.254 52.3843 116.987 53.4727 116.676 54.789C116.053 57.4227 115.245 60.9883 114.319 65.1631C112.467 73.5136 110.137 84.3156 107.854 95.0052C105.571 105.695 103.334 116.275 101.669 124.182C100.836 128.136 100.146 131.422 99.6637 133.719C99.4227 134.867 99.2338 135.769 99.1051 136.383C99.0407 136.69 98.9914 136.926 98.9582 137.084C98.9416 137.164 98.9291 137.224 98.9206 137.264C98.9164 137.284 98.9132 137.299 98.9111 137.31C98.91 137.315 98.9092 137.319 98.9087 137.321C98.9084 137.322 98.9082 137.323 98.9081 137.324C98.908 137.325 98.9079 137.325 99.8867 137.53C100.866 137.734 100.866 137.734 100.866 137.733C100.866 137.733 100.866 137.732 100.866 137.731C100.867 137.728 100.868 137.724 100.869 137.719C100.871 137.709 100.874 137.694 100.878 137.674C100.887 137.634 100.899 137.573 100.916 137.494C100.949 137.336 100.998 137.1 101.063 136.793C101.191 136.179 101.38 135.278 101.621 134.129C102.103 131.833 102.793 128.548 103.626 124.595C105.291 116.688 107.527 106.111 109.81 95.4229C112.092 84.7347 114.421 73.9389 116.272 65.5962C117.197 61.4243 118.002 57.8694 118.622 55.2494C118.932 53.9388 119.195 52.867 119.402 52.0708C119.618 51.2411 119.755 50.7867 119.814 50.6481L117.972 49.8695ZM130.403 46.1441C128.232 46.2346 125.52 46.4462 123.209 46.9349C122.056 47.1787 120.957 47.5006 120.062 47.936C119.192 48.3588 118.353 48.966 117.972 49.8695L119.814 50.6481C119.914 50.4115 120.222 50.0817 120.936 49.7347C121.624 49.4001 122.546 49.1193 123.622 48.8916C125.77 48.4374 128.352 48.2313 130.487 48.1424L130.403 46.1441ZM129.533 46.7069L129.489 46.8502L131.401 47.4364L131.445 47.2931L129.533 46.7069ZM148.045 46H130.489V48H148.045V46ZM148.045 48C148.045 48 148.045 48 148.045 48C148.045 48 148.045 48 148.045 48H148.045C148.045 48 148.045 48 148.045 48C148.045 48 148.045 48 148.045 48C148.045 48 148.045 48 148.045 48C148.045 48 148.045 48 148.045 48H148.045C148.045 48 148.045 48 148.045 48C148.045 48 148.045 48 148.045 48C148.045 48 148.045 48 148.045 48C148.045 48 148.045 48 148.045 48H148.045C148.045 48 148.045 48 148.045 48C148.045 48 148.045 48 148.045 48C148.045 48 148.045 48 148.045 48C148.045 48 148.045 48 148.045 48H148.045H148.045C148.045 48 148.045 48 148.045 48C148.045 48 148.045 48 148.045 48C148.045 48 148.045 48 148.045 48H148.045H148.045C148.045 48 148.045 48 148.045 48C148.045 48 148.045 48 148.045 48C148.045 48 148.045 48 148.045 48C148.045 48 148.045 48 148.045 48H148.045H148.045C148.045 48 148.045 48 148.045 48C148.045 48 148.045 48 148.045 48C148.045 48 148.045 48 148.045 48H148.045H148.045C148.045 48 148.045 48 148.045 48C148.045 48 148.045 48 148.045 48C148.045 48 148.045 48 148.045 48C148.045 48 148.045 48 148.045 48H148.045H148.045C148.045 48 148.045 48 148.045 48C148.045 48 148.045 48 148.045 48C148.045 48 148.045 48 148.045 48C148.045 48 148.045 48 148.045 48H148.045H148.045C148.045 48 148.045 48 148.045 48C148.045 48 148.045 48 148.045 48C148.045 48 148.045 48 148.045 48C148.045 48 148.045 48 148.045 48H148.045H148.045C148.045 48 148.045 48 148.045 48C148.045 48 148.045 48 148.045 48C148.045 48 148.045 48 148.045 48C148.045 48 148.045 48 148.045 48H148.045H148.045C148.045 48 148.045 48 148.045 48C148.045 48 148.045 48 148.045 48C148.045 48 148.045 48 148.045 48C148.045 48 148.045 48 148.045 48H148.045H148.045C148.045 48 148.045 48 148.045 48C148.045 48 148.045 48 148.045 48C148.045 48 148.045 48 148.045 48C148.045 48 148.045 48 148.045 48H148.045H148.045C148.045 48 148.045 48 148.045 48C148.045 48 148.045 48 148.045 48C148.045 48 148.045 48 148.045 48C148.045 48 148.045 48 148.045 48H148.045H148.045C148.045 48 148.045 48 148.045 48C148.045 48 148.045 48 148.045 48C148.045 48 148.045 48 148.045 48C148.045 48 148.045 48 148.045 48H148.045H148.045C148.045 48 148.045 48 148.045 48C148.045 48 148.045 48 148.045 48C148.045 48 148.045 48 148.045 48C148.045 48 148.045 48 148.045 48H148.045H148.045C148.045 48 148.045 48 148.045 48C148.045 48 148.045 48 148.045 48C148.045 48 148.045 48 148.045 48C148.045 48 148.045 48 148.045 48H148.045H148.045C148.045 48 148.045 48 148.045 48C148.045 48 148.045 48 148.045 48C148.045 48 148.045 48 148.045 48C148.045 48 148.045 48 148.045 48H148.045H148.045C148.045 48 148.045 48 148.045 48C148.045 48 148.045 48 148.045 48C148.045 48 148.045 48 148.045 48H148.045H148.045C148.045 48 148.045 48 148.045 48C148.045 48 148.045 48 148.045 48C148.045 48 148.045 48 148.045 48C148.045 48 148.045 48 148.045 48H148.045H148.045C148.045 48 148.045 48 148.045 48C148.045 48 148.045 48 148.045 48C148.045 48 148.045 48 148.045 48H148.045H148.045C148.045 48 148.045 48 148.045 48C148.045 48 148.045 48 148.045 48C148.045 48 148.045 48 148.045 48C148.045 48 148.045 48 148.045 48H148.045C148.045 48 148.045 48 148.045 48C148.045 48 148.045 48 148.045 48C148.045 48 148.045 48 148.045 48C148.045 48 148.045 48 148.045 48H148.045C148.045 48 148.045 48 148.045 48C148.045 48 148.045 48 148.045 48C148.045 48 148.045 48 148.045 48C148.045 48 148.045 48 148.045 48H148.045C148.045 48 148.045 48 148.045 48C148.045 48 148.045 48 148.045 48V46C148.045 46 148.045 46 148.045 46C148.045 46 148.045 46 148.045 46H148.045C148.045 46 148.045 46 148.045 46C148.045 46 148.045 46 148.045 46C148.045 46 148.045 46 148.045 46C148.045 46 148.045 46 148.045 46H148.045C148.045 46 148.045 46 148.045 46C148.045 46 148.045 46 148.045 46C148.045 46 148.045 46 148.045 46C148.045 46 148.045 46 148.045 46H148.045C148.045 46 148.045 46 148.045 46C148.045 46 148.045 46 148.045 46C148.045 46 148.045 46 148.045 46C148.045 46 148.045 46 148.045 46H148.045H148.045C148.045 46 148.045 46 148.045 46C148.045 46 148.045 46 148.045 46C148.045 46 148.045 46 148.045 46H148.045H148.045C148.045 46 148.045 46 148.045 46C148.045 46 148.045 46 148.045 46C148.045 46 148.045 46 148.045 46C148.045 46 148.045 46 148.045 46H148.045H148.045C148.045 46 148.045 46 148.045 46C148.045 46 148.045 46 148.045 46C148.045 46 148.045 46 148.045 46H148.045H148.045C148.045 46 148.045 46 148.045 46C148.045 46 148.045 46 148.045 46C148.045 46 148.045 46 148.045 46C148.045 46 148.045 46 148.045 46H148.045H148.045C148.045 46 148.045 46 148.045 46C148.045 46 148.045 46 148.045 46C148.045 46 148.045 46 148.045 46C148.045 46 148.045 46 148.045 46H148.045H148.045C148.045 46 148.045 46 148.045 46C148.045 46 148.045 46 148.045 46C148.045 46 148.045 46 148.045 46C148.045 46 148.045 46 148.045 46H148.045H148.045C148.045 46 148.045 46 148.045 46C148.045 46 148.045 46 148.045 46C148.045 46 148.045 46 148.045 46C148.045 46 148.045 46 148.045 46H148.045H148.045C148.045 46 148.045 46 148.045 46C148.045 46 148.045 46 148.045 46C148.045 46 148.045 46 148.045 46C148.045 46 148.045 46 148.045 46H148.045H148.045C148.045 46 148.045 46 148.045 46C148.045 46 148.045 46 148.045 46C148.045 46 148.045 46 148.045 46C148.045 46 148.045 46 148.045 46H148.045H148.045C148.045 46 148.045 46 148.045 46C148.045 46 148.045 46 148.045 46C148.045 46 148.045 46 148.045 46C148.045 46 148.045 46 148.045 46H148.045H148.045C148.045 46 148.045 46 148.045 46C148.045 46 148.045 46 148.045 46C148.045 46 148.045 46 148.045 46C148.045 46 148.045 46 148.045 46H148.045H148.045C148.045 46 148.045 46 148.045 46C148.045 46 148.045 46 148.045 46C148.045 46 148.045 46 148.045 46C148.045 46 148.045 46 148.045 46H148.045H148.045C148.045 46 148.045 46 148.045 46C148.045 46 148.045 46 148.045 46C148.045 46 148.045 46 148.045 46C148.045 46 148.045 46 148.045 46H148.045H148.045C148.045 46 148.045 46 148.045 46C148.045 46 148.045 46 148.045 46C148.045 46 148.045 46 148.045 46C148.045 46 148.045 46 148.045 46H148.045H148.045C148.045 46 148.045 46 148.045 46C148.045 46 148.045 46 148.045 46C148.045 46 148.045 46 148.045 46H148.045H148.045C148.045 46 148.045 46 148.045 46C148.045 46 148.045 46 148.045 46C148.045 46 148.045 46 148.045 46C148.045 46 148.045 46 148.045 46H148.045H148.045C148.045 46 148.045 46 148.045 46C148.045 46 148.045 46 148.045 46C148.045 46 148.045 46 148.045 46H148.045H148.045C148.045 46 148.045 46 148.045 46C148.045 46 148.045 46 148.045 46C148.045 46 148.045 46 148.045 46C148.045 46 148.045 46 148.045 46H148.045C148.045 46 148.045 46 148.045 46C148.045 46 148.045 46 148.045 46C148.045 46 148.045 46 148.045 46C148.045 46 148.045 46 148.045 46H148.045C148.045 46 148.045 46 148.045 46C148.045 46 148.045 46 148.045 46C148.045 46 148.045 46 148.045 46C148.045 46 148.045 46 148.045 46H148.045C148.045 46 148.045 46 148.045 46C148.045 46 148.045 46 148.045 46V48ZM153.217 46H148.045V48H153.217V46ZM154.236 46.987L154.197 46.798L152.238 47.202L152.277 47.3909L154.236 46.987ZM153.181 48.1861C155.157 48.3354 157.23 48.5973 158.888 49.0431C159.717 49.2663 160.401 49.5248 160.904 49.8126C161.419 50.107 161.645 50.3746 161.727 50.5685L163.569 49.7899C163.246 49.024 162.595 48.4756 161.897 48.0765C161.188 47.6709 160.324 47.3584 159.407 47.1118C157.571 46.6178 155.353 46.3445 153.331 46.1918L153.181 48.1861ZM161.727 50.5685C161.786 50.7072 161.923 51.1616 162.139 51.9913C162.346 52.7874 162.609 53.8592 162.919 55.1698C163.539 57.7899 164.344 61.3448 165.269 65.5167C167.12 73.8594 169.449 84.6551 171.731 95.3433C174.014 106.031 176.25 116.609 177.915 124.515C178.748 128.468 179.438 131.753 179.92 134.05C180.161 135.198 180.35 136.1 180.478 136.714C180.543 137.021 180.592 137.256 180.625 137.415C180.642 137.494 180.654 137.554 180.663 137.594C180.667 137.614 180.67 137.63 180.672 137.64C180.673 137.645 180.674 137.649 180.675 137.651C180.675 137.652 180.675 137.653 180.675 137.654C180.675 137.655 180.675 137.655 181.654 137.45C182.633 137.245 182.633 137.245 182.633 137.244C182.633 137.244 182.633 137.243 182.632 137.242C182.632 137.239 182.631 137.235 182.63 137.23C182.628 137.22 182.625 137.205 182.62 137.185C182.612 137.144 182.599 137.084 182.583 137.005C182.55 136.846 182.5 136.611 182.436 136.304C182.307 135.689 182.118 134.788 181.877 133.639C181.395 131.342 180.705 128.056 179.872 124.103C178.207 116.196 175.97 105.616 173.687 94.9256C171.404 84.236 169.074 73.4341 167.222 65.0835C166.296 60.9088 165.488 57.3432 164.865 54.7094C164.554 53.3932 164.287 52.3047 164.075 51.4874C163.871 50.7036 163.697 50.0912 163.569 49.7899L161.727 50.5685ZM181.654 136.45H170.103V138.45H181.654V136.45ZM171.071 137.203L165.038 113.585L163.1 114.08L169.134 137.698L171.071 137.203Z" fill="#303032" mask="url(#path-10-inside-1_8097_35459)"/>
<path d="M149.5 24C149.5 32.0081 143.008 38.5 135 38.5C126.992 38.5 120.5 32.0081 120.5 24C120.5 15.9919 126.992 9.5 135 9.5C143.008 9.5 149.5 15.9919 149.5 24Z" fill="#D9AAA7" stroke="#1D1D1D"/>
<path d="M129.814 8.97168C129.814 8.97168 122.943 37.3515 130.582 50.6164L119.822 48.2923C119.822 48.2923 115.652 17.2344 124.038 11.587L129.814 8.97168Z" fill="#303032"/>
<path d="M130 10.5C129 13.5 127.951 17.4875 127.5 22C127 27 127 33.4354 127 36.5C127 39.5 129 49.5 130.5 51" stroke="#1D1D1D"/>
<path d="M10.1376 78.8086H143.799C148.724 78.8086 152.731 82.8726 152.731 87.9043C152.731 92.936 148.724 97 143.799 97H10.1376C5.2122 97 1.20508 92.936 1.20508 87.9043C1.20508 82.8726 5.2122 78.8086 10.1376 78.8086Z" fill="#CEB0FA" stroke="#1D1D1D"/>
<path d="M1.90415 40.8174H29.6544C30.318 40.8174 30.8535 41.3622 30.8535 42.0342C30.8535 42.7063 30.318 43.2511 29.6544 43.2511H1.90415C1.24058 43.2541 0.705078 42.7093 0.705078 42.0342C0.705078 41.3622 1.24058 40.8174 1.90415 40.8174Z" fill="#6200EE"/>
<path d="M1.90415 51.4492H83.3563C84.0199 51.4492 84.5554 51.994 84.5554 52.669C84.5554 53.3411 84.0199 53.8859 83.3563 53.8859H1.90415C1.24058 53.8859 0.705078 53.3411 0.705078 52.669C0.705078 51.997 1.24058 51.4492 1.90415 51.4492Z" fill="#6200EE"/>
<path d="M63.1295 190.591L63.1298 190.591C64.3709 192.605 67.0316 193.119 68.904 191.684L68.9042 191.684C70.6451 190.348 71.0141 187.842 69.7509 186.038L69.7505 186.037L50.4689 158.588C53.9654 155.083 56.1392 150.194 56.1392 144.791C56.1392 134.149 47.7247 125.5 37.3196 125.5C26.9145 125.5 18.5 134.149 18.5 144.791C18.5 155.432 26.9145 164.082 37.3196 164.082C40.3012 164.082 43.1195 163.372 45.6216 162.108L63.1295 190.591ZM22.0152 144.791C22.0152 136.102 28.8796 129.075 37.3243 129.075C45.769 129.075 52.6334 136.098 52.6334 144.791C52.6334 153.48 45.7689 160.507 37.3243 160.507C28.8841 160.507 22.0152 153.484 22.0152 144.791Z" fill="#CEB0FA" stroke="#1D1D1D"/>
</g>
<defs>
<clipPath id="clip0_8097_35459">
<rect width="186.592" height="276" fill="white" transform="translate(0.705078)"/>
</clipPath>
</defs>
</svg>
