<svg width="149" height="161" viewBox="0 0 149 161" fill="none" xmlns="http://www.w3.org/2000/svg">
<path d="M123.344 77.1174C123.799 78.6685 125.069 82.1289 125.981 86.2224C126.23 87.2438 126.494 88.2872 126.764 89.3417C127.034 90.3962 127.184 91.4793 127.397 92.5391C127.764 94.6638 128.274 96.6996 128.474 98.5303C131.144 115.296 129.978 132.799 124.419 148.803C123.458 151.275 122.047 155.537 119.317 154.431C116.477 153.27 115.676 150.024 117.075 146.013C120.163 136.164 122.202 125.68 121.56 115.281C121.052 107.716 120.232 100.19 118.575 92.8167C116.935 85.4471 114.667 78.2218 111.579 71.3505C108.799 65.1745 105.395 59.3232 101.618 53.7331C97.7533 48.1975 93.2706 43.1203 88.41 38.4446C86.0011 36.3759 83.693 34.1989 81.1025 32.38C79.8115 31.4526 78.6064 30.4418 77.2696 29.5885L73.2922 27.0084C67.8822 23.7411 62.3308 20.714 56.5259 18.2406C51.5793 15.9697 46.4571 14.0819 41.2808 12.3041L37.3408 11.1671C36.0195 10.8082 34.719 10.36 33.3724 10.1084C30.6918 9.55148 28.0229 8.86516 25.29 8.56962C24.0091 8.39955 22.5761 8.35426 21.132 8.31557C19.6711 8.34838 18.1909 8.42368 16.7884 8.32874C14.4615 8.07234 10.5809 8.24186 8.24982 8.00334C7.24126 7.87865 6.20321 7.87917 5.2276 8.05478C0.810756 8.93781 -0.529736 7.98008 0.616046 4.52308C0.879949 3.76439 0.363945 2.83102 1.45865 2.23057C1.50284 2.20325 1.59112 2.14867 1.63531 2.12135C3.27936 0.952214 5.06052 0.523204 6.86491 0.354386C8.67292 0.290219 10.5043 0.486085 12.3302 0.426135C30.275 0.158292 48.1882 4.38443 64.3661 12.1263C74.2898 16.9396 83.4313 23.2288 91.8886 30.3383C93.0223 31.3324 94.3054 32.1731 95.4155 33.2276C96.5408 34.2574 97.6398 35.3187 98.6225 36.513L98.5841 36.4756C99.7725 37.558 100.849 38.7557 101.936 39.9463C103.013 41.1439 104.133 42.3139 105.128 43.5771C112.623 53.2056 118.967 64.4311 122.708 75.4951C122.834 75.9212 123.129 76.472 123.344 77.1174Z" fill="#303032"/>
<path d="M126.336 144.274C127.106 143.569 129.824 141.049 131.325 139.204C134.851 134.978 137.921 130.484 141.297 126.015C141.822 125.309 142.479 124.001 145.121 125.285C147.865 126.612 149.005 128.381 148.126 129.825C145.974 133.309 143.274 136.352 141.312 139.871C138.447 145.093 134.064 149.192 129.715 153.148C128.747 154.052 127.709 154.893 126.675 155.715L125.087 156.926C124.503 157.364 123.876 157.782 123.206 158.181C121.867 158.978 120.388 159.724 118.449 160.144C117.534 160.344 116.273 160.452 115.15 160.291C114.016 160.136 112.904 159.77 111.908 159.195C110.967 158.662 110.116 157.952 109.42 157.099C108.694 156.22 108.225 155.364 107.838 154.565C107.097 152.946 106.737 151.474 106.452 150.123L106.108 148.259L105.804 146.508C105.617 145.341 105.441 144.167 105.323 142.988C104.903 138.925 105.207 134.798 105.03 130.708C104.984 129.744 104.326 128.655 104.254 127.6C104.204 126.729 104.056 125.279 104.216 124.401C104.286 124.022 104.383 123.611 104.236 123.274C103.56 121.661 104.559 121.104 107.959 121.293C108.704 121.337 109.649 121.088 110.2 121.435C110.224 121.45 110.274 121.481 110.292 121.485C112.453 122.485 111.653 123.835 111.837 125.095C112.75 131.265 113.456 137.471 114.243 143.657L114.581 146.502C114.696 147.454 114.785 148.438 114.914 149.213C115.038 150.007 115.23 150.713 115.457 151.229C115.578 151.474 115.697 151.691 115.812 151.803C115.907 151.882 115.96 151.895 116.05 151.916C116.143 151.919 116.272 151.855 116.347 151.779C116.428 151.713 116.436 151.677 116.461 151.815C116.531 151.756 116.468 151.703 116.68 151.602C116.842 151.518 117.081 151.385 117.358 151.29C117.899 151.078 118.553 150.704 119.222 150.23C119.842 149.8 120.715 149.063 121.473 148.487C122.998 147.223 124.512 145.967 125.962 144.78C126.125 144.649 126.18 144.416 126.336 144.274Z" fill="#303032"/>
</svg>
