<svg width="387" height="195" viewBox="0 0 387 195" fill="none" xmlns="http://www.w3.org/2000/svg">
<path d="M175.767 81.607C178.047 81.0498 181.852 80.3131 186.713 79.7707C191.573 79.2282 197.504 78.9453 203.912 79.0846C210.308 79.2196 217.188 79.7914 223.85 80.5924C230.512 81.3578 236.943 82.5012 242.541 83.6497C268.434 89.0437 293.665 99.1279 314.997 114.218C336.227 129.258 353.543 149.382 363.259 171.943C364.834 175.456 366.472 180.308 367.91 184.233C368.306 185.207 368.623 186.14 368.951 186.971C369.278 187.801 369.613 188.539 369.95 189.16C370.619 190.376 371.314 191.079 371.989 190.957C373.396 190.699 374.057 188.367 373.913 184.344C373.57 180.355 372.406 174.644 369.465 168.145C362.539 152.348 351.936 137.821 339.128 125.336C326.324 112.805 311.207 102.395 295.082 94.1673C271.435 82.0874 245.273 75.1494 219.195 72.5091C206.164 71.168 192.892 70.8539 179.918 72.8527C173.453 73.866 167.101 75.5249 161.095 77.9263C155.137 80.3449 149.483 83.6568 144.75 87.8253C140.487 91.5486 136.967 95.9569 134.296 100.829C131.637 105.705 129.863 111.093 129.378 116.771C128.856 122.437 129.882 128.382 132.258 133.928C134.626 139.496 138.646 144.575 143.53 148.605C145.992 150.603 148.647 152.364 151.43 153.886C154.216 155.398 157.128 156.636 160.082 157.687C166.02 159.742 172.188 160.908 178.304 161.297C190.535 162.038 202.835 159.794 213.076 154.039C215.472 152.647 217.678 151.15 219.788 149.512C221.875 147.865 223.846 146.094 225.69 144.193C227.499 142.279 229.177 140.246 230.696 138.097C232.184 135.924 233.486 133.635 234.598 131.243C236.759 126.446 238.038 121.127 237.997 115.719C238.034 110.315 236.885 104.859 234.906 99.7298C230.905 89.4072 223.95 80.4274 216.237 72.4994C212.347 68.5351 208.232 64.7852 203.924 61.3086L197.417 56.1783L194.152 53.6267L190.747 51.2377C159.589 28.9445 123.002 13.9092 85.5126 6.25021C76.6974 4.36933 66.0024 2.27841 56.1918 1.29171C54.162 1.01521 51.8042 0.90377 49.265 0.738228C46.7339 0.587458 44.0219 0.418286 41.3218 0.253403C35.9235 0.102171 30.547 0.148547 26.5492 0.19887C23.1152 0.430657 19.5636 0.690795 16.1782 0.715098C15.2082 0.729517 14.2776 0.746403 13.4019 0.759567C12.5265 0.808437 11.6947 0.884979 10.9099 0.94306C9.33248 1.08016 7.9398 1.22523 6.71998 1.37393C4.28033 1.67132 2.52451 2.00421 1.43684 2.37881C-0.726657 3.13232 -0.221295 4.06305 2.63211 5.27941C3.88325 5.81776 2.7864 6.76981 6.49924 6.87655C6.65646 6.88636 6.96286 6.89122 7.09641 6.89242C18.3358 7.45087 29.5007 6.63093 40.9888 6.94798C97.2314 9.61464 154.03 30.6316 197.595 66.0341C201.018 68.6669 204.156 71.4924 207.237 74.4036C210.31 77.2999 213.215 80.3251 215.858 83.4801C218.529 86.6333 220.986 89.898 223.039 93.3124C225.081 96.7225 226.884 100.236 228.048 103.848C229.227 107.454 229.893 111.11 229.989 114.748L229.902 117.455C229.881 118.36 229.71 119.234 229.614 120.124C229.284 121.877 228.899 123.633 228.274 125.314C227.118 128.71 225.36 131.922 223.166 134.858C220.992 137.812 218.387 140.515 215.46 142.887C213.88 144.209 212.138 145.388 210.391 146.507C208.619 147.545 206.808 148.545 204.869 149.345C201.015 151.024 196.869 152.218 192.551 153.076L192.696 153.046C188.152 153.822 183.442 154.028 178.745 153.717C174.048 153.442 169.368 152.568 164.872 151.264C160.628 150.003 156.542 148.196 152.875 145.902C149.251 143.563 145.987 140.751 143.573 137.443C142.302 135.818 141.328 134.041 140.44 132.248C139.618 130.42 138.992 128.532 138.534 126.623C137.65 122.793 137.602 118.84 138.301 115.005C139.667 107.312 143.987 100.231 149.725 94.6976C152.612 91.9197 155.873 89.5504 159.433 87.6102C163.04 85.6515 166.879 84.0498 170.875 82.8254C171.49 82.6104 172.27 82.4557 173.104 82.2615C173.891 82.0144 174.799 81.7999 175.767 81.607Z" fill="#303032"/>
<path d="M381.775 186.045C382.188 185.389 383.453 182.981 384.186 181.41C385.952 177.809 387.07 173.818 386.626 169.698C386.552 169.055 386.631 167.993 383.815 167.667C380.885 167.324 379.141 167.697 379.159 168.604C379.161 170.81 379.333 173.207 378.121 175.137C376.389 177.909 375.28 180.883 373.25 183.404C372.921 183.83 372.568 184.246 372.219 184.653L372.003 184.918L371.94 184.978L371.832 185.093C371.696 185.245 371.509 185.426 371.261 185.371C371.104 185.325 370.992 185.19 370.92 185.057C370.888 184.998 370.863 184.918 370.847 184.853L370.83 184.752C370.826 184.726 370.838 184.731 370.822 184.701L369.347 182.458C368.48 181.123 367.593 179.804 366.57 178.566C364.813 176.434 362.5 174.655 360.552 172.642C360.095 172.168 360.011 171.296 359.534 170.766C359.132 170.324 358.495 169.57 357.934 169.235C357.692 169.088 357.42 168.954 357.346 168.714C357.004 167.593 356.017 167.874 353.729 169.78C353.227 170.201 352.43 170.587 352.224 171.045C352.216 171.066 352.189 171.104 352.181 171.125C351.174 172.75 352.426 172.956 352.925 173.647C355.402 177.038 358.039 180.321 360.618 183.654L363.036 186.692C363.438 187.206 363.829 187.715 364.2 188.242L364.947 189.284C365.294 189.766 365.637 190.258 366.015 190.728C366.809 191.751 367.69 192.902 368.914 193.182L368.891 193.173C369.487 193.485 370.134 193.732 370.815 193.885C371.465 194.015 372.141 194.072 372.78 193.972C374.008 193.803 375.145 193.328 376.178 192.589C376.704 192.247 377.154 191.747 377.608 191.273C378.047 190.804 378.555 190.29 378.939 189.861C379.908 188.708 380.771 187.552 381.421 186.319C381.491 186.237 381.687 186.178 381.775 186.045Z" fill="#303032"/>
</svg>
