<svg xmlns="http://www.w3.org/2000/svg" width="556" height="249" viewBox="0 0 556 249" fill="none">
    <path d="M95.0001 1H147M199 1H251M304 1H356M408 1H460M95.0001 248H147M199 248H251M304 248H356M408 248H460M1.00009 98.5V151.5M553.5 98.5V151.5M42.5001 1C42.5001 1 26.0001 1.00145 15 1.00073C8.62476 1.00032 1.00013 8.62549 1 15.0007C0.99976 27.0015 1.00009 43.0007 1.00009 43.0007" stroke="#EE7538" stroke-width="2"/>
    <path d="M42.5002 248.001C42.5002 248.001 26.0002 248 15.0001 248.001C8.62485 248.001 1.00021 240.376 1.00009 234.001C0.999847 222 1.00018 206.001 1.00018 206.001" stroke="#EE7538" stroke-width="2"/>
    <path d="M512 248.001C512 248.001 528.5 248 539.5 248.001C545.875 248.001 553.5 240.376 553.5 234.001C553.5 222 553.5 206.001 553.5 206.001" stroke="#EE7538" stroke-width="2"/>
    <path d="M513 1.00073C513 1.00073 529.5 1.00218 540.5 1.00146C546.875 1.00105 554.5 8.62622 554.5 15.0015C554.5 27.0022 554.5 43.0015 554.5 43.0015" stroke="#EE7538" stroke-width="2"/>
</svg>