<svg width="40" height="40" viewBox="0 0 40 40" fill="none" xmlns="http://www.w3.org/2000/svg">
<path d="M33.8141 12.0053C33.2566 11.39 31.8757 10.0323 29.9823 9.0028C29.043 8.4819 27.9915 8.03076 26.9437 7.70264C25.896 7.37452 24.8482 7.16943 23.9239 7.07099C21.7835 6.8495 19.6355 7.02994 17.5924 7.75591C15.523 8.43267 13.5585 9.49508 11.7511 10.8445C8.14748 13.5761 5.19875 17.3699 2.93107 21.5904C2.74771 21.9185 2.54565 22.3083 2.34732 22.7143C2.14899 23.1204 1.91326 23.5182 1.71119 23.8791C1.29957 24.5969 0.865478 25.0972 0.483791 24.8963C-0.298295 24.4984 -0.167327 22.5296 1.1349 20.0441C1.51285 19.2853 1.9619 18.5758 2.38101 17.8457C2.84128 17.1444 3.27535 16.4225 3.77678 15.7539C4.73474 14.384 5.81246 13.1084 6.95004 11.9107L7.81817 11.0249L8.72751 10.1922C9.02313 9.9092 9.34495 9.65083 9.66302 9.39653C9.98483 9.14634 10.2879 8.86749 10.6247 8.6337C11.9269 7.64933 13.3265 6.82073 14.7634 6.08245C15.3022 5.84866 15.8374 5.59448 16.3874 5.3771C16.945 5.19253 17.4951 4.98341 18.0639 4.81935C19.2089 4.50353 20.384 4.31881 21.5627 4.26139C23.9164 4.15065 26.2777 4.52814 28.5079 5.34025C30.7344 6.15235 32.8449 7.39906 34.6636 9.07249C36.4785 10.7459 37.9902 12.8787 38.9257 15.3273C39.7677 17.5176 40.1232 19.9417 39.9623 22.296C39.8126 24.6543 39.2326 26.9593 38.2746 29.0429C37.3204 31.1265 36.0706 33.0543 34.5139 34.6498C32.9684 36.2494 31.1573 37.5824 29.174 38.4642C25.4507 40.1458 21.2933 40.3961 17.409 39.4609C13.5248 38.5217 9.82767 36.3806 7.06604 33.1076C4.67862 30.3021 3.12942 26.6025 2.7365 22.8291C2.29869 19.0475 2.85624 15.2331 4.10608 11.7673C4.69358 10.139 5.44572 8.15793 6.50846 6.59114C6.93131 5.93489 7.55251 5.10218 8.23356 4.33109C8.90338 3.54769 9.67049 2.87105 10.2542 2.39527C10.5162 2.2025 10.7819 2.00555 11.0438 1.80868C11.3132 1.62001 11.5789 1.43147 11.8259 1.2305C12.9934 0.340463 13.8616 3.5362e-05 14.3106 3.5362e-05C14.7672 -0.00406618 14.8233 0.348674 14.6062 1.03363C14.5164 1.33304 14.8233 1.51339 14.3218 1.93585C14.3031 1.95636 14.262 1.99334 14.2433 2.00975C13.5323 2.73572 12.8063 3.33854 12.0579 3.94557C11.3132 4.54849 10.5611 5.18018 9.91373 5.94306C6.72926 9.65906 4.8994 14.786 4.91063 19.8719C4.91811 22.4107 5.40457 24.9414 6.39995 27.2014C7.38785 29.4654 8.8884 31.4548 10.6958 33.0257C11.7997 34.0018 13.0308 34.8098 14.3218 35.4702C15.6128 36.1346 16.9787 36.6267 18.3782 36.9425C19.774 37.2625 21.2034 37.41 22.6217 37.3485C24.0362 37.2911 25.4469 37.0574 26.7791 36.5899C27.5163 36.3561 28.2085 35.995 28.8971 35.6382C29.5706 35.2444 30.2405 34.8507 30.8841 34.3913L30.8616 34.4077C32.1788 33.3987 33.3239 32.1273 34.3118 30.741C35.2473 29.4285 36.0182 27.9436 36.557 26.3687C37.0959 24.7937 37.3953 23.1286 37.4214 21.4839C37.4439 19.8391 37.1932 18.2109 36.6805 16.7138C36.1529 15.2168 35.382 13.8467 34.4315 12.6613C34.2893 12.4768 34.0574 12.2554 33.8141 12.0053Z" fill="#B78AF7"/>
</svg>
