<svg width="84" height="77" viewBox="0 0 84 77" fill="none" xmlns="http://www.w3.org/2000/svg">
<path d="M71.0097 23.1101C69.8388 21.9258 66.9391 19.3121 62.9628 17.3304C60.9904 16.3277 58.7822 15.4592 56.5819 14.8276C54.3815 14.1959 52.1812 13.8011 50.2402 13.6117C45.7453 13.1853 41.2346 13.5326 36.944 14.9301C32.5984 16.2329 28.4728 18.278 24.6772 20.8756C17.1097 26.134 10.9174 33.4371 6.15526 41.5615C5.7702 42.1932 5.34586 42.9434 4.92937 43.7251C4.51288 44.5067 4.01785 45.2725 3.5935 45.9673C2.72909 47.349 1.8175 48.3122 1.01596 47.9253C-0.62642 47.1595 -0.351388 43.3696 2.38329 38.5849C3.17698 37.1243 4.11999 35.7584 5.00011 34.3531C5.96668 33.0029 6.87823 31.6133 7.93124 30.3263C9.94295 27.6892 12.2062 25.2336 14.5951 22.9281L16.4182 21.223L18.3278 19.62C18.9486 19.0752 19.6244 18.5778 20.2923 18.0883C20.9682 17.6067 21.6046 17.0699 22.3119 16.6199C25.0466 14.725 27.9855 13.1299 31.0031 11.7087C32.1347 11.2587 33.2585 10.7694 34.4136 10.3509C35.5845 9.99562 36.7397 9.59306 37.9341 9.27724C40.3388 8.66929 42.8063 8.31372 45.2817 8.20318C50.2245 7.99 55.1831 8.71668 59.8666 10.28C64.5423 11.8433 68.9744 14.2432 72.7935 17.4645C76.6048 20.6859 79.7795 24.7915 81.744 29.5051C83.5121 33.7213 84.2587 38.3877 83.9208 42.9197C83.6065 47.4596 82.3884 51.8966 80.3767 55.9075C78.3728 59.9184 75.7482 63.6296 72.4791 66.701C69.2337 69.7802 65.4303 72.3461 61.2654 74.0436C53.4464 77.2807 44.7158 77.7625 36.5589 75.9623C28.402 74.1543 20.6381 70.0326 14.8387 63.7321C9.82511 58.3316 6.57178 51.2098 5.74666 43.946C4.82724 36.6664 5.9981 29.3238 8.62277 22.6521C9.85652 19.5176 11.436 15.704 13.6678 12.6879C14.5558 11.4247 15.8603 9.82169 17.2905 8.33734C18.6971 6.82931 20.308 5.52677 21.5339 4.6109C22.084 4.23981 22.6419 3.86069 23.192 3.48171C23.7578 3.11852 24.3158 2.75559 24.8344 2.36871C27.2862 0.655392 29.1093 6.80718e-05 30.0523 6.80718e-05C31.011 -0.00782739 31.1289 0.671198 30.6731 1.98974C30.4845 2.56611 31.1289 2.91328 30.0759 3.72651C30.0366 3.76599 29.9502 3.83719 29.9109 3.86877C28.4178 5.26627 26.8933 6.42668 25.3216 7.59521C23.7578 8.75585 22.1783 9.97184 20.8188 11.4404C14.1314 18.5937 10.2887 28.463 10.3123 38.2534C10.328 43.1407 11.3496 48.0123 13.4399 52.3627C15.5145 56.721 18.6656 60.5504 22.4612 63.5744C24.7794 65.4535 27.3648 67.0089 30.0759 68.28C32.787 69.5591 35.6553 70.5064 38.5943 71.1144C41.5254 71.7302 44.5272 72.0143 47.5055 71.8958C50.4759 71.7853 53.4385 71.3356 56.2361 70.4355C57.7842 69.9854 59.2379 69.2904 60.6839 68.6035C62.0984 67.8455 63.505 67.0875 64.8566 66.2032L64.8095 66.2349C67.5756 64.2926 69.9802 61.845 72.0548 59.1764C74.0194 56.6498 75.6382 53.7915 76.7698 50.7597C77.9014 47.7278 78.53 44.5225 78.585 41.3564C78.6322 38.1903 78.1057 35.0559 77.0291 32.1741C75.9211 29.2922 74.3022 26.6549 72.3062 24.3731C72.0076 24.0178 71.5204 23.5917 71.0097 23.1101Z" fill="#EE7538"/>
</svg>
