<svg width="687" height="4" viewBox="0 0 687 4" fill="none" xmlns="http://www.w3.org/2000/svg">
<path d="M686.668 1.45242C686.462 1.37889 686.206 1.31763 685.915 1.27217C685.819 1.25649 685.719 1.24309 685.616 1.23211C685.481 1.21814 685.343 1.20611 685.203 1.19607C684.862 1.17203 684.606 1.16 684.364 1.14799C682.53 1.0839 680.937 1.06788 679.273 1.03984L674.352 0.987765L664.539 0.919677L644.955 0.847566L605.802 0.779477L527.481 0.739419H449.175H321.56C279.022 0.739419 236.484 0.739417 193.96 0.775468H178.643C179.328 0.684085 180.065 0.627155 180.819 0.607239C196.136 0.0825024 184.048 -0.0737178 138.295 0.0304284C128.34 0.0544621 117.787 0.0304284 107.618 0.0304284C84.0525 0.0104002 44.4157 0.0304284 20.6223 0.0304284C17.0241 0.0304284 13.3832 0.0544557 9.69973 0.0865007C7.85087 0.0865007 6.002 0.118551 4.01092 0.154602H3.27139L2.41806 0.186641C2.21679 0.193834 2.0173 0.204543 1.82074 0.218693H1.69274L1.45097 0.242726C1.2895 0.265553 1.1328 0.290964 0.981643 0.318834C0.786585 0.357936 0.613921 0.405218 0.469649 0.459033C0.171147 0.568235 0.00646109 0.701754 0.000319516 0.839559C-0.00891413 1.00097 0.182237 1.15824 0.540764 1.28419C0.683326 1.32835 0.840457 1.36858 1.01007 1.40435L1.28029 1.45242L1.46519 1.47645L1.84919 1.5125C2.19154 1.53435 2.53822 1.55041 2.88739 1.56058C3.9256 1.59262 4.85003 1.60463 5.7318 1.61665C13.2268 1.70878 20.6792 1.7288 28.0746 1.74883L45.4682 1.7929L40.8602 1.82094L37.1483 1.861H32.6968V2.0052H32.3412L31.9146 2.04525C31.7199 2.0669 31.5377 2.0966 31.3741 2.13338C31.0443 2.2043 30.7927 2.30015 30.6488 2.40977C30.5343 2.50223 30.4966 2.60085 30.5385 2.69806C30.5804 2.79528 30.7008 2.88849 30.8906 2.97055L31.7012 3.22691H33.4221V3.29501C33.4221 3.33907 33.4221 3.29501 33.4221 3.31904H33.4932H33.9341L34.9723 3.29501L37.0914 3.26297H37.5465C144.425 3.54737 251.289 3.34307 358.267 3.21489H383.028C380.582 3.295 379.188 3.38313 379.003 3.48327C378.15 3.93591 420.546 3.9359 445.477 3.95593L505.323 4H535.19C540.177 4 545.173 4 550.18 4C552.683 4 555.186 4 557.717 3.96395C558.983 3.96395 560.234 3.93992 561.571 3.91188L562.652 3.88383L563.036 3.86381H563.349C563.605 3.76367 563.491 4.03204 565.027 3.44321C565.015 3.24157 564.915 3.04113 564.729 2.84638L607.494 2.82634L646.591 2.78229L666.16 2.73021L675.973 2.67414L680.908 2.62207C681.733 2.62207 682.558 2.59803 683.426 2.574C683.947 2.56504 684.465 2.54495 684.976 2.51391H685.189L685.502 2.47786C685.842 2.43809 686.141 2.3747 686.37 2.2936C687.365 2.2896 686.953 1.25614 686.668 1.45242Z" fill="#9654F4"/>
</svg>
