<svg width="29" height="36" viewBox="0 0 29 36" fill="none" xmlns="http://www.w3.org/2000/svg">
<path fill-rule="evenodd" clip-rule="evenodd" d="M16.9048 17.1893L16.905 17.187C16.3731 17.335 15.834 17.4608 15.2938 17.5868L15.2937 17.5868C14.9273 17.6723 14.5604 17.7579 14.1949 17.8506L14.2112 17.9118C14.2723 18.1391 14.3332 18.3654 14.2257 18.5822C14.2354 18.7013 14.2515 18.8212 14.2676 18.941C14.2982 19.1692 14.3288 19.3973 14.3153 19.6195C14.2896 19.9657 14.276 20.3163 14.2665 20.668C14.6651 20.5646 15.0629 20.4781 15.4595 20.4406C15.4759 20.4406 15.4923 20.422 15.5109 20.4009C15.5316 20.3773 15.5551 20.3506 15.5843 20.3433C15.6647 20.3236 15.8106 20.2958 15.9905 20.2615C16.1939 20.2226 16.4409 20.1755 16.6859 20.1226C16.6912 20.0247 16.6958 19.9267 16.6996 19.8287C16.7302 18.9475 16.8175 18.0685 16.9048 17.1893ZM21.4737 19.3355C21.4883 19.132 21.5014 18.9275 21.5145 18.7229C21.5468 18.2194 21.5792 17.7149 21.6348 17.2205C21.6591 16.9818 21.6357 16.7362 21.6124 16.491V16.491V16.491C21.6027 16.3882 21.5929 16.2856 21.5867 16.1835C21.6776 16.0186 21.6649 15.8442 21.6295 15.6682C21.7388 15.6098 21.847 15.5479 21.954 15.4821C22.6358 15.0654 23.42 14.995 24.2028 14.9246L24.2028 14.9246C24.4784 14.8998 24.7539 14.8751 25.0247 14.8352C25.4544 14.7726 28.5042 13.3468 28.0537 11.775C27.6711 10.4527 24.974 10.7053 24.1392 10.7835C24.0212 10.7946 23.9405 10.8021 23.9087 10.8013C23.2019 10.7864 22.5229 10.8589 21.8609 10.9837C22.0398 9.26884 22.2435 7.55885 22.4527 5.84885C22.4751 5.64792 22.5056 5.4173 22.5388 5.16631C22.7826 3.32353 23.1716 0.382453 21.5793 0.0274129C19.7148 -0.375984 18.5295 3.79709 18.7236 4.37437C18.7612 4.48768 18.6853 4.5896 18.614 4.68528L18.5919 4.71517C18.4275 4.9435 18.3381 5.33957 18.2764 5.61328L18.2592 5.68888C18.2172 5.85394 18.2565 6.04027 18.295 6.22281C18.3327 6.40179 18.3697 6.57713 18.3285 6.7252C18.1991 7.20465 18.0336 7.68007 17.8678 8.15607C17.5984 8.92986 17.3284 9.70518 17.2125 10.5018C17.128 11.0872 17.1025 11.6812 17.098 12.2779C16.4743 12.3662 15.8461 12.5449 15.2174 12.7238L15.2173 12.7239C14.9297 12.8057 14.6419 12.8876 14.3545 12.9609C14.476 11.3525 14.6255 9.74801 14.7797 8.14353C14.798 7.91954 14.8258 7.65906 14.8562 7.3748L14.8562 7.37479C15.056 5.50544 15.3657 2.60728 13.7954 2.28732C12.8597 2.10648 12.1111 3.06629 11.619 4.15825C11.1407 5.2502 10.9189 6.46039 11.0159 6.74555C11.0538 6.85956 10.9825 6.96203 10.9118 7.06348L10.8912 7.09331C10.7436 7.31245 10.6664 7.67787 10.6082 7.95332C10.5981 8.00133 10.5885 8.0466 10.5792 8.08789C10.5406 8.2571 10.5856 8.44595 10.6295 8.63002C10.6723 8.80911 10.7139 8.98367 10.6763 9.13116C10.5603 9.60983 10.4116 10.0847 10.2628 10.5599L10.2628 10.56C10.0116 11.3622 9.76005 12.1658 9.66429 12.9913C9.61364 13.453 9.59833 13.9186 9.60096 14.3859L9.49824 14.404C7.91788 14.6961 6.33057 14.9117 4.75021 15.023C4.52876 15.0408 4.26414 15.0529 3.97491 15.0661L3.97484 15.0661C3.3588 15.0943 2.63105 15.1276 1.97071 15.2317C1.00031 15.3986 0.154672 15.7464 0.0160436 16.6783C-0.129517 17.6103 0.736911 18.3128 1.74197 18.6814C2.7401 19.064 3.84219 19.0918 4.07786 18.9596C4.1795 18.9052 4.28777 18.9705 4.3897 19.0319L4.39671 19.0361C4.60686 19.1474 4.93499 19.1601 5.18238 19.1696C5.22874 19.1714 5.27227 19.173 5.31165 19.1752C5.46586 19.1824 5.62564 19.1077 5.78138 19.0349C5.92665 18.9669 6.06841 18.9006 6.19887 18.904C6.58621 18.9273 6.9782 18.9762 7.37147 19.0254L7.37155 19.0254C8.12796 19.1199 8.8891 19.215 9.63095 19.129C9.61984 19.3302 9.60807 19.5314 9.5963 19.7325V19.7326L9.5963 19.7326C9.54642 20.5851 9.49657 21.4372 9.49719 22.2929C9.39699 22.3155 9.2967 22.3376 9.19646 22.3597C8.98221 22.4068 8.76821 22.4539 8.55584 22.5063L4.26529 23.5565C4.13751 23.5888 3.99253 23.6224 3.83555 23.6588C2.46824 23.976 0.190436 24.5044 0.43914 26.1577C0.723328 28.0495 4.01575 27.8896 4.36233 27.5418C4.43188 27.4784 4.52451 27.5191 4.61391 27.5584C4.6225 27.5622 4.63107 27.566 4.63958 27.5696C4.84785 27.6583 5.1538 27.6259 5.36386 27.6036C5.3845 27.6014 5.40422 27.5993 5.42283 27.5975C5.5502 27.5836 5.6673 27.4926 5.7818 27.4037C5.89785 27.3135 6.01121 27.2254 6.12984 27.2219C6.5109 27.2058 6.90015 27.2258 7.28972 27.2457C7.91349 27.2777 8.53808 27.3096 9.13115 27.1941C9.25818 27.1697 9.38415 27.1405 9.50924 27.1074C9.54224 27.3656 9.58608 27.6239 9.6435 27.8822C9.84485 28.7813 9.70622 29.684 9.56744 30.5878C9.51512 30.9285 9.46278 31.2693 9.42863 31.6101C9.39397 31.8675 9.53953 32.9872 9.89303 34.0305C10.2535 35.0738 10.8288 36.0336 11.6467 35.9988C12.4299 35.964 12.8944 34.9277 13.1716 33.8775C13.3821 33.1182 13.4911 32.3444 13.5511 31.9187L13.5511 31.9187L13.5511 31.9187C13.5741 31.7556 13.5898 31.6436 13.6014 31.6032C14.066 29.7931 14.0591 27.9965 14.0522 26.1868L14.0519 26.1086C14.048 25.959 14.0492 25.7938 14.0539 25.6218C14.0697 25.6181 14.0854 25.6145 14.1011 25.6108C14.7059 25.4691 15.31 25.3276 15.9032 25.1423C16.1203 25.0743 16.3397 25.0145 16.56 24.9584C16.5708 25.0335 16.5826 25.1088 16.5956 25.1841C16.7518 26.0789 16.5638 26.9591 16.3749 27.8432C16.3039 28.1754 16.2328 28.5082 16.1798 28.8425C16.0896 29.3502 16.4986 33.2868 18.1414 33.3077C19.4646 33.3255 20.0578 30.4386 20.2686 29.4129L20.2686 29.4128L20.2686 29.4127C20.3051 29.235 20.3302 29.1131 20.3455 29.072C20.9139 27.2776 21.004 25.4623 21.0803 23.647C21.0817 23.5926 21.0839 23.5362 21.0868 23.4781C21.3085 23.4559 21.5336 23.445 21.759 23.4341C22.0077 23.422 22.2567 23.41 22.5019 23.3826C22.897 23.3479 25.6072 22.0403 25.1428 20.4615C24.7625 19.1534 22.4116 19.2849 21.6592 19.3269C21.5764 19.3316 21.513 19.3351 21.4737 19.3355Z" fill="#EE7538"/>
</svg>
