<svg width="131" height="9" viewBox="0 0 131 9" fill="none" xmlns="http://www.w3.org/2000/svg">
<path fill-rule="evenodd" clip-rule="evenodd" d="M89.3136 0.0405573C88.2236 0.0292201 87.3448 0.0200806 86.8356 0.0175194C86.6301 0.0175194 86.4344 0.0364269 86.2577 0.0534975C86.1123 0.0675448 85.9797 0.0803483 85.8652 0.0803483C81.672 -0.0191466 77.2366 -0.0041434 72.7989 0.010868C70.4317 0.0188755 68.0637 0.0268853 65.7315 0.0175194C64.4827 0.0111864 63.2324 0.0584821 61.9817 0.105794C61.4671 0.125261 60.9524 0.14473 60.4377 0.160468C59.2889 0.0700594 58.1495 0.143992 57.0141 0.217668C56.4761 0.252578 55.939 0.28743 55.4022 0.304714C50.8913 0.450444 46.3709 0.444606 41.8514 0.438769C40.2477 0.436698 38.6442 0.434627 37.0412 0.439328C34.1075 0.449885 31.1734 0.456563 28.2393 0.463241C21.1968 0.479269 14.1537 0.495299 7.11208 0.564986C6.60497 0.569464 6.09878 0.54209 5.59406 0.514795C4.0761 0.432705 2.57143 0.351333 1.095 1.13935C1.08173 1.14383 1.06181 1.15281 1.0419 1.16179C1.02199 1.17077 1.00208 1.17975 0.988802 1.18424C0.551739 1.36558 0.512093 1.64871 0.472403 1.93216C0.453165 2.06955 0.433917 2.207 0.369403 2.33299C-0.530211 4.07406 0.180635 4.62151 2.86178 4.37022C3.35346 4.32488 3.87022 4.37496 4.37688 4.42406C4.47202 4.43329 4.5668 4.44247 4.661 4.45098C5.78482 4.56058 7.53425 4.5869 8.89859 4.60743C9.21007 4.61212 9.50148 4.6165 9.76079 4.6215C10.6051 4.635 11.4917 4.57182 12.3595 4.50996C13.2228 4.44843 14.0677 4.38822 14.834 4.40612C17.3896 4.46934 19.9448 4.56967 22.4999 4.67C26.4737 4.82604 30.4473 4.98206 34.422 4.99845C38.7447 5.01383 43.0674 4.91202 47.3907 4.8102C50.634 4.73381 53.8776 4.65742 57.1218 4.63049C61.3747 4.5926 65.6276 4.6022 69.8806 4.61181C73.6858 4.6204 77.4911 4.62899 81.2963 4.60357C84.1991 4.58324 87.1015 4.59391 90.0042 4.60458C96.0737 4.6269 102.144 4.64922 108.22 4.38816C112.75 4.18955 117.313 4.34745 121.873 4.5052C123.494 4.5613 125.115 4.61739 126.734 4.65741C129.283 4.72023 130.946 3.80482 130.999 2.21631C131.046 0.796325 128.898 0.690161 127.42 0.617146C127.311 0.611711 127.204 0.60646 127.103 0.600864C117.75 0.0893109 108.37 0.0713638 98.9937 0.0982877C96.0976 0.111114 92.0431 0.0689459 89.3136 0.0405573ZM65.0944 6.46414C62.5283 6.49463 58.5228 6.48592 57.3931 6.48157C57.2636 6.48157 57.1402 6.49207 57.029 6.50154C56.9376 6.50932 56.8544 6.51641 56.7825 6.51641C54.2989 6.48456 51.6818 6.49314 49.0551 6.50175C47.3706 6.50727 45.6823 6.5128 44.0228 6.5077C43.2759 6.5048 42.5278 6.5251 41.7792 6.54541C41.4088 6.55546 41.0384 6.56552 40.668 6.57276C39.9323 6.52545 39.2036 6.56137 38.4779 6.59713C38.143 6.61364 37.8087 6.63012 37.4748 6.63836C34.949 6.69801 32.4182 6.70209 29.8864 6.70616C28.5363 6.70834 27.1859 6.71051 25.8358 6.72112C19.509 6.76467 13.1822 6.83 6.85838 7.03036C6.53727 7.04121 6.21652 7.03665 5.89673 7.03211C4.93288 7.01841 3.97775 7.00484 3.04756 7.41365C3.03281 7.42236 3.00036 7.43542 2.98266 7.43978C2.70954 7.5333 2.68608 7.67193 2.66279 7.8096C2.65136 7.87711 2.63998 7.94439 2.59922 8.00601C2.04176 8.86405 2.496 9.12102 4.19199 8.95115C4.51983 8.9163 4.86632 8.9331 5.20452 8.9495C5.24666 8.95154 5.28868 8.95358 5.33051 8.95551C5.98881 8.98824 6.98357 8.9767 7.81162 8.9671C8.08547 8.96392 8.3411 8.96095 8.56028 8.95987C9.09899 8.95767 9.66397 8.91556 10.2166 8.87437C10.7593 8.83392 11.2901 8.79436 11.7723 8.79436C13.7544 8.79644 15.7358 8.8325 17.7168 8.86856C19.8719 8.90777 22.0265 8.94698 24.1811 8.94245C26.7269 8.93551 29.2727 8.88679 31.8189 8.83806C34.0665 8.79505 36.3145 8.75203 38.5631 8.73773C41.116 8.73556 43.6703 8.73229 46.2246 8.72902C48.7789 8.72575 51.3332 8.72249 53.8861 8.72031C55.3078 8.70833 56.7296 8.7037 58.1515 8.69907C62.4169 8.68519 66.6835 8.6713 70.9551 8.45897C73.4747 8.32922 76.0128 8.32369 78.5519 8.31816C79.9334 8.31515 81.3152 8.31214 82.6944 8.28911C84.3107 8.26734 85.3578 7.78387 85.3785 7.01294C85.3977 6.32853 84.0373 6.3219 83.1018 6.31734C83.0311 6.317 82.9629 6.31667 82.8979 6.31605C78.235 6.28178 73.5647 6.3473 68.8915 6.41285C67.626 6.43061 66.3603 6.44836 65.0944 6.46414Z" fill="#B78AF7"/>
</svg>
