<svg width="54" height="55" viewBox="0 0 54 55" fill="none" xmlns="http://www.w3.org/2000/svg">
    <path d="M19.4 22.304C20.7333 22.304 21.8 21.2198 21.8 19.902C21.8 18.5842 20.7167 17.5 19.4 17.5C18.0833 17.5 17 18.5842 17 19.902C17 21.2198 18.0833 22.304 19.4 22.304ZM24.0833 24.1222V37.5H28.2167V30.8945C28.2167 29.143 28.55 27.4583 30.7 27.4583C32.85 27.4583 32.85 29.46 32.85 30.9946V37.5H37V30.1606C37 26.5575 36.2333 23.7886 32.0333 23.7886C30.0167 23.7886 28.6667 24.8895 28.1167 25.9404H28.0667V24.1055H24.1L24.0833 24.1222ZM17.3333 24.1222H21.4833V37.5H17.3333V24.1222Z" fill="#ECECED"/>
</svg>
