<svg width="214" height="55" viewBox="0 0 214 55" fill="none" xmlns="http://www.w3.org/2000/svg">
    <g clip-path="url(#clip0_9147_36694)">
        <mask id="mask0_9147_36694" style="mask-type:luminance" maskUnits="userSpaceOnUse" x="-83" y="-86" width="233" height="228">
            <path d="M149.719 -85.6625H-82.208V141.701H149.719V-85.6625Z" fill="white"/>
        </mask>
        <g mask="url(#mask0_9147_36694)">
            <mask id="mask1_9147_36694" style="mask-type:luminance" maskUnits="userSpaceOnUse" x="-83" y="-86" width="233" height="228">
                <path d="M149.719 -85.6625H-82.208V141.701H149.719V-85.6625Z" fill="white"/>
            </mask>
            <g mask="url(#mask1_9147_36694)">
                <path d="M26.9141 6.91321H5.74658V48.8125H26.9141V6.91321Z" fill="#5900D9"/>
            </g>
            <mask id="mask2_9147_36694" style="mask-type:luminance" maskUnits="userSpaceOnUse" x="-83" y="-86" width="233" height="228">
                <path d="M149.719 -85.6625H-82.208V141.701H149.719V-85.6625Z" fill="white"/>
            </mask>
            <g mask="url(#mask2_9147_36694)">
                <path d="M54.2102 3.03265H28.6323V52.2997H54.2102V3.03265Z" fill="#5900D9"/>
            </g>
            <mask id="mask3_9147_36694" style="mask-type:luminance" maskUnits="userSpaceOnUse" x="-83" y="-86" width="233" height="228">
                <path d="M149.719 -85.6625H-82.208V141.701H149.719V-85.6625Z" fill="white"/>
            </mask>
            <g mask="url(#mask3_9147_36694)">
                <path d="M35.3802 12.249C39.7867 11.741 40.1763 17.9628 36.2802 18.3181C32.1075 18.6962 31.6088 12.6844 35.3802 12.249Z" fill="white"/>
            </g>
            <mask id="mask4_9147_36694" style="mask-type:luminance" maskUnits="userSpaceOnUse" x="-83" y="-86" width="233" height="228">
                <path d="M149.719 -85.6625H-82.208V141.701H149.719V-85.6625Z" fill="white"/>
            </mask>
            <g mask="url(#mask4_9147_36694)">
                <path d="M23.7 12.4476C26.2169 12.2069 30.1247 12.4055 29.5403 15.9232C28.8857 19.8726 22.3247 16.3128 21.2533 20.4264C19.4689 27.2708 32.7234 24.1618 36.6818 25.1701C46.3559 27.6337 45.3195 41.8267 35.7818 42.8847C33.4637 43.1406 24.3624 43.2323 22.2039 42.8847C19.2234 42.4035 19.1728 37.7705 22.3052 37.3045C25.9715 36.7621 31.9637 38.0187 35.3844 37.2052C37.8818 36.6132 38.6221 33.084 36.6818 31.4302C33.2338 28.493 23.1351 33.4889 17.6611 27.3701C12.7091 21.8319 16.2935 13.1503 23.7 12.4476Z" fill="white"/>
            </g>
        </g>
    </g>
    <path d="M76.712 18.7C78.824 18.7 80.56 19.132 81.92 19.996C83.28 20.844 83.976 22.108 84.008 23.788V24.076H79.04V23.98C79.04 23.5 78.864 23.1 78.512 22.78C78.16 22.46 77.624 22.3 76.904 22.3C76.2 22.3 75.656 22.404 75.272 22.612C74.904 22.82 74.72 23.076 74.72 23.38C74.72 23.812 74.976 24.132 75.488 24.34C76 24.548 76.824 24.764 77.96 24.988C79.288 25.26 80.376 25.548 81.224 25.852C82.088 26.14 82.84 26.62 83.48 27.292C84.12 27.964 84.448 28.876 84.464 30.028C84.464 31.98 83.8 33.428 82.472 34.372C81.16 35.316 79.4 35.788 77.192 35.788C74.616 35.788 72.608 35.356 71.168 34.492C69.744 33.628 69.032 32.1 69.032 29.908H74.048C74.048 30.74 74.264 31.3 74.696 31.588C75.128 31.86 75.8 31.996 76.712 31.996C77.384 31.996 77.936 31.924 78.368 31.78C78.816 31.636 79.04 31.34 79.04 30.892C79.04 30.492 78.792 30.196 78.296 30.004C77.816 29.796 77.024 29.58 75.92 29.356C74.576 29.068 73.464 28.772 72.584 28.468C71.704 28.148 70.936 27.628 70.28 26.908C69.624 26.188 69.296 25.212 69.296 23.98C69.296 22.172 69.992 20.844 71.384 19.996C72.792 19.132 74.568 18.7 76.712 18.7ZM100.28 18.988H106.856L100.928 25.78L106.976 35.5H100.712L97.2803 29.452L94.4003 31.804V35.5H89.0963V18.988H94.4003V26.044L100.28 18.988ZM111.329 35.5V18.988H116.633V35.5H111.329ZM122.417 18.988H127.721V31.276H136.193V35.5H122.417V18.988ZM140.424 18.988H145.728V31.276H154.2V35.5H140.424V18.988ZM165.392 31.54H173.24V35.5H157.232V33.796L164.888 22.948H157.808V18.988H173.048V20.692L165.392 31.54ZM184.713 31.54H192.561V35.5H176.553V33.796L184.209 22.948H177.129V18.988H192.369V20.692L184.713 31.54ZM207.321 35.5H202.017V29.092L195.465 18.988H201.561L204.729 24.484H204.825L207.993 18.988H213.777L207.321 29.092V35.5Z" fill="white"/>
    <defs>
        <clipPath id="clip0_9147_36694">
            <rect width="60" height="55" fill="white"/>
        </clipPath>
    </defs>
</svg>
