<svg width="48" height="48" viewBox="0 0 48 48" fill="none" xmlns="http://www.w3.org/2000/svg">
<g clip-path="url(#clip0_8663_23452)">
<g filter="url(#filter0_d_8663_23452)">
<path d="M17.3367 43.2879C17.0746 42.985 16.4031 42.7704 16.0608 42.5679C15.1084 42.0052 14.1855 41.3942 13.2956 40.7371C11.6064 39.4891 10.2994 38.1298 9.38115 36.2059C7.87779 33.0552 7.19475 29.3899 7.85811 25.9435C8.77827 21.1589 12.4584 17.7082 14.4821 16.512C16.5058 15.3159 21.2472 14.0736 21.9836 12.9696C22.7199 11.8656 23.8234 10.1175 24.0538 9.10514C22.3512 9.42722 20.9251 9.51938 19.8672 9.10514C18.8093 8.6909 17.2675 6.50594 18.8088 4.96466C20.3501 3.42338 22.0752 4.13666 23.2248 4.73474C24.3744 5.33282 24.5592 6.0917 25.1343 6.0917C25.646 6.0917 26.2004 5.52098 26.6223 5.28434C28.1055 4.45202 30.1791 4.51634 31.8389 4.62866C34.0796 4.78178 36.3764 5.23202 38.4716 6.04802C38.8976 6.20831 39.3116 6.39887 39.7104 6.61826C39.8811 6.71306 40.0455 6.81888 40.2024 6.93506C40.5144 7.17026 40.4016 7.5365 40.165 7.7789C39.9116 8.03858 39.5252 8.15234 39.1791 8.0189C38.9674 7.93634 38.7994 7.77458 38.6693 7.59218C38.6256 7.53074 38.3184 6.9725 38.3127 6.97586C37.4612 7.45106 36.5967 7.88018 35.8263 8.4869C34.8663 9.24386 32.5143 12.6173 32.0228 14.4389C31.5312 16.2605 31.2475 19.5893 30.5712 20.88C29.8949 22.1707 29.6717 22.128 29.2013 22.5975C29.3093 22.4895 29.1653 21.7243 29.1533 21.576C29.1192 21.192 29.0856 20.8008 29.0261 20.4197C28.8907 19.5557 28.5207 18.7426 28.0426 18.0197C27.5986 17.3477 27.0615 16.7434 26.5037 16.164C26.2464 15.8962 25.993 15.6125 25.7074 15.3749C25.6397 15.3187 24.7676 14.8219 24.7656 14.8498C24.673 16.2154 24.613 17.5987 24.1551 18.9053C23.666 20.3016 22.8591 21.5707 21.9375 22.7218C20.6583 24.3231 19.1636 25.9935 17.5479 27.2616C15.8371 28.6056 14.5032 30.3783 13.8965 32.4821C13.3473 34.4159 13.4018 36.4713 14.053 38.3731C14.714 40.3013 16.0248 41.7715 17.3367 43.2879Z" fill="#EE7538"/>
</g>
<path d="M33.5312 14.7486C33.92 14.6377 34.3266 14.3392 34.6352 14.0896C35.0432 13.7603 35.2866 13.2865 35.5333 12.8348C35.7926 12.3601 36.0812 11.9019 36.3973 11.463C37.0306 10.5831 37.7691 9.78393 38.5962 9.08317C38.7997 8.91085 39.3128 8.40397 39.633 8.53789C40.2925 8.81389 39.9167 9.95629 39.633 10.24C39.3493 10.5236 38.7916 10.6081 38.3466 10.6081C38.3466 11.1294 37.833 11.9497 37.3189 12.4638C36.8048 12.9779 35.2487 14.043 34.712 14.3041C34.33 14.4814 33.9353 14.63 33.5312 14.7486Z" fill="#EE7538"/>
<g filter="url(#filter1_d_8663_23452)">
<path d="M21.4722 43.9626C21.4722 43.9626 17.1378 41.7848 16.8642 37.7058C16.5906 33.6267 17.9682 30.9887 20.7287 28.2282C23.4892 25.4677 24.0407 25.1 24.6546 23.9648C25.2686 22.8296 26.2799 20.3456 26.2799 18.8125C27.3839 20.4992 28.0895 23.0144 28.2738 24.7645C28.4582 26.5146 28.6415 29.0888 25.6972 32.2789C22.7529 35.469 21.6988 37.0943 21.4732 38.9029C21.2476 40.7115 21.4722 43.9626 21.4722 43.9626Z" fill="#EE7538"/>
</g>
<g filter="url(#filter2_d_8663_23452)">
<path d="M24.2225 43.9628C24.2225 43.9628 23.333 40.405 24.2225 38.4725C25.1119 36.54 28.3322 34.117 29.2677 32.3842C30.2033 30.6514 31.614 28.4736 31.1234 25.9282C32.3349 24.7167 33.1169 23.5666 33.3626 21.8482C33.6084 20.1298 33.761 19.5173 33.761 18.5972C34.4052 19.7938 36.2455 23.568 36.2455 27.552C36.2455 31.536 35.8466 35.1279 33.7015 38.0108C31.5564 40.8936 28.1815 42.7959 26.7084 43.2864C25.2353 43.777 24.2225 43.9628 24.2225 43.9628Z" fill="#EE7538"/>
</g>
<path d="M33.1328 33.6567C33.3282 33.3207 33.2288 32.8205 33.2068 32.4495C33.1766 31.947 33.1097 31.4475 33.0066 30.9548C32.6903 29.4461 31.9909 28.1228 31.221 26.8028L31.125 25.9282C31.125 25.9282 32.565 24.4767 32.9874 23.293C33.4098 22.1093 33.7626 19.3801 33.7626 18.5977C34.1768 19.4137 35.1671 21.7474 35.3466 22.3378C35.5261 22.9282 35.8698 24.4407 35.5285 26.5417C35.1872 28.6426 33.8533 32.4145 33.1328 33.6567Z" fill="#FCA728"/>
<path d="M20.0975 37.9514C20.0975 37.9514 20.0361 35.9422 20.757 34.8074C21.478 33.6727 22.9041 32.3383 24.1612 31.3879C25.4183 30.4375 26.3313 29.8313 27.0599 28.9495C27.7885 28.0678 28.1495 27.3852 28.2407 26.4055C28.3319 25.4258 28.1961 23.899 27.9714 23.0412C27.7468 22.1834 26.9217 19.3975 26.2468 18.7212C26.1921 19.6937 25.8887 21.1414 25.4865 22.1105C25.0842 23.0796 24.4189 24.5585 23.5665 25.4114C22.9425 26.0354 22.2964 26.6359 21.6637 27.2498C20.8727 28.0178 20.0418 28.7686 19.329 29.611C18.3004 30.8273 17.4609 32.287 17.0524 33.835C16.7887 34.8528 16.6807 35.9048 16.7322 36.955C16.7557 37.4738 16.7937 37.9956 16.9084 38.502C17.0447 39.1044 17.2381 39.366 17.2381 39.4342C17.2391 39.4313 18.5793 38.1967 20.0975 37.9514Z" fill="#FCA728"/>
<path d="M24 42.506C24 42.506 24.192 40.6196 25.0968 39.1167C26.0016 37.6139 28.164 36.0649 28.7448 35.6814C29.3256 35.2979 30.1555 34.5001 30.7536 33.6567C30.4176 36.3563 30.2016 37.1079 29.6803 37.8438C29.159 38.5796 27.8563 39.362 28.1006 40.1286C28.345 40.8951 29.0064 41.5556 29.3779 41.9271C28.6282 42.3841 27.1099 43.1651 26.5368 43.3441C25.9637 43.5231 24.2227 43.9628 24.2227 43.9628L24 42.506Z" fill="#D31772"/>
<path d="M21.3934 39.915C21.3196 39.2141 21.3093 38.5081 21.3627 37.8054C21.4404 36.795 21.812 35.8326 22.2862 34.9422C23.1214 33.373 24.4126 32.2542 25.6462 31.0196C26.4056 30.2602 26.9038 29.7466 27.2412 29.2561C27.5787 28.7655 28.0961 27.7546 28.267 27.4014C28.1268 28.0897 27.7664 29.2767 27.462 29.8177C27.1577 30.3586 26.4612 31.4017 26.1099 31.8044C25.7585 32.2071 24.3104 33.7902 23.8251 34.3998C23.3398 35.0094 22.2036 36.6049 21.9766 37.1598C21.7496 37.7146 21.3113 39.2415 21.3934 39.915Z" fill="#D31772"/>
<path d="M30.8639 6.88136C30.73 6.95816 30.009 7.39112 29.8823 8.2772C29.8698 8.36552 29.7517 9.30392 30.4496 9.90248C31.162 10.5135 32.096 10.2327 32.2736 10.1785C32.386 10.1449 33.6781 9.73304 33.7842 8.58392C33.8572 7.7972 33.3335 7.11176 32.7186 6.80504C31.8176 6.35528 30.9474 6.83336 30.8639 6.88136Z" fill="#1D1D1D"/>
<path d="M31.6903 7.84774C31.5267 7.88418 31.3773 7.96737 31.2602 8.0872C31.1431 8.20702 31.0634 8.3583 31.0307 8.52262C30.9549 8.91382 31.1747 9.26902 31.4627 9.44278C31.721 9.60022 32.1107 9.65734 32.4136 9.44278C32.7496 9.20278 32.825 8.73622 32.6743 8.38438C32.5154 8.01958 32.1079 7.7599 31.6903 7.84774Z" fill="#EE7538"/>
</g>
<defs>
<filter id="filter0_d_8663_23452" x="7.60449" y="4.0376" width="40.7891" height="47.2505" filterUnits="userSpaceOnUse" color-interpolation-filters="sRGB">
<feFlood flood-opacity="0" result="BackgroundImageFix"/>
<feColorMatrix in="SourceAlpha" type="matrix" values="0 0 0 0 0 0 0 0 0 0 0 0 0 0 0 0 0 0 127 0" result="hardAlpha"/>
<feOffset dx="4" dy="4"/>
<feGaussianBlur stdDeviation="2"/>
<feComposite in2="hardAlpha" operator="out"/>
<feColorMatrix type="matrix" values="0 0 0 0 0.0862745 0 0 0 0 0.0862745 0 0 0 0 0.0862745 0 0 0 0.4 0"/>
<feBlend mode="normal" in2="BackgroundImageFix" result="effect1_dropShadow_8663_23452"/>
<feBlend mode="normal" in="SourceGraphic" in2="effect1_dropShadow_8663_23452" result="shape"/>
</filter>
<filter id="filter1_d_8663_23452" x="16.8301" y="18.8125" width="19.5332" height="33.1499" filterUnits="userSpaceOnUse" color-interpolation-filters="sRGB">
<feFlood flood-opacity="0" result="BackgroundImageFix"/>
<feColorMatrix in="SourceAlpha" type="matrix" values="0 0 0 0 0 0 0 0 0 0 0 0 0 0 0 0 0 0 127 0" result="hardAlpha"/>
<feOffset dx="4" dy="4"/>
<feGaussianBlur stdDeviation="2"/>
<feComposite in2="hardAlpha" operator="out"/>
<feColorMatrix type="matrix" values="0 0 0 0 0.0862745 0 0 0 0 0.0862745 0 0 0 0 0.0862745 0 0 0 0.4 0"/>
<feBlend mode="normal" in2="BackgroundImageFix" result="effect1_dropShadow_8663_23452"/>
<feBlend mode="normal" in="SourceGraphic" in2="effect1_dropShadow_8663_23452" result="shape"/>
</filter>
<filter id="filter2_d_8663_23452" x="23.8271" y="18.5972" width="20.418" height="33.3657" filterUnits="userSpaceOnUse" color-interpolation-filters="sRGB">
<feFlood flood-opacity="0" result="BackgroundImageFix"/>
<feColorMatrix in="SourceAlpha" type="matrix" values="0 0 0 0 0 0 0 0 0 0 0 0 0 0 0 0 0 0 127 0" result="hardAlpha"/>
<feOffset dx="4" dy="4"/>
<feGaussianBlur stdDeviation="2"/>
<feComposite in2="hardAlpha" operator="out"/>
<feColorMatrix type="matrix" values="0 0 0 0 0.0862745 0 0 0 0 0.0862745 0 0 0 0 0.0862745 0 0 0 0.4 0"/>
<feBlend mode="normal" in2="BackgroundImageFix" result="effect1_dropShadow_8663_23452"/>
<feBlend mode="normal" in="SourceGraphic" in2="effect1_dropShadow_8663_23452" result="shape"/>
</filter>
<clipPath id="clip0_8663_23452">
<rect width="48" height="48" fill="white"/>
</clipPath>
</defs>
</svg>
