<svg width="680" height="196" viewBox="0 0 680 196" fill="none" xmlns="http://www.w3.org/2000/svg">
    <g clip-path="url(#clip0_7480_22207)">
        <path d="M166.417 144.308C162.638 143.083 157.851 143.837 155.906 147.585C155.059 149.217 152.551 147.807 153.394 146.182C155.029 143.032 158.19 141.332 161.672 140.981C171.485 139.99 176.982 149.297 181.435 156.448C184.013 160.588 186.992 164.914 191.654 166.896C195.134 168.376 199.013 168.259 202.573 167.212C222.046 161.479 223.952 137.579 238.559 126.312C244.48 121.744 252.994 118.774 260.446 121.231C264.424 122.543 267.285 125.256 269.557 128.691C272.077 132.502 274.193 136.171 278.472 138.249C285.941 141.877 295.416 139.875 302.204 135.801C310.791 130.647 316.967 122.456 323.964 115.496C329.674 109.816 336.339 104.76 344.228 102.528C351.848 100.373 359.707 101.655 366.037 106.543C378.912 116.486 382.678 135.914 399.974 140.321C418.24 144.976 435.188 133.357 449.008 123.22C456.654 117.612 464.379 111.82 473.196 108.121C480.786 104.938 489.256 103.495 497.485 104.601C505.601 105.692 513.034 109.736 517.66 116.587C522.233 123.361 523.629 131.614 525.703 139.338C527.968 147.774 531.637 155.301 538.142 161.347C539.92 163 539.629 165.9 538.142 165.5C536.655 165.1 532.522 159.806 530.641 157.209C525.562 150.371 523.506 142.377 521.458 134.286C519.458 126.386 517.037 118.093 510.349 112.781C503.731 107.524 494.764 106.4 486.631 107.422C467.709 109.8 453.869 124.294 438.523 134.037C425.078 142.573 406.106 148.851 391.197 139.701C384.24 135.432 379.712 128.449 375.247 121.844L375.192 121.763C370.868 115.367 366.072 108.272 358.478 105.504C350.694 102.667 342.4 105.346 335.728 109.542C327.91 114.459 322.129 121.782 315.729 128.286C309.557 134.559 302.565 140.291 293.73 142.209C286.135 143.857 277.356 142.817 271.792 136.845C268.803 133.636 267.286 129.254 263.937 126.364C260.801 123.659 256.563 122.9 252.554 123.377C243.004 124.515 236.314 131.363 231.457 139.07C226.414 147.072 222.051 155.142 215.563 162.809C207.51 169.269 202.886 170.612 196.163 171.174C185.462 169.679 181.48 161.833 176.939 154.591C174.398 150.538 171.219 145.865 166.417 144.308Z" fill="#3E3E40"/>
        <path d="M242.475 117.723C245.115 113.841 250.402 112.835 254.283 115.474C258.165 118.114 259.172 123.401 256.532 127.283C253.892 131.165 248.606 132.172 244.724 129.532C240.842 126.892 239.835 121.605 242.475 117.723Z" fill="#FCA728" stroke="#252527"/>
        <path d="M505.116 107.735C506.168 106.188 508.274 105.787 509.82 106.839C511.366 107.89 511.768 109.996 510.716 111.543C509.664 113.089 507.559 113.49 506.012 112.438C504.466 111.387 504.065 109.281 505.116 107.735Z" fill="#FCA728" stroke="#252527"/>
        <path d="M371.878 115.986C373.908 113.001 377.973 112.227 380.957 114.257C383.942 116.287 384.716 120.352 382.686 123.336C380.657 126.321 376.592 127.095 373.607 125.065C370.622 123.036 369.848 118.971 371.878 115.986Z" fill="#FCA728" stroke="#252527"/>
        <g clip-path="url(#clip1_7480_22207)">
            <path d="M46.7016 102.34L33.3262 90.4229C31.3059 88.6343 31.1204 85.549 32.9119 83.532C34.7034 81.5149 37.7936 81.3297 39.8139 83.1183L39.8369 83.1389L53.2124 95.0561C55.2213 96.8574 55.3872 99.9437 53.583 101.949C51.7869 103.946 48.7129 104.121 46.7016 102.34Z" fill="#252527"/>
            <path d="M140.705 172.025C140.66 172.025 140.613 172.024 140.567 172.024L18.9763 170.606C12.0654 170.517 6.49894 164.844 6.54755 157.95C-2.03658 129.52 -5.81883 107.132 -5.71541 85.3657C-5.60743 62.6474 -1.11169 39.5378 8.43212 12.6431C8.543 5.79512 14.167 0.281128 21.0186 0.281128C21.0629 0.281128 21.1073 0.281405 21.1516 0.281817L142.743 1.70209C149.67 1.79128 155.244 7.4885 155.168 14.4021L154.922 35.4592L154.74 35.4613L153.288 159.618C153.199 166.487 147.568 172.025 140.705 172.025ZM21.0185 0.845817C14.4595 0.845817 9.07918 6.13578 8.99702 12.6973L8.99647 12.744L8.98073 12.788C-9.24469 64.126 -9.73655 102.08 7.10154 157.828L7.11397 157.869L7.11356 157.912C7.04465 164.515 12.3693 169.956 18.9832 170.042L140.574 171.459C140.618 171.46 140.662 171.46 140.706 171.46C147.259 171.46 152.637 166.172 152.722 159.611L154.063 45.0245L154.069 44.4602L154.224 31.3581L154.404 31.3565L154.603 14.3957C154.675 7.79317 149.351 2.35197 142.736 2.26677L21.1454 0.846506C21.1034 0.846094 21.0603 0.845817 21.0185 0.845817Z" fill="#3E3E40"/>
            <path d="M129.904 121.148L129.895 121.713H60.4404V121.148H129.904Z" fill="#252527"/>
            <path d="M130.042 109.148L130.036 109.713H60.4404V109.148H130.042Z" fill="#252527"/>
            <path d="M130.184 97.1487L130.178 97.7134H60.4404V97.1487H130.184Z" fill="#252527"/>
            <path d="M129.748 134.249L129.742 134.813H58.8907V75.5493L59.4563 75.555V111.02C59.4563 114.651 60.2905 118.087 61.778 121.148C61.8713 121.337 61.9647 121.526 62.0637 121.713C65.938 129.161 73.7375 134.249 82.7247 134.249H129.748Z" fill="#252527"/>
            <path d="M31.4937 163.711C24.7089 163.624 19.2749 158.071 19.3465 151.297C3.18745 97.7987 2.17548 59.7545 21.2282 6.08144C21.2663 3.94543 21.8689 1.85746 22.9748 0.0287257L20.5821 0.000697377C13.7972 -0.0707358 8.23454 5.35458 8.1473 12.1285C-10.9055 65.8017 -9.89345 103.846 6.26556 157.344C6.19386 164.118 11.628 169.672 18.4128 169.758L140.004 171.178C144.401 171.214 148.48 168.896 150.692 165.102L31.4937 163.711Z" fill="#3E3E40"/>
            <path d="M37.9361 84.5641C37.5403 84.3022 37.1177 84.0704 36.6819 83.873C36.6908 83.7614 36.6952 83.6455 36.6952 83.5338C36.7175 82.4049 36.4862 81.276 36.0148 80.2416C36.077 81.1516 35.7879 82.0787 35.2187 82.8042C35.1208 82.9329 35.0141 83.0531 34.8985 83.169C34.8673 83.1991 34.8362 83.2291 34.805 83.2549C34.178 83.1175 33.5286 83.0531 32.8838 83.0617C32.1677 83.0746 31.4561 83.169 30.7489 83.3021C29.8639 83.4652 28.9833 83.6927 28.1027 83.8815C28.0493 83.8944 28.0004 83.903 27.947 83.9159C27.5423 82.8557 26.9063 81.8856 26.0791 81.0872C26.4749 81.9113 26.555 82.8771 26.297 83.7528C26.2525 83.9073 26.1992 84.0576 26.1325 84.2035C25.1718 84.2979 24.2112 84.2722 23.2905 84.0146C22.8992 83.9073 22.53 83.7614 22.1698 83.5897C20.8978 82.9887 19.7503 82.0959 18.4383 81.5593C17.7312 81.2675 16.984 81.0872 16.219 81.0142C15.5786 77.4729 15.7565 74.3309 17.7223 72.0602C17.7223 66.8792 22.0764 62.6769 27.4445 62.6769L31.9009 64.1706L36.4017 65.6816C38.5187 71.133 41.8855 75.932 37.9361 84.5641Z" fill="#1D1D1D"/>
            <path d="M54.2561 174.31L47.5836 184.867L45.1131 183.697L50.432 172.499L54.2561 174.31Z" fill="#D9AAA7" stroke="#252527" stroke-width="0.6"/>
            <path d="M51.8833 191.791L48.699 186.283L49.711 184.153L48.6578 183.728L45.3904 182.415L44.5902 182.092L40.3875 189.319L42.6253 190.377L44.0256 188.458L44.0439 191.05L49.9727 193.858C50.7096 194.206 51.5905 193.891 51.9383 193.158C52.1459 192.721 52.1254 192.21 51.8833 191.791Z" fill="#1D1D1D"/>
            <path d="M83.2063 129.401L90.7319 139.37L88.7614 141.263L80.1561 132.331L83.2063 129.401Z" fill="#D9AAA7" stroke="#252527" stroke-width="0.6"/>
            <path d="M98.7398 137.808L92.4535 138.831L90.8163 137.132L90.0449 137.964L87.6586 140.55L87.0722 141.183L92.3536 147.667L94.137 145.952L92.8354 143.965L95.2699 144.866L99.9996 140.324C100.587 139.76 100.603 138.825 100.04 138.241C99.7039 137.892 99.2184 137.731 98.7398 137.808Z" fill="#1D1D1D"/>
            <path d="M38.3974 122.969L26.5654 120.38L26.6448 123.925C26.6448 123.925 14.2952 133.327 25.689 142.391C37.0827 151.455 56.3644 152.318 56.3644 152.318L47.6 177.351L51.9822 179.077L69.2361 155.871C71.5594 151.71 70.9026 146.468 67.4416 143.162C66.7721 142.523 66.0052 141.959 65.1288 141.528C59.8701 138.938 45.8471 133.759 45.8471 133.759L38.8356 126.853L38.3974 122.969Z" fill="#1D1D1D"/>
            <path d="M37.7744 129.056L61.8237 113.543C64.5222 111.802 68.0369 112.111 70.3998 114.296L88.5128 134.331L83.7425 138.287L65.0951 125.1C65.0951 125.1 54.2535 137.408 51.2179 137.408C48.1822 137.408 37.7744 129.056 37.7744 129.056Z" fill="#1D1D1D"/>
            <path d="M38.5692 73.123C38.5692 77.1215 35.1078 80.3846 30.8103 80.3846C26.5127 80.3846 23.0513 77.1215 23.0513 73.123C23.0513 69.1246 26.5127 65.8615 30.8103 65.8615C35.1078 65.8615 38.5692 69.1246 38.5692 73.123Z" fill="#D9AAA7" stroke="#252527" stroke-width="0.4"/>
            <path d="M34.7429 71.258C34.6845 70.3988 34.4553 69.5479 34.0779 68.7587C34.1409 69.6301 33.8488 70.5181 33.2737 71.2128C33.2602 71.2292 33.2468 71.2415 33.2378 71.258C31.7528 71.9177 29.2492 71.5447 26.8308 71.258V63.0365H31.773C36.6255 61.5402 40.6197 64.7959 40.759 71.258C38.431 71.6438 36.2489 71.8551 34.7429 71.258Z" fill="#1D1D1D"/>
            <path d="M28.7806 61.4801C28.6213 60.9866 28.0139 60.7514 27.4964 60.8309C26.979 60.9103 26.5333 61.2227 26.1089 61.5262C26.5222 61.0812 26.3119 60.2961 25.806 59.9573C25.3001 59.6184 24.6239 59.6418 24.0399 59.8194C23.456 59.997 22.9241 60.3104 22.3537 60.5269C21.7834 60.7434 21.1331 60.8584 20.5682 60.6283C20.788 61.3126 21.2132 61.931 21.7759 62.3846C21.1104 62.2695 20.3891 62.6108 20.0621 63.1956C19.735 63.7805 19.8261 64.5663 20.2784 65.0628C20.7976 65.6327 21.6758 65.7662 22.4299 65.5874C23.1841 65.4085 23.8442 64.9687 24.48 64.5294C25.1158 64.0901 25.7614 63.6354 26.5055 63.4192L24.0598 64.9409C25.3089 64.426 26.5207 63.8229 27.6831 63.1376C27.9939 62.9544 28.3075 62.7599 28.5346 62.4813C28.7617 62.2027 28.8906 61.8211 28.7806 61.4801Z" fill="#1D1D1D"/>
            <path d="M16.0125 158.613C15.9741 157.359 17.0981 156.47 18.2472 156.24C19.7072 155.948 21.1977 156.699 22.4348 157.382C24.6455 158.603 27.2103 157.393 29.5724 158.875C33.0592 161.062 33.7795 157.785 33.5599 153.917C33.3979 151.064 34.09 148.262 34.2374 145.456C34.3793 142.753 35.1165 140.007 37.4115 138.328C38.375 137.623 39.5751 137.206 40.7714 137.453C42.0492 137.717 43.0699 138.634 44.3011 139.033C46.5922 139.776 49.0019 138.774 50.7201 137.246C52.7186 135.468 53.6944 132.968 54.3811 130.446C55.0932 127.832 55.5281 125.094 56.8336 122.686C57.9477 120.631 59.6977 118.734 62.1095 118.342C64.4727 117.958 66.737 119.114 68.7766 120.15C70.8758 121.216 73.0459 122.371 75.451 122.471C80.6049 122.684 84.5861 118.306 86.8196 114.143C89.369 109.392 90.8472 103.627 95.3765 100.268C97.3233 98.8241 99.7934 97.8161 102.253 98.2207C104.739 98.6296 106.555 100.43 108.206 102.189C109.897 103.991 111.576 105.767 113.867 106.805C116.115 107.823 118.627 108.205 121.076 107.882C122.259 107.726 123.391 107.403 124.485 106.931C124.985 106.715 124.553 105.985 124.057 106.199C121.657 107.235 118.925 107.414 116.393 106.791C113.849 106.165 111.821 104.744 110.025 102.885C108.38 101.182 106.834 99.2429 104.683 98.1487C102.506 97.0418 100.011 97.0699 97.765 97.963C95.4875 98.8686 93.5146 100.47 92.0185 102.396C90.2806 104.633 89.1248 107.255 87.9631 109.818C85.8633 114.45 83.1714 119.92 77.7994 121.36C72.7129 122.723 68.9495 118.229 64.2049 117.516C61.8723 117.165 59.6648 117.971 58.0131 119.635C56.303 121.357 55.3145 123.634 54.6615 125.935C53.8613 128.755 53.4493 131.774 51.98 134.355C50.8185 136.396 48.6672 138.288 46.2226 138.43C44.8223 138.511 43.7499 137.866 42.553 137.242C41.4739 136.681 40.3473 136.391 39.1345 136.628C36.8629 137.07 35.0981 139.074 34.2306 141.117C32.091 146.157 35.0374 152.632 30.8488 156.941C30.0833 157.729 29.1013 158.321 27.9926 158.442C26.5073 158.603 25.1185 157.913 23.8594 157.213C21.6845 156.003 18.9308 154.386 16.5471 156.064C15.7012 156.66 15.1319 157.559 15.1641 158.613C15.1808 159.157 16.0292 159.159 16.0125 158.613Z" fill="#252527"/>
            <path d="M102.939 97.431C102.939 98.6683 101.934 99.6721 100.694 99.6721C99.4531 99.6721 98.4484 98.6683 98.4484 97.431C98.4484 96.1937 99.4531 95.1899 100.694 95.1899C101.934 95.1899 102.939 96.1937 102.939 97.431Z" fill="#FCA728" stroke="#252527" stroke-width="0.6"/>
            <path d="M79.1839 121.43C79.1839 122.668 78.1791 123.671 76.9387 123.671C75.6983 123.671 74.6936 122.668 74.6936 121.43C74.6936 120.193 75.6983 119.189 76.9387 119.189C78.1791 119.189 79.1839 120.193 79.1839 121.43Z" fill="#FCA728" stroke="#252527" stroke-width="0.6"/>
            <path d="M62.4262 44.6065C63.987 41.3725 68.0364 39.5714 71.4884 40.5757C73.433 41.1415 75.0641 42.4414 76.8521 43.3914C78.6402 44.3415 80.8585 44.9314 82.6571 44.0016C85.7488 42.4032 85.5603 37.6312 88.2494 35.4233C90.0392 33.9538 92.6655 34.0225 94.8777 34.7115C97.0899 35.4004 99.1129 36.6167 101.339 37.2579C105.483 38.451 110.194 37.4476 113.49 34.6703C113.523 34.6426 113.555 34.6146 113.587 34.5864C115.218 33.1515 117.775 34.334 117.715 36.5039L117.298 51.6358H62.7182L62.4262 44.6065Z" fill="#3E3E40"/>
            <path d="M110.327 41.8797C110.507 41.8068 110.507 41.5552 110.327 41.4824C109.072 40.9742 107.667 40.2508 106.593 39.4639C106.421 39.3379 106.191 39.5116 106.264 39.7118L106.875 41.3986H96.4161V41.9633H106.875L106.264 43.6508C106.191 43.851 106.421 44.0247 106.593 43.8987C107.667 43.1117 109.072 42.3882 110.327 41.8797Z" fill="#252527"/>
            <path d="M86.7964 39.1599C86.8953 38.9932 86.7427 38.793 86.5554 38.8437C85.2486 39.1978 83.6915 39.4714 82.3596 39.4943C82.1464 39.4979 82.0689 39.775 82.2481 39.8905L83.7575 40.8636L75.4335 47.186L75.776 47.6354L84.1 41.313L84.6367 43.0255C84.7004 43.2288 84.9886 43.2281 85.049 43.0239C85.4265 41.7484 86.1061 40.3231 86.7964 39.1599Z" fill="#252527"/>
            <path d="M115.417 38.3592C118.095 38.3592 120.265 36.1922 120.265 33.519C120.265 30.8459 118.095 28.6788 115.417 28.6788C112.74 28.6788 110.569 30.8459 110.569 33.519C110.569 36.1922 112.74 38.3592 115.417 38.3592Z" fill="#FCA728"/>
            <path opacity="0.7" d="M91.6625 38.3592C94.3399 38.3592 96.5104 36.1922 96.5104 33.519C96.5104 30.8459 94.3399 28.6788 91.6625 28.6788C88.985 28.6788 86.8145 30.8459 86.8145 33.519C86.8145 36.1922 88.985 38.3592 91.6625 38.3592Z" fill="#FCA728"/>
            <path opacity="0.25" d="M70.17 42.8767C72.8474 42.8767 75.0179 40.7096 75.0179 38.0365C75.0179 35.3633 72.8474 33.1963 70.17 33.1963C67.4925 33.1963 65.322 35.3633 65.322 38.0365C65.322 40.7096 67.4925 42.8767 70.17 42.8767Z" fill="#FCA728"/>
            <path d="M128.98 61.2901L53.7587 60.7518C51.3408 60.7345 49.3614 62.6827 49.344 65.0967C49.3267 67.5107 51.278 69.487 53.6959 69.5043L128.918 70.0425C131.335 70.0598 133.315 68.1117 133.332 65.6977C133.35 63.2837 131.398 61.3074 128.98 61.2901Z" fill="#3E3E40"/>
            <path d="M42.5213 66.1909C43.6146 66.1909 44.5009 65.306 44.5009 64.2144C44.5009 63.1229 43.6146 62.238 42.5213 62.238C41.428 62.238 40.5417 63.1229 40.5417 64.2144C40.5417 65.306 41.428 66.1909 42.5213 66.1909Z" fill="#3E3E40"/>
            <path d="M128.98 12.7267L53.7587 12.1885C51.3408 12.1712 49.3614 14.1194 49.344 16.5333C49.3267 18.9473 51.278 20.9236 53.6959 20.9409L128.918 21.4792C131.335 21.4965 133.315 19.5483 133.332 17.1343C133.35 14.7203 131.398 12.744 128.98 12.7267Z" fill="#3E3E40"/>
            <path d="M42.5213 17.6275C43.6146 17.6275 44.5009 16.7426 44.5009 15.6511C44.5009 14.5596 43.6146 13.6747 42.5213 13.6747C41.428 13.6747 40.5417 14.5596 40.5417 15.6511C40.5417 16.7426 41.428 17.6275 42.5213 17.6275Z" fill="#3E3E40"/>
            <path d="M45.6946 162.963H26.7406C25.1474 162.963 23.8513 161.669 23.8513 160.078V141.154C23.8513 139.563 25.1474 138.269 26.7406 138.269H45.6946C47.2878 138.269 48.584 139.563 48.584 141.154V160.078C48.584 161.669 47.2878 162.963 45.6946 162.963Z" fill="#3E3E40"/>
            <path d="M45.6946 162.963H26.7406C25.1474 162.963 23.8513 161.669 23.8513 160.078V141.154C23.8513 139.563 25.1474 138.269 26.7406 138.269H45.6946C47.2878 138.269 48.584 139.563 48.584 141.154V160.078C48.584 161.669 47.2878 162.963 45.6946 162.963ZM26.7406 138.731C25.4002 138.731 24.3136 139.816 24.3136 141.154V160.078C24.3136 161.416 25.4002 162.501 26.7406 162.501H40.2486C44.5968 162.501 48.1217 158.982 48.1217 154.641V141.154C48.1217 139.816 47.035 138.731 45.6946 138.731H26.7406Z" fill="#252527"/>
            <path d="M125.145 161.356C125.73 161.392 126.052 160.668 125.61 160.245L125.566 160.071C125.572 160.057 125.578 160.043 125.584 160.029C126.175 158.622 128.177 158.632 128.763 160.041C129.283 161.291 129.945 162.543 130.108 163.865C130.181 164.449 130.148 165.043 130.018 165.616C131.237 162.959 131.878 160.057 131.878 157.14C131.878 156.406 131.838 155.673 131.755 154.942C131.688 154.344 131.595 153.749 131.474 153.16C130.822 149.976 129.41 146.944 127.373 144.411C126.394 143.876 125.578 143.041 125.085 142.04C124.908 141.679 124.769 141.29 124.703 140.895C124.815 140.909 125.123 139.215 125.039 139.111C125.194 138.876 125.472 138.759 125.642 138.529C126.485 137.388 127.647 137.587 128.254 139.139C129.55 139.792 129.562 140.874 128.767 141.916C128.261 142.579 128.192 143.475 127.748 144.185C127.794 144.243 127.841 144.299 127.887 144.358C128.724 145.43 129.448 146.583 130.059 147.794C129.886 146.448 130.141 144.827 130.575 143.782C131.07 142.591 131.996 141.588 132.812 140.559C133.793 139.322 135.803 139.862 135.975 141.429C135.977 141.444 135.979 141.459 135.98 141.475C135.859 141.543 135.74 141.615 135.624 141.692C134.963 142.129 135.191 143.153 135.975 143.274L135.993 143.276C135.949 143.712 135.874 144.144 135.765 144.569C136.811 148.611 134.551 150.083 131.324 150.15C131.253 150.186 131.184 150.223 131.112 150.257C131.439 151.176 131.701 152.119 131.894 153.075C132.068 153.919 132.188 154.773 132.256 155.63C132.34 156.711 132.333 157.798 132.241 158.877L132.247 158.839C132.479 157.65 133.125 156.54 134.064 155.77C135.463 154.623 137.439 154.201 138.948 153.279C139.674 152.835 140.605 153.408 140.478 154.249L140.472 154.289C140.247 154.38 140.028 154.486 139.816 154.605C139.695 154.673 139.576 154.746 139.46 154.822C138.798 155.259 139.027 156.283 139.811 156.404L139.829 156.406C139.841 156.408 139.852 156.41 139.865 156.412C139.48 157.326 138.943 158.174 138.271 158.905C137.616 162.433 134.805 162.768 131.797 161.741H131.796C131.467 163.17 130.986 164.567 130.369 165.898H125.273C125.255 165.842 125.238 165.784 125.222 165.727C125.693 165.756 126.168 165.729 126.632 165.643C126.254 165.18 125.876 164.713 125.498 164.25C125.489 164.241 125.481 164.232 125.474 164.223C125.282 163.985 125.088 163.75 124.897 163.513L124.897 163.513C124.885 162.785 124.972 162.06 125.145 161.356Z" fill="#252527"/>
            <path d="M27.8353 140.474L27.8329 140.472C26.3443 139.524 26.1375 137.48 27.3964 136.293L27.5518 136.147L27.4643 135.952L21.237 122.089L24.4583 119.84L31.698 136.292L31.719 136.34L31.755 136.378C32.6396 137.309 32.7648 138.71 31.9773 139.775L32.2185 139.953L31.9773 139.775C31.0468 141.034 29.1901 141.355 27.8353 140.474Z" fill="#D9AAA7" stroke="#252527" stroke-width="0.6"/>
            <path d="M28.454 145.251C28.1075 145.251 27.8257 145.586 27.8257 145.997V146.495C27.8257 146.906 28.1075 147.241 28.454 147.241H43.1153C43.4618 147.241 43.7436 146.906 43.7436 146.495V145.997C43.7436 145.586 43.4618 145.251 43.1153 145.251H28.454Z" fill="#252527"/>
            <path d="M28.454 150.226C28.1075 150.226 27.8257 150.56 27.8257 150.972V151.469C27.8257 151.881 28.1075 152.215 28.454 152.215H43.1153C43.4618 152.215 43.7436 151.881 43.7436 151.469V150.972C43.7436 150.56 43.4618 150.226 43.1153 150.226H28.454Z" fill="#252527"/>
            <path d="M28.454 155.2C28.1075 155.2 27.8257 155.367 27.8257 155.573V155.822C27.8257 156.027 28.1075 156.195 28.454 156.195H43.1153C43.4618 156.195 43.7436 156.027 43.7436 155.822V155.573C43.7436 155.367 43.4618 155.2 43.1153 155.2H28.454Z" fill="#252527"/>
            <path d="M68.2812 49.3912L68.2812 49.3912L68.2817 49.3942C68.5501 51.024 67.1696 52.5711 65.4334 52.5233L65.2352 52.5178L65.1525 52.698L58.9002 66.3216L55.1255 65.6707L62.6234 49.6499L62.6456 49.6024L62.6504 49.5502C62.7628 48.3275 63.7262 47.2811 65.0541 47.0896L65.0541 47.0896C66.6141 46.8646 68.0519 47.9055 68.2812 49.3912Z" fill="#D9AAA7" stroke="#252527" stroke-width="0.6"/>
            <mask id="path-43-inside-1_7480_22207" fill="white">
                <path fill-rule="evenodd" clip-rule="evenodd" d="M39.5759 93.7817C40.1486 93.6047 40.698 93.3226 41.195 92.9333L56.0813 81.2746L63.4569 58.3755L58.0945 55.899L48.02 75.9599L35.2084 84.8369C34.3911 85.4033 33.7987 86.1604 33.4419 87.0014L32.714 86.1968V82.3524L24.8826 82.7868L23.5774 87.9344L21.4013 89.4553C19.6697 89.9953 18.3034 91.4499 17.9484 93.3283L14.4405 111.89L20.2622 123.748C19.349 125.76 21.2743 127.834 22.9118 129.144L25.3175 134.044L30.9735 131.438L30.7861 130.876C34.3463 130.954 38.7031 130.764 41.4156 129.635C46.6365 127.463 40.5454 111.391 40.5454 111.391L42.6489 105.721C44.0303 101.997 43.225 97.8154 40.559 94.8685L39.5759 93.7817ZM24.0122 110.587L24.5152 112.094C24.8144 109.746 24.8826 107.984 24.8826 107.984L24.7579 107.609L24.0122 110.587Z"/>
            </mask>
            <path fill-rule="evenodd" clip-rule="evenodd" d="M39.5759 93.7817C40.1486 93.6047 40.698 93.3226 41.195 92.9333L56.0813 81.2746L63.4569 58.3755L58.0945 55.899L48.02 75.9599L35.2084 84.8369C34.3911 85.4033 33.7987 86.1604 33.4419 87.0014L32.714 86.1968V82.3524L24.8826 82.7868L23.5774 87.9344L21.4013 89.4553C19.6697 89.9953 18.3034 91.4499 17.9484 93.3283L14.4405 111.89L20.2622 123.748C19.349 125.76 21.2743 127.834 22.9118 129.144L25.3175 134.044L30.9735 131.438L30.7861 130.876C34.3463 130.954 38.7031 130.764 41.4156 129.635C46.6365 127.463 40.5454 111.391 40.5454 111.391L42.6489 105.721C44.0303 101.997 43.225 97.8154 40.559 94.8685L39.5759 93.7817ZM24.0122 110.587L24.5152 112.094C24.8144 109.746 24.8826 107.984 24.8826 107.984L24.7579 107.609L24.0122 110.587Z" fill="#9654F4"/>
            <path d="M39.5759 93.7817L39.3396 93.0174L38.1408 93.388L38.9826 94.3184L39.5759 93.7817ZM41.195 92.9333L41.6883 93.5631H41.6883L41.195 92.9333ZM56.0813 81.2746L56.5746 81.9044L56.7676 81.7533L56.8428 81.5199L56.0813 81.2746ZM63.4569 58.3755L64.2184 58.6207L64.4356 57.9463L63.7923 57.6492L63.4569 58.3755ZM58.0945 55.899L58.4299 55.1728L57.727 54.8482L57.3796 55.54L58.0945 55.899ZM48.02 75.9599L48.4756 76.6175L48.6433 76.5013L48.7349 76.319L48.02 75.9599ZM35.2084 84.8369L34.7528 84.1794L34.7528 84.1794L35.2084 84.8369ZM33.4419 87.0014L32.8487 87.5381L33.6891 88.4671L34.1784 87.3139L33.4419 87.0014ZM32.714 86.1968H31.914V86.505L32.1208 86.7336L32.714 86.1968ZM32.714 82.3524H33.514V81.5068L32.6697 81.5536L32.714 82.3524ZM24.8826 82.7868L24.8383 81.988L24.2516 82.0205L24.1072 82.5901L24.8826 82.7868ZM23.5774 87.9344L24.0357 88.5901L24.2797 88.4196L24.3529 88.131L23.5774 87.9344ZM21.4013 89.4553L21.6394 90.219L21.7579 90.182L21.8595 90.111L21.4013 89.4553ZM17.9484 93.3283L18.7345 93.4768L17.9484 93.3283ZM14.4405 111.89L13.6544 111.742L13.6049 112.004L13.7224 112.243L14.4405 111.89ZM20.2622 123.748L20.9907 124.078L21.1468 123.734L20.9803 123.395L20.2622 123.748ZM22.9118 129.144L23.6299 128.792L23.5512 128.631L23.4116 128.52L22.9118 129.144ZM25.3175 134.044L24.5994 134.397L24.9434 135.097L25.6523 134.771L25.3175 134.044ZM30.9735 131.438L31.3083 132.164L31.9593 131.864L31.7323 131.184L30.9735 131.438ZM30.7861 130.876L30.8035 130.077L29.6674 130.052L30.0273 131.13L30.7861 130.876ZM41.4156 129.635L41.1083 128.897L41.4156 129.635ZM40.5454 111.391L39.7954 111.113L39.6911 111.394L39.7974 111.675L40.5454 111.391ZM42.6489 105.721L41.8988 105.443H41.8988L42.6489 105.721ZM40.559 94.8685L39.9658 95.4052L40.559 94.8685ZM24.5152 112.094L23.7563 112.347L25.3088 112.195L24.5152 112.094ZM24.0122 110.587L23.2362 110.393L23.1795 110.619L23.2534 110.841L24.0122 110.587ZM24.8826 107.984L25.682 108.015L25.6877 107.87L25.6418 107.732L24.8826 107.984ZM24.7579 107.609L25.517 107.357L24.6496 104.748L23.9819 107.415L24.7579 107.609ZM39.8121 94.5461C40.4764 94.3407 41.1132 94.0135 41.6883 93.5631L40.7018 92.3035C40.2828 92.6316 39.8208 92.8687 39.3396 93.0174L39.8121 94.5461ZM41.6883 93.5631L56.5746 81.9044L55.588 80.6448L40.7017 92.3035L41.6883 93.5631ZM56.8428 81.5199L64.2184 58.6207L62.6954 58.1302L55.3198 81.0293L56.8428 81.5199ZM63.7923 57.6492L58.4299 55.1728L57.7591 56.6253L63.1215 59.1018L63.7923 57.6492ZM57.3796 55.54L47.3051 75.6009L48.7349 76.319L58.8094 56.2581L57.3796 55.54ZM47.5643 75.3024L34.7528 84.1794L35.664 85.4945L48.4756 76.6175L47.5643 75.3024ZM34.7528 84.1794C33.8076 84.8343 33.1197 85.7126 32.7055 86.6889L34.1784 87.3139C34.4778 86.6082 34.9746 85.9722 35.664 85.4945L34.7528 84.1794ZM34.0352 86.4647L33.3073 85.6601L32.1208 86.7336L32.8487 87.5381L34.0352 86.4647ZM33.514 86.1968V82.3524H31.914V86.1968H33.514ZM32.6697 81.5536L24.8383 81.988L24.9269 83.5855L32.7584 83.1512L32.6697 81.5536ZM24.1072 82.5901L22.8019 87.7378L24.3529 88.131L25.6581 82.9834L24.1072 82.5901ZM23.1191 87.2787L20.943 88.7995L21.8595 90.111L24.0357 88.5901L23.1191 87.2787ZM21.1631 88.6915C19.1584 89.3167 17.574 91.0015 17.1623 93.1797L18.7345 93.4768C19.0328 91.8984 20.181 90.6738 21.6394 90.219L21.1631 88.6915ZM17.1623 93.1797L13.6544 111.742L15.2266 112.039L18.7345 93.4768L17.1623 93.1797ZM13.7224 112.243L19.5441 124.1L20.9803 123.395L15.1586 111.538L13.7224 112.243ZM19.5337 123.417C18.9252 124.758 19.3015 126.071 19.9483 127.127C20.591 128.177 21.5647 129.091 22.4121 129.769L23.4116 128.52C22.6214 127.888 21.8137 127.11 21.3128 126.292C20.8158 125.48 20.686 124.75 20.9907 124.078L19.5337 123.417ZM22.1937 129.497L24.5994 134.397L26.0356 133.691L23.6299 128.792L22.1937 129.497ZM25.6523 134.771L31.3083 132.164L30.6387 130.711L24.9827 133.317L25.6523 134.771ZM31.7323 131.184L31.5449 130.623L30.0273 131.13L30.2147 131.691L31.7323 131.184ZM30.7687 131.676C32.5673 131.715 34.5799 131.687 36.4948 131.504C38.3986 131.323 40.2581 130.983 41.7229 130.374L41.1083 128.897C39.8606 129.416 38.1854 129.736 36.3427 129.912C34.511 130.087 32.5652 130.115 30.8035 130.077L30.7687 131.676ZM41.7229 130.374C43.4597 129.651 44.1091 127.827 44.279 125.94C44.4526 124.012 44.1626 121.71 43.7224 119.54C43.2796 117.357 42.6725 115.251 42.1781 113.694C41.9304 112.915 41.7102 112.27 41.5515 111.82C41.4721 111.595 41.4081 111.418 41.3637 111.297C41.3415 111.236 41.3242 111.19 41.3123 111.158C41.3064 111.142 41.3018 111.13 41.2987 111.121C41.2971 111.117 41.2959 111.114 41.295 111.111C41.2946 111.11 41.2942 111.109 41.294 111.109C41.2939 111.108 41.2937 111.108 41.2937 111.108C41.2936 111.108 41.2935 111.108 40.5454 111.391C39.7974 111.675 39.7973 111.675 39.7973 111.675C39.7974 111.675 39.7974 111.675 39.7975 111.675C39.7976 111.675 39.7978 111.676 39.7981 111.677C39.7987 111.678 39.7997 111.681 39.801 111.684C39.8037 111.691 39.8078 111.702 39.8132 111.717C39.824 111.746 39.8403 111.79 39.8614 111.847C39.9037 111.963 39.9655 112.133 40.0425 112.352C40.1965 112.789 40.4113 113.417 40.6532 114.179C41.1376 115.703 41.727 117.751 42.1543 119.858C42.5843 121.977 42.8382 124.1 42.6854 125.797C42.5291 127.534 41.9819 128.533 41.1083 128.897L41.7229 130.374ZM41.2955 111.669L43.3989 105.999L41.8988 105.443L39.7954 111.113L41.2955 111.669ZM43.3989 105.999C44.8841 101.996 44.0182 97.4997 41.1523 94.3318L39.9658 95.4052C42.4318 98.1311 43.1764 101.999 41.8988 105.443L43.3989 105.999ZM41.1523 94.3318L40.1691 93.245L38.9826 94.3184L39.9658 95.4052L41.1523 94.3318ZM25.274 111.84L24.7711 110.334L23.2534 110.841L23.7563 112.347L25.274 111.84ZM24.8826 107.984C24.0832 107.953 24.0832 107.953 24.0832 107.953C24.0832 107.953 24.0832 107.953 24.0832 107.953C24.0832 107.953 24.0832 107.953 24.0832 107.953C24.0832 107.953 24.0832 107.954 24.0832 107.954C24.0832 107.955 24.0832 107.956 24.0831 107.957C24.083 107.96 24.0828 107.965 24.0825 107.971C24.082 107.983 24.0812 108.002 24.08 108.028C24.0776 108.078 24.0739 108.154 24.0685 108.252C24.0577 108.45 24.0401 108.738 24.0133 109.099C23.9596 109.822 23.8691 110.835 23.7216 111.993L25.3088 112.195C25.4605 111.004 25.5536 109.962 25.6089 109.218C25.6366 108.845 25.6548 108.547 25.6661 108.34C25.6718 108.237 25.6757 108.157 25.6783 108.102C25.6795 108.074 25.6805 108.053 25.6811 108.039C25.6814 108.032 25.6816 108.026 25.6818 108.022C25.6819 108.02 25.6819 108.019 25.682 108.017C25.682 108.017 25.682 108.016 25.682 108.016C25.682 108.016 25.682 108.016 25.682 108.016C25.682 108.016 25.682 108.016 25.682 108.016C25.682 108.015 25.682 108.015 24.8826 107.984ZM23.9988 107.862L24.1235 108.237L25.6418 107.732L25.517 107.357L23.9988 107.862ZM24.7883 110.782L25.534 107.804L23.9819 107.415L23.2362 110.393L24.7883 110.782Z" fill="#252527" mask="url(#path-43-inside-1_7480_22207)"/>
            <path d="M30.995 83.5675C30.0523 83.7383 29.1142 83.9765 28.1762 84.1743C28.1194 84.1878 28.0673 84.1968 28.0104 84.2103C27.5793 83.1001 26.9018 82.0842 26.0207 81.2482C26.4423 82.1112 26.5276 83.1225 26.2528 84.0395C26.2054 84.2013 26.1486 84.3586 26.0775 84.5114C25.0542 84.6103 24.0309 84.5834 23.0503 84.3137C22.6334 84.2013 22.2402 84.0485 21.8564 83.8687V64.6666H31.8051C27.9441 70.9055 27.3945 77.1983 30.995 83.5675Z" fill="#1D1D1D"/>
        </g>
        <g clip-path="url(#clip2_7480_22207)">
            <path d="M633.125 98.7937L646.037 87.2894C647.987 85.5628 648.166 82.5844 646.437 80.6373C644.707 78.6901 641.724 78.5113 639.774 80.2379L639.752 80.2578L626.84 91.762C624.9 93.5009 624.74 96.4803 626.482 98.4165C628.216 100.344 631.183 100.513 633.125 98.7937Z" fill="#252527"/>
            <path d="M542.378 166.063C542.423 166.063 542.467 166.063 542.512 166.063L659.889 164.694C666.561 164.608 671.934 159.131 671.887 152.476C680.174 125.031 683.825 103.419 683.725 82.4076C683.621 60.4766 679.281 38.1678 670.068 12.2051C669.961 5.5944 664.532 0.271484 657.918 0.271484C657.875 0.271484 657.832 0.271751 657.789 0.272149L540.411 1.6432C533.725 1.72931 528.344 7.22909 528.417 13.9031L528.654 34.2305L528.831 34.2325L530.232 154.087C530.318 160.718 535.754 166.063 542.378 166.063ZM657.918 0.816605C664.25 0.816605 669.443 5.92325 669.523 12.2574L669.523 12.3025L669.538 12.3449C687.132 61.9039 687.607 98.5429 671.353 152.358L671.341 152.398L671.341 152.44C671.407 158.814 666.267 164.067 659.883 164.149L542.505 165.517C542.463 165.518 542.421 165.518 542.378 165.518C536.052 165.518 530.86 160.413 530.778 154.08L529.484 43.4643L529.478 42.9196L529.328 30.2715L529.154 30.27L528.963 13.897C528.893 7.52321 534.032 2.27056 540.418 2.18832L657.795 0.81727C657.836 0.816872 657.877 0.816605 657.918 0.816605Z" fill="#3E3E40"/>
            <path d="M611.754 51.6671L611.748 51.122H544.427V51.6671H611.754Z" fill="#252527"/>
            <path d="M647.806 158.038C654.355 157.954 659.601 152.593 659.532 146.054C675.131 94.4096 676.108 57.6838 657.715 5.8707C657.679 3.8087 657.097 1.79309 656.029 0.0277303L658.339 0.00067321C664.889 -0.0682846 670.259 5.16902 670.343 11.7082C688.735 63.5214 687.759 100.247 672.159 151.891C672.229 158.431 666.983 163.792 660.433 163.876L543.055 165.246C538.811 165.281 534.874 163.043 532.738 159.381L647.806 158.038Z" fill="#3E3E40"/>
            <path d="M610.261 110.288C608.755 107.166 604.846 105.428 601.513 106.397C599.636 106.943 598.062 108.198 596.335 109.115C594.609 110.033 592.468 110.602 590.732 109.704C587.747 108.161 587.929 103.555 585.333 101.423C583.605 100.005 581.07 100.071 578.935 100.736C576.799 101.401 574.846 102.575 572.697 103.194C568.697 104.346 564.149 103.378 560.968 100.697C560.936 100.67 560.904 100.643 560.874 100.616C559.299 99.2303 556.831 100.372 556.889 102.467L557.291 117.074H609.98L610.261 110.288Z" fill="#3E3E40"/>
            <path d="M564.021 107.656C563.847 107.586 563.847 107.343 564.021 107.273C565.232 106.782 566.589 106.084 567.625 105.324C567.791 105.202 568.013 105.37 567.943 105.563L567.353 107.192H577.449V107.737H567.353L567.943 109.366C568.013 109.559 567.791 109.727 567.625 109.605C566.589 108.845 565.232 108.147 564.021 107.656Z" fill="#252527"/>
            <path d="M586.736 105.031C586.64 104.87 586.788 104.676 586.968 104.725C588.23 105.067 589.733 105.331 591.019 105.353C591.225 105.357 591.299 105.624 591.127 105.736L589.669 106.675L597.705 112.779L597.374 113.212L589.339 107.109L588.821 108.762C588.759 108.958 588.481 108.958 588.423 108.761C588.058 107.529 587.402 106.154 586.736 105.031Z" fill="#252527"/>
            <path d="M559.107 104.258C556.522 104.258 554.427 102.166 554.427 99.5852C554.427 97.0047 556.522 94.9127 559.107 94.9127C561.691 94.9127 563.787 97.0047 563.787 99.5852C563.787 102.166 561.691 104.258 559.107 104.258Z" fill="#FCA728"/>
            <path opacity="0.7" d="M582.038 104.258C579.454 104.258 577.358 102.166 577.358 99.5852C577.358 97.0047 579.454 94.9127 582.038 94.9127C584.623 94.9127 586.718 97.0047 586.718 99.5852C586.718 102.166 584.623 104.258 582.038 104.258Z" fill="#FCA728"/>
            <path opacity="0.25" d="M602.786 108.619C600.201 108.619 598.106 106.527 598.106 103.946C598.106 101.366 600.201 99.2737 602.786 99.2737C605.371 99.2737 607.466 101.366 607.466 103.946C607.466 106.527 605.371 108.619 602.786 108.619Z" fill="#FCA728"/>
            <path d="M546.014 126.394L618.629 125.874C620.963 125.858 622.874 127.738 622.891 130.069C622.908 132.399 621.024 134.307 618.69 134.323L546.075 134.843C543.741 134.86 541.83 132.979 541.813 130.649C541.797 128.318 543.68 126.411 546.014 126.394Z" fill="#3E3E40"/>
            <path d="M629.477 131.125C628.422 131.125 627.566 130.271 627.566 129.217C627.566 128.163 628.422 127.309 629.477 127.309C630.533 127.309 631.388 128.163 631.388 129.217C631.388 130.271 630.533 131.125 629.477 131.125Z" fill="#3E3E40"/>
            <path d="M546.014 79.5135L618.629 78.9939C620.963 78.9772 622.874 80.8579 622.891 83.1882C622.908 85.5185 621.024 87.4263 618.69 87.443L546.075 87.9627C543.741 87.9794 541.83 86.0987 541.813 83.7684C541.797 81.438 543.68 79.5302 546.014 79.5135Z" fill="#3E3E40"/>
            <path d="M629.477 84.2444C628.422 84.2444 627.566 83.3902 627.566 82.3365C627.566 81.2828 628.422 80.4286 629.477 80.4286C630.533 80.4286 631.388 81.2828 631.388 82.3365C631.388 83.3902 630.533 84.2444 629.477 84.2444Z" fill="#3E3E40"/>
            <path d="M557.399 155.764C556.835 155.799 556.524 155.1 556.95 154.692L556.993 154.524C556.987 154.51 556.982 154.497 556.976 154.483C556.406 153.125 554.473 153.135 553.907 154.495C553.405 155.702 552.766 156.911 552.609 158.187C552.538 158.75 552.57 159.324 552.695 159.877C551.519 157.312 550.9 154.511 550.9 151.694C550.9 150.986 550.939 150.279 551.018 149.573C551.084 148.995 551.174 148.422 551.29 147.853C551.919 144.779 553.282 141.852 555.248 139.406C556.193 138.891 556.982 138.084 557.458 137.118C557.629 136.769 557.763 136.394 557.826 136.012C557.719 136.026 557.421 134.391 557.502 134.291C557.352 134.063 557.084 133.951 556.92 133.729C556.106 132.627 554.984 132.819 554.398 134.317C553.148 134.947 553.135 135.993 553.903 136.998C554.391 137.638 554.458 138.503 554.887 139.188C554.843 139.244 554.797 139.299 554.753 139.355C553.945 140.39 553.245 141.503 552.656 142.672C552.823 141.373 552.577 139.808 552.157 138.799C551.68 137.65 550.786 136.681 549.998 135.688C549.052 134.494 547.111 135.015 546.945 136.528C546.943 136.543 546.942 136.557 546.94 136.572C547.057 136.638 547.172 136.708 547.284 136.782C547.922 137.204 547.702 138.192 546.945 138.309L546.928 138.311C546.97 138.732 547.042 139.149 547.148 139.56C546.137 143.461 548.319 144.883 551.434 144.946C551.503 144.982 551.57 145.017 551.639 145.05C551.323 145.938 551.071 146.848 550.884 147.77C550.717 148.585 550.6 149.409 550.535 150.237C550.454 151.28 550.461 152.33 550.549 153.372L550.544 153.335C550.32 152.187 549.696 151.115 548.79 150.372C547.439 149.265 545.532 148.857 544.075 147.967C543.374 147.539 542.476 148.092 542.598 148.904L542.604 148.943C542.821 149.031 543.033 149.133 543.237 149.247C543.354 149.313 543.469 149.383 543.581 149.457C544.219 149.879 543.999 150.867 543.242 150.984L543.225 150.986C543.212 150.988 543.202 150.99 543.19 150.992C543.562 151.874 544.08 152.692 544.729 153.398C545.361 156.805 548.075 157.128 550.978 156.136H550.98C551.297 157.516 551.761 158.864 552.357 160.15H557.276C557.294 160.095 557.31 160.039 557.325 159.984C556.871 160.012 556.412 159.986 555.964 159.903C556.329 159.456 556.694 159.005 557.059 158.558C557.068 158.549 557.075 158.541 557.082 158.532C557.267 158.303 557.454 158.076 557.639 157.847L557.639 157.847C557.651 157.144 557.567 156.444 557.399 155.764Z" fill="#252527"/>
            <path d="M651.308 169.021L655.889 173.256L651.592 177.768L647.011 173.533L651.308 169.021Z" fill="#D9AAA7" stroke="#252527"/>
            <path d="M660.585 178.596L649.983 189.728C649.077 190.679 647.946 191.431 646.711 191.902L643.755 193.028C643.144 193.261 642.44 193.126 641.962 192.685C641.402 192.167 641.26 191.337 641.618 190.666L644.46 185.334L647.494 174.519L647.527 174.539C648.352 175.047 649.604 175.81 649.693 175.842C651.264 175.898 652.389 175.503 653.036 174.668C654.166 173.212 653.449 170.888 653.442 170.865L653.436 170.847L653.45 170.835C653.78 170.554 654.126 170.441 654.481 170.501C655.234 170.626 655.772 171.472 655.851 171.602C656.558 171.573 658.727 173.271 658.901 173.409C659.966 173.406 660.747 173.659 661.222 174.16C661.637 174.598 661.817 175.219 661.759 176.008C661.688 176.956 661.271 177.875 660.585 178.596Z" fill="#1D1D1D"/>
            <path d="M644.055 185.944V179.762H650.343V185.944H644.055Z" fill="#D9AAA7" stroke="#252527"/>
            <path d="M649.599 192.975H634.106C632.781 192.975 631.451 192.677 630.257 192.112L627.401 190.759C626.81 190.479 626.429 189.881 626.429 189.236C626.429 188.479 626.946 187.809 627.687 187.607L633.579 186L643.66 180.78L643.667 180.818C643.856 181.758 644.148 183.179 644.185 183.266C645.219 184.432 646.281 184.97 647.342 184.864C649.192 184.679 650.422 182.575 650.434 182.553L650.443 182.537L650.462 182.539C650.895 182.583 651.216 182.755 651.415 183.051C651.837 183.678 651.579 184.643 651.537 184.789C652.042 185.276 652.269 187.997 652.287 188.217C653.017 188.98 653.365 189.714 653.319 190.397C653.278 190.995 652.942 191.551 652.318 192.048C651.568 192.646 650.603 192.975 649.599 192.975Z" fill="#1D1D1D"/>
            <path d="M594.173 36.195H547.173C544.863 36.195 543.122 34.7539 543.122 33.1336C543.122 31.5133 544.863 30.0722 547.173 30.0722H594.173C596.484 30.0722 598.225 31.5133 598.225 33.1336C598.225 34.7539 596.484 36.195 594.173 36.195Z" fill="#FCA728" stroke="#252527" stroke-width="0.6"/>
            <path d="M576.723 45.1386H546.376C544.416 45.1386 542.822 44.2769 542.822 43.2179C542.822 42.1587 544.416 41.297 546.376 41.297H576.723C578.683 41.297 580.277 42.1587 580.277 43.2179C580.277 44.2769 578.683 45.1386 576.723 45.1386Z" fill="#252527"/>
            <path d="M653.284 52.6807H544.561C543.487 52.6807 542.614 51.8071 542.614 50.7332C542.614 49.6593 543.487 48.7856 544.561 48.7856H653.284C654.358 48.7856 655.231 49.6593 655.231 50.7332C655.231 51.8071 654.358 52.6807 653.284 52.6807Z" fill="#252527"/>
            <path d="M643.929 57.8778H544.561C543.487 57.8778 542.614 57.0041 542.614 55.9303C542.614 54.8566 543.487 53.9829 544.561 53.9829H643.929C645.003 53.9829 645.877 54.8566 645.877 55.9303C645.877 57.0041 645.003 57.8778 643.929 57.8778Z" fill="#252527"/>
            <path d="M651.709 88.8217L625.881 88.8342L617.272 142.541L643.099 173.238L651.709 165.564L631.298 142.541L651.709 88.8217Z" fill="#1D1D1D"/>
            <path d="M636.444 96.7386L651.709 88.8217V180.912L643.1 181.149L636.444 96.7386Z" fill="#1D1D1D"/>
            <path d="M620.653 110.348L620.648 110.559L620.797 110.71C621.57 111.493 622.071 112.701 622.041 114.07C621.988 116.5 620.335 118.267 618.533 118.227C616.731 118.188 615.157 116.351 615.209 113.922C615.239 112.553 615.791 111.368 616.598 110.619L616.753 110.475L616.758 110.263L616.929 102.38L620.824 102.464L620.653 110.348Z" fill="#D9AAA7" stroke="#252527"/>
            <path d="M644.362 28.4875C644.362 28.4875 651.388 28.4724 648.764 21.7024C646.139 14.9324 641.252 17.9637 641.252 17.9637C641.252 17.9637 639.192 19.0515 639.617 21.4785" fill="#1D1D1D"/>
            <path d="M633.346 40.6289L633.3 40.3201L633.002 40.2267C629.389 39.0937 626.769 35.7198 626.769 31.735C626.769 26.8205 630.753 22.8365 635.668 22.8365C640.582 22.8365 644.566 26.8205 644.566 31.735C644.566 34.8322 642.983 37.5591 640.581 39.1536L640.25 39.3731L640.389 39.7451C640.942 41.2273 641.731 42.6157 642.375 43.6276C642.698 44.1351 642.987 44.5515 643.196 44.8417C643.213 44.866 643.23 44.8895 643.247 44.912L635.03 51.759L633.346 40.6289Z" fill="#D9AAA7" stroke="#252527"/>
            <path d="M640.182 39.6743C640.182 39.6743 641.431 34.8893 639.39 32.6891C637.354 30.4939 637.091 33.9095 637.091 33.9095L635.622 33.5901C635.622 33.5901 635.877 30.2685 633.003 29.6936L634.855 25.7332C634.855 25.7332 627.763 27.1102 627.567 26.4233C626.029 21.0185 640.703 16.4015 644.756 24.6472C651.06 37.4721 640.182 39.6743 640.182 39.6743Z" fill="#1D1D1D"/>
            <path d="M650.917 89.4557L654.235 91.4975L650.103 98.2129L649.992 98.3932L650.044 98.5983C650.315 99.665 650.136 100.961 649.419 102.126L649.845 102.388L649.419 102.126C648.145 104.196 645.826 104.885 644.291 103.94C642.756 102.996 642.326 100.615 643.599 98.545L643.177 98.285L643.599 98.545C644.317 97.3793 645.393 96.6356 646.467 96.3973L646.674 96.3514L646.785 96.1712L650.917 89.4557Z" fill="#D9AAA7" stroke="#252527"/>
            <mask id="path-76-inside-2_7480_22207" fill="white">
                <path fill-rule="evenodd" clip-rule="evenodd" d="M619.315 61.986C619.804 56.5367 623.08 51.8573 627.779 49.4611L632.248 43.6783L643.897 42.884L644.01 43.0453L644.055 43.0434L648.399 46.326L648.44 46.3331C653.554 47.2051 655.042 47.459 656.615 50.8495C657.278 52.2781 657.717 53.8 657.963 55.3555L661.637 78.628L652.401 100.869L646.281 93.9847L646.909 92.3136L624.097 99.0232L622.521 109.341H615.068L619.315 61.986ZM651.403 80.371L652.22 78.2001L651.342 80.2166L651.403 80.371Z"/>
            </mask>
            <path fill-rule="evenodd" clip-rule="evenodd" d="M619.315 61.986C619.804 56.5367 623.08 51.8573 627.779 49.4611L632.248 43.6783L643.897 42.884L644.01 43.0453L644.055 43.0434L648.399 46.326L648.44 46.3331C653.554 47.2051 655.042 47.459 656.615 50.8495C657.278 52.2781 657.717 53.8 657.963 55.3555L661.637 78.628L652.401 100.869L646.281 93.9847L646.909 92.3136L624.097 99.0232L622.521 109.341H615.068L619.315 61.986ZM651.403 80.371L652.22 78.2001L651.342 80.2166L651.403 80.371Z" fill="#9654F4"/>
            <path d="M627.779 49.4611L628.233 50.352L628.433 50.2501L628.57 50.0726L627.779 49.4611ZM619.315 61.986L618.319 61.8967L619.315 61.986ZM632.248 43.6783L632.18 42.6807L631.731 42.7112L631.456 43.0669L632.248 43.6783ZM643.897 42.884L644.718 42.3119L644.394 41.8479L643.829 41.8863L643.897 42.884ZM644.01 43.0453L643.19 43.6175L643.504 44.0672L644.051 44.0444L644.01 43.0453ZM644.055 43.0434L644.658 42.2456L644.372 42.0294L644.014 42.0443L644.055 43.0434ZM648.399 46.326L647.796 47.1238L647.99 47.2708L648.231 47.3118L648.399 46.326ZM648.44 46.3331L648.608 45.3474L648.608 45.3474L648.44 46.3331ZM656.615 50.8495L655.708 51.2703L655.708 51.2703L656.615 50.8495ZM657.963 55.3555L656.975 55.5115V55.5115L657.963 55.3555ZM661.637 78.628L662.561 79.0115L662.669 78.7509L662.625 78.4721L661.637 78.628ZM652.401 100.869L651.654 101.533L652.713 102.725L653.324 101.252L652.401 100.869ZM646.281 93.9847L645.345 93.6325L645.132 94.1978L645.533 94.6491L646.281 93.9847ZM646.909 92.3136L647.845 92.6657L648.552 90.7881L646.627 91.3542L646.909 92.3136ZM624.097 99.0232L623.815 98.0638L623.204 98.2433L623.108 98.8722L624.097 99.0232ZM622.521 109.341V110.341H623.38L623.51 109.492L622.521 109.341ZM615.068 109.341L614.072 109.252L613.974 110.341H615.068V109.341ZM651.403 80.371L650.474 80.7402L651.428 83.1433L652.339 80.7232L651.403 80.371ZM652.22 78.2001L653.156 78.5523L651.303 77.8008L652.22 78.2001ZM651.342 80.2166L650.425 79.8174L650.259 80.199L650.412 80.5858L651.342 80.2166ZM627.325 48.5703C622.325 51.1196 618.839 56.0981 618.319 61.8967L620.311 62.0753C620.769 56.9753 623.835 52.5951 628.233 50.352L627.325 48.5703ZM631.456 43.0669L626.988 48.8497L628.57 50.0726L633.039 44.2898L631.456 43.0669ZM643.829 41.8863L632.18 42.6807L632.316 44.676L643.965 43.8817L643.829 41.8863ZM644.83 42.4731L644.718 42.3119L643.077 43.4562L643.19 43.6175L644.83 42.4731ZM644.051 44.0444L644.097 44.0426L644.014 42.0443L643.968 42.0462L644.051 44.0444ZM643.452 43.8412L647.796 47.1238L649.002 45.5283L644.658 42.2456L643.452 43.8412ZM648.231 47.3118L648.272 47.3189L648.608 45.3474L648.567 45.3403L648.231 47.3118ZM648.272 47.3189C650.893 47.7659 652.367 48.0275 653.413 48.5436C654.342 49.0021 654.975 49.6913 655.708 51.2703L657.522 50.4288C656.682 48.6172 655.785 47.4842 654.298 46.7502C652.928 46.0736 651.1 45.7723 648.608 45.3474L648.272 47.3189ZM655.708 51.2703C656.328 52.6061 656.742 54.0376 656.975 55.5115L658.95 55.1996C658.692 53.5624 658.228 51.9501 657.522 50.4288L655.708 51.2703ZM656.975 55.5115L660.649 78.784L662.625 78.4721L658.95 55.1996L656.975 55.5115ZM660.714 78.2445L651.477 100.485L653.324 101.252L662.561 79.0115L660.714 78.2445ZM653.148 100.204L647.028 93.3203L645.533 94.6491L651.654 101.533L653.148 100.204ZM647.216 94.3369L647.845 92.6657L645.973 91.9614L645.345 93.6325L647.216 94.3369ZM624.379 99.9825L647.191 93.2729L646.627 91.3542L623.815 98.0638L624.379 99.9825ZM623.51 109.492L625.085 99.1741L623.108 98.8722L621.533 109.19L623.51 109.492ZM615.068 110.341H622.521V108.341H615.068V110.341ZM618.319 61.8967L614.072 109.252L616.064 109.431L620.311 62.0753L618.319 61.8967ZM652.339 80.7232L653.156 78.5523L651.284 77.8479L650.467 80.0188L652.339 80.7232ZM652.259 80.6159L653.137 78.5994L651.303 77.8008L650.425 79.8174L652.259 80.6159ZM652.332 80.0018L652.271 79.8475L650.412 80.5858L650.474 80.7402L652.332 80.0018Z" fill="#252527" mask="url(#path-76-inside-2_7480_22207)"/>
        </g>
    </g>
    <defs>
        <clipPath id="clip0_7480_22207">
            <rect width="680" height="196" fill="white"/>
        </clipPath>
        <clipPath id="clip1_7480_22207">
            <rect width="161.169" height="194" fill="white" transform="translate(-6)"/>
        </clipPath>
        <clipPath id="clip2_7480_22207">
            <rect width="155.584" height="194" fill="white" transform="matrix(-1 0 0 1 684 0)"/>
        </clipPath>
    </defs>
</svg>
