<svg width="214" height="217" viewBox="0 0 214 217" fill="none" xmlns="http://www.w3.org/2000/svg">
    <path d="M39.182 48H10.818C5.40427 48 1 43.5957 1 38.182V9.818C1 4.40427 5.40427 0 10.818 0H39.182C44.5957 0 49 4.40427 49 9.818V38.182C49 43.5957 44.5957 48 39.182 48Z" fill="#3E3E40"/>
    <path d="M121.182 48H92.818C87.4043 48 83 43.5957 83 38.182V9.818C83 4.40427 87.4043 0 92.818 0H121.182C126.596 0 131 4.40427 131 9.818V38.182C131 43.5957 126.596 48 121.182 48Z" fill="#3E3E40"/>
    <path d="M203.182 48H174.818C169.404 48 165 43.5957 165 38.182V9.818C165 4.40427 169.404 0 174.818 0H203.182C208.596 0 213 4.40427 213 9.818V38.182C213 43.5957 208.596 48 203.182 48Z" fill="#3E3E40"/>
    <path d="M39.182 118H10.818C5.40427 118 1 113.596 1 108.182V79.818C1 74.4043 5.40427 70 10.818 70H39.182C44.5957 70 49 74.4043 49 79.818V108.182C49 113.596 44.5957 118 39.182 118Z" fill="#252527"/>
    <path d="M121.182 118H92.818C87.4043 118 83 113.596 83 108.182V79.818C83 74.4043 87.4043 70 92.818 70H121.182C126.596 70 131 74.4043 131 79.818V108.182C131 113.596 126.596 118 121.182 118Z" fill="#3E3E40"/>
    <path d="M203.182 118H174.818C169.404 118 165 113.596 165 108.182V79.818C165 74.4043 169.404 70 174.818 70H203.182C208.596 70 213 74.4043 213 79.818V108.182C213 113.596 208.596 118 203.182 118Z" fill="#3E3E40"/>
    <path d="M43 84C48.2467 84 52.5 79.7467 52.5 74.5C52.5 69.2533 48.2467 65 43 65C37.7533 65 33.5 69.2533 33.5 74.5C33.5 79.7467 37.7533 84 43 84Z" fill="#FCA728"/>
    <path d="M120.981 50.1009L120.981 50.1001C121.113 49.5413 121.176 48.9831 121.176 48.4387C121.176 44.5787 118.037 41.2603 113.976 41.2603C110.231 41.2603 107.114 44.13 106.806 47.8616L106.806 47.8619L105.076 68.7427L105.033 69.2615L104.516 69.1976L83.9285 66.651L83.9157 66.6494L83.9029 66.6472L83.8429 66.6366L83.8335 66.6349L83.8336 66.6348L83.816 66.6314L83.6141 66.5917L83.4986 66.4215C82.6475 65.1675 81.1558 64.1744 79.3152 63.8499C76.0626 63.2778 73.2094 65.0074 72.7704 67.492L120.981 50.1009ZM120.981 50.1009L115.079 75.2165L115.079 75.2167M120.981 50.1009L115.079 75.2167M115.079 75.2167C114.306 78.5125 111.008 80.5556 107.715 79.7858L84.0781 72.4515L84.0774 72.4513M115.079 75.2167L84.0774 72.4513M84.0774 72.4513L82.9225 72.0946L82.6839 72.021M84.0774 72.4513L82.6839 72.021M82.6839 72.021L82.4816 72.1674M82.6839 72.021L82.4816 72.1674M82.4816 72.1674C81.2535 73.057 79.5139 73.4814 77.6737 73.1572M82.4816 72.1674L77.6737 73.1572M77.6737 73.1572C74.4211 72.5817 72.3316 69.9803 72.7703 67.4921L77.6737 73.1572Z" fill="#D9AAA7" stroke="#252527"/>
    <path d="M121.676 48.4387C121.676 49.0214 121.609 49.6183 121.467 50.2152L116.625 76.3904C115.788 79.9612 112.21 82.1721 108.643 81.3281L84.9895 74.7516L86.0491 64.509L104.062 66.9813L106.308 47.8206C106.637 43.8295 109.971 40.7603 113.976 40.7603C118.32 40.7603 121.676 44.3099 121.676 48.4387Z" fill="#1D1D1D"/>
    <path d="M151 195.59L147.381 190.682L152.29 187.063L155.908 191.971L151 195.59Z" fill="#D9AAA7" stroke="#252527"/>
    <path d="M147.813 192.543L143.265 201.919L143.242 201.968L143.209 202.01L139.532 206.693C139.209 207.105 139.2 207.689 139.511 208.11C139.775 208.469 140.232 208.649 140.67 208.566L140.761 209.046L140.67 208.566L143.703 207.992C144.896 207.765 146.045 207.265 147.022 206.544L159.167 197.591C159.865 197.076 160.36 196.351 160.567 195.557L161.051 195.683L160.567 195.557C160.741 194.891 160.668 194.409 160.446 194.062L160.446 194.062C160.188 193.658 159.646 193.319 158.69 193.146L158.516 193.114L158.401 192.981C158.333 192.902 157.863 192.364 157.33 191.836C157.063 191.572 156.789 191.319 156.547 191.13C156.425 191.035 156.32 190.962 156.235 190.914C156.159 190.87 156.12 190.858 156.112 190.856C156.11 190.855 156.11 190.855 156.111 190.855L155.816 190.814L155.712 190.534C155.693 190.483 155.604 190.258 155.449 190.023C155.287 189.78 155.096 189.591 154.894 189.517L147.813 192.543ZM147.813 192.543C148.047 192.755 148.288 192.974 148.502 193.166C148.684 193.33 148.848 193.476 148.972 193.585C149.034 193.639 149.088 193.685 149.129 193.721C149.131 193.722 149.132 193.723 149.134 193.725C149.16 193.747 149.219 193.797 149.27 193.827L149.339 193.867L149.417 193.885C150.991 194.233 152.333 194.066 153.272 193.215L152.937 192.844L153.272 193.215C154.073 192.489 154.365 191.447 154.471 190.65C154.532 190.19 154.535 189.782 154.525 189.51C154.67 189.469 154.79 189.479 154.894 189.517L147.813 192.543Z" fill="#FCA728" stroke="#252527"/>
    <path d="M96.8044 209.633V203.535H102.902V209.633H96.8044Z" fill="#D9AAA7" stroke="#252527"/>
    <path d="M86.8231 210.138L96.0476 205.289C96.1096 205.598 96.1742 205.917 96.2324 206.2C96.2819 206.439 96.327 206.654 96.3623 206.815C96.3799 206.896 96.3955 206.965 96.4082 207.018C96.4087 207.02 96.4091 207.022 96.4097 207.024C96.4175 207.057 96.4354 207.132 96.4587 207.187L96.4899 207.261L96.5423 207.321C97.6023 208.535 98.7825 209.197 100.043 209.069C101.118 208.96 101.972 208.295 102.53 207.716C102.852 207.382 103.096 207.056 103.25 206.83C103.391 206.883 103.481 206.963 103.543 207.056C103.661 207.234 103.703 207.5 103.689 207.792C103.675 208.073 103.613 208.306 103.598 208.36L103.515 208.646L103.729 208.855C103.728 208.854 103.728 208.854 103.729 208.855C103.734 208.862 103.758 208.895 103.793 208.975C103.833 209.065 103.875 209.185 103.916 209.334C103.999 209.63 104.069 209.996 104.128 210.368C104.243 211.109 104.302 211.82 104.31 211.925L104.324 212.1L104.445 212.229C105.111 212.935 105.346 213.53 105.315 214.008L105.315 214.008C105.287 214.419 105.06 214.85 104.525 215.284L104.84 215.672L104.525 215.284C103.887 215.8 103.059 216.089 102.191 216.089H87.1032C85.8886 216.089 84.6667 215.811 83.572 215.285L83.3554 215.735L83.572 215.285L80.7905 213.948L80.5739 214.398L80.7905 213.948C80.3886 213.754 80.1272 213.339 80.1272 212.893C80.1272 212.369 80.4809 211.904 80.9855 211.765C80.9855 211.765 80.9855 211.765 80.9855 211.765L86.7238 210.177L86.7756 210.162L86.8231 210.138Z" fill="#FCA728" stroke="#252527"/>
    <path d="M132.364 92.0798H98.3457L92.9232 204.933H104.903L112.644 153.636L143.703 194.674L155.043 184.415L132.364 153.636V92.0798Z" fill="#1D1D1D"/>
    <path d="M123.606 17.9134C123.606 17.9134 132.979 17.8931 129.477 8.86221C125.976 -0.168685 119.456 3.87493 119.456 3.87493C119.456 3.87493 116.709 5.32601 117.276 8.56352" fill="#1D1D1D"/>
    <path d="M108.745 34.1346L108.698 33.8258L108.4 33.7323C103.514 32.1997 99.9698 27.636 99.9698 22.2454C99.9698 15.5975 105.359 10.2083 112.007 10.2083C118.655 10.2083 124.044 15.5975 124.044 22.2454C124.044 26.4353 121.903 30.1241 118.653 32.2807L118.322 32.5002L118.461 32.8722C119.194 34.8343 120.239 36.6754 121.095 38.02C121.524 38.6939 121.908 39.2466 122.185 39.6316C122.243 39.7122 122.296 39.7855 122.344 39.8511L111.036 49.2746L108.745 34.1346Z" fill="#D9AAA7" stroke="#252527"/>
    <path d="M118.03 32.8361C118.03 32.8361 119.695 26.453 116.973 23.518C114.257 20.5897 113.906 25.146 113.906 25.146L111.946 24.72C111.946 24.72 112.287 20.289 108.453 19.5221L110.924 14.2391C110.924 14.2391 101.463 16.076 101.202 15.1597C99.1504 7.94989 118.724 1.79099 124.131 12.7905C132.541 29.8984 118.03 32.8361 118.03 32.8361Z" fill="#1D1D1D"/>
    <path d="M124.894 76.6094L130.45 92.9818L99.0154 92.6286L103.702 77.669L124.894 76.6094Z" fill="#D9AAA7"/>
    <path d="M134.731 110.746H126.335L124.524 100.784L123.541 100.779L121.652 110.693L95.5297 107.504L108.551 40.2788L121.837 35.66C123.297 38.1175 124.266 40.8361 124.689 43.6652L134.731 110.746Z" fill="#9654F4" stroke="#252527"/>
    <path d="M117.647 114.983L117.642 115.194L117.791 115.345C118.857 116.424 119.539 118.081 119.499 119.948C119.427 123.25 117.174 125.712 114.649 125.657C112.125 125.603 109.98 123.046 110.052 119.743C110.092 117.876 110.846 116.25 111.958 115.218L112.113 115.074L112.117 114.863L112.349 104.18L117.879 104.3L117.647 114.983Z" fill="#D9AAA7" stroke="#252527"/>
    <path d="M109.133 59.0232V113.227H120.472L123.823 59.4808" fill="#1D1D1D"/>
    <path d="M131.967 116.516C131.768 116.516 131.569 116.509 131.369 116.494C128.987 116.315 126.936 115.037 125.275 112.697C119.024 103.889 106.419 74.7387 106.419 66.4493C106.419 58.5278 108.143 40.3725 108.203 40.1005L120.934 33.0515C127.042 34.4854 131.293 40.0786 131.044 46.351C130.434 61.6759 132.005 96.6104 142.284 111.087L142.369 111.207L142.268 111.312C142.055 111.532 137.186 116.516 131.967 116.516Z" fill="#1D1D1D"/>
</svg>
