<svg width="44" height="44" viewBox="0 0 44 44" fill="none" xmlns="http://www.w3.org/2000/svg">
    <path d="M17.0242 12.31C17.7752 12.5644 18.4896 12.9161 19.1492 13.356C20.0808 13.1179 21.0387 12.9983 22.0002 13C22.9932 13 23.9512 13.124 24.8492 13.355C25.5086 12.9155 26.2227 12.5642 26.9732 12.31C27.6702 12.073 28.6632 11.689 29.2532 12.342C29.6532 12.786 29.7532 13.53 29.8242 14.098C29.9042 14.732 29.9232 15.558 29.7132 16.378C30.5162 17.415 31.0002 18.652 31.0002 20C31.0002 22.042 29.8942 23.815 28.2572 25.043C27.4694 25.6265 26.5956 26.084 25.6672 26.399C25.8812 26.889 26.0002 27.431 26.0002 28V31C26.0002 31.2652 25.8949 31.5196 25.7073 31.7071C25.5198 31.8946 25.2654 32 25.0002 32H19.0002C18.735 32 18.4807 31.8946 18.2931 31.7071C18.1056 31.5196 18.0002 31.2652 18.0002 31V30.009C17.0452 30.126 16.2442 30.022 15.5632 29.733C14.8512 29.431 14.3552 28.963 13.9822 28.515C13.6282 28.091 13.2422 27.135 12.6842 26.949C12.5596 26.9075 12.4444 26.8419 12.3451 26.7558C12.2459 26.6698 12.1645 26.5651 12.1057 26.4476C11.987 26.2104 11.9674 25.9357 12.0512 25.684C12.135 25.4323 12.3154 25.2242 12.5526 25.1055C12.7899 24.9868 13.0645 24.9672 13.3162 25.051C13.9822 25.273 14.4162 25.753 14.7132 26.139C15.1932 26.759 15.5832 27.569 16.3432 27.892C16.6562 28.025 17.1152 28.112 17.8332 28.014L18.0002 27.98C18.0021 27.4358 18.1155 26.8977 18.3332 26.399C17.4048 26.084 16.531 25.6265 15.7432 25.043C14.1062 23.815 13.0002 22.043 13.0002 20C13.0002 18.654 13.4832 17.418 14.2842 16.382C14.0742 15.562 14.0922 14.734 14.1722 14.099L14.1772 14.061C14.2502 13.479 14.3352 12.794 14.7432 12.342C15.3332 11.689 16.3272 12.074 17.0232 12.311L17.0242 12.31Z" fill="#C5C5C6"/>
</svg>
