<svg width="180" height="44" viewBox="0 0 180 44" fill="none" xmlns="http://www.w3.org/2000/svg">
<g clip-path="url(#clip0_40000033_11357)">
<mask id="mask0_40000033_11357" style="mask-type:luminance" maskUnits="userSpaceOnUse" x="-66" y="-69" width="186" height="183">
<path d="M119.775 -68.53H-65.7666V113.361H119.775V-68.53Z" fill="white"/>
</mask>
<g mask="url(#mask0_40000033_11357)">
<mask id="mask1_40000033_11357" style="mask-type:luminance" maskUnits="userSpaceOnUse" x="-66" y="-69" width="186" height="183">
<path d="M119.775 -68.53H-65.7666V113.361H119.775V-68.53Z" fill="white"/>
</mask>
<g mask="url(#mask1_40000033_11357)">
<path d="M21.5307 5.53058H4.59668V39.05H21.5307V5.53058Z" fill="#8133F1"/>
</g>
<mask id="mask2_40000033_11357" style="mask-type:luminance" maskUnits="userSpaceOnUse" x="-66" y="-69" width="186" height="183">
<path d="M119.775 -68.53H-65.7666V113.361H119.775V-68.53Z" fill="white"/>
</mask>
<g mask="url(#mask2_40000033_11357)">
<path d="M43.3676 2.42615H22.9053V41.8398H43.3676V2.42615Z" fill="#8133F1"/>
</g>
<mask id="mask3_40000033_11357" style="mask-type:luminance" maskUnits="userSpaceOnUse" x="-66" y="-69" width="186" height="183">
<path d="M119.775 -68.53H-65.7666V113.361H119.775V-68.53Z" fill="white"/>
</mask>
<g mask="url(#mask3_40000033_11357)">
<path d="M28.3044 9.79918C31.8296 9.39279 32.1413 14.3703 29.0244 14.6545C25.6862 14.957 25.2872 10.1475 28.3044 9.79918Z" fill="white"/>
</g>
<mask id="mask4_40000033_11357" style="mask-type:luminance" maskUnits="userSpaceOnUse" x="-66" y="-69" width="186" height="183">
<path d="M119.775 -68.53H-65.7666V113.361H119.775V-68.53Z" fill="white"/>
</mask>
<g mask="url(#mask4_40000033_11357)">
<path d="M18.9598 9.95807C20.9733 9.76557 24.0996 9.92446 23.632 12.7386C23.1084 15.8981 17.8596 13.0503 17.0024 16.3411C15.5749 21.8167 26.1785 19.3295 29.3453 20.1361C37.0845 22.107 36.2554 33.4614 28.6253 34.3078C26.7707 34.5125 19.4897 34.5859 17.7629 34.3078C15.3785 33.9228 15.338 30.2164 17.844 29.8436C20.777 29.4097 25.5707 30.415 28.3074 29.7642C30.3053 29.2906 30.8975 26.4672 29.3453 25.1442C26.5868 22.7945 18.5079 26.7911 14.1287 21.8961C10.1671 17.4656 13.0346 10.5203 18.9598 9.95807Z" fill="white"/>
</g>
</g>
</g>
<path d="M63.26 15C65.02 15 66.4667 15.36 67.6 16.08C68.7333 16.7867 69.3133 17.84 69.34 19.24V19.48H65.2V19.4C65.2 19 65.0533 18.6667 64.76 18.4C64.4667 18.1333 64.02 18 63.42 18C62.8333 18 62.38 18.0867 62.06 18.26C61.7533 18.4333 61.6 18.6467 61.6 18.9C61.6 19.26 61.8133 19.5267 62.24 19.7C62.6667 19.8733 63.3533 20.0533 64.3 20.24C65.4067 20.4667 66.3133 20.7067 67.02 20.96C67.74 21.2 68.3667 21.6 68.9 22.16C69.4333 22.72 69.7067 23.48 69.72 24.44C69.72 26.0667 69.1667 27.2733 68.06 28.06C66.9667 28.8467 65.5 29.24 63.66 29.24C61.5133 29.24 59.84 28.88 58.64 28.16C57.4533 27.44 56.86 26.1667 56.86 24.34H61.04C61.04 25.0333 61.22 25.5 61.58 25.74C61.94 25.9667 62.5 26.08 63.26 26.08C63.82 26.08 64.28 26.02 64.64 25.9C65.0133 25.78 65.2 25.5333 65.2 25.16C65.2 24.8267 64.9933 24.58 64.58 24.42C64.18 24.2467 63.52 24.0667 62.6 23.88C61.48 23.64 60.5533 23.3933 59.82 23.14C59.0867 22.8733 58.4467 22.44 57.9 21.84C57.3533 21.24 57.08 20.4267 57.08 19.4C57.08 17.8933 57.66 16.7867 58.82 16.08C59.9933 15.36 61.4733 15 63.26 15ZM83.2336 15.24H88.7136L83.7736 20.9L88.8136 29H83.5936L80.7336 23.96L78.3336 25.92V29H73.9136V15.24H78.3336V21.12L83.2336 15.24ZM92.7738 29V15.24H97.1938V29H92.7738ZM102.347 15.24H106.767V25.48H113.827V29H102.347V15.24ZM117.687 15.24H122.107V25.48H129.167V29H117.687V15.24ZM138.827 25.7H145.367V29H132.027V27.58L138.407 18.54H132.507V15.24H145.207V16.66L138.827 25.7ZM155.26 25.7H161.8V29H148.46V27.58L154.84 18.54H148.94V15.24H161.64V16.66L155.26 25.7ZM174.434 29H170.014V23.66L164.554 15.24H169.634L172.274 19.82H172.354L174.994 15.24H179.814L174.434 23.66V29Z" fill="white"/>
<defs>
<clipPath id="clip0_40000033_11357">
<rect width="48" height="44" fill="white"/>
</clipPath>
</defs>
</svg>
