<svg width="48" height="48" viewBox="0 0 48 48" fill="none" xmlns="http://www.w3.org/2000/svg">
    <path d="M24 18C28.42 18 32 14.42 32 10C32 5.58 28.42 2 24 2C19.58 2 16 5.58 16 10C16 14.42 19.58 18 24 18ZM24 6C26.2 6 28 7.8 28 10C28 12.2 26.2 14 24 14C21.8 14 20 12.2 20 10C20 7.8 21.8 6 24 6ZM24 23.1C19.28 18.7 12.96 16 6 16V38C12.96 38 19.28 40.7 24 45.1C28.72 40.72 35.04 38 42 38V16C35.04 16 28.72 18.7 24 23.1ZM38 34.26C32.94 34.94 28.14 36.86 24 39.9C19.88 36.86 15.06 34.92 10 34.24V20.34C14.2 21.1 18.1 23.04 21.28 26L24 28.56L26.72 26.02C29.9 23.06 33.8 21.12 38 20.36V34.26Z" fill="#69696B"/>
</svg>
