<svg width="48" height="48" viewBox="0 0 48 48" fill="none" xmlns="http://www.w3.org/2000/svg">
    <path d="M24.218 3C23.1528 3 22.0644 3.09263 20.9759 3.32421C14.5844 4.55158 9.48962 9.71579 8.28541 16.1074C7.17383 22.1516 9.39699 27.7095 13.4265 31.2989C14.4223 32.1789 14.9549 33.4063 14.9549 34.7032V40.0526C14.9549 42.6 17.0391 44.6842 19.5865 44.6842H20.2349C21.0454 46.0737 22.5044 47 24.218 47C25.9317 47 27.4138 46.0737 28.2012 44.6842H28.8496C31.397 44.6842 33.4812 42.6 33.4812 40.0526V34.7032C33.4812 33.4295 33.9907 32.1789 34.9633 31.3221C38.3212 28.3579 40.4286 24.0274 40.4286 19.2105C40.4286 10.2484 33.1801 3 24.218 3ZM28.8496 35.4211H19.5865V33.1053H28.8496V35.4211ZM19.5865 40.0526V37.7368H28.8496V40.0526H19.5865ZM31.8833 27.8716C31.6749 28.0568 31.5128 28.2884 31.3275 28.4737H17.0854C16.9001 28.2653 16.738 28.0337 16.5296 27.8484C13.4728 25.1158 12.1065 21.04 12.8475 16.9642C13.6812 12.4716 17.3865 8.74316 21.8559 7.86316C22.6433 7.70105 23.4307 7.63158 24.218 7.63158C30.6096 7.63158 35.797 12.8189 35.797 19.2105C35.797 22.5221 34.3844 25.6716 31.8833 27.8716Z" fill="#69696B"/>
    <path d="M25.3759 21.5263H23.0601V28.4737H25.3759V21.5263Z" fill="#69696B"/>
    <path d="M20.4653 16.6023L18.8278 18.2398L23.7403 23.1523L25.3778 21.5148L20.4653 16.6023Z" fill="#69696B"/>
    <path d="M23.0625 21.5383L24.7 23.1758L29.6124 18.2633L27.9749 16.6258L23.0625 21.5383Z" fill="#69696B"/>
</svg>
