<svg width="48" height="48" viewBox="0 0 48 48" fill="none" xmlns="http://www.w3.org/2000/svg">
    <path d="M13.542 27.1C8.901 27.1 5.142 30.859 5.142 35.5C5.142 40.141 8.901 43.9 13.542 43.9C18.183 43.9 21.942 40.141 21.942 35.5C21.942 30.859 18.183 27.1 13.542 27.1ZM13.542 39.7C11.232 39.7 9.342 37.81 9.342 35.5C9.342 33.19 11.232 31.3 13.542 31.3C15.852 31.3 17.742 33.19 17.742 35.5C17.742 37.81 15.852 39.7 13.542 39.7ZM26.1 27.1V43.9H42.9V27.1H26.1ZM38.7 39.7H30.3V31.3H38.7V39.7ZM13.5 4L3 22.9H24L13.5 4ZM13.5 12.652L16.86 18.7H10.14L13.5 12.652ZM39.225 5.05C36.999 5.05 35.424 6.226 34.5 7.507C33.576 6.226 32.001 5.05 29.775 5.05C26.499 5.05 24 7.738 24 10.825C24 15.025 29.082 18.007 34.5 22.9C39.918 18.007 45 15.025 45 10.825C45 7.738 42.501 5.05 39.225 5.05ZM34.5 17.335C31.455 14.773 28.2 12.295 28.2 10.825C28.2 9.922 28.935 9.25 29.775 9.25C30.426 9.25 30.867 9.607 31.308 10.027L34.5 13.03L37.692 10.027C38.133 9.607 38.574 9.25 39.225 9.25C40.065 9.25 40.8 9.922 40.8 10.825C40.8 12.295 37.545 14.773 34.5 17.335Z" fill="#69696B"/>
</svg>
