<svg width="48" height="48" viewBox="0 0 48 48" fill="none" xmlns="http://www.w3.org/2000/svg">
    <path d="M11.7778 46V41.1111H21.5556V33.5333C19.5593 33.0852 17.7769 32.2398 16.2083 30.9972C14.6398 29.7546 13.4889 28.1963 12.7556 26.3222C9.7 25.9556 7.14352 24.6213 5.08611 22.3194C3.0287 20.0176 2 17.3185 2 14.2222V11.7778C2 10.4333 2.4787 9.28241 3.43611 8.325C4.39352 7.36759 5.54444 6.88889 6.88889 6.88889H11.7778V2H36.2222V6.88889H41.1111C42.4556 6.88889 43.6065 7.36759 44.5639 8.325C45.5213 9.28241 46 10.4333 46 11.7778V14.2222C46 17.3185 44.9713 20.0176 42.9139 22.3194C40.8565 24.6213 38.3 25.9556 35.2444 26.3222C34.5111 28.1963 33.3602 29.7546 31.7917 30.9972C30.2231 32.2398 28.4407 33.0852 26.4444 33.5333V41.1111H36.2222V46H11.7778ZM11.7778 21.0667V11.7778H6.88889V14.2222C6.88889 15.7704 7.33704 17.1657 8.23333 18.4083C9.12963 19.6509 10.3111 20.537 11.7778 21.0667ZM24 28.8889C26.037 28.8889 27.7685 28.1759 29.1944 26.75C30.6204 25.3241 31.3333 23.5926 31.3333 21.5556V6.88889H16.6667V21.5556C16.6667 23.5926 17.3796 25.3241 18.8056 26.75C20.2315 28.1759 21.963 28.8889 24 28.8889ZM36.2222 21.0667C37.6889 20.537 38.8704 19.6509 39.7667 18.4083C40.663 17.1657 41.1111 15.7704 41.1111 14.2222V11.7778H36.2222V21.0667Z" fill="#69696B"/>
</svg>
