<svg width="48" height="48" viewBox="0 0 48 48" fill="none" xmlns="http://www.w3.org/2000/svg">
    <path d="M26.1 39.6H21.9V45.9H26.1V39.6Z" fill="#69696B"/>
    <path d="M9.3 22.8H3V27H9.3V22.8Z" fill="#69696B"/>
    <path d="M45 22.8H38.7V27H45V22.8Z" fill="#69696B"/>
    <path d="M35.1325 34.128L32.1775 37.0829L36.6323 41.5377L39.5872 38.5827L35.1325 34.128Z" fill="#69696B"/>
    <path d="M12.8815 34.1131L8.42676 38.5679L11.3817 41.5228L15.8365 37.0681L12.8815 34.1131Z" fill="#69696B"/>
    <path d="M30.3 16.542V6H17.7V16.542C15.159 18.474 13.5 21.477 13.5 24.9C13.5 30.696 18.204 35.4 24 35.4C29.796 35.4 34.5 30.696 34.5 24.9C34.5 21.477 32.841 18.474 30.3 16.542ZM21.9 10.2H26.1V14.61C25.428 14.484 24.714 14.4 24 14.4C23.286 14.4 22.572 14.484 21.9 14.61V10.2ZM24 31.2C20.535 31.2 17.7 28.365 17.7 24.9C17.7 21.435 20.535 18.6 24 18.6C27.465 18.6 30.3 21.435 30.3 24.9C30.3 28.365 27.465 31.2 24 31.2Z" fill="#69696B"/>
</svg>
