<svg width="48" height="48" viewBox="0 0 48 48" fill="none" xmlns="http://www.w3.org/2000/svg">
    <path d="M18.901 27.4933L23.7619 23.8057L28.6019 27.4933L26.7581 21.5219L31.619 17.6667H25.6686L23.7619 11.779L21.8552 17.6667H15.9048L20.7448 21.5219L18.901 27.4933ZM40.5238 19.7619C40.5238 10.501 33.0229 3 23.7619 3C14.501 3 7 10.501 7 19.7619C7 24.0152 8.59238 27.8705 11.1905 30.8248V47L23.7619 42.8095L36.3333 47V30.8248C38.9314 27.8705 40.5238 24.0152 40.5238 19.7619ZM23.7619 7.19048C30.6971 7.19048 36.3333 12.8267 36.3333 19.7619C36.3333 26.6971 30.6971 32.3333 23.7619 32.3333C16.8267 32.3333 11.1905 26.6971 11.1905 19.7619C11.1905 12.8267 16.8267 7.19048 23.7619 7.19048ZM23.7619 38.619L15.381 40.7562V34.261C17.8533 35.6857 20.7029 36.5238 23.7619 36.5238C26.821 36.5238 29.6705 35.6857 32.1429 34.261V40.7562L23.7619 38.619Z" fill="#69696B"/>
</svg>
