<svg width="48" height="48" viewBox="0 0 48 48" fill="none" xmlns="http://www.w3.org/2000/svg">
    <path d="M21.1795 6.51282C21.8113 6.51282 22.3077 7.00923 22.3077 7.64103V12.1538H35.8462V25.6923H40.359C40.9908 25.6923 41.4872 26.1887 41.4872 26.8205C41.4872 27.4523 40.9908 27.9487 40.359 27.9487H35.8462V41.4872H31.0626C29.5282 37.5385 25.6697 34.7179 21.1795 34.7179C16.6892 34.7179 12.8308 37.5385 11.2964 41.4872H6.51282V36.7036C10.4615 35.1692 13.2821 31.3108 13.2821 26.8205C13.2821 22.3303 10.4841 18.4718 6.53539 16.9374L6.51282 12.1538H20.0513V7.64103C20.0513 7.00923 20.5477 6.51282 21.1795 6.51282ZM21.1795 2C18.0656 2 15.5385 4.52718 15.5385 7.64103H6.51282C4.03077 7.64103 2.02256 9.6718 2.02256 12.1538V20.7282H2.67692C6.03897 20.7282 8.76923 23.4585 8.76923 26.8205C8.76923 30.1826 6.03897 32.9128 2.67692 32.9128H2V41.4872C2 43.9692 4.03077 46 6.51282 46H15.0872V45.3231C15.0872 41.961 17.8174 39.2308 21.1795 39.2308C24.5415 39.2308 27.2718 41.961 27.2718 45.3231V46H35.8462C38.3282 46 40.359 43.9692 40.359 41.4872V32.4615C43.4728 32.4615 46 29.9344 46 26.8205C46 23.7067 43.4728 21.1795 40.359 21.1795V12.1538C40.359 9.6718 38.3282 7.64103 35.8462 7.64103H26.8205C26.8205 4.52718 24.2933 2 21.1795 2Z" fill="#69696B"/>
</svg>
