<svg width="46.000000" height="38.000000" viewBox="0 0 46 38" fill="none" xmlns="http://www.w3.org/2000/svg">
	<desc>
			Created with Pixso.
	</desc>
	<defs/>
	<path id="Vector" d="M32.4 25L40 18.5L46 19L37.2 26.64L39.79 38L34.7 34.89L32.4 25ZM27.7 10.39L25.59 5.5L27.9 0L32.5 10.85L27.7 10.39ZM13.7 29.64L20 25.85L26.29 29.7L24.65 22.5L30.2 17.7L22.9 17.04L20 10.25L17.09 17L9.79 17.64L15.34 22.5L13.7 29.64ZM7.65 38L10.9 23.95L0 14.5L14.4 13.25L20 0L25.59 13.25L40 14.5L29.09 23.95L32.34 38L20 30.55L7.65 38Z" fill="#69696B" fill-opacity="1.000000" fill-rule="evenodd"/>
</svg>
