<svg width="342" height="219" viewBox="0 0 342 219" fill="none" xmlns="http://www.w3.org/2000/svg">
    <g clip-path="url(#clip0_7694_38960)">
        <path opacity="0.39" d="M63.6192 127.476H3.27429C1.5208 127.476 0.0942383 126.049 0.0942383 124.295V27.0767C0.0942383 25.3231 1.5208 23.8965 3.27429 23.8965H63.6192C65.3727 23.8965 66.7992 25.3231 66.7992 27.0767V124.295C66.7992 126.049 65.3727 127.476 63.6192 127.476Z" fill="#EE7538"/>
        <path opacity="0.39" d="M132.396 127.476H72.0509C70.2974 127.476 68.8708 126.049 68.8708 124.295V27.0767C68.8708 25.3231 70.2974 23.8965 72.0509 23.8965H132.396C134.149 23.8965 135.576 25.3231 135.576 27.0767V124.295C135.576 126.049 134.149 127.476 132.396 127.476Z" fill="#EE7538"/>
        <path d="M69 136C73.9706 136 78 131.971 78 127C78 122.029 73.9706 118 69 118C64.0294 118 60 122.029 60 127C60 131.971 64.0294 136 69 136Z" fill="#EE7538"/>
        <path d="M52.5 150C54.9853 150 57 147.985 57 145.5C57 143.015 54.9853 141 52.5 141C50.0147 141 48 143.015 48 145.5C48 147.985 50.0147 150 52.5 150Z" fill="#EE7538"/>
        <path d="M141.18 128.079H201.525C203.555 128.079 205.205 126.429 205.205 124.399V27.1802C205.205 25.1505 203.555 23.5 201.525 23.5H141.18C139.15 23.5 137.5 25.1505 137.5 27.1802V124.399C137.5 126.429 139.15 128.079 141.18 128.079Z" fill="#444446" stroke="#444446"/>
        <path d="M168.225 96H173.775C174.45 96 175 95.5722 175 95.0463V70.9537C175 70.4278 174.45 70 173.775 70H168.225C167.55 70 167 70.4278 167 70.9537V95.0463C167 95.5722 167.55 96 168.225 96Z" fill="#EE7538"/>
        <path d="M186.948 82C187.528 82 188 82.346 188 82.7713V95.2287C188 95.654 187.528 96 186.948 96H181.052C180.472 96 180 95.654 180 95.2287V82.7713C180 82.346 180.472 82 181.052 82H186.948Z" fill="#EE7538"/>
        <path d="M156.225 96H161.775C162.45 96 163 95.5659 163 95.0322V54.9678C163 54.4341 162.45 54 161.775 54H156.225C155.55 54 155 54.4341 155 54.9678V95.0322C155 95.5659 155.55 96 156.225 96Z" fill="#EE7538"/>
        <path d="M179 54.5C179 54.7773 178.779 55 178.505 55H93.4952C93.2206 55 93 54.7773 93 54.5C93 54.2227 93.2206 54 93.4952 54H178.505C178.779 54 179 54.2227 179 54.5Z" fill="#828283"/>
        <path d="M204 96.5C204 96.7773 203.779 97 203.505 97H118.495C118.221 97 118 96.7773 118 96.5C118 96.2227 118.221 96 118.495 96H203.505C203.779 96 204 96.2227 204 96.5Z" fill="#828283"/>
        <path opacity="0.39" d="M269.949 127.476H209.604C207.85 127.476 206.424 126.049 206.424 124.295V27.0767C206.424 25.3231 207.85 23.8965 209.604 23.8965H269.949C271.702 23.8965 273.129 25.3231 273.129 27.0767V124.295C273.129 126.049 271.702 127.476 269.949 127.476Z" fill="#EE7538"/>
        <path opacity="0.39" d="M338.525 127.579H278.18C276.427 127.579 275 126.153 275 124.399V27.1802C275 25.4266 276.427 24 278.18 24H338.525C340.278 24 341.705 25.4266 341.705 27.1802V124.399C341.705 126.153 340.278 127.579 338.525 127.579Z" fill="#EE7538"/>
        <path d="M218.684 9.23323L225.169 4.1875C225.169 4.1875 232.568 6.49362 232.759 6.58899C232.95 6.68435 244.242 32.871 244.242 32.871C244.242 32.871 215.316 47.6744 217.431 46.2309C219.547 44.7917 219.109 25.2807 217.141 22.7362C215.168 20.1873 216.85 13.7978 216.85 13.7978L218.675 9.23323H218.684Z" fill="#252527"/>
        <path d="M228.317 34.292V21.5332H236.149L236.979 31.4448L228.317 34.292Z" fill="#9B616A" stroke="#444446"/>
        <path d="M237.816 15.658C237.816 20.7158 233.716 24.8159 228.658 24.8159C223.6 24.8159 219.5 20.7158 219.5 15.658C219.5 10.6002 223.6 6.5 228.658 6.5C233.716 6.5 237.816 10.6002 237.816 15.658Z" fill="#9B616A" stroke="#444446"/>
        <path d="M216.989 13.473L219.356 13.8761C221.567 5.03308 226.569 7.92006 227.046 7.82036C227.523 7.72066 234.636 15.506 234.06 23.3867C233.483 31.2674 243.67 34.9606 243.67 34.9606C243.67 34.9606 247.229 41.6493 244.056 53.7564C240.883 65.8636 247.61 69.9253 247.61 69.9253C260.875 68.7982 252.899 50.2972 250.783 46.9334C248.668 43.5696 250.111 37.7089 250.111 37.7089C253.38 34.8263 249.535 28.4844 249.535 28.4844C249.535 28.4844 250.211 20.0272 248.191 18.393C246.171 16.7588 246.076 12.723 246.076 12.723C242.517 -2.74792 230.891 0.230101 230.891 0.230101C215.996 -1.40413 216.989 13.473 216.989 13.473Z" fill="#252527"/>
        <path d="M223.807 209.55V196.875H232.448V209.55H223.807Z" fill="#9B616A" stroke="#444446"/>
        <path d="M213.919 218.33C212.905 218.33 212.003 218.305 211.323 218.243C208.762 218.008 206.319 216.118 205.091 215.012C204.541 214.517 204.363 213.725 204.65 213.042C204.856 212.552 205.267 212.187 205.778 212.041L212.544 210.108L223.5 202.716L223.622 202.935C223.668 203.017 224.744 204.955 225.104 206.265C225.241 206.763 225.205 207.178 224.997 207.499C224.853 207.721 224.653 207.85 224.489 207.924C224.688 208.132 225.309 208.552 227.224 208.858C230.016 209.302 230.606 206.406 230.63 206.283L230.648 206.186L230.731 206.132C232.062 205.276 232.879 204.887 233.162 204.969C233.339 205.022 233.634 205.11 234.426 212.998C234.507 213.245 235.063 215.061 234.684 216.796C234.273 218.685 226.024 218.035 224.375 217.885C224.328 217.891 218.151 218.33 213.919 218.33Z" fill="#252527"/>
        <path d="M259.61 201.65L252.903 190.895L260.235 186.323L266.942 197.078L259.61 201.65Z" fill="#9B616A" stroke="#444446"/>
        <path d="M249.532 216.455C248.401 216.455 247.361 216.319 246.62 216.188C245.89 216.059 245.321 215.481 245.203 214.75C245.118 214.225 245.274 213.698 245.63 213.303L250.349 208.082L255.733 196.013L255.953 196.134C256.035 196.179 257.973 197.255 258.972 198.175C259.352 198.526 259.541 198.897 259.534 199.279C259.529 199.544 259.428 199.76 259.328 199.908C259.607 199.981 260.356 200.008 262.143 199.255C264.747 198.155 263.715 195.384 263.67 195.267L263.635 195.175L263.677 195.085C264.352 193.655 264.839 192.89 265.124 192.812C265.302 192.763 265.599 192.683 270.445 198.956C270.644 199.123 272.077 200.369 272.674 202.042C273.324 203.863 265.981 207.676 264.502 208.422C264.457 208.459 256.772 214.044 253.617 215.631C252.366 216.261 250.884 216.455 249.532 216.455Z" fill="#252527"/>
        <path d="M230.043 146.089L229.091 146.349L234.546 199.376H221.768L211.11 107.105L213.51 82.5049H240.032C240.04 82.5057 240.06 82.508 240.09 82.5142C240.153 82.5267 240.263 82.5554 240.419 82.6199C240.73 82.749 241.228 83.0234 241.891 83.6051C243.219 84.7719 245.19 87.1598 247.623 92.0256C248.201 93.1812 248.629 94.8073 248.924 96.7995C249.219 98.785 249.376 101.103 249.428 103.623C249.532 108.664 249.213 114.481 248.741 120.003C248.268 125.523 247.643 130.738 247.136 134.575C246.882 136.493 246.658 138.065 246.497 139.158C246.417 139.705 246.353 140.131 246.308 140.421C246.286 140.565 246.269 140.676 246.257 140.75L246.244 140.834L246.241 140.855L246.24 140.861L246.24 140.862C246.24 140.862 246.24 140.862 246.734 140.941L246.24 140.862L246.219 140.995L246.267 141.121L263.577 185.914L252.142 193.919L230.043 146.089Z" fill="#9654F4" stroke="#444446"/>
        <path d="M253.469 83.535H210.607L223.466 28.1201H242.141L253.469 83.535Z" fill="#252527"/>
        <path d="M200.455 26.936L200.455 26.936L200.454 26.929C200.128 25.3255 200.269 23.8146 200.733 22.6739C201.199 21.5294 201.959 20.8136 202.854 20.642L202.761 20.1531L202.854 20.642C203.752 20.4701 204.739 20.8533 205.62 21.7439C206.497 22.6306 207.217 23.9786 207.542 25.5827L207.542 25.5827L207.543 25.5896C207.818 26.8521 207.775 28.1608 207.417 29.4067L207.384 29.5209L207.406 29.6377L210.02 43.4516L204.028 44.3985L202.169 30.6703L202.151 30.533L202.064 30.4248C201.245 29.4021 200.694 28.2057 200.455 26.936Z" fill="#9B616A" stroke="#444446"/>
        <path d="M241.684 28.1201H225.212L214.109 50.326L209.922 33.6871L200.722 34.6641C200.722 34.6641 202.899 67.1763 212.416 66.0782C221.932 64.9801 244.124 35.6847 241.684 28.1201Z" fill="#252527"/>
        <path d="M259.587 112.661L259.587 112.661L259.588 112.668C259.914 114.272 259.773 115.783 259.309 116.923C258.843 118.068 258.083 118.784 257.188 118.955C256.29 119.127 255.303 118.744 254.422 117.853C253.545 116.967 252.825 115.619 252.5 114.014L252.5 114.014L252.499 114.008C252.224 112.745 252.267 111.436 252.625 110.19L252.658 110.076L252.636 109.959L250.022 96.1456L256.014 95.1987L257.873 108.927L257.891 109.064L257.978 109.172C258.797 110.195 259.348 111.391 259.587 112.661Z" fill="#9B616A" stroke="#444446"/>
        <path d="M232.297 28.1204C232.297 28.1204 241.657 27.7242 242.141 28.1204C244.694 30.2078 259.681 105.474 259.681 105.474H250.19L232.297 28.1204Z" fill="#252527"/>
    </g>
    <defs>
        <clipPath id="clip0_7694_38960">
            <rect width="341.811" height="219" fill="white" transform="translate(0.0942383)"/>
        </clipPath>
    </defs>
</svg>
