<svg width="266" height="266" viewBox="0 0 266 266" fill="none" xmlns="http://www.w3.org/2000/svg">
<mask id="path-1-inside-1_13679_38424" fill="white">
<path d="M77.9097 0H188.09V0.00478902L266 77.9131V188.092L188.09 266H77.9097L0 188.092V77.9131L77.9097 0Z"/>
</mask>
<path d="M77.9097 0H188.09V0.00478902L266 77.9131V188.092L188.09 266H77.9097L0 188.092V77.9131L77.9097 0Z" fill="#ECECED" stroke="#A9A9AA" stroke-width="2" mask="url(#path-1-inside-1_13679_38424)"/>
<mask id="path-2-inside-2_13679_38424" fill="white">
<path d="M96.5493 45H169.451V45.0032L221 96.5515V169.452L169.451 221H96.5493L45 169.452V96.5515L96.5493 45Z"/>
</mask>
<path d="M96.5493 45H169.451V45.0032L221 96.5515V169.452L169.451 221H96.5493L45 169.452V96.5515L96.5493 45Z" fill="#ECECED" stroke="#A9A9AA" stroke-width="2" mask="url(#path-2-inside-2_13679_38424)"/>
<g opacity="0.76">
<mask id="path-3-inside-3_13679_38424" fill="white">
<path d="M188 266H78L0 188V78L78 0H188L266 78V188L188 266Z"/>
</mask>
<path d="M188 266H78L0 188V78L78 0H188L266 78V188L188 266Z" fill="#ECECED"/>
<path d="M150.811 90H151.311V89.5H150.811V90ZM150.811 89.5H115.189V90.5H150.811V89.5ZM114.835 89.6465L89.6464 114.836L90.3536 115.543L115.542 90.3535L114.835 89.6465ZM89.5 115.19V150.812H90.5V115.19H89.5ZM89.6464 151.165L114.835 176.354L115.542 175.646L90.3536 150.458L89.6464 151.165ZM115.189 176.5H150.811V175.5H115.189V176.5ZM151.165 176.354L176.354 151.165L175.646 150.458L150.458 175.646L151.165 176.354ZM176.5 150.812V115.19H175.5V150.812H176.5ZM176.354 114.836L151.165 89.648L150.458 90.3551L175.646 115.543L176.354 114.836ZM151.311 90.0015V90H150.311V90.0015H151.311ZM115.651 89.8091L78.4621 -0.190946L77.5379 0.190946L114.727 90.1909L115.651 89.8091ZM115.189 90.5L150.811 90.5015L150.811 89.5015L115.189 89.5L115.189 90.5ZM187.538 -0.190943L150.349 89.8106L151.273 90.1925L188.462 0.190943L187.538 -0.190943ZM176.191 115.652L266.191 78.4621L265.809 77.5379L175.809 114.728L176.191 115.652ZM175.809 151.274L265.809 188.462L266.191 187.538L176.191 150.35L175.809 151.274ZM150.349 176.191L187.538 266.191L188.462 265.809L151.273 175.809L150.349 176.191ZM114.727 175.809L77.5379 265.809L78.4621 266.191L115.651 176.191L114.727 175.809ZM89.8091 150.35L-0.190944 187.538L0.190944 188.462L90.1909 151.274L89.8091 150.35ZM90.1909 114.728L0.19095 77.5379L-0.19095 78.4621L89.8091 115.652L90.1909 114.728ZM151.273 175.809L133.462 132.809L132.538 133.191L150.349 176.191L151.273 175.809ZM132.538 132.809L114.727 175.809L115.651 176.191L133.462 133.191L132.538 132.809ZM132.809 132.538L89.8087 150.35L90.1913 151.274L133.191 133.462L132.809 132.538ZM133.191 132.538L90.1913 114.728L89.8087 115.652L132.809 133.462L133.191 132.538ZM133.462 132.809L115.651 89.8087L114.727 90.1913L132.538 133.191L133.462 132.809ZM133.462 133.191L151.273 90.1929L150.349 89.8102L132.538 132.809L133.462 133.191ZM133.191 133.462L176.191 115.652L175.809 114.728L132.809 132.538L133.191 133.462ZM132.809 133.462L175.809 151.274L176.191 150.35L133.191 132.538L132.809 133.462ZM78 0V-1H77.5858L77.2929 -0.707107L78 0ZM188 0L188.707 -0.707107L188.414 -1H188V0ZM266 78H267V77.5858L266.707 77.2929L266 78ZM266 188L266.707 188.707L267 188.414V188H266ZM188 266V267H188.414L188.707 266.707L188 266ZM78 266L77.2929 266.707L77.5858 267H78V266ZM0 188H-1V188.414L-0.707107 188.707L0 188ZM0 78L-0.707107 77.2929L-1 77.5858V78H0ZM78 267H188V265H78V267ZM265.293 187.293L187.293 265.293L188.707 266.707L266.707 188.707L265.293 187.293ZM267 188V78H265V188H267ZM266.707 77.2929L188.707 -0.707107L187.293 0.707107L265.293 78.7071L266.707 77.2929ZM78 1H188V-1H78V1ZM77.2929 -0.707107L-0.707107 77.2929L0.707107 78.7071L78.7071 0.707107L77.2929 -0.707107ZM-1 78V188H1V78H-1ZM-0.707107 188.707L77.2929 266.707L78.7071 265.293L0.707107 187.293L-0.707107 188.707Z" fill="#A9A9AA" mask="url(#path-3-inside-3_13679_38424)"/>
</g>
</svg>
