<svg width="274" height="274" viewBox="0 0 274 274" fill="none" xmlns="http://www.w3.org/2000/svg">
<g filter="url(#filter0_d_13356_53945)">
<path d="M81.9097 0H192.09V0.00478902L270 77.9131V188.092L192.09 266H81.9097L4 188.092V77.9131L81.9097 0Z" fill="#444446"/>
</g>
<path d="M49.5 96.7586L100.756 45.5H173.24L224.5 96.7586V169.245L173.244 220.5H100.756L49.5 169.245V96.7586Z" stroke="#3E3E40"/>
<path opacity="0.76" d="M191.252 0.5L154.477 89.5H119.523L82.7476 0.5H191.252ZM94.8827 115.014L119.013 90.8827L136.076 132.076L94.8827 115.014ZM94.5 115.938L135.693 133L94.5 150.063V115.938ZM4.88317 188.176L93.8825 151.401L118.599 176.118L81.8239 265.117L4.88317 188.176ZM82.7476 265.5L119.523 176.5H154.477L191.252 265.5H82.7476ZM179.117 150.987L154.987 175.117L137.924 133.924L179.117 150.987ZM179.5 150.063L138.307 133L179.5 115.938V150.063ZM269.117 77.8239L180.118 114.6L155.401 89.884L192.176 0.883179L269.117 77.8239ZM180.5 115.524L269.5 78.7476V187.252L180.5 150.477V115.524ZM180.118 151.401L269.117 188.176L192.176 265.117L155.401 176.118L180.118 151.401ZM4.5 187.252V78.7476L93.5 115.524V150.477L4.5 187.252ZM93.8825 114.6L4.88317 77.8239L81.8239 0.883176L118.599 89.8825L93.8825 114.6ZM119.013 175.117L94.8827 150.987L136.076 133.924L119.013 175.117ZM137.924 132.076L154.987 90.8842L179.117 115.014L137.924 132.076ZM154.063 90.5015L137 131.693L119.937 90.5L154.063 90.5015ZM119.937 175.5L137 134.307L154.063 175.5H119.937Z" stroke="#3E3E40"/>
<defs>
<filter id="filter0_d_13356_53945" x="0" y="0" width="274" height="274" filterUnits="userSpaceOnUse" color-interpolation-filters="sRGB">
<feFlood flood-opacity="0" result="BackgroundImageFix"/>
<feColorMatrix in="SourceAlpha" type="matrix" values="0 0 0 0 0 0 0 0 0 0 0 0 0 0 0 0 0 0 127 0" result="hardAlpha"/>
<feOffset dy="4"/>
<feGaussianBlur stdDeviation="2"/>
<feComposite in2="hardAlpha" operator="out"/>
<feColorMatrix type="matrix" values="0 0 0 0 0 0 0 0 0 0 0 0 0 0 0 0 0 0 0.25 0"/>
<feBlend mode="normal" in2="BackgroundImageFix" result="effect1_dropShadow_13356_53945"/>
<feBlend mode="normal" in="SourceGraphic" in2="effect1_dropShadow_13356_53945" result="shape"/>
</filter>
</defs>
</svg>
