<svg width="20" height="20" viewBox="0 0 20 20" fill="none" xmlns="http://www.w3.org/2000/svg">
<path fill-rule="evenodd" clip-rule="evenodd" d="M1 0C0.447715 0 0 0.447715 0 1V19C0 19.5523 0.447715 20 1 20H19C19.5523 20 20 19.5523 20 19V1C20 0.447715 19.5523 0 19 0H1ZM15.962 5.46199L15.7091 5.20913C15.5752 5.07523 15.3935 5 15.2041 5C15.0147 5 14.8331 5.07523 14.6991 5.20913L7.76913 12.1391C7.63518 12.273 7.45354 12.3483 7.26413 12.3483C7.07473 12.3483 6.89308 12.273 6.75913 12.1391L4.47199 9.85199C4.33804 9.71808 4.15639 9.64286 3.96699 9.64286C3.77759 9.64286 3.59594 9.71808 3.46199 9.85199L3.20913 10.1048C3.07523 10.2388 3 10.4204 3 10.6098C3 10.7992 3.07523 10.9809 3.20913 11.1148L6.75913 14.6648C6.89308 14.7988 7.07473 14.874 7.26413 14.874C7.45354 14.874 7.63518 14.7988 7.76913 14.6648L15.962 6.47199C16.0959 6.33804 16.1711 6.15639 16.1711 5.96699C16.1711 5.77759 16.0959 5.59594 15.962 5.46199Z" fill="#F1F1F1"/>
</svg>
