<svg width="250" height="260" viewBox="0 0 250 260" fill="none" xmlns="http://www.w3.org/2000/svg">
<g clip-path="url(#clip0_7727_34693)">
<path d="M221.787 197.867L221.782 197.984L227.643 260H184.876L179.332 221.911L176.892 259.023L132.973 258.535L137.638 209.811L141.605 187.227V187.222L142.201 183.823H220.621L220.723 185.054L221.787 197.867Z" fill="#444446"/>
<path d="M118.44 213.785L118.42 213.904L118.456 214.018C119.194 216.376 119.377 219.281 118.822 222.327C118.188 225.81 116.72 228.775 114.885 230.759C113.045 232.747 110.892 233.698 108.854 233.326C106.816 232.955 105.137 231.305 104.116 228.795C103.098 226.292 102.769 222.998 103.403 219.516L102.912 219.427L103.403 219.516C103.958 216.469 105.152 213.816 106.674 211.87L106.761 211.76L106.777 211.62L107.544 205.093L107.545 205.093L107.545 205.084L112.283 157.581L138.472 93.5735L146.394 93.4994C146.43 93.5222 146.473 93.5504 146.523 93.5842C146.683 93.6925 146.916 93.8572 147.196 94.0785C147.757 94.5215 148.507 95.1885 149.257 96.0807C150.756 97.8641 152.244 100.533 152.244 104.113C152.244 104.962 151.932 106.383 151.344 108.273C150.763 110.144 149.93 112.421 148.926 114.953C146.919 120.017 144.241 126.077 141.559 131.91C138.878 137.742 136.197 143.341 134.186 147.483C133.181 149.554 132.343 151.26 131.756 152.449C131.463 153.043 131.233 153.508 131.076 153.824L130.897 154.184L130.851 154.276L130.839 154.299L130.836 154.305L130.836 154.307C130.835 154.307 130.835 154.307 131.283 154.531L130.835 154.307L130.807 154.365L130.793 154.427L119.139 209.66L119.136 209.67L119.135 209.68L118.44 213.785Z" fill="#D9AAA7" stroke="#444446"/>
<path d="M194.216 66.3849L186.408 48.3174L161.032 52.7122L159.324 73.9691L194.216 66.3849Z" fill="#D9AAA7"/>
<path opacity="0.1" d="M161.5 53.1387L186.105 48.8773L193.516 66.0254L159.877 73.3373L161.5 53.1387Z" fill="#1D1D1D" stroke="#1D1D1D"/>
<path d="M221.628 66.2469L221.757 66.2913L221.891 66.2642C224.049 65.8262 226.205 65.897 227.534 67.227C227.92 67.6126 228.549 68.4704 229.373 69.7242C230.188 70.964 231.17 72.5536 232.255 74.3706C234.424 78.0038 236.998 82.531 239.468 86.9548C241.937 91.378 244.3 95.6947 246.046 98.9059C246.918 100.511 247.637 101.84 248.137 102.768C248.387 103.232 248.582 103.595 248.715 103.843L248.867 104.125L248.874 104.137C248.876 104.155 248.878 104.175 248.88 104.198C248.885 104.24 248.89 104.289 248.896 104.347C248.917 104.546 248.945 104.838 248.974 105.208C249.034 105.948 249.1 106.998 249.126 108.238C249.179 110.722 249.072 113.945 248.443 116.945C247.81 119.961 246.668 122.656 244.726 124.194C242.827 125.697 240.042 126.184 235.881 124.518C230.794 122.482 226.376 118.113 222.682 112.964L221.776 111.7V113.255L221.776 127.676L221.776 127.68L222.263 181.734C222.246 181.762 222.226 181.794 222.204 181.831C222.117 181.973 221.99 182.18 221.827 182.442L221.755 182.556L221.751 182.691L221.303 197.481C221.202 197.481 221.086 197.482 220.956 197.483C220.413 197.489 219.622 197.508 218.627 197.562C216.637 197.669 213.827 197.915 210.542 198.468C203.977 199.573 195.487 201.91 187.845 206.843C184.224 209.18 179.594 209.355 174.601 208.225C169.614 207.096 164.34 204.68 159.511 201.945C154.685 199.211 150.327 196.173 147.173 193.815C145.597 192.637 144.323 191.63 143.444 190.918C143.004 190.562 142.663 190.28 142.433 190.087C142.359 190.026 142.296 189.973 142.246 189.93L140.549 157.185L140.548 157.166L140.546 157.148L138.299 139.5L137.309 139.485L134.271 158.565L112.317 153.891L112.361 153.627C112.44 153.146 112.558 152.441 112.708 151.541C113.009 149.742 113.444 147.166 113.977 144.058C115.045 137.841 116.508 129.496 118.094 120.984C119.679 112.471 121.386 103.796 122.939 96.9155C123.716 93.4746 124.453 90.489 125.116 88.1998C125.448 87.0548 125.759 86.0905 126.046 85.3334C126.337 84.5649 126.588 84.0482 126.79 83.77L126.79 83.77C127.774 82.4159 129.074 81.5922 130.466 81.1062L130.847 80.973L130.83 80.8388L150.517 71.2293L150.61 71.1838L150.678 71.1047L159.607 60.6511C159.397 61.9046 159.181 63.7873 159.107 66.4397L159.089 67.0546L159.695 66.9458L187.664 61.9224L188.051 61.8529L188.075 61.461L188.587 53.144L196.411 57.5432L196.451 57.5653L196.493 57.58L221.628 66.2469Z" fill="#F6B798" stroke="#444446"/>
<path d="M193.913 32.5309C193.913 45.1565 183.684 55.3909 171.068 55.3909C158.451 55.3909 148.223 45.1565 148.223 32.5309C148.223 19.9054 158.451 9.6709 171.068 9.6709C183.684 9.6709 193.913 19.9054 193.913 32.5309Z" fill="#D9AAA7" stroke="#444446"/>
<path d="M187.815 39.1329C187.815 39.1329 189.845 32.0234 194.413 32.5312C198.98 33.039 199.995 28.9764 198.98 26.9451C197.965 24.9138 195.935 14.7573 195.935 14.7573C195.935 14.7573 196.95 7.64769 190.86 6.63204C184.77 5.61638 182.74 4.60073 181.725 2.56942C180.71 0.538115 165.485 -1.49319 160.411 1.55377C155.336 4.60073 151.276 10.4467 147.723 12.0942C144.171 13.7416 141.126 16.7886 143.156 21.8668C145.186 26.9451 148.13 36.8771 148.13 36.8771C148.13 36.8771 153.306 35.0703 154.321 38.1173C155.336 41.1642 151.276 37.1016 156.351 28.9764C161.426 20.8512 161.426 12.726 169.545 15.7729C177.665 18.8199 186.8 17.8042 185.785 23.8981C184.77 29.9921 187.815 39.1329 187.815 39.1329Z" fill="#1D1D1D"/>
<path d="M186.388 224.322H9.09283C4.07895 224.322 0 220.24 0 215.223V120.983C0 115.966 4.07895 111.884 9.09283 111.884H186.388C191.402 111.884 195.481 115.966 195.481 120.983V215.223C195.481 220.24 191.402 224.322 186.388 224.322Z" fill="white"/>
<path d="M186.388 224.322H9.09283C4.07895 224.322 0 220.24 0 215.223V120.983C0 115.966 4.07895 111.884 9.09283 111.884H186.388C191.402 111.884 195.481 115.966 195.481 120.983V215.223C195.481 220.24 191.402 224.322 186.388 224.322ZM9.09283 113.403C4.91639 113.403 1.51844 116.803 1.51844 120.983V215.223C1.51844 219.402 4.91639 222.802 9.09283 222.802H186.388C190.564 222.802 193.962 219.402 193.962 215.223V120.983C193.962 116.803 190.564 113.403 186.388 113.403H9.09283Z" fill="#444446"/>
<path d="M172.704 123.28C173.962 123.28 174.982 122.26 174.982 121.001C174.982 119.742 173.962 118.722 172.704 118.722C171.446 118.722 170.426 119.742 170.426 121.001C170.426 122.26 171.446 123.28 172.704 123.28Z" fill="#444446"/>
<path d="M178.778 123.28C180.036 123.28 181.055 122.26 181.055 121.001C181.055 119.742 180.036 118.722 178.778 118.722C177.52 118.722 176.5 119.742 176.5 121.001C176.5 122.26 177.52 123.28 178.778 123.28Z" fill="#444446"/>
<path d="M184.851 123.28C186.109 123.28 187.129 122.26 187.129 121.001C187.129 119.742 186.109 118.722 184.851 118.722C183.593 118.722 182.574 119.742 182.574 121.001C182.574 122.26 183.593 123.28 184.851 123.28Z" fill="#444446"/>
<path d="M12.9067 157.847C12.2787 157.847 11.7678 158.358 11.7678 158.986C11.7678 159.293 11.8861 159.576 12.1007 159.785C12.3172 160.007 12.6008 160.126 12.9067 160.126H183.333C183.961 160.126 184.472 159.615 184.472 158.986C184.472 158.68 184.354 158.396 184.139 158.187C183.922 157.965 183.639 157.847 183.333 157.847H12.9067Z" fill="#E6E6E6"/>
<path d="M162.075 157.467V160.506H12.9066C12.4891 160.506 12.1095 160.339 11.8361 160.057C11.5552 159.784 11.3882 159.404 11.3882 158.986C11.3882 158.151 12.0715 157.467 12.9066 157.467H162.075Z" fill="#8133F1"/>
<path d="M181.435 151.769H166.251C164.576 151.769 163.214 150.406 163.214 148.73C163.214 147.054 164.576 145.691 166.251 145.691H181.435C183.109 145.691 184.472 147.054 184.472 148.73C184.472 150.406 183.109 151.769 181.435 151.769Z" fill="#E6E6E6"/>
<path d="M81.9774 135.815H14.0457C12.3712 135.815 11.0088 134.452 11.0088 132.776C11.0088 131.1 12.3712 129.737 14.0457 129.737H81.9774C83.6519 129.737 85.0143 131.1 85.0143 132.776C85.0143 134.452 83.6519 135.815 81.9774 135.815Z" fill="#E6E6E6"/>
<path d="M12.9067 192.034C12.2787 192.034 11.7678 192.545 11.7678 193.174C11.7678 193.48 11.8861 193.764 12.1007 193.973C12.3172 194.195 12.6008 194.313 12.9067 194.313H183.333C183.961 194.313 184.472 193.802 184.472 193.174C184.472 192.867 184.354 192.584 184.139 192.375C183.922 192.153 183.639 192.034 183.333 192.034H12.9067Z" fill="#E6E6E6"/>
<path d="M103.615 191.654V194.693H12.9066C12.4891 194.693 12.1095 194.526 11.8361 194.245C11.5552 193.971 11.3882 193.592 11.3882 193.174C11.3882 192.338 12.0715 191.654 12.9066 191.654H103.615Z" fill="#8133F1"/>
<path d="M181.435 185.956H166.251C164.576 185.956 163.214 184.593 163.214 182.917C163.214 181.241 164.576 179.878 166.251 179.878H181.435C183.109 179.878 184.472 181.241 184.472 182.917C184.472 184.593 183.109 185.956 181.435 185.956Z" fill="#E6E6E6"/>
<path d="M231.295 34.3968C231.295 46.9749 220.883 57.1891 208.017 57.1891C195.151 57.1891 184.739 46.9749 184.739 34.3968C184.739 21.8186 195.151 11.6045 208.017 11.6045C220.883 11.6045 231.295 21.8186 231.295 34.3968Z" fill="#8133F1" stroke="#1D1D1D"/>
<path d="M216.087 23.6477C212.922 29.4157 209.756 35.1837 206.59 40.9517C204.573 37.3846 202.566 33.8113 200.544 30.247C199.845 29.016 197.945 30.1232 198.646 31.3572C200.99 35.489 203.31 39.6346 205.655 43.7664C206.056 44.4729 207.156 44.4893 207.553 43.7664C211.031 37.4303 214.508 31.0941 217.985 24.758C218.667 23.5164 216.769 22.4052 216.087 23.6477Z" fill="white"/>
<path d="M216.655 84.515L216.655 84.5151L216.689 84.7859L216.935 84.9038L240.47 96.1694C240.487 96.204 240.507 96.2442 240.529 96.2899C240.616 96.4694 240.743 96.733 240.901 97.0684C241.217 97.7394 241.656 98.6969 242.148 99.8417C243.133 102.134 244.325 105.165 245.168 108.143C246.017 111.144 246.486 114.006 246.096 116C245.904 116.983 245.514 117.698 244.914 118.138C244.316 118.575 243.426 118.8 242.104 118.627C239.409 118.275 236.435 116.858 233.463 114.884C230.5 112.914 227.58 110.418 224.999 107.957C222.42 105.498 220.189 103.083 218.602 101.282C217.808 100.382 217.177 99.6356 216.744 99.1152C216.527 98.855 216.361 98.6512 216.248 98.5128C216.192 98.4436 216.149 98.3908 216.121 98.3554L216.089 98.3156L216.081 98.3057L216.079 98.3034L216.079 98.3029C216.079 98.3028 216.079 98.3028 215.687 98.6138L216.079 98.3028L215.776 97.9219L215.392 98.2106L215.391 98.2107L215.386 98.2143C215.378 98.2199 215.361 98.2309 215.334 98.2464C215.282 98.2775 215.192 98.3269 215.058 98.3887C214.79 98.5124 214.346 98.686 213.67 98.8624C212.317 99.2155 210.043 99.5787 206.416 99.5787C205.203 99.5787 204.038 98.9822 202.924 97.9242C201.811 96.8661 200.788 95.3831 199.874 93.7075C198.047 90.358 196.705 86.3398 195.935 83.7026C195.453 82.0496 195.912 80.2639 197.143 79.0689C198.694 77.5624 201.038 75.6877 203.925 74.5981L204.288 74.461L204.245 74.0749C204.104 72.8088 203.694 71.4679 203.316 70.2808C203.286 70.1875 203.257 70.0954 203.228 70.0045C202.877 68.9039 202.583 67.9837 202.521 67.3158C202.504 67.131 202.529 66.8417 202.61 66.4521C202.689 66.0702 202.818 65.6211 202.988 65.1288C203.327 64.1443 203.825 63.013 204.405 61.9434C204.986 60.8709 205.638 59.8805 206.28 59.1659C206.601 58.8085 206.909 58.5333 207.191 58.3505C207.476 58.166 207.705 58.0957 207.88 58.0957C208.037 58.0957 208.107 58.1436 208.164 58.2197C208.244 58.3257 208.322 58.5255 208.367 58.8666C208.458 59.5497 208.389 60.5262 208.296 61.7038C208.292 61.7511 208.289 61.7986 208.285 61.8463C208.196 62.9623 208.097 64.2154 208.135 65.4288C208.174 66.6912 208.361 67.9613 208.897 69.0265C209.678 70.5804 210.542 72.5486 211.296 74.3485L211.359 74.498L211.497 74.5823C213.567 75.8437 214.866 78.28 215.649 80.4865C216.036 81.5783 216.289 82.5893 216.444 83.3275C216.522 83.6961 216.575 83.9956 216.608 84.2018C216.625 84.3048 216.637 84.3845 216.645 84.4377C216.648 84.4643 216.651 84.4843 216.653 84.4973L216.655 84.5115L216.655 84.5146L216.655 84.515Z" fill="#D9AAA7" stroke="#444446"/>
</g>
<defs>
<clipPath id="clip0_7727_34693">
<rect width="249.638" height="260" fill="white"/>
</clipPath>
</defs>
</svg>
