<svg width="21" height="20" viewBox="0 0 21 20" fill="none" xmlns="http://www.w3.org/2000/svg">
<path d="M17.15 2.91771C13.2501 -0.972568 6.85023 -0.972568 2.95032 2.91771C-0.949586 6.80798 -0.949586 13.192 2.95032 17.0823C6.85023 20.9726 13.1501 20.9726 17.05 17.0823C20.9499 13.192 21.0499 6.80798 17.15 2.91771ZM13.2032 13.8373C13.008 14.032 12.6921 14.032 12.497 13.8373L10.4033 11.7488C10.2081 11.5541 9.89219 11.5541 9.69703 11.7488L7.60333 13.8373C7.40817 14.032 7.09226 14.032 6.8971 13.8373L6.20512 13.147C6.00927 12.9516 6.00927 12.6344 6.20512 12.439L8.29532 10.354C8.49116 10.1586 8.49116 9.84137 8.29532 9.64601L6.20512 7.56097C6.00927 7.36561 6.00927 7.04835 6.20512 6.85299L6.8971 6.16272C7.09226 5.96804 7.40817 5.96804 7.60333 6.16272L9.69703 8.25125C9.8922 8.44593 10.2081 8.44593 10.4033 8.25125L12.497 6.16272C12.6921 5.96804 13.008 5.96804 13.2032 6.16272L13.8952 6.85299C14.091 7.04835 14.091 7.36561 13.8952 7.56097L11.805 9.64601C11.6091 9.84137 11.6091 10.1586 11.805 10.354L13.8952 12.439C14.091 12.6344 14.091 12.9516 13.8952 13.147L13.2032 13.8373Z" fill="#B72F46"/>
</svg>
