<svg width="20" height="20" viewBox="0 0 20 20" fill="none" xmlns="http://www.w3.org/2000/svg">
<g clip-path="url(#clip0_579_1068)">
<path d="M10.5 13C11.8807 13 13 11.8807 13 10.5C13 9.11929 11.8807 8 10.5 8C9.11929 8 8 9.11929 8 10.5C8 11.8807 9.11929 13 10.5 13Z" fill="#F1F1F1"/>
<path d="M15.7977 5.76484C14.0898 4.59375 12.2621 4 10.3656 4C8.65898 4 6.99531 4.50781 5.4207 5.50312C3.83281 6.50898 2.27617 8.33594 1 10.25C2.03203 11.9688 3.44375 13.7359 4.91406 14.7492C6.60078 15.9109 8.43476 16.5 10.3656 16.5C12.2797 16.5 14.1098 15.9113 15.807 14.7504C17.3012 13.7266 18.723 11.9617 19.75 10.25C18.7195 8.55352 17.293 6.79062 15.7977 5.76484ZM10.375 14C9.63332 14 8.9083 13.7801 8.29161 13.368C7.67493 12.956 7.19428 12.3703 6.91045 11.6851C6.62662 10.9998 6.55236 10.2458 6.69706 9.51841C6.84175 8.79098 7.1989 8.1228 7.72335 7.59835C8.2478 7.0739 8.91598 6.71675 9.64341 6.57206C10.3708 6.42736 11.1248 6.50162 11.8101 6.78545C12.4953 7.06928 13.081 7.54993 13.493 8.16661C13.9051 8.7833 14.125 9.50832 14.125 10.25C14.1239 11.2442 13.7284 12.1974 13.0254 12.9004C12.3224 13.6034 11.3692 13.9989 10.375 14Z" fill="#F1F1F1"/>
<path d="M2 1L17.3822 17.6549" stroke="#1D1D1D" stroke-width="2.8" stroke-linecap="round"/>
<path d="M2.1912 2.82715L16.1912 17.8271" stroke="#F1F1F1" stroke-width="1.3" stroke-linecap="round"/>
</g>
<defs>
<clipPath id="clip0_579_1068">
<rect width="20" height="20" fill="white"/>
</clipPath>
</defs>
</svg>
