<svg width="24.000000" height="24.000000" viewBox="0 0 24 24" fill="none" xmlns="http://www.w3.org/2000/svg" xmlns:xlink="http://www.w3.org/1999/xlink">
	<desc>
			Created with Pixso.
	</desc>
	<defs>
		<clipPath id="clip3_5612">
			<rect id="Icon" width="24.000000" height="24.000000" fill="white" fill-opacity="0"/>
		</clipPath>
	</defs>
	<rect id="Icon" width="24.000000" height="24.000000" fill="#FFFFFF" fill-opacity="0"/>
	<g clip-path="url(#clip3_5612)">
		<path id="Vector" d="M7.02 2.31C7.77 2.56 8.48 2.91 9.14 3.35C10.08 3.11 11.03 2.99 12 3C12.99 3 13.95 3.12 14.84 3.35C15.5 2.91 16.22 2.56 16.97 2.31C17.67 2.07 18.66 1.68 19.25 2.34C19.65 2.78 19.75 3.53 19.82 4.09C19.9 4.73 19.92 5.55 19.71 6.37C20.51 7.41 21 8.65 21 10C21 12.04 19.89 13.81 18.25 15.04C17.46 15.62 16.59 16.08 15.66 16.39C15.88 16.88 16 17.43 16 18L16 21C16 21.26 15.89 21.51 15.7 21.7C15.52 21.89 15.26 22 15 22L9 22C8.73 22 8.48 21.89 8.29 21.7C8.1 21.51 8 21.26 8 21L8 20C7.04 20.12 6.24 20.02 5.56 19.73C4.85 19.43 4.35 18.96 3.98 18.51C3.62 18.09 3.24 17.13 2.68 16.94C2.55 16.9 2.44 16.84 2.34 16.75C2.24 16.66 2.16 16.56 2.1 16.44C1.98 16.21 1.96 15.93 2.05 15.68C2.13 15.43 2.31 15.22 2.55 15.1C2.79 14.98 3.06 14.96 3.31 15.05C3.98 15.27 4.41 15.75 4.71 16.13C5.19 16.75 5.58 17.56 6.34 17.89C6.65 18.02 7.11 18.11 7.83 18.01L8 17.98C8 17.43 8.11 16.89 8.33 16.39C7.4 16.08 6.53 15.62 5.74 15.04C4.1 13.81 3 12.04 3 10C3 8.65 3.48 7.41 4.28 6.38C4.07 5.56 4.09 4.73 4.17 4.09L4.17 4.06C4.25 3.47 4.33 2.79 4.74 2.34C5.33 1.68 6.32 2.07 7.02 2.31L7.02 2.31Z" fill="#C5C5C6" fill-opacity="1.000000" fill-rule="nonzero"/>
	</g>
</svg>
