<svg width="20" height="20" viewBox="0 0 20 20" fill="none" xmlns="http://www.w3.org/2000/svg">
<path fill-rule="evenodd" clip-rule="evenodd" d="M4.98051 1.12402C3.9577 1.12402 2.97677 1.53023 2.25339 2.25332C1.53002 2.97642 1.12344 3.9572 1.12305 4.98V15.2666C1.12305 16.2896 1.52946 17.2708 2.25287 17.9942C2.97628 18.7176 3.95745 19.124 4.98051 19.124H15.2671C16.2899 19.1236 17.2707 18.717 17.9937 17.9937C18.7168 17.2703 19.123 16.2894 19.123 15.2666V4.98C19.1227 3.95745 18.7163 2.9769 17.9932 2.25385C17.2702 1.5308 16.2896 1.12442 15.2671 1.12402H4.98051ZM16.3766 4.98593C16.3766 5.28059 16.2596 5.56318 16.0512 5.77154C15.8428 5.97989 15.5602 6.09695 15.2656 6.09695C14.9709 6.09695 14.6883 5.97989 14.48 5.77154C14.2716 5.56318 14.1546 5.28059 14.1546 4.98593C14.1546 4.69127 14.2716 4.40867 14.48 4.20032C14.6883 3.99196 14.9709 3.87491 15.2656 3.87491C15.5602 3.87491 15.8428 3.99196 16.0512 4.20032C16.2596 4.40867 16.3766 4.69127 16.3766 4.98593ZM10.1253 7.04206C9.30808 7.04206 8.52435 7.36668 7.94651 7.94453C7.36867 8.52237 7.04404 9.30609 7.04404 10.1233C7.04404 10.9405 7.36867 11.7242 7.94651 12.302C8.52435 12.8799 9.30808 13.2045 10.1253 13.2045C10.9425 13.2045 11.7262 12.8799 12.304 12.302C12.8819 11.7242 13.2065 10.9405 13.2065 10.1233C13.2065 9.30609 12.8819 8.52237 12.304 7.94453C11.7262 7.36668 10.9425 7.04206 10.1253 7.04206ZM5.5612 10.1233C5.5612 8.91321 6.0419 7.7527 6.89755 6.89705C7.7532 6.0414 8.91371 5.5607 10.1238 5.5607C11.3339 5.5607 12.4944 6.0414 13.35 6.89705C14.2057 7.7527 14.6864 8.91321 14.6864 10.1233C14.6864 11.3334 14.2057 12.4939 13.35 13.3495C12.4944 14.2052 11.3339 14.6859 10.1238 14.6859C8.91371 14.6859 7.7532 14.2052 6.89755 13.3495C6.0419 12.4939 5.5612 11.3334 5.5612 10.1233Z" fill="#F1F1F1"/>
</svg>
