<svg width="24.000000" height="24.000000" viewBox="0 0 24 24" fill="none" xmlns="http://www.w3.org/2000/svg" xmlns:xlink="http://www.w3.org/1999/xlink">
	<desc>
			Created with Pixso.
	</desc>
	<defs>
		<clipPath id="clip3_5606">
			<rect id="Icon" width="24.000000" height="24.000000" fill="white" fill-opacity="0"/>
		</clipPath>
	</defs>
	<rect id="Icon" width="24.000000" height="24.000000" fill="#FFFFFF" fill-opacity="0"/>
	<g clip-path="url(#clip3_5606)">
		<path id="Vector" d="M5.91 7.84C6.98 7.84 7.83 6.97 7.83 5.92C7.83 4.86 6.97 4 5.91 4C4.86 4 4 4.86 4 5.92C4 6.97 4.86 7.84 5.91 7.84ZM9.66 9.29L9.66 20L12.97 20L12.97 14.71C12.97 13.31 13.24 11.96 14.96 11.96C16.68 11.96 16.68 13.56 16.68 14.79L16.68 20L20 20L20 14.12C20 11.24 19.38 9.03 16.02 9.03C14.41 9.03 13.33 9.91 12.89 10.75L12.85 10.75L12.85 9.28L9.68 9.28L9.66 9.29ZM4.26 9.29L7.58 9.29L7.58 20L4.26 20L4.26 9.29Z" fill="#C5C5C6" fill-opacity="1.000000" fill-rule="nonzero"/>
	</g>
</svg>
