<svg width="188" height="25" viewBox="0 0 188 25" fill="none" xmlns="http://www.w3.org/2000/svg">
<path d="M45.4035 3.49121C48.3504 3.49121 50.7045 4.12769 52.4657 5.40064C54.2444 6.6736 55.1337 8.64407 55.1337 11.312V13.98C55.1337 16.7003 54.2531 18.6882 52.4919 19.9437C50.7481 21.1818 48.3853 21.8008 45.4035 21.8008H37.0595C36.8677 21.8008 36.702 21.7311 36.5625 21.5916C36.423 21.4521 36.3533 21.2864 36.3533 21.0946V4.19744C36.3533 4.00563 36.423 3.83997 36.5625 3.70046C36.702 3.56096 36.8677 3.49121 37.0595 3.49121H45.4035ZM45.5342 16.7003C46.3538 16.7003 46.999 16.5085 47.4698 16.1249C47.9581 15.7238 48.2022 15.1658 48.2022 14.4508V10.8412C48.2022 10.1263 47.9581 9.57699 47.4698 9.19335C46.999 8.79229 46.3538 8.59175 45.5342 8.59175H43.154V16.7003H45.5342Z" fill="#1D1D1D"/>
<path d="M76.1796 16.7003C76.3714 16.7003 76.5371 16.7701 76.6766 16.9096C76.8161 17.0491 76.8858 17.2147 76.8858 17.4065V21.0946C76.8858 21.2864 76.8161 21.4521 76.6766 21.5916C76.5371 21.7311 76.3714 21.8008 76.1796 21.8008H59.6486C59.4568 21.8008 59.2911 21.7311 59.1516 21.5916C59.0121 21.4521 58.9424 21.2864 58.9424 21.0946V4.19744C58.9424 4.00563 59.0121 3.83997 59.1516 3.70046C59.2911 3.56096 59.4568 3.49121 59.6486 3.49121H75.918C76.1098 3.49121 76.2755 3.56096 76.415 3.70046C76.5545 3.83997 76.6242 4.00563 76.6242 4.19744V7.88552C76.6242 8.07734 76.5545 8.243 76.415 8.3825C76.2755 8.522 76.1098 8.59175 75.918 8.59175H65.7431V10.2396H74.4794C74.6712 10.2396 74.8369 10.3094 74.9764 10.4489C75.1159 10.5884 75.1856 10.754 75.1856 10.9458V14.3462C75.1856 14.538 75.1159 14.7037 74.9764 14.8432C74.8369 14.9827 74.6712 15.0524 74.4794 15.0524H65.7431V16.7003H76.1796Z" fill="#1D1D1D"/>
<path d="M99.6318 3.49121C99.7888 3.49121 99.9196 3.55224 100.024 3.67431C100.146 3.77893 100.207 3.90972 100.207 4.06666L100.181 4.24975L94.1651 20.9377C94.0779 21.1818 93.9384 21.3911 93.7466 21.5654C93.5548 21.7224 93.3019 21.8008 92.9881 21.8008H86.8936C86.5797 21.8008 86.3268 21.7224 86.135 21.5654C85.9432 21.3911 85.8124 21.208 85.7427 21.0161L79.6743 4.24975L79.6482 4.06666C79.6482 3.90972 79.7005 3.77893 79.8051 3.67431C79.9272 3.55224 80.0667 3.49121 80.2236 3.49121H85.7427C86.0566 3.49121 86.3094 3.58712 86.5012 3.77893C86.7105 3.95331 86.85 4.14513 86.9197 4.35438L89.9277 14.3724L92.9357 4.35438C93.0055 4.12769 93.1363 3.92716 93.3281 3.75278C93.5199 3.5784 93.7815 3.49121 94.1128 3.49121H99.6318Z" fill="#1D1D1D"/>
<path d="M122.535 20.99C122.57 21.0597 122.587 21.1382 122.587 21.2254C122.587 21.3823 122.526 21.5218 122.404 21.6439C122.299 21.7485 122.169 21.8008 122.012 21.8008H116.074C115.83 21.8008 115.603 21.7398 115.394 21.6177C115.202 21.4957 115.063 21.3387 114.976 21.1469L112.674 15.9679H110.477V21.0946C110.477 21.2864 110.407 21.4521 110.267 21.5916C110.128 21.7311 109.962 21.8008 109.77 21.8008H104.121C103.929 21.8008 103.763 21.7311 103.624 21.5916C103.484 21.4521 103.414 21.2864 103.414 21.0946V4.19744C103.414 4.00563 103.484 3.83997 103.624 3.70046C103.763 3.56096 103.929 3.49121 104.121 3.49121H114.295C115.865 3.49121 117.234 3.74406 118.402 4.24975C119.588 4.75545 120.495 5.48783 121.122 6.44691C121.75 7.40599 122.064 8.53072 122.064 9.82111C122.064 12.1926 121.149 13.9103 119.318 14.974L122.535 20.99ZM113.746 11.1289C114.13 11.1289 114.426 11.0069 114.636 10.7628C114.845 10.5012 114.949 10.1786 114.949 9.79496C114.949 9.41133 114.845 9.08001 114.636 8.80101C114.444 8.50456 114.147 8.35634 113.746 8.35634H110.477V11.1289H113.746Z" fill="#1D1D1D"/>
<path d="M130.607 20.9115C130.38 21.5044 129.988 21.8008 129.43 21.8008H124.486C124.329 21.8008 124.19 21.7485 124.068 21.6439C123.963 21.5218 123.911 21.3823 123.911 21.2254L123.937 21.0685L129.639 4.35438C129.709 4.12769 129.84 3.92716 130.032 3.75278C130.223 3.5784 130.485 3.49121 130.816 3.49121H138.088C138.419 3.49121 138.681 3.5784 138.872 3.75278C139.064 3.92716 139.195 4.12769 139.265 4.35438L144.967 21.0685L144.993 21.2254C144.993 21.3823 144.932 21.5218 144.81 21.6439C144.705 21.7485 144.575 21.8008 144.418 21.8008H139.474C138.916 21.8008 138.524 21.5044 138.297 20.9115L137.643 19.0806H131.261L130.607 20.9115ZM134.452 8.53944L132.595 13.98H136.309L134.452 8.53944Z" fill="#1D1D1D"/>
<path d="M165.62 3.49121C165.812 3.49121 165.978 3.56096 166.117 3.70046C166.257 3.83997 166.327 4.00563 166.327 4.19744V8.40866C166.327 8.60047 166.257 8.76613 166.117 8.90563C165.978 9.04513 165.812 9.11488 165.62 9.11488H159.997V21.0946C159.997 21.2864 159.927 21.4521 159.788 21.5916C159.648 21.7311 159.482 21.8008 159.291 21.8008H153.902C153.711 21.8008 153.545 21.7311 153.405 21.5916C153.266 21.4521 153.196 21.2864 153.196 21.0946V9.11488H147.572C147.381 9.11488 147.215 9.04513 147.075 8.90563C146.936 8.76613 146.866 8.60047 146.866 8.40866V4.19744C146.866 4.00563 146.936 3.83997 147.075 3.70046C147.215 3.56096 147.381 3.49121 147.572 3.49121H165.62Z" fill="#1D1D1D"/>
<path d="M187.294 16.7003C187.486 16.7003 187.652 16.7701 187.791 16.9096C187.931 17.0491 188 17.2147 188 17.4065V21.0946C188 21.2864 187.931 21.4521 187.791 21.5916C187.652 21.7311 187.486 21.8008 187.294 21.8008H170.763C170.571 21.8008 170.406 21.7311 170.266 21.5916C170.127 21.4521 170.057 21.2864 170.057 21.0946V4.19744C170.057 4.00563 170.127 3.83997 170.266 3.70046C170.406 3.56096 170.571 3.49121 170.763 3.49121H187.033C187.224 3.49121 187.39 3.56096 187.53 3.70046C187.669 3.83997 187.739 4.00563 187.739 4.19744V7.88552C187.739 8.07734 187.669 8.243 187.53 8.3825C187.39 8.522 187.224 8.59175 187.033 8.59175H176.858V10.2396H185.594C185.786 10.2396 185.951 10.3094 186.091 10.4489C186.23 10.5884 186.3 10.754 186.3 10.9458V14.3462C186.3 14.538 186.23 14.7037 186.091 14.8432C185.951 14.9827 185.786 15.0524 185.594 15.0524H176.858V16.7003H187.294Z" fill="#1D1D1D"/>
<path d="M12.9865 13.7047C10.7445 16.3204 9.99718 17.815 8.50251 18.1886C7.50854 18.3306 6.67227 18.3739 5.51318 18.5623C3.62212 18.8696 1.49256 19.6836 1.02923 19.6834C0.812422 19.6834 1.77641 17.8155 4.76585 15.9469C6.06836 15.1327 6.63418 14.8258 9.99718 14.0784L9.99927 14.078C10.7494 13.9113 13.3598 13.3313 12.9865 13.7047Z" fill="#7D66F5"/>
<path d="M12.9865 13.7047C10.7445 16.3204 9.99718 17.815 8.50251 18.1886C7.50854 18.3306 6.67227 18.3739 5.51318 18.5623C3.62212 18.8696 1.49256 19.6836 1.02923 19.6834C0.812422 19.6834 1.77641 17.8155 4.76585 15.9469C6.06836 15.1327 6.63418 14.8258 9.99718 14.0784L9.99927 14.078C10.7494 13.9113 13.3598 13.3313 12.9865 13.7047Z" fill="#7D66F5"/>
<path d="M6.63342 5.87898C4.09856 8.94717 2.80708 12.9029 3.65463 13.7252C4.01852 14.0783 6.60061 10.3565 20.8437 10.3621C23.0742 10.3629 25.3277 9.24178 25.3277 8.49435C25.3277 6.48179 24.5689 3.63597 21.2058 2.51548C14.4798 0.274579 8.50332 3.61566 6.63342 5.87898Z" fill="#7D66F5"/>
<path d="M13.3602 1C12.2392 1 12.2392 2.121 12.2392 2.121H14.8548C14.8548 2.121 14.4812 1 13.3602 1Z" fill="#7D66F5"/>
<path d="M12.9865 13.7047C10.7445 16.3204 9.99718 17.815 8.50251 18.1886C7.50854 18.3306 6.67227 18.3739 5.51318 18.5623C3.62212 18.8696 1.49256 19.6836 1.02923 19.6834C0.812422 19.6834 1.77641 17.8155 4.76585 15.9469C6.06836 15.1327 6.63418 14.8258 9.99718 14.0784L9.99927 14.078C10.7494 13.9113 13.3598 13.3313 12.9865 13.7047Z" stroke="#7D66F5" stroke-linecap="round"/>
<path d="M12.9865 13.7047C10.7445 16.3204 9.99718 17.815 8.50251 18.1886C7.50854 18.3306 6.67227 18.3739 5.51318 18.5623C3.62212 18.8696 1.49256 19.6836 1.02923 19.6834C0.812422 19.6834 1.77641 17.8155 4.76585 15.9469C6.06836 15.1327 6.63418 14.8258 9.99718 14.0784L9.99927 14.078C10.7494 13.9113 13.3598 13.3313 12.9865 13.7047Z" stroke="#7D66F5" stroke-linecap="round"/>
<path d="M6.63342 5.87898C4.09856 8.94717 2.80708 12.9029 3.65463 13.7252C4.01852 14.0783 6.60061 10.3565 20.8437 10.3621C23.0742 10.3629 25.3277 9.24178 25.3277 8.49435C25.3277 6.48179 24.5689 3.63597 21.2058 2.51548C14.4798 0.274579 8.50332 3.61566 6.63342 5.87898Z" stroke="#7D66F5" stroke-linecap="round"/>
<path d="M13.3602 1C12.2392 1 12.2392 2.121 12.2392 2.121H14.8548C14.8548 2.121 14.4812 1 13.3602 1Z" stroke="#7D66F5" stroke-linecap="round"/>
<path d="M25.7 11.8368C21.9634 14.0787 16.5323 12.4742 15.9847 13.7051C14.4874 17.0713 11.8374 19.5594 10.3426 20.3067C8.84768 21.054 12.9974 25.2896 20.0975 23.0468C27.1975 20.804 27.3022 10.8756 25.7 11.8368Z" fill="#C5C5C6" stroke="#C5C5C6" stroke-linecap="round"/>
</svg>
