<svg width="30" height="47" viewBox="0 0 30 47" fill="none" xmlns="http://www.w3.org/2000/svg">
<path d="M17.2667 13.4355C19.4612 15.9958 20.1927 17.4587 21.6557 17.8245C22.6286 17.9635 23.4472 18.0058 24.5817 18.1902C26.4327 18.4911 28.5171 19.2878 28.9707 19.2876C29.1829 19.2876 28.2393 17.4593 25.3132 15.6302C24.0383 14.8333 23.4845 14.5329 20.1927 13.8014L20.1907 13.8009C19.4564 13.6378 16.9013 13.07 17.2667 13.4355Z" fill="#7D66F5"/>
<path d="M17.2667 13.4355C19.4612 15.9958 20.1927 17.4587 21.6557 17.8245C22.6286 17.9635 23.4472 18.0058 24.5817 18.1902C26.4327 18.4911 28.5171 19.2878 28.9707 19.2876C29.1829 19.2876 28.2393 17.4593 25.3132 15.6302C24.0383 14.8333 23.4845 14.5329 20.1927 13.8014L20.1907 13.8009C19.4564 13.6378 16.9013 13.07 17.2667 13.4355Z" fill="#7D66F5"/>
<path d="M23.4852 5.77561C25.9664 8.7788 27.2305 12.6507 26.4009 13.4556C26.0447 13.8012 23.5173 10.1583 9.57601 10.1637C7.39277 10.1646 5.18701 9.06717 5.18701 8.33557C5.18701 6.36565 5.92966 3.58013 9.22152 2.48337C15.805 0.289948 21.6549 3.56025 23.4852 5.77561Z" fill="#7D66F5"/>
<path d="M16.901 1C17.9982 1 17.9982 2.09725 17.9982 2.09725H15.438C15.438 2.09725 15.8037 1 16.901 1Z" fill="#7D66F5"/>
<path d="M17.2667 13.4355C19.4612 15.9958 20.1927 17.4587 21.6557 17.8245C22.6286 17.9635 23.4472 18.0058 24.5817 18.1902C26.4327 18.4911 28.5171 19.2878 28.9707 19.2876C29.1829 19.2876 28.2393 17.4593 25.3132 15.6302C24.0383 14.8333 23.4845 14.5329 20.1927 13.8014L20.1907 13.8009C19.4564 13.6378 16.9013 13.07 17.2667 13.4355Z" stroke="#7D66F5" stroke-linecap="round"/>
<path d="M17.2667 13.4355C19.4612 15.9958 20.1927 17.4587 21.6557 17.8245C22.6286 17.9635 23.4472 18.0058 24.5817 18.1902C26.4327 18.4911 28.5171 19.2878 28.9707 19.2876C29.1829 19.2876 28.2393 17.4593 25.3132 15.6302C24.0383 14.8333 23.4845 14.5329 20.1927 13.8014L20.1907 13.8009C19.4564 13.6378 16.9013 13.07 17.2667 13.4355Z" stroke="#7D66F5" stroke-linecap="round"/>
<path d="M23.4852 5.77561C25.9664 8.7788 27.2305 12.6507 26.4009 13.4556C26.0447 13.8012 23.5173 10.1583 9.57601 10.1637C7.39277 10.1646 5.18701 9.06717 5.18701 8.33557C5.18701 6.36565 5.92966 3.58013 9.22152 2.48337C15.805 0.289948 21.6549 3.56025 23.4852 5.77561Z" stroke="#7D66F5" stroke-linecap="round"/>
<path d="M16.901 1C17.9982 1 17.9982 2.09725 17.9982 2.09725H15.438C15.438 2.09725 15.8037 1 16.901 1Z" stroke="#7D66F5" stroke-linecap="round"/>
<path d="M4.82292 11.6069C8.48041 13.8013 13.7965 12.2308 14.3324 13.4357C15.798 16.7305 18.3918 19.1658 19.855 19.8973C21.3182 20.6288 17.2564 24.7747 10.3068 22.5794C3.3572 20.3841 3.25467 10.666 4.82292 11.6069Z" fill="#F1F1F1" stroke="#F1F1F1" stroke-linecap="round"/>
<path d="M19.3779 33.2623C19.3779 35.9957 22.7655 46.1289 19.3779 46.8307C13.5437 48.0394 16.0462 42.3896 13.8308 42.3079C10.9169 42.2006 13.0584 46.8307 8.97864 46.8307C3.61912 46.8307 7.24754 38.8132 7.24754 33.2623C7.24754 31.8329 2.86959 36.7798 1.41359 33.7646C-1.01002 28.7406 6.99976 24 14.5 24C20.9735 24 27.8575 29.2421 25.674 33.7649C24.2183 36.7801 19.3779 31.8329 19.3779 33.2623Z" fill="#F1F1F1"/>
</svg>
