<svg width="20.000000" height="20.000000" viewBox="0 0 20 20" fill="none" xmlns="http://www.w3.org/2000/svg" xmlns:xlink="http://www.w3.org/1999/xlink">
	<desc>
			Created with Pixso.
	</desc>
	<defs/>
	<path id="Vector" d="M0 2.45C0 1.58 0.31 0.75 0.87 0.14C1.44 -0.48 2.2 -0.82 3 -0.82L17 -0.82C17.79 -0.82 18.55 -0.48 19.12 0.14C19.68 0.75 20 1.58 20 2.45L20 13.36C20 14.23 19.68 15.06 19.12 15.67C18.55 16.29 17.79 16.63 17 16.63L9.33 16.63L6 19.36C5.17 20.03 4 19.39 4 18.27L4 16.63L3 16.63C2.2 16.63 1.44 16.29 0.87 15.67C0.31 15.06 0 14.23 0 13.36L0 2.45ZM3 1.36C2.73 1.36 2.48 1.47 2.29 1.68C2.1 1.88 2 2.16 2 2.45L2 13.36C2 13.65 2.1 13.93 2.29 14.13C2.48 14.33 2.73 14.45 3 14.45L4.5 14.45C4.89 14.45 5.27 14.62 5.56 14.93C5.84 15.24 6 15.65 6 16.09L6 16.63L8.13 14.89C8.47 14.6 8.9 14.45 9.33 14.45L17 14.45C17.26 14.45 17.51 14.33 17.7 14.13C17.89 13.93 18 13.65 18 13.36L18 2.45C18 2.16 17.89 1.88 17.7 1.68C17.51 1.47 17.26 1.36 17 1.36L3 1.36Z" fill="#69696B" fill-opacity="1.000000" fill-rule="evenodd"/>
</svg>
