<svg width="14" height="14" viewBox="0 0 14 14" fill="none" xmlns="http://www.w3.org/2000/svg">
<path d="M12.705 10.2083C11.2642 10.2083 8.8725 9.43249 7.64167 7.04082C6.2825 4.40999 7.35 2.09416 7.95083 1.16666C4.82417 1.27749 2.32167 3.83832 2.32167 6.99416C2.32167 7.07582 2.33333 7.15749 2.33333 7.23916C2.68917 7.08749 3.08 6.99416 3.48833 6.99416C3.48833 5.19166 4.4975 3.62832 5.99667 2.85249C5.705 4.12999 5.68167 5.79249 6.60333 7.57749C7.51917 9.35082 9.04167 10.465 10.57 10.9958C9.8525 11.4275 9.02417 11.6667 8.16083 11.6667C7.86917 11.6667 7.5775 11.6375 7.2975 11.585C7.08167 11.9933 6.74917 12.3258 6.34083 12.5417C6.9125 12.7283 7.525 12.8333 8.155 12.8333C10.1967 12.8333 11.9933 11.7833 13.0375 10.1967C12.9383 10.2025 12.8217 10.2083 12.705 10.2083Z" fill="white"/>
<path d="M5.25 9.32749H5.145C4.9 8.65082 4.25833 8.16082 3.5 8.16082C2.53167 8.16082 1.75 8.94249 1.75 9.91082C1.75 10.8792 2.53167 11.6608 3.5 11.6608H5.25C5.89167 11.6608 6.41667 11.1358 6.41667 10.4942C6.41667 9.85249 5.89167 9.32749 5.25 9.32749Z" fill="white"/>
</svg>
