<svg width="24.000000" height="24.000000" viewBox="0 0 24 24" fill="none" xmlns="http://www.w3.org/2000/svg" xmlns:xlink="http://www.w3.org/1999/xlink">
	<desc>
			Created with Pixso.
	</desc>
	<defs>
		<clipPath id="clip3_5634">
			<rect id="Icon" width="24.000000" height="24.000000" fill="white" fill-opacity="0"/>
		</clipPath>
	</defs>
	<rect id="Icon" width="24.000000" height="24.000000" fill="#FFFFFF" fill-opacity="0"/>
	<g clip-path="url(#clip3_5634)">
		<path id="Vector" d="M20 15.38C18.77 15.38 17.58 15.18 16.48 14.81C16.12 14.7 15.74 14.79 15.47 15.06L13.89 17.03C11.06 15.68 8.41 13.13 7 10.2L8.95 8.54C9.22 8.26 9.31 7.87 9.2 7.52C8.83 6.41 8.64 5.21 8.64 3.98C8.64 3.44 8.18 3 7.64 3L4.18 3C3.64 3 3 3.23 3 3.98C3 13.28 10.73 21 20 21C20.72 21 21 20.37 21 19.81L21 16.37C21 15.83 20.54 15.38 20 15.38Z" fill="#C5C5C6" fill-opacity="1.000000" fill-rule="nonzero"/>
	</g>
</svg>
