<svg width="14" height="14" viewBox="0 0 14 14" fill="none" xmlns="http://www.w3.org/2000/svg">
<g clip-path="url(#clip0_7573_31881)">
<path d="M3.9435 3.08584L2.8935 2.04168L2.071 2.86418L3.11516 3.90834L3.9435 3.08584ZM0.583496 6.38751H2.3335V7.55418H0.583496V6.38751ZM6.41683 0.583344H7.5835V2.30418H6.41683V0.583344ZM11.1068 2.03876L11.9282 2.85951L10.884 3.90368L10.0632 3.08234L11.1068 2.03876ZM10.0568 10.8558L11.101 11.9058L11.9235 11.0833L10.8735 10.0392L10.0568 10.8558ZM11.6668 6.38751H13.4168V7.55418H11.6668V6.38751ZM7.00016 3.47084C5.06933 3.47084 3.50016 5.04001 3.50016 6.97084C3.50016 8.90168 5.06933 10.4708 7.00016 10.4708C8.931 10.4708 10.5002 8.90168 10.5002 6.97084C10.5002 5.04001 8.931 3.47084 7.00016 3.47084ZM7.00016 9.30418C5.711 9.30418 4.66683 8.26001 4.66683 6.97084C4.66683 5.68168 5.711 4.63751 7.00016 4.63751C8.28933 4.63751 9.3335 5.68168 9.3335 6.97084C9.3335 8.26001 8.28933 9.30418 7.00016 9.30418ZM6.41683 11.6375H7.5835V13.3583H6.41683V11.6375ZM2.071 11.0775L2.8935 11.9L3.93766 10.85L3.11516 10.0275L2.071 11.0775Z" fill="white"/>
</g>
<defs>
<clipPath id="clip0_7573_31881">
<rect width="14" height="14" fill="white"/>
</clipPath>
</defs>
</svg>
