<svg width="24.000000" height="24.000000" viewBox="0 0 24 24" fill="none" xmlns="http://www.w3.org/2000/svg" xmlns:xlink="http://www.w3.org/1999/xlink">
	<desc>
			Created with Pixso.
	</desc>
	<defs>
		<clipPath id="clip41_5837">
			<rect id="Icon" width="24.000000" height="24.000000" fill="white" fill-opacity="0"/>
		</clipPath>
	</defs>
	<rect id="Icon" width="24.000000" height="24.000000" fill="#FFFFFF" fill-opacity="0"/>
	<g clip-path="url(#clip41_5837)">
		<path id="Vector" d="M18.29 4.46C18.51 4.37 18.75 4.34 18.99 4.37C19.23 4.4 19.45 4.5 19.64 4.65C19.82 4.79 19.97 4.99 20.06 5.21C20.14 5.43 20.17 5.67 20.13 5.91L18.11 18.15C17.91 19.33 16.62 20 15.54 19.42C14.63 18.92 13.29 18.17 12.08 17.38C11.47 16.98 9.62 15.71 9.85 14.81C10.04 14.04 13.16 11.14 14.93 9.42C15.63 8.74 15.31 8.35 14.49 8.97C12.44 10.52 9.16 12.87 8.07 13.53C7.11 14.12 6.61 14.21 6.01 14.12C4.92 13.93 3.91 13.65 3.08 13.31C1.97 12.85 2.02 11.31 3.08 10.87L18.29 4.46Z" fill="#C5C5C6" fill-opacity="1.000000" fill-rule="evenodd"/>
	</g>
</svg>
