<svg width="680" height="196" viewBox="0 0 680 196" fill="none" xmlns="http://www.w3.org/2000/svg">
    <g clip-path="url(#clip0_7479_27193)">
        <path d="M522.869 154.308C526.648 153.083 531.435 153.837 533.38 157.585C534.227 159.217 536.735 157.807 535.892 156.182C534.257 153.032 531.096 151.332 527.614 150.981C517.801 149.99 512.304 159.297 507.851 166.448C505.273 170.588 502.294 174.914 497.632 176.896C494.152 178.376 490.273 178.259 486.713 177.212C467.24 171.479 465.334 147.579 450.727 136.312C444.806 131.744 436.292 128.774 428.84 131.231C424.862 132.543 422.001 135.256 419.729 138.691C417.209 142.502 415.093 146.171 410.814 148.249C403.345 151.877 393.87 149.875 387.082 145.801C378.495 140.647 372.319 132.456 365.322 125.496C359.612 119.816 352.947 114.76 345.058 112.528C337.438 110.373 329.579 111.655 323.249 116.543C310.374 126.486 306.608 145.914 289.312 150.321C271.046 154.976 254.098 143.357 240.278 133.22C232.632 127.612 224.907 121.82 216.09 118.121C208.5 114.938 200.03 113.495 191.801 114.601C183.685 115.692 176.252 119.736 171.626 126.587C167.053 133.361 165.657 141.614 163.583 149.338C161.318 157.774 157.649 165.301 151.144 171.347C149.366 173 149.657 175.9 151.144 175.5C152.631 175.1 156.764 169.806 158.645 167.209C163.724 160.371 165.78 152.377 167.828 144.286C169.828 136.386 172.249 128.093 178.937 122.781C185.555 117.524 194.522 116.4 202.655 117.422C221.577 119.8 235.417 134.294 250.763 144.037C264.208 152.573 283.18 158.851 298.089 149.701C305.046 145.432 309.574 138.449 314.039 131.844L314.094 131.763C318.418 125.367 323.214 118.272 330.808 115.504C338.592 112.667 346.886 115.346 353.558 119.542C361.376 124.459 367.157 131.782 373.557 138.286C379.729 144.559 386.721 150.291 395.556 152.209C403.151 153.857 411.93 152.817 417.494 146.845C420.483 143.636 422 139.254 425.349 136.364C428.485 133.659 432.723 132.9 436.732 133.377C446.282 134.515 452.972 141.363 457.829 149.07C462.872 157.072 467.235 165.142 473.723 172.809C481.776 179.269 486.4 180.612 493.123 181.174C503.824 179.679 507.806 171.833 512.347 164.591C514.888 160.538 518.067 155.865 522.869 154.308Z" fill="#3E3E40"/>
        <path d="M446.811 127.723C444.171 123.841 438.885 122.835 435.003 125.474C431.121 128.114 430.114 133.401 432.754 137.283C435.394 141.165 440.68 142.172 444.562 139.532C448.444 136.892 449.451 131.605 446.811 127.723Z" fill="#FCA728" stroke="#252527"/>
        <path d="M184.17 117.735C183.118 116.188 181.012 115.787 179.466 116.839C177.92 117.89 177.518 119.996 178.57 121.543C179.622 123.089 181.727 123.49 183.274 122.438C184.82 121.387 185.221 119.281 184.17 117.735Z" fill="#FCA728" stroke="#252527"/>
        <path d="M317.408 125.986C315.378 123.001 311.313 122.227 308.329 124.257C305.344 126.287 304.57 130.352 306.6 133.336C308.629 136.321 312.694 137.095 315.679 135.065C318.664 133.036 319.438 128.971 317.408 125.986Z" fill="#FCA728" stroke="#252527"/>
        <path d="M34.0337 173.062L30.9717 177.215L26.8182 174.153L29.8802 170L34.0337 173.062Z" fill="#D9AAA7" stroke="#252527"/>
        <path d="M39.6279 41.4796H27.7786C26.8512 41.4796 26.0981 40.7979 26.0981 39.9585C26.0981 39.1191 26.8512 38.4375 27.7786 38.4375H39.6279C40.5553 38.4375 41.3084 39.1191 41.3084 39.9585C41.3084 40.7979 40.5553 41.4796 39.6279 41.4796Z" fill="#69696B"/>
        <path d="M84.2447 41.4796H72.3954C71.468 41.4796 70.7149 40.7979 70.7149 39.9585C70.7149 39.1191 71.468 38.4375 72.3954 38.4375H84.2447C85.1721 38.4375 85.9252 39.1191 85.9252 39.9585C85.9252 40.7979 85.1721 41.4796 84.2447 41.4796Z" fill="#69696B"/>
        <path d="M128.861 41.4796H117.012C116.085 41.4796 115.332 40.7979 115.332 39.9585C115.332 39.1191 116.085 38.4375 117.012 38.4375H128.861C129.789 38.4375 130.542 39.1191 130.542 39.9585C130.542 40.7979 129.789 41.4796 128.861 41.4796Z" fill="#69696B"/>
        <path d="M128.861 97.2505H117.012C116.085 97.2505 115.332 96.3417 115.332 95.2225C115.332 94.1033 116.085 93.1945 117.012 93.1945H128.861C129.789 93.1945 130.542 94.1033 130.542 95.2225C130.542 96.3417 129.789 97.2505 128.861 97.2505Z" fill="#69696B"/>
        <path d="M39.6279 96.2365H27.7786C26.8512 96.2365 26.0981 95.5549 26.0981 94.7155C26.0981 93.8761 26.8512 93.1945 27.7786 93.1945H39.6279C40.5553 93.1945 41.3084 93.8761 41.3084 94.7155C41.3084 95.5549 40.5553 96.2365 39.6279 96.2365Z" fill="#69696B"/>
        <path d="M84.2447 96.2365H72.3954C71.468 96.2365 70.7149 95.5549 70.7149 94.7155C70.7149 93.8761 71.468 93.1945 72.3954 93.1945H84.2447C85.1721 93.1945 85.9252 93.8761 85.9252 94.7155C85.9252 95.5549 85.1721 96.2365 84.2447 96.2365Z" fill="#69696B"/>
        <path d="M94.4471 112.501C95.2613 112.501 95.9214 111.841 95.9214 111.026C95.9214 110.212 95.2613 109.552 94.4471 109.552C93.6328 109.552 92.9727 110.212 92.9727 111.026C92.9727 111.841 93.6328 112.501 94.4471 112.501Z" fill="#FCA728"/>
        <path d="M98.818 112.501C99.6323 112.501 100.292 111.841 100.292 111.026C100.292 110.212 99.6323 109.552 98.818 109.552C98.0038 109.552 97.3437 110.212 97.3437 111.026C97.3437 111.841 98.0038 112.501 98.818 112.501Z" fill="#69696B"/>
        <path d="M103.19 112.501C104.004 112.501 104.664 111.841 104.664 111.026C104.664 110.212 104.004 109.552 103.19 109.552C102.376 109.552 101.716 110.212 101.716 111.026C101.716 111.841 102.376 112.501 103.19 112.501Z" fill="#69696B"/>
        <path d="M42.3917 35.3954H25.0149C21.6982 35.3954 19 32.6972 19 29.3805V12.0037C19 8.6871 21.6982 5.98889 25.0149 5.98889H42.3917C45.7083 5.98889 48.4065 8.6871 48.4065 12.0037V29.3805C48.4065 32.6972 45.7083 35.3954 42.3917 35.3954Z" fill="#3E3E40"/>
        <path d="M87.0084 35.3954H69.6316C66.315 35.3954 63.6168 32.6972 63.6168 29.3805V12.0037C63.6168 8.6871 66.315 5.98889 69.6316 5.98889H87.0084C90.3251 5.98889 93.0233 8.6871 93.0233 12.0037V29.3805C93.0233 32.6972 90.3251 35.3954 87.0084 35.3954Z" fill="#3E3E40"/>
        <path d="M131.418 35.3954H113.442C110.011 35.3954 107.22 32.6972 107.22 29.3805V12.0037C107.22 8.6871 110.011 5.98889 113.442 5.98889H131.418C134.849 5.98889 137.64 8.6871 137.64 12.0037V29.3805C137.64 32.6972 134.849 35.3954 131.418 35.3954Z" fill="#252527"/>
        <path d="M131.418 90.1523H113.442C110.011 90.1523 107.22 87.3611 107.22 83.9301V65.9541C107.22 62.5231 110.011 59.7318 113.442 59.7318H131.418C134.849 59.7318 137.64 62.5231 137.64 65.9541V83.9301C137.64 87.3611 134.849 90.1523 131.418 90.1523Z" fill="#3E3E40"/>
        <path d="M87.0084 90.1523H69.6316C66.315 90.1523 63.6168 87.3611 63.6168 83.9301V65.9541C63.6168 62.5231 66.315 59.7318 69.6316 59.7318H87.0084C90.3251 59.7318 93.0233 62.5231 93.0233 65.9541V83.9301C93.0233 87.3611 90.3251 90.1523 87.0084 90.1523Z" fill="#3E3E40"/>
        <path d="M42.3917 90.1523H25.0149C21.6982 90.1523 19 87.3611 19 83.9301V65.9541C19 62.5231 21.6982 59.7318 25.0149 59.7318H42.3917C45.7083 59.7318 48.4065 62.5231 48.4065 65.9541V83.9301C48.4065 87.3611 45.7083 90.1523 42.3917 90.1523Z" fill="#252527"/>
        <path d="M47.8995 67.844C50.9797 67.844 53.4766 65.12 53.4766 61.7599C53.4766 58.3997 50.9797 55.6758 47.8995 55.6758C44.8194 55.6758 42.3224 58.3997 42.3224 61.7599C42.3224 65.12 44.8194 67.844 47.8995 67.844Z" fill="#FCA728"/>
        <path d="M136.626 13.087C139.986 13.087 142.71 10.3631 142.71 7.00293C142.71 3.64277 139.986 0.918823 136.626 0.918823C133.266 0.918823 130.542 3.64277 130.542 7.00293C130.542 10.3631 133.266 13.087 136.626 13.087Z" fill="#FCA728"/>
        <path d="M22.2626 177.389C22.0916 176.733 22.1453 176.181 22.4222 175.748C22.739 175.252 23.3488 174.92 24.2345 174.759C24.3582 174.617 25.8976 172.852 26.4895 172.769C26.5348 172.647 26.8512 171.851 27.4574 171.63C27.743 171.525 28.0487 171.567 28.3659 171.754L28.3797 171.762L28.3778 171.778C28.3753 171.799 28.1405 173.869 29.3051 174.925C29.9727 175.53 30.9689 175.691 32.2661 175.404C32.3352 175.363 33.2574 174.528 33.8645 173.973L33.8887 173.951L38.0891 182.611L41.28 186.676C41.681 187.187 41.692 187.909 41.3066 188.431C40.978 188.877 40.414 189.099 39.8699 188.996L37.2383 188.497C36.1386 188.289 35.0813 187.828 34.1804 187.164L23.6405 179.393C22.9577 178.89 22.4683 178.178 22.2626 177.389Z" fill="#1D1D1D"/>
        <path d="M88.0705 182.736V187.896H82.9103V182.736H88.0705Z" fill="#D9AAA7" stroke="#252527"/>
        <path d="M81.1629 193.204C80.636 192.778 80.3516 192.301 80.3176 191.788C80.2787 191.202 80.5722 190.572 81.1899 189.918C81.2047 189.729 81.3964 187.395 81.8236 186.977C81.7878 186.852 81.5702 186.024 81.9269 185.486C82.0949 185.233 82.3658 185.085 82.732 185.047L82.7479 185.045L82.7558 185.059C82.7661 185.078 83.8056 186.883 85.3693 187.042C86.2658 187.133 87.1633 186.671 88.0371 185.67C88.0685 185.597 88.3153 184.377 88.4747 183.57L88.4811 183.538L97.001 188.017L101.981 189.395C102.607 189.568 103.044 190.142 103.044 190.792C103.044 191.346 102.722 191.858 102.223 192.098L99.8087 193.259C98.8 193.744 97.6753 194 96.5561 194H83.4616C82.6132 194 81.7969 193.717 81.1629 193.204Z" fill="#1D1D1D"/>
        <path d="M51.0313 84.4583H80.5551L90.3964 183.025H80.5551L65.3841 119.777L60.8726 137.622L36.027 176.604L26.2413 167.075L47.3417 133.742L51.0313 84.4583Z" fill="#1D1D1D"/>
        <path d="M72.7663 37.961L72.4683 38.0545L72.4216 38.3633L70.6183 50.2807L61.7949 42.9279C61.8179 42.8964 61.8419 42.8631 61.8671 42.8282C62.0894 42.5194 62.3972 42.0763 62.7411 41.5361C63.4269 40.4589 64.2657 38.9815 64.8543 37.4051L64.9932 37.0331L64.6624 36.8136C62.0934 35.1087 60.4008 32.1929 60.4008 28.8811C60.4008 23.6262 64.6607 19.3663 69.9155 19.3663C75.1704 19.3663 79.4303 23.6262 79.4303 28.8811C79.4303 33.142 76.6289 36.7496 72.7663 37.961Z" fill="#D9AAA7" stroke="#1D1D1D"/>
        <path d="M64.663 37.5352C64.663 37.5352 62.7535 27.8739 65.5134 29.0239C68.2733 30.1738 67.5348 32.1179 67.5348 32.1179L70.1797 28.208V23.7231L71.9047 21.7682L79.2645 24.8731C79.2645 24.8731 83.1743 13.3734 72.0197 17.0533C72.0197 17.0533 62.475 13.1434 59.715 19.9282C53.1718 35.2122 64.663 37.5352 64.663 37.5352Z" fill="#1D1D1D"/>
        <path d="M83.3684 89.3887L83.3288 89.1808L83.152 89.0645L75.4604 84.0028L78.0265 80.1034L85.7181 85.1651L85.8949 85.2814L86.1015 85.2355C87.3679 84.9538 88.8823 85.2118 90.2226 86.0938C92.5972 87.6564 93.3425 90.4102 92.1641 92.201C90.9856 93.9918 88.1616 94.3967 85.787 92.8341C84.4468 91.9521 83.6107 90.6632 83.3684 89.3887Z" fill="#D9AAA7" stroke="#1D1D1D"/>
        <mask id="path-30-outside-1_7479_27193" maskUnits="userSpaceOnUse" x="49.2662" y="39.5612" width="38" height="51" fill="black">
            <rect fill="white" x="49.2662" y="39.5612" width="38" height="51"/>
            <path fill-rule="evenodd" clip-rule="evenodd" d="M71.6427 85.1994L51.1329 85.1084C49.6733 85.0348 50.3121 84.4378 51.1897 83.6177C52.0685 82.7963 53.1869 81.7512 52.6763 80.7839L51.7137 78.9602C51.288 78.1535 51.1496 77.2856 51.3109 76.4326L53.7646 52.1012C54.0853 50.4046 54.9711 48.7853 56.3496 47.3755L61.6054 42.0005C63.0823 40.4901 65.3752 40.1273 67.2463 41.108L76.1153 45.7565L80.6129 79.0843L85.0562 81.4916L77.5402 88.8726L71.6427 85.1994Z"/>
        </mask>
        <path fill-rule="evenodd" clip-rule="evenodd" d="M71.6427 85.1994L51.1329 85.1084C49.6733 85.0348 50.3121 84.4378 51.1897 83.6177C52.0685 82.7963 53.1869 81.7512 52.6763 80.7839L51.7137 78.9602C51.288 78.1535 51.1496 77.2856 51.3109 76.4326L53.7646 52.1012C54.0853 50.4046 54.9711 48.7853 56.3496 47.3755L61.6054 42.0005C63.0823 40.4901 65.3752 40.1273 67.2463 41.108L76.1153 45.7565L80.6129 79.0843L85.0562 81.4916L77.5402 88.8726L71.6427 85.1994Z" fill="#9654F4"/>
        <path d="M51.1329 85.1084L51.0825 86.1072L51.1055 86.1083L51.1285 86.1084L51.1329 85.1084ZM71.6427 85.1994L72.1714 84.3506L71.9307 84.2007L71.6472 84.1994L71.6427 85.1994ZM51.1897 83.6177L51.8725 84.3483L51.1897 83.6177ZM52.6763 80.7839L53.5607 80.3171L53.5607 80.3171L52.6763 80.7839ZM51.7137 78.9602L50.8294 79.427L50.8294 79.427L51.7137 78.9602ZM51.3109 76.4326L52.2935 76.6183L52.3015 76.5759L52.3058 76.5329L51.3109 76.4326ZM53.7646 52.1012L52.782 51.9155L52.774 51.9579L52.7696 52.0009L53.7646 52.1012ZM56.3496 47.3755L55.6346 46.6763H55.6346L56.3496 47.3755ZM61.6054 42.0005L62.3204 42.6996V42.6996L61.6054 42.0005ZM67.2463 41.108L66.782 41.9937V41.9937L67.2463 41.108ZM76.1153 45.7565L77.1063 45.6227L77.0372 45.1106L76.5795 44.8708L76.1153 45.7565ZM80.6129 79.0843L79.6219 79.2181L79.6899 79.7216L80.1366 79.9636L80.6129 79.0843ZM85.0562 81.4916L85.7568 82.2051L86.7223 81.257L85.5325 80.6124L85.0562 81.4916ZM77.5402 88.8726L77.0115 89.7214L77.6794 90.1374L78.2408 89.5861L77.5402 88.8726ZM51.1285 86.1084L71.6383 86.1994L71.6472 84.1994L51.1374 84.1085L51.1285 86.1084ZM50.5069 82.8871C50.2954 83.0847 50.0625 83.3016 49.8733 83.505C49.7105 83.6799 49.4545 83.9717 49.3361 84.3269C49.2684 84.5302 49.2213 84.8261 49.3335 85.1489C49.448 85.4783 49.6777 85.6907 49.8874 85.8168C50.248 86.0335 50.7017 86.0879 51.0825 86.1072L51.1834 84.1097C51.0327 84.1021 50.9375 84.0889 50.8833 84.0777C50.822 84.065 50.8509 84.0625 50.9178 84.1027C50.9959 84.1496 51.145 84.269 51.2227 84.4924C51.298 84.7091 51.2579 84.8862 51.2336 84.959C51.2114 85.0256 51.19 85.0465 51.2144 85.0123C51.2351 84.9835 51.2733 84.9363 51.3374 84.8675C51.4691 84.7259 51.6452 84.5607 51.8725 84.3483L50.5069 82.8871ZM51.792 81.2507C51.8042 81.2738 51.8092 81.2874 51.8005 81.333C51.7877 81.4005 51.7433 81.5202 51.6239 81.698C51.3744 82.0694 50.9679 82.4562 50.5069 82.8871L51.8725 84.3483C52.2903 83.9578 52.8824 83.4113 53.2842 82.813C53.6858 82.215 54.0739 81.2895 53.5607 80.3171L51.792 81.2507ZM50.8294 79.427L51.792 81.2507L53.5607 80.3171L52.5981 78.4934L50.8294 79.427ZM50.3283 76.2468C50.1228 77.3341 50.3037 78.4311 50.8294 79.427L52.5981 78.4934C52.2722 77.8759 52.1765 77.2372 52.2935 76.6183L50.3283 76.2468ZM52.7696 52.0009L50.3159 76.3322L52.3058 76.5329L54.7596 52.2016L52.7696 52.0009ZM55.6346 46.6763C54.1384 48.2065 53.1444 49.9985 52.782 51.9155L54.7472 52.287C55.0263 50.8106 55.8038 49.364 57.0646 48.0746L55.6346 46.6763ZM60.8904 41.3014L55.6346 46.6763L57.0646 48.0746L62.3204 42.6996L60.8904 41.3014ZM67.7105 40.2223C65.4482 39.0366 62.6761 39.4752 60.8904 41.3014L62.3204 42.6996C63.4886 41.505 65.3021 41.218 66.782 41.9937L67.7105 40.2223ZM76.5795 44.8708L67.7105 40.2223L66.782 41.9937L75.651 46.6422L76.5795 44.8708ZM81.604 78.9506L77.1063 45.6227L75.1242 45.8902L79.6219 79.2181L81.604 78.9506ZM85.5325 80.6124L81.0893 78.2051L80.1366 79.9636L84.5798 82.3709L85.5325 80.6124ZM78.2408 89.5861L85.7568 82.2051L84.3555 80.7781L76.8395 88.1591L78.2408 89.5861ZM71.114 86.0482L77.0115 89.7214L78.0688 88.0238L72.1714 84.3506L71.114 86.0482Z" fill="#252527" mask="url(#path-30-outside-1_7479_27193)"/>
        <path d="M642.082 41.4796H653.932C654.859 41.4796 655.612 40.7979 655.612 39.9585C655.612 39.1191 654.859 38.4375 653.932 38.4375H642.082C641.155 38.4375 640.402 39.1191 640.402 39.9585C640.402 40.7979 641.155 41.4796 642.082 41.4796Z" fill="#69696B"/>
        <path d="M597.465 41.4796H609.315C610.242 41.4796 610.995 40.7979 610.995 39.9585C610.995 39.1191 610.242 38.4375 609.315 38.4375H597.465C596.538 38.4375 595.785 39.1191 595.785 39.9585C595.785 40.7979 596.538 41.4796 597.465 41.4796Z" fill="#69696B"/>
        <path d="M552.849 41.4796H564.698C565.625 41.4796 566.378 40.7979 566.378 39.9585C566.378 39.1191 565.625 38.4375 564.698 38.4375H552.849C551.921 38.4375 551.168 39.1191 551.168 39.9585C551.168 40.7979 551.921 41.4796 552.849 41.4796Z" fill="#69696B"/>
        <path d="M552.849 97.2505H564.698C565.625 97.2505 566.378 96.3417 566.378 95.2225C566.378 94.1033 565.625 93.1945 564.698 93.1945H552.849C551.921 93.1945 551.168 94.1033 551.168 95.2225C551.168 96.3417 551.921 97.2505 552.849 97.2505Z" fill="#69696B"/>
        <path d="M642.082 96.2365H653.932C654.859 96.2365 655.612 95.5549 655.612 94.7155C655.612 93.8761 654.859 93.1945 653.932 93.1945H642.082C641.155 93.1945 640.402 93.8761 640.402 94.7155C640.402 95.5549 641.155 96.2365 642.082 96.2365Z" fill="#69696B"/>
        <path d="M597.465 96.2365H609.315C610.242 96.2365 610.995 95.5549 610.995 94.7155C610.995 93.8761 610.242 93.1945 609.315 93.1945H597.465C596.538 93.1945 595.785 93.8761 595.785 94.7155C595.785 95.5549 596.538 96.2365 597.465 96.2365Z" fill="#69696B"/>
        <path d="M578.52 112.501C579.334 112.501 579.994 111.841 579.994 111.026C579.994 110.212 579.334 109.552 578.52 109.552C577.706 109.552 577.046 110.212 577.046 111.026C577.046 111.841 577.706 112.501 578.52 112.501Z" fill="#FCA728"/>
        <path d="M582.891 112.501C583.705 112.501 584.365 111.841 584.365 111.026C584.365 110.212 583.705 109.552 582.891 109.552C582.077 109.552 581.417 110.212 581.417 111.026C581.417 111.841 582.077 112.501 582.891 112.501Z" fill="#69696B"/>
        <path d="M587.263 112.501C588.077 112.501 588.737 111.841 588.737 111.026C588.737 110.212 588.077 109.552 587.263 109.552C586.449 109.552 585.789 110.212 585.789 111.026C585.789 111.841 586.449 112.501 587.263 112.501Z" fill="#69696B"/>
        <path d="M639.318 35.3954H656.695C660.012 35.3954 662.71 32.6972 662.71 29.3805V12.0037C662.71 8.6871 660.012 5.98889 656.695 5.98889H639.318C636.002 5.98889 633.304 8.6871 633.304 12.0037V29.3805C633.304 32.6972 636.002 35.3954 639.318 35.3954Z" fill="#3E3E40"/>
        <path d="M594.702 35.3954H612.079C615.395 35.3954 618.093 32.6972 618.093 29.3805V12.0037C618.093 8.6871 615.395 5.98889 612.079 5.98889H594.702C591.385 5.98889 588.687 8.6871 588.687 12.0037V29.3805C588.687 32.6972 591.385 35.3954 594.702 35.3954Z" fill="#3E3E40"/>
        <path d="M550.292 35.3954H568.268C571.699 35.3954 574.491 32.6972 574.491 29.3805V12.0037C574.491 8.6871 571.699 5.98889 568.268 5.98889H550.292C546.861 5.98889 544.07 8.6871 544.07 12.0037V29.3805C544.07 32.6972 546.861 35.3954 550.292 35.3954Z" fill="#252527"/>
        <path d="M550.292 90.1523H568.268C571.699 90.1523 574.491 87.3611 574.491 83.9301V65.9541C574.491 62.5231 571.699 59.7318 568.268 59.7318H550.292C546.861 59.7318 544.07 62.5231 544.07 65.9541V83.9301C544.07 87.3611 546.861 90.1523 550.292 90.1523Z" fill="#3E3E40"/>
        <path d="M594.702 90.1523H612.079C615.395 90.1523 618.093 87.3611 618.093 83.9301V65.9541C618.093 62.5231 615.395 59.7318 612.079 59.7318H594.702C591.385 59.7318 588.687 62.5231 588.687 65.9541V83.9301C588.687 87.3611 591.385 90.1523 594.702 90.1523Z" fill="#3E3E40"/>
        <path d="M639.318 90.1523H656.695C660.012 90.1523 662.71 87.3611 662.71 83.9301V65.9541C662.71 62.5231 660.012 59.7318 656.695 59.7318H639.318C636.002 59.7318 633.304 62.5231 633.304 65.9541V83.9301C633.304 87.3611 636.002 90.1523 639.318 90.1523Z" fill="#252527"/>
        <path d="M633.811 67.844C630.731 67.844 628.234 65.12 628.234 61.7599C628.234 58.3997 630.731 55.6758 633.811 55.6758C636.891 55.6758 639.388 58.3997 639.388 61.7599C639.388 65.12 636.891 67.844 633.811 67.844Z" fill="#FCA728"/>
        <path d="M545.084 13.087C541.724 13.087 539 10.3631 539 7.00293C539 3.64277 541.724 0.918823 545.084 0.918823C548.444 0.918823 551.168 3.64277 551.168 7.00293C551.168 10.3631 548.444 13.087 545.084 13.087Z" fill="#FCA728"/>
        <path d="M580.044 35.6146L579.973 35.8141L580.067 36.0037L580.096 36.0614L580.102 36.0729L580.108 36.0842L588.351 50.7589L588.589 51.1829L589.02 50.9566L603.771 43.201L603.786 43.1931L603.8 43.1842C605.132 42.3641 606.565 41.8659 607.865 41.8652C609.143 41.8646 610.3 42.3419 611.158 43.5078C613.354 46.489 612.196 50.7379 608.792 52.1934L589.543 60.4227C587.068 61.481 584.205 60.3342 583.143 57.8627L576.24 37.971L576.158 37.7349L575.92 37.6587C574.774 37.292 573.68 36.3762 573.018 35.0397L573.018 35.0397C571.843 32.6697 572.54 30.1178 574.314 29.2382C576.089 28.3585 578.542 29.3485 579.717 31.7186L580.165 31.4965L579.717 31.7186C580.38 33.0551 580.446 34.4805 580.044 35.6146Z" fill="#9B616A" stroke="#1D1D1D"/>
        <path d="M585.135 183.084V175.683H590.509V183.084H585.135Z" fill="#9B616A" stroke="#1D1D1D"/>
        <path d="M589.922 189.382H576.373C575.215 189.382 574.051 189.117 573.007 188.615L570.51 187.415C569.993 187.167 569.659 186.636 569.659 186.063C569.659 185.391 570.112 184.796 570.759 184.617L575.912 183.191L584.728 178.558L584.735 178.591C584.899 179.426 585.155 180.687 585.187 180.764C586.091 181.8 587.02 182.277 587.948 182.183C589.566 182.019 590.641 180.15 590.652 180.132L590.66 180.117L590.677 180.119C591.055 180.158 591.336 180.311 591.509 180.573C591.879 181.13 591.653 181.987 591.616 182.116C592.058 182.548 592.257 184.963 592.272 185.158C592.911 185.836 593.215 186.487 593.175 187.094C593.139 187.625 592.845 188.118 592.3 188.559C591.644 189.09 590.799 189.382 589.922 189.382Z" fill="#1D1D1D"/>
        <path d="M629.615 180.579L627.548 173.473L632.708 171.972L634.775 179.078L629.615 180.579Z" fill="#9B616A" stroke="#1D1D1D"/>
        <path d="M635.97 185.29L622.96 189.074C621.848 189.398 620.657 189.468 619.515 189.278L616.781 188.823C616.216 188.729 615.747 188.312 615.587 187.762C615.399 187.117 615.667 186.42 616.239 186.067L620.789 183.258L627.959 176.346L627.975 176.377C628.366 177.132 628.964 178.272 629.017 178.337C630.174 179.078 631.199 179.277 632.063 178.928C633.571 178.318 634.082 176.224 634.087 176.203L634.091 176.187L634.107 176.184C634.482 176.116 634.794 176.184 635.034 176.387C635.544 176.819 635.567 177.704 635.567 177.839C636.113 178.131 636.978 180.394 637.047 180.577C637.85 181.049 638.323 181.59 638.454 182.184C638.569 182.703 638.424 183.258 638.023 183.835C637.542 184.528 636.813 185.044 635.97 185.29Z" fill="#1D1D1D"/>
        <path d="M601.924 34.0202L601.877 33.7114L601.579 33.618C597.576 32.3623 594.672 28.623 594.672 24.2065C594.672 18.7597 599.088 14.3442 604.534 14.3442C609.981 14.3442 614.397 18.7597 614.397 24.2065C614.397 27.6393 612.642 30.6615 609.979 32.4286L609.649 32.6482L609.787 33.0201C610.396 34.6497 611.263 36.1771 611.972 37.2912C612.328 37.8498 612.646 38.308 612.876 38.6273C612.906 38.6684 612.934 38.7072 612.96 38.7436L603.795 46.3816L601.924 34.0202Z" fill="#9B616A" stroke="#1D1D1D"/>
        <path fill-rule="evenodd" clip-rule="evenodd" d="M619 75.0001L620.482 54.4087C620.612 52.5926 620.382 50.7687 619.806 49.0415L615.374 35.744L602.317 39.9378L601.162 42.5803L592.634 46.8237L596.179 53.6945L593.807 58.0429C592.441 60.5473 592.888 63.6522 594.905 65.6693L596.808 67.5717L594 77.0001L594.434 77.2868L619 75.0001ZM594 77.5001C594 77.5001 576.334 130.666 576.968 176.021H599.722L601.073 123.372L605.025 178.065L635.01 176.338L619.038 75.2412L594.217 77.3935L594 77.5001Z" fill="#1D1D1D"/>
        <mask id="path-56-outside-2_7479_27193" maskUnits="userSpaceOnUse" x="590.634" y="37.3657" width="27" height="24" fill="black">
            <rect fill="white" x="590.634" y="37.3657" width="27" height="24"/>
            <path d="M609.631 38.3657L592.634 46.8236L599.075 59.3066L616.185 49.1977"/>
        </mask>
        <path d="M609.631 38.3657L592.634 46.8236L599.075 59.3066L616.185 49.1977" fill="#9654F4"/>
        <path d="M592.634 46.8236L592.189 45.9283L591.28 46.3803L591.745 47.2821L592.634 46.8236ZM599.075 59.3066L598.186 59.7652L598.672 60.7063L599.583 60.1676L599.075 59.3066ZM609.186 37.4704L592.189 45.9283L593.08 47.7189L610.077 39.261L609.186 37.4704ZM591.745 47.2821L598.186 59.7652L599.963 58.8481L593.523 46.3651L591.745 47.2821ZM599.583 60.1676L616.693 50.0587L615.676 48.3368L598.566 58.4457L599.583 60.1676Z" fill="#252527" mask="url(#path-56-outside-2_7479_27193)"/>
        <path d="M620.959 54.7006L620.959 54.7003C621.093 52.8186 620.856 50.9289 620.259 49.1393L615.826 35.8419L615.67 35.3727L615.199 35.524L602.142 39.7177L601.927 39.7867L601.837 39.9935L596.337 52.5776L593.346 58.0595L593.346 58.0595C591.874 60.7586 592.356 64.1049 594.53 66.2789L594.53 66.2789L596.261 68.0094L593.5 77.111L593.392 77.468L593.703 77.6734L594.137 77.9601L594.284 78.0569L594.459 78.0406L619.025 75.754L619.447 75.7147L619.477 75.292L620.959 54.7006Z" fill="#9654F4" stroke="#252527"/>
        <path d="M618.224 37.8213C618.224 37.8213 617.74 41.4925 613.257 41.6124C607.194 41.7746 604.163 41.8556 604.163 41.8556C604.163 41.8556 611.851 23.1468 608.69 25.2545C605.528 27.3622 597.099 18.5261 597.099 18.5261L594.612 23.1909C594.612 23.1909 588.67 21.0391 595.255 15.7699C595.255 15.7699 603.113 9.69514 611.454 13.3431C619.796 16.991 618.224 37.8213 618.224 37.8213Z" fill="#1D1D1D"/>
        <path d="M590.076 76.7283L590.23 76.8724L590.442 76.8616L590.506 76.8583L590.519 76.8576L590.532 76.8563L607.274 75.1224L607.758 75.0723L607.721 74.5873L606.465 57.969L606.464 57.952L606.461 57.9351C606.237 56.3877 606.35 54.8741 606.866 53.6815C607.373 52.5082 608.271 51.6362 609.682 51.3115C613.29 50.4814 616.729 53.2321 616.712 56.9343L616.616 77.8679C616.603 80.5598 614.413 82.732 611.723 82.7243L590.727 81.155L590.477 81.1364L590.313 81.3246C589.521 82.2305 588.246 82.8709 586.756 82.9479C584.114 83.0844 582.05 81.4304 581.948 79.4525C581.845 77.4747 583.729 75.6167 586.37 75.4803C587.86 75.4033 589.195 75.9088 590.076 76.7283Z" fill="#9B616A" stroke="#1D1D1D"/>
    </g>
    <defs>
        <clipPath id="clip0_7479_27193">
            <rect width="680" height="196" fill="white"/>
        </clipPath>
    </defs>
</svg>
