<svg width="710" height="269" viewBox="0 0 710 269" fill="none" xmlns="http://www.w3.org/2000/svg">
    <path d="M152.728 209.254C154.994 212.817 159.828 213.148 163.486 211.597C168.133 209.626 170.89 204.692 173.066 200.432C176.956 192.82 180.234 184.655 190.763 182.228C197.51 182.199 202.234 183.132 210.822 188.861C217.957 195.931 223.01 203.587 228.735 211.117C234.248 218.368 241.512 224.604 251.125 224.901C255.161 225.025 259.316 223.897 262.203 220.927C265.286 217.756 266.413 213.258 269.11 209.799C274.129 203.363 282.783 201.557 290.493 202.534C299.462 203.67 306.93 208.767 313.628 214.475C320.573 220.393 326.973 227.182 335.192 231.395C342.205 234.991 350.703 236.932 358.208 233.424C365.562 229.986 369.722 222.45 373.481 215.677C377.35 208.707 381.249 201.355 387.805 196.491C401.855 186.07 421.304 190.662 435.445 197.988C451.586 206.349 466.642 219.574 485.7 220.285C493.892 220.59 502.726 218.685 508.857 212.869C515.054 206.991 516.74 198.518 518.039 190.473C519.37 182.233 520.718 174.091 525.179 166.833C529.556 159.711 535.878 153.859 543.356 150.087C546.968 148.265 550.753 147.007 554.715 146.234C556.525 145.88 556.696 148.735 554.899 149.086C546.21 150.782 538.209 155.492 532.288 162.054C526.339 168.647 523.343 176.467 521.825 185.069C520.436 192.944 519.769 201.288 515.807 208.436C511.799 215.667 504.748 220.347 496.76 222.145C488.659 223.967 480.096 223.272 472.256 220.766C463.149 217.854 454.946 212.761 446.838 207.844C432.183 198.958 414.282 188.868 396.494 195.105C379.65 201.011 377.601 220.694 365.647 231.727C359.769 237.151 352.053 239.117 344.273 237.637C336.219 236.105 329.137 231.652 322.951 226.494C315.372 220.174 308.502 212.557 299.496 208.175C292.377 204.711 282.763 203.547 275.641 207.815C271.56 210.26 269.774 214.1 267.597 218.117C265.635 221.738 263.023 224.692 259.175 226.347C251.967 229.447 243.226 227.235 236.927 223.204C221.39 213.259 217.396 189.619 197.496 185.614C193.858 184.882 189.984 185.106 186.647 186.885C182.176 189.268 179.588 193.838 177.383 198.188C173.573 205.702 168.913 215.454 159.051 215.328C155.551 215.283 152.253 213.866 150.349 210.872C149.367 209.327 151.741 207.702 152.728 209.254Z" fill="#C5C5C6"/>
    <path d="M368.475 210.724C371.115 206.842 376.402 205.835 380.283 208.475C384.165 211.115 385.172 216.402 382.532 220.283C379.892 224.165 374.606 225.172 370.724 222.532C366.842 219.893 365.835 214.606 368.475 210.724Z" fill="#EE7538" stroke="#69696B"/>
    <path d="M511.116 207.735C512.168 206.188 514.274 205.787 515.82 206.839C517.366 207.89 517.768 209.996 516.716 211.543C515.664 213.089 513.559 213.49 512.012 212.439C510.466 211.387 510.065 209.281 511.116 207.735Z" fill="#EE7538" stroke="#69696B"/>
    <path d="M263.878 208.986C265.908 206.002 269.973 205.227 272.957 207.257C275.942 209.287 276.716 213.352 274.686 216.337C272.657 219.321 268.592 220.096 265.607 218.066C262.622 216.036 261.848 211.971 263.878 208.986Z" fill="#EE7538" stroke="#69696B"/>
    <path opacity="0.4" d="M653.443 129.319H666.63C669.147 129.319 671.194 127.271 671.194 124.754V111.567C671.194 109.051 669.147 107.003 666.63 107.003H653.443C650.926 107.003 648.878 109.051 648.878 111.567V124.754C648.878 127.271 650.926 129.319 653.443 129.319Z" fill="#EE7538"/>
    <path opacity="0.4" d="M626.705 122.316H639.892C642.408 122.316 644.456 120.268 644.456 117.751V104.565C644.456 102.048 642.408 100 639.892 100H626.705C624.188 100 622.14 102.048 622.14 104.565V117.751C622.14 120.268 624.188 122.316 626.705 122.316Z" fill="#EE7538"/>
    <path opacity="0.4" d="M592.705 124.316H605.892C608.408 124.316 610.456 122.268 610.456 119.751V106.565C610.456 104.048 608.408 102 605.892 102H592.705C590.188 102 588.14 104.048 588.14 106.565V119.751C588.14 122.268 590.188 124.316 592.705 124.316Z" fill="#EE7538"/>
    <path d="M602.749 114.345C602.472 114.232 602.472 113.845 602.749 113.733C604.68 112.949 606.842 111.834 608.495 110.622C608.759 110.427 609.113 110.695 609.001 111.004L608.06 113.603H624.154V114.474H608.06L609.001 117.074C609.113 117.383 608.759 117.651 608.495 117.457C606.842 116.244 604.68 115.129 602.749 114.345Z" fill="#3E3E40"/>
    <path d="M638.957 110.154C638.805 109.897 639.04 109.588 639.328 109.667C641.339 110.212 643.735 110.634 645.784 110.669C646.112 110.675 646.231 111.102 645.956 111.28L643.633 112.78L656.442 122.524L655.915 123.216L643.106 113.472L642.28 116.112C642.182 116.425 641.739 116.424 641.646 116.109C641.065 114.143 640.019 111.947 638.957 110.154Z" fill="#3E3E40"/>
    <path d="M594.916 108.92C590.796 108.92 587.456 105.58 587.456 101.46C587.456 97.3398 590.796 94 594.916 94C599.036 94 602.376 97.3398 602.376 101.46C602.376 105.58 599.036 108.92 594.916 108.92Z" fill="#EE7538"/>
    <path opacity="0.7" d="M631.469 108.92C627.349 108.92 624.009 105.58 624.009 101.46C624.009 97.3398 627.349 94 631.469 94C635.589 94 638.929 97.3398 638.929 101.46C638.929 105.58 635.589 108.92 631.469 108.92Z" fill="#EE7538"/>
    <path opacity="0.25" d="M664.54 115.882C660.42 115.882 657.08 112.543 657.08 108.423C657.08 104.303 660.42 100.963 664.54 100.963C668.66 100.963 672 104.303 672 108.423C672 112.543 668.66 115.882 664.54 115.882Z" fill="#EE7538"/>
    <path d="M613.991 103C614.422 102.713 614.882 102.459 615.356 102.242C615.347 102.12 615.342 101.993 615.342 101.87C615.318 100.632 615.569 99.3946 616.083 98.2602C616.015 99.2581 616.33 100.275 616.95 101.07C617.056 101.211 617.172 101.343 617.298 101.47C617.332 101.503 617.366 101.536 617.4 101.564C618.083 101.414 618.79 101.343 619.492 101.353C620.272 101.367 621.047 101.47 621.817 101.616C622.781 101.795 623.739 102.045 624.698 102.252C624.756 102.266 624.81 102.275 624.868 102.289C625.309 101.127 626.001 100.063 626.902 99.1875C626.471 100.091 626.384 101.15 626.665 102.11C626.713 102.28 626.771 102.445 626.844 102.605C627.89 102.708 628.936 102.68 629.938 102.398C630.365 102.28 630.767 102.12 631.159 101.932C632.544 101.273 633.793 100.294 635.222 99.7052C635.992 99.3852 636.806 99.1875 637.639 99.1075C638.336 95.2243 638.142 91.779 636.002 89.2891C636.002 83.608 631.26 79 625.415 79L620.562 80.638L615.661 82.2948C613.356 88.2724 609.69 93.5346 613.991 103Z" fill="#303032"/>
    <path d="M563.123 128.319H549.936C547.419 128.319 545.371 126.271 545.371 123.754V110.567C545.371 108.051 547.419 106.003 549.936 106.003H563.123C565.639 106.003 567.687 108.051 567.687 110.567V123.754C567.687 126.271 565.639 128.319 563.123 128.319Z" fill="#444446"/>
    <path d="M565.33 113.704C568.281 113.704 570.673 111.312 570.673 108.361C570.673 105.41 568.281 103.018 565.33 103.018C562.379 103.018 559.986 105.41 559.986 108.361C559.986 111.312 562.379 113.704 565.33 113.704Z" fill="#EE7538"/>
    <path d="M631.617 117.463L631.617 117.462C631.734 116.969 631.789 116.476 631.789 115.996C631.789 112.591 629.02 109.663 625.437 109.663C622.133 109.663 619.383 112.195 619.112 115.487L619.111 115.487L617.571 134.069L617.528 134.588L617.012 134.524L598.691 132.258L598.678 132.257L598.665 132.254L598.612 132.245L598.602 132.243L598.602 132.243L598.587 132.24L598.385 132.2L598.269 132.03C597.521 130.927 596.207 130.051 594.582 129.765C591.708 129.259 589.206 130.789 588.822 132.961L631.617 117.463ZM631.617 117.463L626.364 139.813L626.364 139.814M631.617 117.463L626.364 139.814M626.364 139.814C625.684 142.716 622.78 144.516 619.879 143.839L598.847 137.313L598.846 137.313M626.364 139.814L598.846 137.313M598.846 137.313L597.818 136.995L597.58 136.922M598.846 137.313L597.58 136.922M597.58 136.922L597.377 137.068M597.58 136.922L597.377 137.068M597.377 137.068C596.297 137.85 594.765 138.225 593.14 137.939M597.377 137.068L593.14 137.939M593.14 137.939C590.266 137.43 588.438 135.137 588.822 132.962L593.14 137.939Z" fill="#D9AAA7" stroke="#3E3E40"/>
    <path d="M632.289 115.996C632.289 116.515 632.229 117.046 632.104 117.577L627.794 140.871C627.049 144.048 623.865 146.016 620.691 145.265L599.642 139.412L600.585 130.297L616.614 132.497L618.613 115.446C618.906 111.894 621.873 109.163 625.437 109.163C629.303 109.163 632.289 112.322 632.289 115.996Z" fill="#303032"/>
    <path d="M658.396 246.87L655.241 242.591L659.521 239.436L662.676 243.716L658.396 246.87Z" fill="#D9AAA7" stroke="#3E3E40"/>
    <path d="M655.566 244.325L651.551 252.603L651.528 252.652L651.495 252.694L648.223 256.861C647.95 257.208 647.943 257.701 648.205 258.056C648.427 258.358 648.813 258.51 649.182 258.44L649.275 258.931L649.182 258.44L651.881 257.929C652.934 257.729 653.949 257.287 654.812 256.65L665.62 248.683C666.232 248.232 666.665 247.597 666.846 246.904L667.329 247.03L666.846 246.904C666.998 246.321 666.931 245.909 666.744 245.616L666.744 245.616C666.527 245.276 666.062 244.979 665.218 244.826L665.045 244.794L664.929 244.661C664.869 244.591 664.452 244.113 663.98 243.645C663.742 243.411 663.5 243.187 663.287 243.021C663.18 242.937 663.089 242.875 663.016 242.833C662.95 242.796 662.921 242.787 662.921 242.787C662.921 242.787 662.921 242.787 662.921 242.787L662.631 242.746L662.527 242.467C662.51 242.423 662.433 242.227 662.298 242.023C662.157 241.81 661.995 241.654 661.831 241.594C661.831 241.594 661.831 241.594 661.831 241.594L655.566 244.325ZM655.566 244.325C655.757 244.498 655.951 244.674 656.125 244.831C656.287 244.976 656.433 245.107 656.544 245.204C656.599 245.252 656.647 245.294 656.685 245.325C656.686 245.326 656.687 245.328 656.689 245.329C656.711 245.348 656.767 245.395 656.818 245.425L656.886 245.466L656.964 245.483C658.373 245.795 659.59 245.648 660.444 244.874L660.108 244.503L660.444 244.874C661.171 244.215 661.433 243.272 661.528 242.558C661.58 242.17 661.585 241.822 661.578 241.579L655.566 244.325Z" fill="#9654F4" stroke="#3E3E40"/>
    <path d="M610.211 259.389V254.072H615.527V259.389H610.211Z" fill="#D9AAA7" stroke="#3E3E40"/>
    <path d="M601.299 259.942L609.443 255.661C609.493 255.914 609.546 256.17 609.593 256.4C609.637 256.613 609.677 256.805 609.709 256.948C609.724 257.02 609.738 257.082 609.75 257.13C609.75 257.131 609.75 257.133 609.751 257.135C609.758 257.164 609.775 257.236 609.797 257.289L609.829 257.362L609.881 257.422C610.83 258.51 611.897 259.113 613.044 258.997C614.019 258.898 614.79 258.295 615.29 257.776C615.562 257.494 615.773 257.218 615.912 257.018C616.005 257.061 616.065 257.118 616.106 257.181C616.202 257.326 616.24 257.548 616.227 257.803C616.215 258.047 616.161 258.25 616.148 258.296L616.066 258.582L616.276 258.787C616.276 258.787 616.276 258.787 616.276 258.787C616.275 258.788 616.294 258.812 616.325 258.881C616.359 258.958 616.395 259.062 616.431 259.193C616.504 259.453 616.567 259.777 616.618 260.107C616.721 260.764 616.773 261.395 616.78 261.488L616.794 261.663L616.915 261.792C617.503 262.415 617.701 262.93 617.674 263.334C617.651 263.68 617.46 264.051 616.992 264.43L617.306 264.818L616.992 264.43C616.434 264.881 615.71 265.134 614.949 265.134H601.523C600.45 265.134 599.371 264.889 598.404 264.424L598.187 264.874L598.404 264.424L595.929 263.234L595.712 263.685L595.929 263.234C595.59 263.071 595.37 262.721 595.37 262.345C595.37 261.904 595.668 261.512 596.093 261.394C596.093 261.394 596.093 261.394 596.093 261.394L601.2 259.981L601.251 259.967L601.299 259.942Z" fill="#9654F4" stroke="#3E3E40"/>
    <path d="M641.8 154.832H611.527L606.702 255.261H617.363L624.251 209.612L651.891 246.131L661.982 237.001L641.8 209.612V154.832Z" fill="#303032"/>
    <path d="M620.836 103.258L620.789 102.949L620.491 102.856C616.165 101.499 613.028 97.4586 613.028 92.6862C613.028 86.8006 617.799 82.0293 623.684 82.0293C629.57 82.0293 634.341 86.8005 634.341 92.6862C634.341 96.3956 632.445 99.6614 629.568 101.571L629.237 101.79L629.376 102.162C630.03 103.913 630.962 105.555 631.725 106.754C632.108 107.354 632.45 107.847 632.697 108.191C632.737 108.246 632.774 108.297 632.809 108.344L622.86 116.635L620.836 103.258Z" fill="#D9AAA7" stroke="#3E3E40"/>
    <path d="M635.153 141.065L640.097 155.635L612.123 155.321L616.294 142.008L635.153 141.065Z" fill="#D9AAA7"/>
    <path d="M632.626 104.086L620.221 108.399L608.494 168.943L632.626 171.889L634.386 162.658L636.064 171.889H644.423L635.411 111.682C635.007 108.988 634.06 106.403 632.626 104.086Z" fill="#9654F4"/>
    <path d="M641.447 176.579C641.27 176.579 641.093 176.572 640.915 176.559C638.795 176.399 636.97 175.263 635.492 173.18C629.929 165.341 618.712 139.4 618.712 132.024C618.712 124.974 620.246 108.818 620.299 108.576L631.629 102.303C637.064 103.579 640.848 108.556 640.626 114.138C640.083 127.776 641.481 158.864 650.629 171.748L650.704 171.854L650.614 171.948C650.425 172.144 646.092 176.579 641.447 176.579Z" fill="#303032"/>
    <path d="M620.61 219.5H679.39C680.305 219.5 681.112 219.264 681.674 218.908C682.243 218.548 682.5 218.114 682.5 217.717V179.283C682.5 178.886 682.243 178.452 681.674 178.092C681.112 177.736 680.305 177.5 679.39 177.5H620.61C619.695 177.5 618.888 177.736 618.326 178.092C617.757 178.452 617.5 178.886 617.5 179.283V217.717C617.5 218.114 617.757 218.548 618.326 218.908C618.888 219.264 619.695 219.5 620.61 219.5Z" fill="#C5C5C6" stroke="#444446"/>
    <path d="M633.538 214.392H637.43C637.904 214.392 638.29 214.128 638.29 213.804V198.938C638.29 198.614 637.904 198.35 637.43 198.35H633.538C633.064 198.35 632.678 198.614 632.678 198.938V213.804C632.678 214.128 633.064 214.392 633.538 214.392Z" fill="#EE7538"/>
    <path d="M646.406 205.632C646.789 205.632 647.101 205.845 647.101 206.107V213.787C647.101 214.049 646.789 214.263 646.406 214.263H642.514C642.131 214.263 641.819 214.049 641.819 213.787V206.107C641.819 205.845 642.131 205.632 642.514 205.632H646.406Z" fill="#EE7538"/>
    <path d="M655.026 210C655.409 210 655.72 210.099 655.72 210.22V213.78C655.72 213.901 655.409 214 655.026 214H651.134C650.752 214 650.44 213.901 650.44 213.78V210.22C650.44 210.099 650.752 210 651.134 210H655.026Z" fill="#EE7538"/>
    <path d="M624.561 214.393H628.453C628.927 214.393 629.312 214.129 629.312 213.804V189.442C629.312 189.117 628.927 188.854 628.453 188.854H624.561C624.087 188.854 623.701 189.117 623.701 189.442V213.804C623.701 214.129 624.087 214.393 624.561 214.393Z" fill="#EE7538"/>
    <path d="M667.998 211.269H675.921C676.45 211.269 676.88 210.887 676.88 210.418C676.88 209.949 676.45 209.567 675.921 209.567H667.998C667.47 209.567 667.04 209.949 667.04 210.418C667.04 210.887 667.47 211.269 667.998 211.269Z" fill="#EE7538"/>
    <path d="M667.998 199.211H675.921C676.45 199.211 676.88 198.829 676.88 198.36C676.88 197.891 676.45 197.51 675.921 197.51H667.998C667.47 197.51 667.04 197.891 667.04 198.36C667.04 198.829 667.47 199.211 667.998 199.211Z" fill="#EE7538"/>
    <path d="M667.998 190.516H675.921C676.45 190.516 676.88 190.134 676.88 189.665C676.88 189.196 676.45 188.814 675.921 188.814H667.998C667.47 188.814 667.04 189.196 667.04 189.665C667.04 190.134 667.47 190.516 667.998 190.516Z" fill="#EE7538"/>
    <path d="M677.198 214.435C677.198 214.587 677.06 214.71 676.888 214.71H623.569C623.397 214.71 623.259 214.587 623.259 214.435C623.259 214.282 623.397 214.159 623.569 214.159H676.888C677.06 214.159 677.198 214.282 677.198 214.435Z" fill="#444446"/>
    <path d="M628.648 175.213L628.644 175.425L628.793 175.576C629.73 176.525 630.332 177.984 630.297 179.632C630.233 182.551 628.244 184.707 626.037 184.659C623.83 184.611 621.936 182.371 622 179.452C622.035 177.804 622.7 176.372 623.678 175.465L623.833 175.321L623.838 175.109L624.043 165.657L628.853 165.762L628.648 175.213Z" fill="#D9AAA7" stroke="#3E3E40"/>
    <path d="M621.127 125.415V173.652H631.218L634.2 125.822" fill="#303032"/>
    <path d="M618.016 89.5655C618.074 88.7063 618.303 87.8554 618.681 87.0662C618.618 87.9376 618.91 88.8256 619.485 89.5203C619.498 89.5367 619.512 89.549 619.521 89.5655C621.006 90.2252 623.509 89.8522 625.928 89.5655V81.344H620.985C616.133 79.8477 612.139 83.1034 612 89.5655C614.328 89.9513 616.51 90.1626 618.016 89.5655Z" fill="#303032"/>
    <path d="M624.045 78.0965C624.223 77.5179 624.901 77.2421 625.479 77.3352C626.057 77.4284 626.554 77.7948 627.028 78.1506C626.567 77.6287 626.802 76.7081 627.367 76.3108C627.932 75.9134 628.687 75.9408 629.339 76.1491C629.991 76.3574 630.585 76.7248 631.222 76.9788C631.859 77.2327 632.586 77.3675 633.217 77.0977C632.971 77.9002 632.496 78.6253 631.868 79.1573C632.611 79.0222 633.417 79.4225 633.782 80.1083C634.147 80.7942 634.045 81.7157 633.54 82.2979C632.96 82.9662 631.98 83.1228 631.137 82.9131C630.295 82.7033 629.558 82.1876 628.848 81.6724C628.138 81.1573 627.417 80.624 626.585 80.3705L629.317 82.1549C627.922 81.5512 626.569 80.8439 625.27 80.0403C624.923 79.8254 624.573 79.5974 624.319 79.2706C624.066 78.9439 623.922 78.4964 624.045 78.0965Z" fill="#303032"/>
    <path d="M621.764 101.875C622.707 102.046 623.645 102.284 624.583 102.482C624.64 102.496 624.692 102.505 624.749 102.518C625.18 101.408 625.857 100.392 626.739 99.5559C626.317 100.419 626.232 101.43 626.506 102.347C626.554 102.509 626.611 102.666 626.682 102.819C627.705 102.918 628.728 102.891 629.709 102.621C630.126 102.509 630.519 102.356 630.903 102.176L635.5 96L635 88.5L629.5 80.5L620.954 82.9743C624.815 89.2132 625.365 95.506 621.764 101.875Z" fill="#303032"/>
    <g clip-path="url(#clip0_7694_39199)">
        <path d="M50.5 163C41.9396 163 35 155.613 35 146.5C35 137.387 41.9396 130 50.5 130C59.0604 130 66 137.387 66 146.5C66 155.613 59.0604 163 50.5 163Z" fill="#C5C5C6"/>
        <path d="M142.71 164.374H166.76C167.366 164.374 167.86 163.859 167.86 163.225C167.86 162.591 167.366 162.075 166.76 162.075H142.71C142.103 162.075 141.61 162.591 141.61 163.225C141.61 163.859 142.103 164.374 142.71 164.374Z" fill="#3E3E40"/>
        <path d="M37.7074 127.571C37.7074 138.549 46.2142 147.41 56.6615 147.41C67.1088 147.41 75.6155 138.549 75.6155 127.571C75.6155 116.593 67.1088 107.732 56.6615 107.732C46.2142 107.732 37.7074 116.593 37.7074 127.571Z" fill="#3E3E40" stroke="#3E3E40"/>
        <path d="M33.9885 102.244C57.4383 124.663 77.0082 146.76 84.8115 167.881L84.9021 169.231C74.2228 146.861 55.4053 124.747 33.4117 102.732L33.9885 102.244Z" fill="#EE7538"/>
        <path d="M32.8883 106.483L33.6293 106.537L34.8249 103.828L37.5018 103.259L37.6057 102.491L33.1932 101.835L32.8883 106.483Z" fill="#EE7538"/>
        <path d="M109.014 123.058L106.391 112.514L96.171 112L93.1133 126.535L109.014 123.058Z" fill="#9B616A"/>
        <path opacity="0.1" d="M96.5724 112.521L93.7618 125.881L108.405 122.679L105.995 112.995L96.5724 112.521Z" fill="#303032" stroke="#3E3E40"/>
        <path d="M89.8285 104.763C89.8285 111.631 95.1483 117.16 101.664 117.16C108.18 117.16 113.5 111.631 113.5 104.763C113.5 97.8952 108.18 92.3662 101.664 92.3662C95.1483 92.3662 89.8285 97.8952 89.8285 104.763Z" fill="#9B616A" stroke="#3E3E40"/>
        <path d="M95.4834 108.248C95.4834 108.248 100.17 98.5411 105.66 99.1015C111.151 99.662 114.043 100.344 114.043 100.344C114.043 100.344 115.673 92.7832 108 89.8752C108 89.8752 117.756 79.8204 106.14 74.888C94.5246 69.9557 88.0247 76.2463 88.0247 76.2463C88.0247 76.2463 79.4266 85.2202 90.2556 91.9273C90.2556 91.9273 82.2146 103.235 91.9502 112.556C91.9502 112.556 89.7726 105.013 92.0447 106.404C94.3167 107.795 95.4834 108.248 95.4834 108.248Z" fill="#303032"/>
        <path opacity="0.4" d="M134.013 130.319H120.826C118.309 130.319 116.262 128.271 116.262 125.754V112.567C116.262 110.051 118.309 108.003 120.826 108.003H134.013C136.53 108.003 138.578 110.051 138.578 112.567V125.754C138.578 128.271 136.53 130.319 134.013 130.319Z" fill="#EE7538"/>
        <path opacity="0.4" d="M160.751 123.316H147.565C145.048 123.316 143 121.268 143 118.751V105.565C143 103.048 145.048 101 147.565 101H160.751C163.268 101 165.316 103.048 165.316 105.565V118.751C165.316 121.268 163.268 123.316 160.751 123.316Z" fill="#EE7538"/>
        <path opacity="0.4" d="M194.751 125.316H181.565C179.048 125.316 177 123.268 177 120.751V107.565C177 105.048 179.048 103 181.565 103H194.751C197.268 103 199.316 105.048 199.316 107.565V120.751C199.316 123.268 197.268 125.316 194.751 125.316Z" fill="#EE7538"/>
        <path d="M184.707 115.345C184.984 115.232 184.984 114.845 184.707 114.733C182.776 113.949 180.614 112.834 178.962 111.622C178.697 111.427 178.343 111.695 178.455 112.004L179.396 114.603H163.302V115.474H179.396L178.455 118.074C178.343 118.383 178.697 118.651 178.961 118.457C180.614 117.244 182.776 116.129 184.707 115.345Z" fill="#3E3E40"/>
        <path d="M148.499 111.154C148.651 110.897 148.416 110.588 148.128 110.667C146.117 111.212 143.721 111.634 141.672 111.669C141.344 111.675 141.225 112.102 141.5 112.28L143.823 113.78L131.014 123.524L131.541 124.216L144.35 114.472L145.176 117.112C145.274 117.425 145.717 117.424 145.81 117.109C146.391 115.143 147.437 112.947 148.499 111.154Z" fill="#3E3E40"/>
        <path d="M192.54 109.92C196.66 109.92 200 106.58 200 102.46C200 98.3398 196.66 95 192.54 95C188.42 95 185.08 98.3398 185.08 102.46C185.08 106.58 188.42 109.92 192.54 109.92Z" fill="#EE7538"/>
        <path opacity="0.7" d="M155.987 109.92C160.107 109.92 163.447 106.58 163.447 102.46C163.447 98.3398 160.107 95 155.987 95C151.867 95 148.527 98.3398 148.527 102.46C148.527 106.58 151.867 109.92 155.987 109.92Z" fill="#EE7538"/>
        <path opacity="0.25" d="M122.916 116.882C127.036 116.882 130.376 113.543 130.376 109.423C130.376 105.303 127.036 101.963 122.916 101.963C118.796 101.963 115.456 105.303 115.456 109.423C115.456 113.543 118.796 116.882 122.916 116.882Z" fill="#EE7538"/>
        <path d="M100.937 226.733L101.925 226.701L111.416 277.933H130.406L128.897 204.716L117.122 178.319L115.727 176.921L84.5968 181.99L73.5852 209.298L77.9237 277.723H94.9178L100.937 226.733Z" fill="#303032" stroke="#303032"/>
        <path d="M32.7976 268.687H80.2081C81.8138 268.687 83.1201 267.321 83.1201 265.642V214.402C83.1201 212.723 81.8138 211.357 80.2081 211.357H32.7976C31.1917 211.357 29.8855 212.723 29.8855 214.402V265.642C29.8855 267.321 31.1917 268.687 32.7976 268.687Z" fill="#C5C5C6"/>
        <path d="M32.798 269H80.2087C81.9793 269 83.4199 267.494 83.4199 265.643V214.402C83.4199 212.551 81.9793 211.045 80.2087 211.045H32.798C31.0273 211.045 29.5867 212.551 29.5867 214.402V265.643C29.5867 267.494 31.0274 269 32.798 269ZM80.2087 211.671C81.6493 211.671 82.8213 212.896 82.8213 214.402V265.643C82.8213 267.149 81.6493 268.374 80.2087 268.374H32.798C31.3573 268.374 30.1853 267.149 30.1853 265.643V214.402C30.1853 212.896 31.3573 211.671 32.798 211.671H80.2087Z" fill="#444446"/>
        <path d="M54.6325 255.226H58.54C59.0158 255.226 59.4028 254.914 59.4028 254.53V236.941C59.4028 236.557 59.0158 236.245 58.54 236.245H54.6325C54.1567 236.245 53.7697 236.557 53.7697 236.941V254.53C53.7697 254.914 54.1567 255.226 54.6325 255.226Z" fill="#EE7538"/>
        <path d="M67.5514 244.861C67.9358 244.861 68.2485 245.114 68.2485 245.424V254.511C68.2485 254.821 67.9358 255.073 67.5514 255.073H63.6438C63.2595 255.073 62.9467 254.821 62.9467 254.511V245.424C62.9467 245.114 63.2595 244.861 63.6438 244.861H67.5514Z" fill="#EE7538"/>
        <path d="M45.6217 255.226H49.5293C50.0051 255.226 50.3921 254.914 50.3921 254.53V225.705C50.3921 225.321 50.0051 225.009 49.5293 225.009H45.6217C45.1459 225.009 44.7589 225.321 44.7589 225.705V254.53C44.7589 254.914 45.1459 255.226 45.6217 255.226Z" fill="#EE7538"/>
        <path d="M70.7141 211.555L70.7135 211.562C70.5466 213.385 70.8483 215.058 71.4457 216.284C72.0479 217.519 72.9042 218.224 73.8215 218.316C74.7368 218.407 75.7018 217.887 76.5152 216.796C77.3227 215.713 77.9222 214.133 78.0888 212.31L78.0895 212.303C78.2404 210.863 78.059 209.406 77.561 208.055L77.5229 207.952L77.5317 207.842L78.304 198.227L78.3068 198.193L78.3142 198.159C79.309 193.665 80.5614 187.477 81.2731 181.938C81.6291 179.167 81.848 176.573 81.8344 174.441C81.8276 173.375 81.7626 172.435 81.6312 171.652C81.4988 170.863 81.3041 170.267 81.0588 169.865L81.0588 169.865C80.7436 169.348 80.408 169.05 80.0781 168.891C79.7509 168.734 79.3886 168.694 78.9824 168.765C78.1424 168.912 77.1665 169.523 76.1552 170.423C72.8202 173.392 71.0767 177.898 71.3295 182.499L72.4305 202.541L72.558 202.581L72.5159 202.987L72.0702 207.287L72.0588 207.397L72.0021 207.492C71.2693 208.718 70.8272 210.112 70.7141 211.555Z" fill="#9B616A" stroke="#3E3E40"/>
        <mask id="path-65-inside-1_7694_39199" fill="white">
            <path fill-rule="evenodd" clip-rule="evenodd" d="M95.2685 121.987H108.569L123.037 130.127L122.95 130.531C125.43 131.011 129.306 132.336 130.173 135.96C131.471 141.387 132.509 169.333 132.509 169.333C132.509 169.333 131.73 185.916 123.036 178.031C120.551 175.778 118.84 172.218 117.664 168.282C117.167 173.719 117.587 178.694 117.587 178.694L84.2389 181.542L84.18 179.725L70.2245 182.356C70.2245 182.356 73.5982 142.201 76.7125 134.061C78.5038 129.379 81.4972 128.288 83.7171 128.206L83.7198 128.092L95.2685 121.987Z"/>
        </mask>
        <path fill-rule="evenodd" clip-rule="evenodd" d="M95.2685 121.987H108.569L123.037 130.127L122.95 130.531C125.43 131.011 129.306 132.336 130.173 135.96C131.471 141.387 132.509 169.333 132.509 169.333C132.509 169.333 131.73 185.916 123.036 178.031C120.551 175.778 118.84 172.218 117.664 168.282C117.167 173.719 117.587 178.694 117.587 178.694L84.2389 181.542L84.18 179.725L70.2245 182.356C70.2245 182.356 73.5982 142.201 76.7125 134.061C78.5038 129.379 81.4972 128.288 83.7171 128.206L83.7198 128.092L95.2685 121.987Z" fill="#9654F4"/>
        <path d="M108.569 121.987V120.987H108.831L109.06 121.116L108.569 121.987ZM95.2685 121.987L94.8011 121.103L95.0204 120.987H95.2685V121.987ZM123.037 130.127L123.527 129.255L124.169 129.617L124.015 130.337L123.037 130.127ZM122.95 130.531L122.76 131.513L121.759 131.319L121.973 130.322L122.95 130.531ZM130.173 135.96L129.201 136.193L130.173 135.96ZM132.509 169.333L133.508 169.296L133.51 169.338L133.508 169.38L132.509 169.333ZM123.036 178.031L122.365 178.772H122.365L123.036 178.031ZM117.664 168.282L116.668 168.191L118.622 167.996L117.664 168.282ZM117.587 178.694L118.584 178.609L118.668 179.605L117.672 179.69L117.587 178.694ZM84.2389 181.542L84.324 182.539L83.2736 182.629L83.2394 181.575L84.2389 181.542ZM84.18 179.725L83.9947 178.743L85.1416 178.526L85.1795 179.693L84.18 179.725ZM70.2245 182.356L70.4097 183.339L69.1179 183.583L69.228 182.273L70.2245 182.356ZM76.7125 134.061L75.7785 133.704L76.7125 134.061ZM83.7171 128.206L84.7168 128.23L84.694 129.17L83.7541 129.205L83.7171 128.206ZM83.7198 128.092L82.7201 128.068L82.7343 127.482L83.2525 127.208L83.7198 128.092ZM108.569 122.987H95.2685V120.987H108.569V122.987ZM122.547 130.998L108.079 122.859L109.06 121.116L123.527 129.255L122.547 130.998ZM121.973 130.322L122.059 129.917L124.015 130.337L123.928 130.741L121.973 130.322ZM129.201 136.193C128.847 134.713 127.88 133.671 126.647 132.921C125.401 132.163 123.941 131.742 122.76 131.513L123.141 129.55C124.439 129.801 126.157 130.282 127.686 131.212C129.228 132.151 130.633 133.583 131.146 135.728L129.201 136.193ZM132.509 169.333C131.509 169.37 131.509 169.37 131.509 169.37C131.509 169.37 131.509 169.369 131.509 169.369C131.509 169.368 131.509 169.367 131.509 169.365C131.509 169.362 131.509 169.357 131.509 169.35C131.508 169.337 131.507 169.317 131.506 169.29C131.504 169.238 131.502 169.159 131.498 169.056C131.49 168.851 131.478 168.548 131.462 168.161C131.432 167.388 131.386 166.276 131.327 164.925C131.21 162.223 131.04 158.564 130.829 154.737C130.618 150.908 130.368 146.916 130.089 143.547C129.808 140.146 129.504 137.462 129.201 136.193L131.146 135.728C131.491 137.172 131.804 140.016 132.082 143.382C132.363 146.778 132.615 150.79 132.826 154.627C133.037 158.464 133.208 162.131 133.325 164.838C133.384 166.192 133.43 167.306 133.461 168.082C133.476 168.47 133.488 168.773 133.496 168.979C133.5 169.083 133.503 169.162 133.505 169.215C133.506 169.242 133.507 169.262 133.507 169.275C133.508 169.282 133.508 169.287 133.508 169.291C133.508 169.292 133.508 169.294 133.508 169.295C133.508 169.295 133.508 169.295 133.508 169.295C133.508 169.296 133.508 169.296 132.509 169.333ZM123.708 177.291C125.786 179.175 127.084 179.319 127.859 179.053C128.721 178.756 129.488 177.788 130.106 176.263C130.703 174.791 131.058 173.055 131.262 171.656C131.363 170.963 131.425 170.366 131.462 169.943C131.481 169.732 131.493 169.565 131.5 169.452C131.504 169.396 131.506 169.353 131.508 169.325C131.509 169.311 131.509 169.3 131.51 169.294C131.51 169.29 131.51 169.288 131.51 169.287C131.51 169.286 131.51 169.286 131.51 169.286C131.51 169.286 131.51 169.286 131.51 169.286C131.51 169.286 131.51 169.286 132.509 169.333C133.508 169.38 133.508 169.38 133.508 169.381C133.508 169.381 133.508 169.381 133.508 169.382C133.508 169.383 133.508 169.384 133.507 169.385C133.507 169.388 133.507 169.391 133.507 169.396C133.506 169.406 133.506 169.419 133.505 169.436C133.503 169.47 133.5 169.52 133.496 169.583C133.488 169.709 133.474 169.89 133.455 170.117C133.415 170.57 133.349 171.207 133.241 171.945C133.027 173.409 132.644 175.326 131.959 177.015C131.296 178.65 130.239 180.349 128.51 180.944C126.693 181.569 124.634 180.83 122.365 178.772L123.708 177.291ZM118.622 167.996C119.779 171.866 121.423 175.219 123.708 177.291L122.365 178.772C119.679 176.337 117.902 172.569 116.706 168.569L118.622 167.996ZM117.587 178.694C116.591 178.778 116.591 178.778 116.591 178.777C116.591 178.777 116.591 178.777 116.591 178.777C116.591 178.777 116.591 178.776 116.591 178.776C116.591 178.775 116.59 178.774 116.59 178.773C116.59 178.77 116.59 178.766 116.589 178.76C116.588 178.75 116.587 178.734 116.586 178.714C116.583 178.675 116.578 178.616 116.573 178.541C116.562 178.39 116.547 178.169 116.531 177.889C116.499 177.327 116.461 176.524 116.44 175.549C116.396 173.602 116.415 170.959 116.668 168.191L118.66 168.373C118.416 171.042 118.397 173.605 118.439 175.504C118.46 176.453 118.497 177.233 118.528 177.774C118.543 178.045 118.557 178.256 118.568 178.398C118.573 178.469 118.577 178.523 118.58 178.558C118.581 178.576 118.582 178.589 118.583 178.598C118.583 178.602 118.583 178.605 118.583 178.607C118.584 178.608 118.584 178.609 118.584 178.609C118.584 178.609 118.584 178.61 118.584 178.61C118.584 178.61 118.584 178.61 118.584 178.61C118.584 178.61 118.584 178.609 117.587 178.694ZM84.1538 180.546L117.502 177.697L117.672 179.69L84.324 182.539L84.1538 180.546ZM85.1795 179.693L85.2384 181.51L83.2394 181.575L83.1805 179.758L85.1795 179.693ZM70.0392 181.374L83.9947 178.743L84.3652 180.708L70.4097 183.339L70.0392 181.374ZM77.6464 134.418C76.9126 136.337 76.1305 140.265 75.3733 145.193C74.6221 150.083 73.9102 155.85 73.2945 161.372C72.679 166.893 72.1605 172.16 71.7959 176.048C71.6136 177.992 71.4698 179.591 71.3716 180.703C71.3225 181.259 71.2848 181.694 71.2594 181.989C71.2467 182.137 71.2371 182.25 71.2306 182.326C71.2274 182.364 71.225 182.392 71.2234 182.411C71.2226 182.421 71.222 182.428 71.2215 182.433C71.2213 182.435 71.2212 182.437 71.2211 182.438C71.221 182.439 71.221 182.439 71.221 182.44C71.221 182.44 71.221 182.44 70.2245 182.356C69.228 182.273 69.228 182.273 69.228 182.272C69.228 182.272 69.2281 182.271 69.2281 182.271C69.2282 182.269 69.2284 182.268 69.2286 182.265C69.229 182.26 69.2296 182.253 69.2305 182.243C69.2321 182.224 69.2346 182.195 69.2378 182.156C69.2443 182.08 69.254 181.966 69.2668 181.818C69.2923 181.521 69.3302 181.085 69.3794 180.527C69.4779 179.412 69.622 177.809 69.8046 175.862C70.1699 171.966 70.6896 166.686 71.3068 161.15C71.9238 155.616 72.6392 149.818 73.3965 144.889C74.1478 139.999 74.9552 135.856 75.7785 133.704L77.6464 134.418ZM83.7541 129.205C82.7923 129.241 81.6852 129.493 80.6246 130.23C79.5669 130.965 78.4831 132.232 77.6464 134.418L75.7785 133.704C76.7332 131.209 78.0417 129.589 79.4835 128.587C80.9223 127.588 82.4219 127.253 83.6801 127.206L83.7541 129.205ZM84.7196 128.116L84.7168 128.23L82.7174 128.182L82.7201 128.068L84.7196 128.116ZM95.7358 122.871L84.1872 128.976L83.2525 127.208L94.8011 121.103L95.7358 122.871Z" fill="#303032" mask="url(#path-65-inside-1_7694_39199)"/>
        <path d="M61.8545 225.307C61.8545 225.513 61.6959 225.679 61.4983 225.679H0.355835C0.15831 225.679 -0.000324249 225.513 -0.000324249 225.307C-0.000324249 225.1 0.15831 224.935 0.355835 224.935H61.4983C61.6959 224.935 61.8545 225.1 61.8545 225.307Z" fill="#3E3E40"/>
        <path d="M79.8125 255.658C79.8125 255.865 79.6539 256.031 79.4563 256.031H18.3138C18.1163 256.031 17.9577 255.865 17.9577 255.658C17.9577 255.452 18.1163 255.286 18.3138 255.286H79.4563C79.6539 255.286 79.8125 255.452 79.8125 255.658Z" fill="#3E3E40"/>
        <path d="M133.986 134.308L133.986 134.308C133.872 135.752 133.43 137.145 132.698 138.371L132.641 138.466L132.629 138.576L132.184 142.876L132.142 143.282L132.269 143.322L133.37 163.364C133.623 167.966 131.879 172.472 128.544 175.44C127.533 176.341 126.557 176.951 125.717 177.098C125.311 177.169 124.949 177.129 124.622 176.972C124.292 176.813 123.956 176.515 123.641 175.998C123.396 175.596 123.201 175 123.068 174.211C122.937 173.428 122.872 172.489 122.865 171.422C122.852 169.29 123.071 166.696 123.427 163.925C124.138 158.387 125.391 152.198 126.385 147.704L126.393 147.671L126.396 147.636L127.168 138.021L127.177 137.912L127.139 137.808C126.641 136.457 126.459 135 126.61 133.56L126.611 133.554L126.611 133.554C126.777 131.731 127.377 130.15 128.184 129.067C128.998 127.976 129.963 127.456 130.878 127.548L133.986 134.308ZM133.986 134.308L133.986 134.301M133.986 134.308L133.986 134.301M133.986 134.301C134.153 132.478 133.851 130.805 133.254 129.58M133.986 134.301L133.254 129.58M133.254 129.58C132.652 128.344 131.795 127.639 130.878 127.548L133.254 129.58Z" fill="#9B616A" stroke="#3E3E40"/>
    </g>
    <defs>
        <clipPath id="clip0_7694_39199">
            <rect width="204" height="206" fill="white" transform="matrix(-1 0 0 1 204 73)"/>
        </clipPath>
    </defs>
</svg>
