<svg width="180" height="120" viewBox="0 0 180 120" fill="none" xmlns="http://www.w3.org/2000/svg">
<path d="M58.06 0H35.6833C31.7905 0 28.6348 3.15123 28.6348 7.03847V29.3831C28.6348 33.2704 31.7905 36.4216 35.6833 36.4216H58.06C61.9528 36.4216 65.1085 33.2704 65.1085 29.3831V7.03847C65.1085 3.15123 61.9528 0 58.06 0Z" fill="#252527"/>
<path d="M115.506 0H93.1296C89.2368 0 86.0811 3.15123 86.0811 7.03847V29.3831C86.0811 33.2704 89.2368 36.4216 93.1296 36.4216H115.506C119.399 36.4216 122.555 33.2704 122.555 29.3831V7.03847C122.555 3.15123 119.399 0 115.506 0Z" fill="#252527"/>
<path d="M172.953 0H150.576C146.683 0 143.527 3.15123 143.527 7.03847V29.3831C143.527 33.2704 146.683 36.4216 150.576 36.4216H172.953C176.845 36.4216 180.001 33.2704 180.001 29.3831V7.03847C180.001 3.15123 176.845 0 172.953 0Z" fill="#252527"/>
<path d="M58.06 50.9902H35.6833C31.7905 50.9902 28.6348 54.1414 28.6348 58.0287V80.3733C28.6348 84.2606 31.7905 87.4118 35.6833 87.4118H58.06C61.9528 87.4118 65.1085 84.2606 65.1085 80.3733V58.0287C65.1085 54.1414 61.9528 50.9902 58.06 50.9902Z" fill="#B2B2B2"/>
<path d="M115.506 50.9902H93.1296C89.2368 50.9902 86.0811 54.1414 86.0811 58.0287V80.3733C86.0811 84.2606 89.2368 87.4118 93.1296 87.4118H115.506C119.399 87.4118 122.555 84.2606 122.555 80.3733V58.0287C122.555 54.1414 119.399 50.9902 115.506 50.9902Z" fill="#252527"/>
<path d="M172.953 50.9902H150.576C146.683 50.9902 143.527 54.1414 143.527 58.0287V80.3733C143.527 84.2606 146.683 87.4118 150.576 87.4118H172.953C176.845 87.4118 180.001 84.2606 180.001 80.3733V58.0287C180.001 54.1414 176.845 50.9902 172.953 50.9902Z" fill="#252527"/>
<path d="M62.7692 113.763H16.5387C14.8265 113.763 13.4385 115.149 13.4385 116.859V116.904C13.4385 118.614 14.8265 120 16.5387 120H62.7692C64.4815 120 65.8695 118.614 65.8695 116.904V116.859C65.8695 115.149 64.4815 113.763 62.7692 113.763Z" fill="#241B2E"/>
<path d="M73.1238 60.4045L3.08271 67.8791C1.38018 68.0608 0.147499 69.5863 0.329447 71.2864L0.673428 74.5005C0.855377 76.2006 2.38305 77.4315 4.08559 77.2498L74.1267 69.7753C75.8292 69.5936 77.0619 68.0681 76.8799 66.368L76.536 63.1539C76.354 61.4538 74.8263 60.2229 73.1238 60.4045Z" fill="#241B2E"/>
<path d="M57.4808 90.1798L29.396 93.1846C18.8187 94.3228 6.78233 87.5393 5.64252 76.977L4.0468 62.0897C2.90699 51.5274 10.6577 41.9212 21.235 40.8286L49.3198 37.8238C59.8972 36.6856 69.5172 44.4252 70.6114 54.9875L72.2071 69.8748C73.3469 80.4371 68.0126 89.0417 57.4352 90.1798H57.4808Z" fill="#5C4998"/>
<path d="M27.8914 21.252C30.8093 20.6601 35.3685 20.387 35.1405 24.6665C34.867 29.4468 26.7972 26.0323 26.0677 31.0403C24.8367 39.3717 39.8821 34.0451 44.6237 34.7735C56.2041 36.5035 56.7968 53.4396 45.8091 55.898C43.1648 56.4899 32.5874 57.7191 29.9886 57.5825C26.478 57.4004 25.7941 51.8916 29.3959 50.9811C33.5904 49.8885 40.7028 50.6169 44.5781 49.2511C47.4048 48.2495 47.8152 43.9699 45.3532 42.2399C40.9763 39.1896 29.8518 46.3374 22.6939 39.7815C16.2198 33.8174 19.32 23.0731 27.8458 21.343L27.8914 21.252Z" fill="#5C4998"/>
<path d="M41.4781 19.5675C46.5388 18.4293 47.7698 25.7592 43.3018 26.6242C38.469 27.5802 37.1469 20.5236 41.4781 19.5675Z" fill="#5C4998"/>
<path d="M44.1036 43.6578L27.9193 45.3849C17.2785 46.5205 9.57421 56.0548 10.7114 66.6804L11.2831 72.0222C12.4203 82.6478 21.9682 90.341 32.6091 89.2055L48.7933 87.4784C59.4342 86.3428 67.1384 76.8085 66.0013 66.1829L65.4296 60.8411C64.2924 50.2155 54.7444 42.5222 44.1036 43.6578Z" fill="#241B2E"/>
<path d="M22.0553 94.5049H22.0097C19.9198 94.5049 18.2256 96.1967 18.2256 98.2836V103.975C18.2256 106.061 19.9198 107.753 22.0097 107.753H22.0553C24.1453 107.753 25.8395 106.061 25.8395 103.975V98.2836C25.8395 96.1967 24.1453 94.5049 22.0553 94.5049Z" fill="#5C4998"/>
<path d="M54.3528 93.5716L59.7738 91.8234C61.7616 91.1814 63.8953 92.2741 64.5381 94.2591C65.181 96.244 64.0868 98.3747 62.099 99.0166L56.678 100.765C54.6902 101.407 52.5565 100.314 51.9137 98.3292C51.2708 96.3442 52.365 94.2135 54.3528 93.5716Z" fill="#5C4998"/>
<path d="M46.9023 89.8612H32.404C30.3067 89.8612 28.5742 91.7733 28.5742 94.0952V107.252C28.5742 109.574 30.3067 111.486 32.404 111.486C34.3188 111.486 35.8234 109.756 35.8234 107.662V107.48C35.8234 105.386 37.1455 103.474 39.0604 103.155C41.3856 102.791 43.4373 104.794 43.4373 107.298V107.571C43.4373 109.711 44.9874 111.441 46.9023 111.441C48.9995 111.441 50.732 109.529 50.732 107.207V94.0496C50.732 91.7278 48.9995 89.8156 46.9023 89.8156V89.8612Z" fill="#5C4998"/>
<path d="M39.1973 69.283C39.562 70.5122 41.9784 71.5138 43.3462 71.3772C44.7139 71.2406 45.7169 70.148 45.8081 68.8732L39.1973 69.3285V69.283Z" fill="#D9BDDC"/>
<path d="M50.3818 63.0412L50.7283 66.7061L60.403 69.9249L61.4106 66.911L54.2481 64.5254L61.1461 60.6875L59.596 57.9103L50.3818 63.0412Z" fill="#D9BDDC"/>
<path d="M33.6495 64.7985V68.4771L24.3122 72.5882L23.0311 69.679L29.9428 66.6378L22.7119 63.46L23.9976 60.5509L33.6495 64.7985Z" fill="#D9BDDC"/>
</svg>
