<svg width="180" height="120" viewBox="0 0 180 120" fill="none" xmlns="http://www.w3.org/2000/svg">
<path d="M35.6833 0.5H58.06C61.6773 0.5 64.6085 3.42805 64.6085 7.03847V29.3831C64.6085 32.9935 61.6773 35.9216 58.06 35.9216H35.6833C32.066 35.9216 29.1348 32.9935 29.1348 29.3831V7.03847C29.1348 3.42805 32.066 0.5 35.6833 0.5Z" fill="#EFE6FD" stroke="#CEB0FA"/>
<path d="M93.1296 0.5H115.506C119.124 0.5 122.055 3.42805 122.055 7.03847V29.3831C122.055 32.9935 119.124 35.9216 115.506 35.9216H93.1296C89.5123 35.9216 86.5811 32.9935 86.5811 29.3831V7.03847C86.5811 3.42805 89.5123 0.5 93.1296 0.5Z" fill="#EFE6FD" stroke="#CEB0FA"/>
<path d="M150.576 0.5H172.953C176.57 0.5 179.501 3.42805 179.501 7.03847V29.3831C179.501 32.9935 176.57 35.9216 172.953 35.9216H150.576C146.959 35.9216 144.027 32.9935 144.027 29.3831V7.03847C144.027 3.42805 146.959 0.5 150.576 0.5Z" fill="#EFE6FD" stroke="#CEB0FA"/>
<path d="M58.06 50.9902H35.6833C31.7905 50.9902 28.6348 54.1415 28.6348 58.0287V80.3733C28.6348 84.2606 31.7905 87.4118 35.6833 87.4118H58.06C61.9528 87.4118 65.1085 84.2606 65.1085 80.3733V58.0287C65.1085 54.1415 61.9528 50.9902 58.06 50.9902Z" fill="#B2B2B2"/>
<path d="M93.1296 51.4902H115.506C119.124 51.4902 122.055 54.4183 122.055 58.0287V80.3733C122.055 83.9838 119.124 86.9118 115.506 86.9118H93.1296C89.5123 86.9118 86.5811 83.9838 86.5811 80.3733V58.0287C86.5811 54.4183 89.5123 51.4902 93.1296 51.4902Z" fill="#EFE6FD" stroke="#CEB0FA"/>
<path d="M150.576 51.4902H172.953C176.57 51.4902 179.501 54.4183 179.501 58.0287V80.3733C179.501 83.9838 176.57 86.9118 172.953 86.9118H150.576C146.959 86.9118 144.027 83.9838 144.027 80.3733V58.0287C144.027 54.4183 146.959 51.4902 150.576 51.4902Z" fill="#EFE6FD" stroke="#CEB0FA"/>
<path d="M62.7692 113.763H16.5387C14.8265 113.763 13.4385 115.149 13.4385 116.859V116.904C13.4385 118.614 14.8265 120 16.5387 120H62.7692C64.4815 120 65.8695 118.614 65.8695 116.904V116.859C65.8695 115.149 64.4815 113.763 62.7692 113.763Z" fill="#241B2E"/>
<path d="M73.1238 60.4045L3.08271 67.879C1.38018 68.0607 0.147499 69.5862 0.329447 71.2863L0.673428 74.5004C0.855377 76.2005 2.38305 77.4314 4.08559 77.2498L74.1267 69.7752C75.8292 69.5935 77.0619 68.068 76.8799 66.3679L76.536 63.1538C76.354 61.4537 74.8263 60.2228 73.1238 60.4045Z" fill="#241B2E"/>
<path d="M57.4808 90.18L29.396 93.1848C18.8187 94.323 6.78233 87.5394 5.64252 76.9772L4.0468 62.0899C2.90699 51.5276 10.6577 41.9214 21.235 40.8288L49.3198 37.824C59.8972 36.6858 69.5172 44.4254 70.6114 54.9876L72.2071 69.875C73.3469 80.4372 68.0126 89.0418 57.4352 90.18H57.4808Z" fill="#5C4998"/>
<path d="M27.8914 21.2524C30.8093 20.6606 35.3685 20.3874 35.1405 24.6669C34.867 29.4473 26.7972 26.0327 26.0677 31.0407C24.8367 39.3721 39.8821 34.0455 44.6237 34.7739C56.2041 36.5039 56.7968 53.44 45.8091 55.8984C43.1648 56.4903 32.5874 57.7195 29.9886 57.5829C26.478 57.4008 25.7941 51.8921 29.3959 50.9815C33.5904 49.8889 40.7028 50.6173 44.5781 49.2515C47.4048 48.2499 47.8152 43.9704 45.3532 42.2403C40.9763 39.19 29.8518 46.3378 22.6939 39.7819C16.2198 33.8178 19.32 23.0735 27.8458 21.3435L27.8914 21.2524Z" fill="#5C4998"/>
<path d="M41.4781 19.568C46.5388 18.4298 47.7698 25.7596 43.3018 26.6247C38.469 27.5807 37.1469 20.524 41.4781 19.568Z" fill="#5C4998"/>
<path d="M44.1036 43.6582L27.9193 45.3853C17.2785 46.5209 9.57421 56.0552 10.7114 66.6808L11.2831 72.0226C12.4203 82.6482 21.9682 90.3414 32.6091 89.2059L48.7933 87.4788C59.4342 86.3432 67.1384 76.8089 66.0013 66.1833L65.4296 60.8415C64.2924 50.2159 54.7444 42.5226 44.1036 43.6582Z" fill="#241B2E"/>
<path d="M22.0553 94.5049H22.0097C19.9198 94.5049 18.2256 96.1967 18.2256 98.2836V103.974C18.2256 106.061 19.9198 107.753 22.0097 107.753H22.0553C24.1453 107.753 25.8395 106.061 25.8395 103.974V98.2836C25.8395 96.1967 24.1453 94.5049 22.0553 94.5049Z" fill="#5C4998"/>
<path d="M54.3528 93.5718L59.7738 91.8236C61.7616 91.1816 63.8953 92.2743 64.5381 94.2592C65.181 96.2442 64.0868 98.3749 62.099 99.0168L56.678 100.765C54.6902 101.407 52.5565 100.314 51.9137 98.3294C51.2708 96.3444 52.365 94.2137 54.3528 93.5718Z" fill="#5C4998"/>
<path d="M46.9023 89.861H32.404C30.3067 89.861 28.5742 91.7731 28.5742 94.095V107.252C28.5742 109.574 30.3067 111.486 32.404 111.486C34.3188 111.486 35.8234 109.756 35.8234 107.662V107.48C35.8234 105.386 37.1455 103.474 39.0604 103.155C41.3856 102.791 43.4373 104.794 43.4373 107.298V107.571C43.4373 109.711 44.9874 111.441 46.9023 111.441C48.9995 111.441 50.732 109.529 50.732 107.207V94.0494C50.732 91.7276 48.9995 89.8154 46.9023 89.8154V89.861Z" fill="#5C4998"/>
<path d="M39.1973 69.2828C39.562 70.512 41.9784 71.5136 43.3462 71.377C44.7139 71.2404 45.7169 70.1478 45.8081 68.873L39.1973 69.3283V69.2828Z" fill="#D9BDDC"/>
<path d="M50.3818 63.041L50.7283 66.706L60.403 69.9247L61.4106 66.9108L54.2481 64.5252L61.1461 60.6873L59.596 57.9102L50.3818 63.041Z" fill="#D9BDDC"/>
<path d="M33.6495 64.7984V68.477L24.3122 72.5881L23.0311 69.6789L29.9428 66.6377L22.7119 63.46L23.9976 60.5508L33.6495 64.7984Z" fill="#D9BDDC"/>
</svg>
