<svg width="120" height="80" viewBox="0 0 120 80" fill="none" xmlns="http://www.w3.org/2000/svg">
<g clip-path="url(#clip0_13358_54544)">
<path d="M41.5965 75.5093H78.2108C79.5843 75.5093 80.7048 76.5329 80.7048 77.7547C80.7048 79.0094 79.5843 80 78.2108 80H41.5965C40.223 80 39.1387 78.9764 39.1387 77.7547C39.1387 76.4999 40.2592 75.5093 41.5965 75.5093Z" fill="#241B2E"/>
<path d="M87.8254 38.8906H32.0545C30.6771 38.8906 29.5605 39.9106 29.5605 41.1689V43.4473C29.5605 44.7056 30.6771 45.7256 32.0545 45.7256H87.8254C89.2027 45.7256 90.3193 44.7056 90.3193 43.4473V41.1689C90.3193 39.9106 89.2027 38.8906 87.8254 38.8906Z" fill="#241B2E"/>
<path d="M23.3276 0H5.58793C2.5018 0 0 2.28551 0 5.10484V21.3109C0 24.1302 2.5018 26.4157 5.58793 26.4157H23.3276C26.4137 26.4157 28.9155 24.1302 28.9155 21.3109V5.10484C28.9155 2.28551 26.4137 0 23.3276 0Z" fill="#252527"/>
<path d="M68.8696 0H51.1299C48.0438 0 45.542 2.28551 45.542 5.10484V21.3109C45.542 24.1302 48.0438 26.4157 51.1299 26.4157H68.8696C71.9557 26.4157 74.4575 24.1302 74.4575 21.3109V5.10484C74.4575 2.28551 71.9557 0 68.8696 0Z" fill="#252527"/>
<path d="M114.412 0H96.6719C93.5858 0 91.084 2.28551 91.084 5.10484V21.3109C91.084 24.1302 93.5858 26.4157 96.6719 26.4157H114.412C117.498 26.4157 120 24.1302 120 21.3109V5.10484C120 2.28551 117.498 0 114.412 0Z" fill="#252527"/>
<path d="M23.3276 36.982H5.58793C2.5018 36.982 0 39.2675 0 42.0869V58.2929C0 61.1122 2.5018 63.3977 5.58793 63.3977H23.3276C26.4137 63.3977 28.9155 61.1122 28.9155 58.2929V42.0869C28.9155 39.2675 26.4137 36.982 23.3276 36.982Z" fill="#252527"/>
<path d="M68.8696 36.982H51.1299C48.0438 36.982 45.542 39.2675 45.542 42.0869V58.2929C45.542 61.1122 48.0438 63.3977 51.1299 63.3977H68.8696C71.9557 63.3977 74.4575 61.1122 74.4575 58.2929V42.0869C74.4575 39.2675 71.9557 36.982 68.8696 36.982Z" fill="#B2B2B2"/>
<path d="M114.412 36.982H96.6719C93.5858 36.982 91.084 39.2675 91.084 42.0869V58.2929C91.084 61.1122 93.5858 63.3977 96.6719 63.3977H114.412C117.498 63.3977 120 61.1122 120 58.2929V42.0869C120 39.2675 117.498 36.982 114.412 36.982Z" fill="#252527"/>
<path d="M71.2699 20.7958H48.8965C40.4127 20.7958 33.5352 27.0788 33.5352 34.8292V45.6596C33.5352 53.41 40.4127 59.693 48.8965 59.693H71.2699C79.7538 59.693 86.6313 53.41 86.6313 45.6596V34.8292C86.6313 27.0788 79.7538 20.7958 71.2699 20.7958Z" fill="#5C4998"/>
<path d="M55.5441 7.1587C57.8934 6.96058 61.5079 7.12568 60.9657 10.1635C60.3513 13.5645 54.279 10.4937 53.267 14.0598C51.6043 19.9703 63.8934 17.2957 67.5802 18.1542C76.544 20.3005 75.6042 32.5508 66.7488 33.4754C64.6163 33.7065 56.1585 33.7725 54.1706 33.4754C51.3875 33.0791 51.3513 29.0507 54.279 28.6545C57.6766 28.1922 63.2428 29.2819 66.4235 28.5554C68.7368 28.0271 69.4235 24.9893 67.6163 23.5695C64.4356 21.0269 55.038 25.3525 49.9778 20.0694C45.3875 15.2815 48.7128 7.78607 55.5802 7.1587H55.5441Z" fill="#5C4998"/>
<path d="M66.3523 6.96058C70.4366 6.53132 70.7981 11.9135 67.1836 12.2107C63.3162 12.5409 62.8463 7.32379 66.3523 6.96058Z" fill="#5C4998"/>
<path d="M66.3528 24.56H53.4493C44.9654 24.56 38.0879 30.8429 38.0879 38.5933V42.4896C38.0879 50.24 44.9654 56.523 53.4493 56.523H66.3528C74.8367 56.523 81.7142 50.24 81.7142 42.4896V38.5933C81.7142 30.8429 74.8367 24.56 66.3528 24.56Z" fill="#241B2E"/>
<path d="M48.8824 66.7757C48.1776 68.146 46.3885 68.7304 44.8885 68.0865L40.8005 66.3266C39.3005 65.6827 38.6608 64.0482 39.3656 62.6779C40.0704 61.3076 41.8596 60.7232 43.3596 61.367L47.4475 63.127C48.9475 63.7709 49.5872 65.4053 48.8824 66.7757Z" fill="#5C4998"/>
<path d="M70.1083 66.594C69.4649 65.2005 70.1806 63.5925 71.7095 63.0047L75.8733 61.4033C77.3986 60.8155 79.1589 61.4693 79.8022 62.8661C80.4456 64.2595 79.73 65.8675 78.201 66.4553L74.0372 68.0567C72.5119 68.6445 70.7517 67.9907 70.1083 66.594Z" fill="#5C4998"/>
<path d="M65.6678 59.759H54.1738C52.5112 59.759 51.1377 61.0138 51.1377 62.5327V71.1178C51.1377 72.6367 52.5112 73.8914 54.1738 73.8914C55.6919 73.8914 56.8847 72.7687 56.8847 71.4149V71.3159C56.8847 69.9291 57.9328 68.7073 59.4509 68.5092C61.2943 68.2451 62.9208 69.5658 62.9208 71.2168V71.3819C62.9208 72.7687 64.1497 73.8914 65.6678 73.8914C67.3304 73.8914 68.7039 72.6367 68.7039 71.1178V62.5327C68.7039 61.0138 67.3304 59.759 65.6678 59.759Z" fill="#5C4998"/>
<path d="M53.6679 40.6076C53.6679 41.5354 53.3282 42.394 52.7571 43.0808L44.7547 41.2218C44.7222 41.0203 44.7041 40.8156 44.7041 40.6076C44.7041 38.3457 46.7101 36.5132 49.186 36.5132C51.6619 36.5132 53.6679 38.3457 53.6679 40.6076Z" fill="#D9BDDC"/>
<path d="M66.0303 40.6076C66.0303 41.5354 66.37 42.394 66.9411 43.0808L74.9435 41.2218C74.976 41.0203 74.9941 40.8156 74.9941 40.6076C74.9941 38.3457 72.9881 36.5132 70.5122 36.5132C68.0363 36.5132 66.0303 38.3457 66.0303 40.6076Z" fill="#D9BDDC"/>
<path d="M57.752 43.018C57.9688 43.9426 58.8363 44.636 59.9206 44.636C61.005 44.636 61.8724 43.9426 62.0893 43.018H57.752Z" fill="#D9BDDC"/>
</g>
<defs>
<clipPath id="clip0_13358_54544">
<rect width="120" height="80" fill="white"/>
</clipPath>
</defs>
</svg>
