<svg width="120" height="80" viewBox="0 0 120 80" fill="none" xmlns="http://www.w3.org/2000/svg">
<g clip-path="url(#clip0_13679_38296)">
<path d="M41.5965 75.5098H78.2108C79.5843 75.5098 80.7048 76.5334 80.7048 77.7551C80.7048 79.0098 79.5843 80.0004 78.2108 80.0004H41.5965C40.223 80.0004 39.1387 78.9768 39.1387 77.7551C39.1387 76.5004 40.2592 75.5098 41.5965 75.5098Z" fill="#241B2E"/>
<path d="M87.8254 38.8906H32.0545C30.6771 38.8906 29.5605 39.9107 29.5605 41.169V43.4473C29.5605 44.7056 30.6771 45.7257 32.0545 45.7257H87.8254C89.2027 45.7257 90.3193 44.7056 90.3193 43.4473V41.169C90.3193 39.9107 89.2027 38.8906 87.8254 38.8906Z" fill="#241B2E"/>
<path d="M5.58793 0.5H23.3276C26.1811 0.5 28.4155 2.60325 28.4155 5.10484V21.3109C28.4155 23.8125 26.1811 25.9157 23.3276 25.9157H5.58793C2.73443 25.9157 0.5 23.8125 0.5 21.3109V5.10484C0.5 2.60325 2.73443 0.5 5.58793 0.5Z" fill="#EFE6FD" stroke="#CEB0FA"/>
<path d="M51.1299 0.5H68.8696C71.7231 0.5 73.9575 2.60325 73.9575 5.10484V21.3109C73.9575 23.8125 71.7231 25.9157 68.8696 25.9157H51.1299C48.2764 25.9157 46.042 23.8125 46.042 21.3109V5.10484C46.042 2.60325 48.2764 0.5 51.1299 0.5Z" fill="#EFE6FD" stroke="#CEB0FA"/>
<path d="M96.6719 0.5H114.412C117.265 0.5 119.5 2.60325 119.5 5.10484V21.3109C119.5 23.8125 117.265 25.9157 114.412 25.9157H96.6719C93.8184 25.9157 91.584 23.8125 91.584 21.3109V5.10484C91.584 2.60325 93.8184 0.5 96.6719 0.5Z" fill="#EFE6FD" stroke="#CEB0FA"/>
<path d="M5.58793 37.4824H23.3276C26.1811 37.4824 28.4155 39.5857 28.4155 42.0873V58.2933C28.4155 60.7949 26.1811 62.8981 23.3276 62.8981H5.58793C2.73443 62.8981 0.5 60.7949 0.5 58.2933V42.0873C0.5 39.5857 2.73443 37.4824 5.58793 37.4824Z" fill="#EFE6FD" stroke="#CEB0FA"/>
<path d="M51.1299 37.4824H68.8696C71.7231 37.4824 73.9575 39.5857 73.9575 42.0873V58.2933C73.9575 60.7949 71.7231 62.8981 68.8696 62.8981H51.1299C48.2764 62.8981 46.042 60.7949 46.042 58.2933V42.0873C46.042 39.5857 48.2764 37.4824 51.1299 37.4824Z" fill="#EFE6FD" stroke="#CEB0FA"/>
<path d="M96.6719 37.4824H114.412C117.265 37.4824 119.5 39.5857 119.5 42.0873V58.2933C119.5 60.7949 117.265 62.8981 114.412 62.8981H96.6719C93.8184 62.8981 91.584 60.7949 91.584 58.2933V42.0873C91.584 39.5857 93.8184 37.4824 96.6719 37.4824Z" fill="#EFE6FD" stroke="#CEB0FA"/>
<path d="M71.2699 20.7959H48.8965C40.4127 20.7959 33.5352 27.0788 33.5352 34.8292V45.6597C33.5352 53.4101 40.4127 59.693 48.8965 59.693H71.2699C79.7538 59.693 86.6313 53.4101 86.6313 45.6597V34.8292C86.6313 27.0788 79.7538 20.7959 71.2699 20.7959Z" fill="#5C4998"/>
<path d="M55.5441 7.15879C57.8934 6.96067 61.5079 7.12577 60.9657 10.1636C60.3513 13.5646 54.279 10.4938 53.267 14.0599C51.6043 19.9704 63.8934 17.2958 67.5802 18.1543C76.544 20.3006 75.6042 32.5509 66.7488 33.4754C64.6163 33.7066 56.1585 33.7726 54.1706 33.4754C51.3875 33.0792 51.3513 29.0508 54.279 28.6546C57.6766 28.1923 63.2428 29.2819 66.4235 28.5555C68.7368 28.0272 69.4235 24.9894 67.6163 23.5696C64.4356 21.027 55.038 25.3526 49.9778 20.0695C45.3875 15.2816 48.7128 7.78616 55.5802 7.15879H55.5441Z" fill="#5C4998"/>
<path d="M66.3523 6.96088C70.4366 6.53163 70.7981 11.9138 67.1836 12.211C63.3162 12.5412 62.8463 7.3241 66.3523 6.96088Z" fill="#5C4998"/>
<path d="M66.3528 24.5596H53.4493C44.9654 24.5596 38.0879 30.8425 38.0879 38.5929V42.4892C38.0879 50.2396 44.9654 56.5226 53.4493 56.5226H66.3528C74.8367 56.5226 81.7142 50.2396 81.7142 42.4892V38.5929C81.7142 30.8425 74.8367 24.5596 66.3528 24.5596Z" fill="#241B2E"/>
<path d="M48.8824 66.7758C48.1776 68.1461 46.3885 68.7306 44.8885 68.0867L40.8005 66.3267C39.3005 65.6829 38.6608 64.0484 39.3656 62.6781C40.0704 61.3078 41.8596 60.7233 43.3596 61.3672L47.4475 63.1271C48.9475 63.771 49.5872 65.4055 48.8824 66.7758Z" fill="#5C4998"/>
<path d="M70.1083 66.594C69.4649 65.2006 70.1806 63.5925 71.7095 63.0048L75.8733 61.4033C77.3986 60.8156 79.1589 61.4694 79.8022 62.8661C80.4456 64.2595 79.73 65.8676 78.201 66.4553L74.0372 68.0568C72.5119 68.6445 70.7517 67.9907 70.1083 66.594Z" fill="#5C4998"/>
<path d="M65.6678 59.7588H54.1738C52.5112 59.7588 51.1377 61.0135 51.1377 62.5324V71.1176C51.1377 72.6365 52.5112 73.8912 54.1738 73.8912C55.6919 73.8912 56.8847 72.7685 56.8847 71.4147V71.3157C56.8847 69.9288 57.9328 68.7071 59.4509 68.509C61.2943 68.2448 62.9208 69.5656 62.9208 71.2166V71.3817C62.9208 72.7685 64.1497 73.8912 65.6678 73.8912C67.3304 73.8912 68.7039 72.6365 68.7039 71.1176V62.5324C68.7039 61.0135 67.3304 59.7588 65.6678 59.7588Z" fill="#5C4998"/>
<path d="M53.6679 40.6071C53.6679 41.535 53.3282 42.3935 52.7571 43.0803L44.7547 41.2213C44.7222 41.0199 44.7041 40.8152 44.7041 40.6071C44.7041 38.3453 46.7101 36.5127 49.186 36.5127C51.6619 36.5127 53.6679 38.3453 53.6679 40.6071Z" fill="#D9BDDC"/>
<path d="M66.0303 40.6071C66.0303 41.535 66.37 42.3935 66.9411 43.0803L74.9435 41.2213C74.976 41.0199 74.9941 40.8152 74.9941 40.6071C74.9941 38.3453 72.9881 36.5127 70.5122 36.5127C68.0363 36.5127 66.0303 38.3453 66.0303 40.6071Z" fill="#D9BDDC"/>
<path d="M57.752 43.0176C57.9688 43.9421 58.8363 44.6355 59.9206 44.6355C61.005 44.6355 61.8724 43.9421 62.0893 43.0176H57.752Z" fill="#D9BDDC"/>
</g>
<defs>
<clipPath id="clip0_13679_38296">
<rect width="120" height="80" fill="white"/>
</clipPath>
</defs>
</svg>
