<svg width="178.000000" height="4.000000" viewBox="0 0 178 4" fill="none" xmlns="http://www.w3.org/2000/svg" xmlns:xlink="http://www.w3.org/1999/xlink">
	<defs/>
	<path id="Underline 5" d="M177.91 1.45C177.86 1.37 177.79 1.31 177.71 1.27C177.69 1.25 177.66 1.24 177.64 1.23C177.6 1.21 177.57 1.2 177.53 1.19C177.44 1.17 177.38 1.15 177.31 1.14C176.84 1.08 176.42 1.06 175.99 1.03L174.72 0.98L172.18 0.91L167.1 0.84L156.96 0.77L136.66 0.73L116.38 0.73L83.31 0.73C72.29 0.73 61.27 0.73 50.25 0.77L46.28 0.77C46.46 0.68 46.65 0.62 46.84 0.6C50.81 0.08 47.68 -0.08 35.83 0.03C33.25 0.05 30.51 0.03 27.88 0.03C21.77 0.01 11.5 0.03 5.34 0.03C4.41 0.03 3.46 0.05 2.51 0.08C2.03 0.08 1.55 0.11 1.03 0.15L0.84 0.15L0.62 0.18C0.57 0.19 0.52 0.2 0.47 0.21L0.43 0.21L0.37 0.24C0.33 0.26 0.29 0.29 0.25 0.31C0.2 0.35 0.15 0.4 0.12 0.45C0.04 0.56 0 0.7 0 0.83C-0.01 1 0.04 1.15 0.14 1.28C0.17 1.32 0.21 1.36 0.26 1.4L0.33 1.45L0.37 1.47L0.47 1.51C0.56 1.53 0.65 1.55 0.74 1.56C1.01 1.59 1.25 1.6 1.48 1.61C3.42 1.7 5.35 1.72 7.27 1.74L11.78 1.79L10.58 1.82L9.62 1.86L8.47 1.86L8.47 2L8.37 2L8.26 2.04C8.21 2.06 8.17 2.09 8.12 2.13C8.04 2.2 7.97 2.3 7.94 2.4C7.91 2.5 7.9 2.6 7.91 2.69C7.92 2.79 7.95 2.88 8 2.97L8.21 3.22L8.65 3.22L8.65 3.29C8.65 3.33 8.65 3.29 8.65 3.31L8.67 3.31L8.79 3.31L9.06 3.29L9.61 3.26L9.72 3.26C37.42 3.54 65.1 3.34 92.82 3.21L99.24 3.21C98.6 3.29 98.24 3.38 98.19 3.48C97.97 3.93 108.96 3.93 115.42 3.95L130.92 4L138.66 4C139.95 4 141.25 4 142.55 4C143.19 4 143.84 4 144.5 3.96C144.83 3.96 145.15 3.93 145.5 3.91L145.78 3.88L145.88 3.86L145.96 3.86C146.02 3.76 145.99 4.03 146.39 3.44C146.39 3.24 146.36 3.04 146.32 2.84L157.39 2.82L167.53 2.78L172.6 2.73L175.14 2.67L176.42 2.62C176.63 2.62 176.84 2.59 177.07 2.57C177.2 2.56 177.34 2.54 177.47 2.51L177.53 2.51L177.61 2.47C177.7 2.43 177.77 2.37 177.83 2.29C178.09 2.28 177.98 1.25 177.91 1.45Z" fill="#EE7538" fill-opacity="1.000000" fill-rule="evenodd"/>
</svg>
