<svg width="339" height="9" viewBox="0 0 339 9" fill="none" xmlns="http://www.w3.org/2000/svg">
    <path d="M338.836 3.26794C338.734 3.1025 338.608 2.96467 338.464 2.86239C338.417 2.82711 338.368 2.79696 338.317 2.77226C338.25 2.74083 338.182 2.71376 338.113 2.69115C337.945 2.63707 337.819 2.61001 337.699 2.58297C336.794 2.43877 336.008 2.40273 335.187 2.33964L332.759 2.22247L327.917 2.06927L318.253 1.90702L298.933 1.75382L260.285 1.66369H221.645H158.674C137.684 1.66369 116.693 1.66369 95.7097 1.7448H88.1515C88.4894 1.53919 88.8528 1.4111 89.2252 1.36629C96.7834 0.18563 90.8183 -0.165865 68.2418 0.0684638C63.3293 0.12254 58.122 0.0684638 53.1043 0.0684638C41.4757 0.0234006 21.9169 0.0684638 10.1761 0.0684638C8.40053 0.0684638 6.60396 0.122525 4.78633 0.194627C3.87401 0.194627 2.96169 0.26674 1.97919 0.347854H1.61427L1.19319 0.419943C1.09388 0.436127 0.995437 0.460223 0.898443 0.492059H0.835284L0.715982 0.546133C0.636306 0.597493 0.558981 0.654669 0.484392 0.717375C0.38814 0.805356 0.302939 0.91174 0.231748 1.03282C0.0844524 1.27853 0.00318822 1.57895 0.000157665 1.88901C-0.00439867 2.25219 0.0899249 2.60603 0.26684 2.88943C0.337187 2.98878 0.414723 3.0793 0.49842 3.1598L0.631761 3.26794L0.722996 3.32202L0.912481 3.40313C1.08141 3.45228 1.25249 3.48842 1.42478 3.5113C1.93709 3.5834 2.39325 3.61043 2.82835 3.63746C6.52676 3.84475 10.2041 3.88981 13.8534 3.93487L22.4362 4.03402L20.1625 4.09712L18.3308 4.18725H16.1342V4.51169H15.9588L15.7482 4.60182C15.6522 4.65052 15.5623 4.71735 15.4815 4.8001C15.3188 4.95966 15.1947 5.17533 15.1236 5.42198C15.0671 5.63002 15.0485 5.85191 15.0692 6.07064C15.0899 6.28937 15.1493 6.49911 15.2429 6.68374L15.643 7.26054H16.4921V7.41376C16.4921 7.5129 16.4921 7.41376 16.4921 7.46784H16.5272H16.7448L17.2571 7.41376L18.3027 7.34168H18.5273C71.2665 7.98157 123.999 7.52191 176.787 7.2335H189.005C187.798 7.41375 187.11 7.61204 187.019 7.83736C186.598 8.85579 207.518 8.85578 219.821 8.90085L249.352 9H264.089C266.55 9 269.016 9 271.486 9C272.721 9 273.956 9 275.205 8.91889C275.83 8.91889 276.448 8.86481 277.107 8.80172L277.641 8.73863L277.83 8.69357H277.984C278.111 8.46826 278.055 9.07209 278.813 7.74723C278.806 7.29354 278.757 6.84255 278.665 6.40435L299.768 6.35927L319.06 6.26015L328.717 6.14298L333.559 6.01682L335.994 5.89965C336.401 5.89965 336.808 5.84558 337.236 5.7915C337.494 5.77135 337.749 5.72614 338.001 5.65629H338.106L338.261 5.57518C338.429 5.4857 338.576 5.34306 338.689 5.1606C339.18 5.15159 338.977 2.82632 338.836 3.26794Z" fill="#8133F1"/>
</svg>
