<svg width="348" height="9" viewBox="0 0 348 9" fill="none" xmlns="http://www.w3.org/2000/svg">
    <path d="M230.678 0C235.419 0.0120931 252.21 0.169316 262.976 0.145129C287.885 0.0846641 312.801 0.120926 337.647 1.01581C341.534 1.16093 348.131 1.17304 347.998 3.91816C347.857 6.76004 343.438 8.41679 336.668 8.30796C320.276 8.02982 303.798 7.3526 287.485 7.83633C263.626 8.53773 239.799 8.11446 215.963 8.24749C194.557 8.35633 173.15 8.18702 151.744 8.32004C131.638 8.44097 111.54 9.04562 91.4426 8.99725C74.0949 8.96097 56.7551 8.23539 39.4075 7.95725C35.3253 7.89678 30.4046 8.39261 25.9306 8.34423C22.2244 8.30795 16.0501 8.27166 12.3831 8.0298C10.8004 7.92096 9.15492 7.78794 7.60351 7.89678C0.473271 8.35631 -1.40723 7.3647 0.982573 4.24468C1.50755 3.55538 0.904218 2.66047 2.62801 2.18884C2.69853 2.16466 2.83957 2.12839 2.91009 2.1042C8.13632 0.217682 13.4958 1.10048 18.8944 1.0642C45.3938 0.8828 71.901 0.882792 98.4004 0.810234C114.659 0.773955 130.941 0.906989 147.176 0.55629C151.619 0.459545 156.069 0.0604654 160.575 0.302327H160.496C165.205 0.205582 169.914 0.0362896 174.616 0.0483826C192.426 0.0967549 211.019 -0.133023 228.1 0.133025C228.782 0.120931 229.691 0 230.678 0Z" fill="#EE7538"/>
</svg>
