<svg width="306" height="9" viewBox="0 0 306 9" fill="none" xmlns="http://www.w3.org/2000/svg">
    <path d="M305.982 5.38557C305.903 4.8817 305.72 4.45576 305.473 4.19927C305.412 4.13582 305.347 4.08311 305.281 4.04181C305.227 4.0013 305.173 3.96966 305.116 3.94731L304.913 3.87383L304.613 3.78985C303.204 3.54839 301.919 3.4959 300.578 3.40142L296.616 3.21244L288.614 2.99199L268.513 2.71903L272.192 2.51956H272.865C277.03 2.30959 275.564 1.92117 276.826 1.61672C282.587 0.251957 278.038 -0.167974 260.811 0.0629865C257.059 0.0629865 253.086 0.0629865 249.261 0.0629865L216.511 0L183.926 0.230961L121.031 0.10498L89.5885 0.0419937H73.8335C68.5988 0.0419937 63.3528 0.0419921 58.1068 0.146974C52.0326 0.251956 45.9585 0.40243 39.8844 0.598396L30.7675 0.955339L26.2006 1.22829L25.0688 1.32277L24.5029 1.38576L24.1859 1.43825H24.0049H23.869L23.7219 1.51174C23.9822 2.12064 22.873 0.062982 23.2692 4.76617C23.6766 5.38556 23.7615 5.25959 23.7955 5.31208H23.9086H24.0388H24.2199H24.5312H25.0971H26.2289C32.3521 5.49055 38.396 5.46956 44.4796 5.50105H51.1517C43.2289 5.54305 35.3061 5.60603 27.3834 5.69001C19.1946 5.7845 12.4319 6.08895 7.67261 6.52987C2.91328 6.9708 0.168601 7.5167 0.00448599 8.13609C-0.306766 9.35388 15.652 8.94446 25.0348 8.89196C55.0659 8.59801 85.1291 8.52803 115.224 8.682L205.533 8.91296C231.565 8.98645 272.146 8.91297 283.629 8.7345L289.854 8.61902C292.434 8.61902 295.038 8.61901 297.658 8.48254C298.967 8.43354 300.287 8.35656 301.619 8.25157C302.281 8.25157 302.943 8.14659 303.617 8.05211C303.956 8.05211 304.285 7.96812 304.658 7.88413C304.737 7.88413 304.856 7.83164 304.969 7.80014H305.048H305.094L305.224 7.73716C305.306 7.68503 305.385 7.62188 305.462 7.5482L305.575 7.43272C305.677 7.25425 306.09 7.19126 305.982 5.38557ZM146.31 5.64803C133.158 5.69002 119.967 5.69002 106.736 5.64803H135.597H153.344H146.31Z" fill="#8133F1"/>
</svg>
