<svg width="389" height="9" viewBox="0 0 389 9" fill="none" xmlns="http://www.w3.org/2000/svg">
    <path fill-rule="evenodd" clip-rule="evenodd" d="M265.214 0.0405572C261.977 0.0292201 259.368 0.0200806 257.855 0.0175194C257.245 0.0175194 256.664 0.0364271 256.139 0.0534977C255.707 0.067545 255.314 0.0803483 254.974 0.0803483C242.522 -0.0191466 229.352 -0.0041434 216.174 0.010868C209.144 0.0188755 202.113 0.0268853 195.188 0.0175194C191.479 0.0111864 187.766 0.0584822 184.052 0.105794C182.524 0.125261 180.996 0.14473 179.468 0.160468C176.056 0.0700594 172.673 0.143992 169.301 0.217667C167.704 0.252578 166.109 0.28743 164.515 0.304714C151.12 0.450444 137.697 0.444606 124.276 0.438769C119.514 0.436698 114.753 0.434627 109.993 0.439328C101.281 0.449885 92.5684 0.456563 83.8556 0.463241C62.9432 0.479269 42.0289 0.495299 21.1191 0.564986C19.6132 0.569464 18.1101 0.54209 16.6114 0.514795C12.1038 0.432705 7.63579 0.351333 3.25156 1.13935C3.21215 1.14383 3.15302 1.15281 3.09389 1.16179C3.03476 1.17077 2.97563 1.17975 2.93621 1.18424C1.63837 1.36558 1.52064 1.64871 1.40278 1.93216C1.34566 2.06955 1.2885 2.207 1.09693 2.33299C-1.57444 4.07406 0.53639 4.62151 8.49796 4.37022C9.95799 4.32488 11.4925 4.37496 12.997 4.42406C13.2795 4.43329 13.561 4.44247 13.8407 4.45098C17.1778 4.56058 22.3727 4.5869 26.4241 4.60743C27.349 4.61212 28.2143 4.6165 28.9843 4.6215C31.4915 4.635 34.1241 4.57182 36.7012 4.50996C39.2648 4.44843 41.7735 4.38822 44.0491 4.40612C51.6379 4.46934 59.2254 4.56967 66.8125 4.67C78.6127 4.82604 90.4122 4.98206 102.215 4.99845C115.051 5.01383 127.887 4.91202 140.725 4.8102C150.356 4.73381 159.988 4.65742 169.621 4.63049C182.25 4.5926 194.879 4.6022 207.508 4.61181C218.808 4.6204 230.107 4.62899 241.407 4.60357C250.026 4.58324 258.645 4.59391 267.264 4.60458C285.288 4.6269 303.313 4.64922 321.355 4.38816C334.807 4.18955 348.358 4.34745 361.898 4.5052C366.713 4.5613 371.526 4.61739 376.333 4.65741C383.9 4.72023 388.84 3.80482 388.998 2.21631C389.136 0.796325 382.758 0.690161 378.371 0.617146C378.044 0.611711 377.729 0.60646 377.428 0.600864C349.654 0.0893109 321.802 0.0713638 293.958 0.0982877C285.358 0.111114 273.319 0.0689458 265.214 0.0405572ZM193.295 6.46414C185.675 6.49463 173.781 6.48592 170.427 6.48157C170.042 6.48157 169.676 6.49207 169.345 6.50154C169.074 6.50932 168.827 6.51641 168.614 6.51641C161.239 6.48456 153.467 6.49314 145.667 6.50175C140.665 6.50727 135.652 6.5128 130.724 6.5077C128.506 6.5048 126.284 6.5251 124.062 6.54541C122.962 6.55546 121.862 6.56552 120.762 6.57276C118.577 6.52545 116.413 6.56137 114.259 6.59713C113.264 6.61364 112.271 6.63012 111.28 6.63836C103.78 6.69801 96.2644 6.70209 88.7465 6.70616C84.7373 6.70834 80.7273 6.71051 76.7183 6.72112C57.9311 6.76467 39.1439 6.83 20.3655 7.03036C19.4119 7.04121 18.4595 7.03665 17.5099 7.03211C14.6478 7.01841 11.8116 7.00484 9.04939 7.41365C9.00559 7.42236 8.90922 7.43542 8.85667 7.43978C8.04565 7.5333 7.97599 7.67193 7.90681 7.8096C7.87289 7.87711 7.83909 7.94439 7.71806 8.00601C6.06269 8.86405 7.41153 9.12102 12.4477 8.95115C13.4212 8.9163 14.4501 8.9331 15.4544 8.9495C15.5795 8.95154 15.7043 8.95358 15.8285 8.95551C17.7833 8.98824 20.7372 8.9767 23.1961 8.9671C24.0093 8.96392 24.7684 8.96095 25.4192 8.95987C27.0189 8.95767 28.6966 8.91556 30.3376 8.87437C31.9491 8.83392 33.5252 8.79436 34.9573 8.79436C40.8429 8.79644 46.7266 8.8325 52.6092 8.86856C59.0085 8.90777 65.4066 8.94698 71.8047 8.94245C79.3643 8.93551 86.924 8.88679 94.4849 8.83806C101.159 8.79505 107.834 8.75203 114.512 8.73773C122.092 8.73556 129.677 8.73229 137.262 8.72902C144.847 8.72575 152.432 8.72249 160.013 8.72031C164.234 8.70833 168.456 8.7037 172.679 8.69907C185.345 8.68519 198.014 8.6713 210.699 8.45897C218.18 8.32922 225.717 8.32369 233.257 8.31816C237.359 8.31515 241.462 8.31214 245.558 8.28911C250.358 8.26734 253.467 7.78387 253.528 7.01294C253.585 6.32853 249.546 6.3219 246.768 6.31734C246.558 6.317 246.355 6.31667 246.162 6.31605C232.316 6.28178 218.448 6.3473 204.571 6.41285C200.813 6.43061 197.054 6.44836 193.295 6.46414Z" fill="#EE7538"/>
</svg>
