<svg width="538" height="360" viewBox="0 0 538 360" fill="none" xmlns="http://www.w3.org/2000/svg">
<path d="M63.1039 0.5H130.101C141.48 0.5 150.705 9.72958 150.705 21.1154V88.1493C150.705 99.5352 141.48 108.765 130.101 108.765H63.1039C51.725 108.765 42.5 99.5352 42.5 88.1493V21.1154C42.5 9.72958 51.725 0.5 63.1039 0.5Z" fill="#ECECED" stroke="#C5C5C6"/>
<path d="M235.104 0.5H302.101C313.48 0.5 322.705 9.72958 322.705 21.1154V88.1493C322.705 99.5352 313.48 108.765 302.101 108.765H235.104C223.725 108.765 214.5 99.5352 214.5 88.1493V21.1154C214.5 9.72958 223.725 0.5 235.104 0.5Z" fill="#ECECED" stroke="#C5C5C6"/>
<path d="M407.1 0.5H474.097C485.476 0.5 494.701 9.72958 494.701 21.1154V88.1493C494.701 99.5352 485.476 108.765 474.097 108.765H407.1C395.721 108.765 386.496 99.5352 386.496 88.1493V21.1154C386.496 9.72958 395.721 0.5 407.1 0.5Z" fill="#ECECED" stroke="#C5C5C6"/>
<path d="M63.1039 153.471H130.101C141.48 153.471 150.705 162.7 150.705 174.086V241.12C150.705 252.506 141.48 261.735 130.101 261.735H63.1039C51.725 261.735 42.5 252.506 42.5 241.12V174.086C42.5 162.7 51.725 153.471 63.1039 153.471Z" fill="#ECECED" stroke="#C5C5C6"/>
<path d="M235.104 153.471H302.101C313.48 153.471 322.705 162.7 322.705 174.086V241.12C322.705 252.506 313.48 261.735 302.101 261.735H235.104C223.725 261.735 214.5 252.506 214.5 241.12V174.086C214.5 162.7 223.725 153.471 235.104 153.471Z" fill="#ECECED" stroke="#C5C5C6"/>
<path d="M407.1 153.471H474.097C485.476 153.471 494.701 162.7 494.701 174.086V241.12C494.701 252.506 485.476 261.735 474.097 261.735H407.1C395.721 261.735 386.496 252.506 386.496 241.12V174.086C386.496 162.7 395.721 153.471 407.1 153.471Z" fill="#ECECED" stroke="#C5C5C6"/>
<path d="M200.585 341.061H336.219C341.307 341.061 345.457 345.211 345.457 350.165C345.457 355.253 341.307 359.27 336.219 359.27H200.585C195.497 359.27 191.48 355.119 191.48 350.165C191.48 345.077 195.631 341.061 200.585 341.061Z" fill="#241B2E"/>
<path d="M371.835 192.572H165.239C160.136 192.572 156 196.709 156 201.811V211.049C156 216.152 160.136 220.288 165.239 220.288H371.835C376.938 220.288 381.074 216.152 381.074 211.049V201.811C381.074 196.709 376.938 192.572 371.835 192.572Z" fill="#241B2E"/>
<path d="M310.511 119.201H227.631C196.204 119.201 170.727 144.678 170.727 176.106V220.023C170.727 251.45 196.204 276.927 227.631 276.927H310.511C341.938 276.927 367.415 251.45 367.415 220.023V176.106C367.415 144.678 341.938 119.201 310.511 119.201Z" fill="#5C4998"/>
<path d="M252.268 63.902C260.971 63.0986 274.36 63.7681 272.352 76.0862C270.076 89.8772 247.582 77.4251 243.833 91.8856C237.674 115.852 283.197 105.007 296.854 108.488C330.06 117.191 326.578 166.866 293.775 170.615C285.875 171.552 254.544 171.82 247.18 170.615C236.87 169.008 236.736 152.673 247.582 151.066C260.168 149.192 280.787 153.61 292.57 150.665C301.139 148.522 303.683 136.204 296.988 130.447C285.205 120.137 250.393 137.677 231.648 116.254C214.644 96.8396 226.962 66.4459 252.402 63.902H252.268Z" fill="#5C4998"/>
<path d="M292.302 63.0988C307.432 61.3582 308.771 83.1827 295.382 84.3877C281.055 85.7267 279.315 64.5716 292.302 63.0988Z" fill="#5C4998"/>
<path d="M292.302 134.463H244.502C213.075 134.463 187.598 159.94 187.598 191.367V207.167C187.598 238.594 213.075 264.071 244.502 264.071H292.302C323.729 264.071 349.206 238.594 349.206 207.167V191.367C349.206 159.94 323.729 134.463 292.302 134.463Z" fill="#241B2E"/>
<path d="M200.398 292.767C203.946 297.774 202.781 304.71 197.773 308.258L184.13 317.952C179.122 321.5 172.187 320.335 168.638 315.328C165.09 310.32 166.255 303.384 171.263 299.836L184.906 290.142C189.914 286.594 196.85 287.759 200.398 292.767Z" fill="#5C4998"/>
<path d="M320.152 284.559C326.284 284.559 331.265 289.539 331.265 295.672V312.408C331.265 318.541 326.284 323.521 320.152 323.521C314.02 323.521 309.039 318.541 309.039 312.408V295.672C309.039 289.539 314.02 284.559 320.152 284.559Z" fill="#5C4998"/>
<path d="M289.759 277.195H247.181C241.022 277.195 235.934 282.283 235.934 288.442V323.254C235.934 329.414 241.022 334.501 247.181 334.501C252.804 334.501 257.223 329.949 257.223 324.46V324.058C257.223 318.434 261.105 313.48 266.729 312.677C273.557 311.606 279.583 316.961 279.583 323.656V324.326C279.583 329.949 284.135 334.501 289.759 334.501C295.918 334.501 301.006 329.414 301.006 323.254V288.442C301.006 282.283 295.918 277.195 289.759 277.195Z" fill="#5C4998"/>
<path d="M228.704 216.139C237.874 216.139 245.307 208.706 245.307 199.536C245.307 190.367 237.874 182.934 228.704 182.934C219.535 182.934 212.102 190.367 212.102 199.536C212.102 208.706 219.535 216.139 228.704 216.139Z" fill="#D9BDDC"/>
<path d="M308.236 215.869C317.405 215.869 324.838 208.436 324.838 199.267C324.838 190.097 317.405 182.664 308.236 182.664C299.066 182.664 291.633 190.097 291.633 199.267C291.633 208.436 299.066 215.869 308.236 215.869Z" fill="#D9BDDC"/>
<path d="M260.438 210.649C261.241 210.622 264.454 212.952 268.471 212.952C272.488 212.952 275.701 210.622 276.505 210.649H260.438Z" fill="#D9BDDC"/>
<path d="M366.505 198.13L365.046 182.117C365.046 182.117 333.983 169.009 277.44 182.117L268.951 181.889H268.764H268.59L260.101 182.117C203.558 169.009 172.495 182.117 172.495 182.117L171.035 198.13L176.15 204.49C175.44 206.485 179.778 221.428 179.778 221.428C181.238 230.171 189.968 230.171 189.968 230.171C220.549 235.995 239.481 230.171 246.752 228.712C254.035 227.252 254.035 221.428 254.035 221.428L258.4 203.955C259.686 191.141 266.889 191.114 268.59 191.289V191.342C268.59 191.342 268.656 191.329 268.777 191.315C268.897 191.329 268.964 191.342 268.964 191.342V191.289C270.678 191.114 277.882 191.141 279.154 203.955L283.519 221.428C283.519 221.428 283.519 227.252 290.802 228.712C298.086 230.171 317.019 235.995 347.586 230.171C347.586 230.171 356.33 230.171 357.776 221.428C357.776 221.428 362.114 206.499 361.404 204.49L366.519 198.13H366.505ZM255.481 202.495C252.563 219.968 248.198 222.887 245.292 224.333C242.387 225.779 221.995 231.617 191.414 225.793C191.414 225.793 182.67 221.428 182.67 201.036V192.453C182.67 190.338 183.246 188.236 184.478 186.522C185.589 184.969 187.33 183.563 189.954 183.563C189.954 183.563 212.582 179.198 247.863 183.563C247.863 183.563 258.387 185.022 255.481 202.495ZM354.857 201.036C354.857 221.428 346.114 225.793 346.114 225.793C315.532 231.617 295.154 225.793 292.235 224.333C289.316 222.874 284.951 219.968 282.046 202.495C279.127 185.022 289.664 183.563 289.664 183.563C324.945 179.198 347.573 183.563 347.573 183.563C350.197 183.563 351.924 184.969 353.049 186.522C354.281 188.236 354.857 190.338 354.857 192.453V201.036Z" fill="#CEB0FA"/>
<path d="M215.877 232.875L162.534 244.966C161.208 245.26 160.378 246.586 160.673 247.911L180.435 335.062C180.73 336.388 182.055 337.218 183.381 336.923L247.783 322.315C249.109 322.021 249.939 320.695 249.644 319.37L231.89 241.069C226.508 238.324 221.313 235.272 215.877 232.875Z" fill="#CEB0FA" fill-opacity="0.16" stroke="#B78AF7" stroke-miterlimit="10"/>
<path d="M216.012 233.423L218.074 242.488C218.208 243.05 218.757 243.425 219.319 243.318L231.45 241.135C231.597 241.108 231.624 240.908 231.49 240.841L216.387 233.115C216.186 233.008 215.958 233.195 216.012 233.41V233.423Z" fill="#B78AF7"/>
<path d="M207.412 243.119L165.887 252.53L167.23 258.459L208.755 249.047L207.412 243.119Z" fill="#8133F1"/>
<path d="M229.12 251.716L168.805 265.386L169.03 266.378L229.345 252.708L229.12 251.716Z" fill="#CEB0FA"/>
<path d="M229.788 254.681L169.473 268.352L169.698 269.344L230.013 255.674L229.788 254.681Z" fill="#CEB0FA"/>
<path d="M221.55 259.652L170.141 271.304L170.366 272.296L221.775 260.644L221.55 259.652Z" fill="#CEB0FA"/>
<path d="M227.304 266.676L171.938 279.225L172.162 280.217L227.529 267.669L227.304 266.676Z" fill="#CEB0FA"/>
<path d="M227.968 269.642L172.602 282.19L172.826 283.183L228.193 270.634L227.968 269.642Z" fill="#CEB0FA"/>
<path d="M224.679 273.506L173.27 285.158L173.494 286.151L224.904 274.499L224.679 273.506Z" fill="#CEB0FA"/>
<path d="M220.552 282.756L175.07 293.064L175.295 294.057L220.777 283.749L220.552 282.756Z" fill="#CEB0FA"/>
<path d="M221.231 285.732L175.75 296.04L175.975 297.032L221.456 286.724L221.231 285.732Z" fill="#CEB0FA"/>
<path d="M226.422 294.943L177.977 305.923L178.201 306.915L226.647 295.935L226.422 294.943Z" fill="#CEB0FA"/>
<path d="M228.113 310.158C228.89 312.581 230.885 314.549 233.188 315.192C233.389 315.246 233.509 315.46 233.469 315.661C232.987 317.682 229.64 317.937 228.756 316.049C228.662 315.835 228.756 315.594 228.97 315.527L231.501 314.71C231.675 314.656 231.769 314.469 231.742 314.281L231.327 311.885C231.273 311.55 231.608 311.322 231.876 311.51C233.616 312.769 235.116 314.415 236.254 316.303L235.678 315.071C235.518 314.723 235.879 314.375 236.174 314.589C236.682 314.951 237.245 315.219 237.834 315.379C238.115 315.46 238.356 315.165 238.236 314.871L237.968 314.148C237.821 313.746 238.289 313.438 238.557 313.773L239.173 315.5C239.307 316.102 236.749 312.969 235.477 311.403C235.236 311.108 235.504 310.666 235.852 310.787C237.7 311.443 239.427 312.527 240.887 313.933C238.959 312.594 237.231 310.894 235.812 308.939C235.585 308.618 235.906 308.189 236.241 308.363C238.771 309.702 240.94 311.871 242.333 314.496" stroke="#1D1D1D" stroke-width="0.25" stroke-miterlimit="10"/>
<g opacity="0.51">
<path d="M195.404 313.543C196.087 312.887 195.98 312.458 196.864 312.11C197.748 311.762 198.845 311.816 199.515 312.498C199.756 312.753 199.93 313.061 200.077 313.382C201.108 315.672 201.055 318.296 200.613 320.76C200.452 321.63 200.251 322.514 199.809 323.277C199.207 324.321 198.176 325.084 197.051 325.526C195.927 325.968 194.695 326.089 193.49 326.062C192.86 326.048 192.218 325.982 191.629 325.767C190.705 325.433 189.955 324.763 189.259 324.08C188.737 323.545 188.228 322.996 187.759 322.42C187.531 322.152 187.317 321.858 187.197 321.523C186.929 320.706 187.411 319.849 187.558 319.006C187.692 318.256 187.558 317.493 187.411 316.743C187.29 316.114 187.17 315.444 187.411 314.855C187.531 314.534 187.746 314.253 187.973 313.998C189.125 312.753 190.879 312.083 192.566 312.271C193.342 312.351 194.106 312.606 194.896 312.552C195.739 312.485 196.502 312.07 197.319 311.869C198.136 311.668 199.086 311.802 199.542 312.498" fill="#6200EE"/>
</g>
<g opacity="0.51">
<path d="M199.247 322.168C199.648 323.024 200.09 323.065 200.144 324.002C200.197 324.939 199.796 325.984 198.939 326.385C198.617 326.532 198.269 326.599 197.921 326.64C195.431 326.894 192.954 326.01 190.758 324.805C189.981 324.377 189.218 323.908 188.629 323.239C187.826 322.328 187.424 321.123 187.37 319.905C187.317 318.686 187.571 317.495 187.986 316.357C188.201 315.767 188.468 315.178 188.857 314.683C189.459 313.92 190.329 313.411 191.213 312.969C191.883 312.634 192.565 312.34 193.262 312.072C193.596 311.952 193.931 311.818 194.279 311.831C195.136 311.831 195.792 312.567 196.555 312.969C197.225 313.331 197.988 313.438 198.738 313.545C199.367 313.639 200.037 313.732 200.532 314.134C200.8 314.348 201.001 314.643 201.161 314.937C201.978 316.424 202.058 318.298 201.349 319.838C201.027 320.547 200.545 321.19 200.345 321.953C200.144 322.77 200.291 323.627 200.224 324.47C200.157 325.314 199.729 326.171 198.925 326.372" fill="#6200EE"/>
</g>
<g opacity="0.51">
<path d="M189.393 319.849C188.549 319.434 188.174 319.675 187.545 318.965C186.916 318.256 186.594 317.198 187.009 316.341C187.157 316.02 187.398 315.765 187.652 315.511C189.446 313.77 191.937 312.927 194.414 312.512C195.284 312.364 196.181 312.257 197.051 312.418C198.243 312.632 199.314 313.342 200.104 314.252C200.894 315.163 201.443 316.274 201.818 317.426C202.019 318.028 202.179 318.644 202.179 319.273C202.179 320.251 201.805 321.188 201.389 322.072C201.068 322.741 200.72 323.411 200.345 324.053C200.171 324.361 199.97 324.669 199.689 324.883C199.006 325.406 198.042 325.245 197.199 325.392C196.449 325.526 195.779 325.914 195.123 326.289C194.574 326.611 193.985 326.945 193.342 326.945C192.994 326.945 192.66 326.838 192.352 326.704C190.785 326.048 189.567 324.629 189.165 322.969C188.978 322.206 188.964 321.402 188.643 320.693C188.295 319.929 187.639 319.34 187.17 318.644C186.701 317.948 186.501 317.01 187.009 316.341" fill="#6200EE"/>
</g>
<path d="M191.951 315.714C192.513 315.527 193.41 315.379 193.464 316.223C193.517 317.174 191.843 316.692 191.817 317.696C191.777 319.383 194.628 317.977 195.579 318.004C197.909 318.071 198.418 321.418 196.302 322.154C195.793 322.328 193.718 322.824 193.209 322.851C192.5 322.891 192.245 321.82 192.941 321.552C193.745 321.231 195.177 321.217 195.914 320.856C196.449 320.588 196.436 319.731 195.914 319.45C194.977 318.941 192.941 320.628 191.375 319.49C189.956 318.459 190.317 316.263 191.964 315.714H191.951Z" fill="#CEB0FA" fill-opacity="0.16"/>
<path d="M194.599 315.069C195.577 314.721 195.992 316.153 195.122 316.435C194.198 316.742 193.769 315.363 194.599 315.069Z" fill="#CEB0FA" fill-opacity="0.16"/>
<path d="M179.132 318.698C183.361 316.906 185.044 311.336 182.892 306.257C180.74 301.178 175.568 298.512 171.34 300.303C167.111 302.095 165.428 307.665 167.58 312.744C169.732 317.823 174.904 320.489 179.132 318.698Z" fill="#5C4998"/>
</svg>
