<svg width="246" height="219" viewBox="0 0 246 219" fill="none" xmlns="http://www.w3.org/2000/svg">
    <g clip-path="url(#clip0_7105_35532)">
        <path d="M187.463 104.438L186.419 107.051C186.419 107.051 185.457 110.708 186.583 112.167C187.71 113.626 187.96 124.793 186.751 125.618C185.539 126.444 202.1 117.972 202.1 117.972C202.1 117.972 195.634 102.979 195.525 102.924C195.415 102.87 191.179 101.548 191.179 101.548L187.467 104.435L187.463 104.438Z" fill="#1D1D1D"/>
        <path d="M197.27 111.691L197.713 117L193.196 118.486V111.691H197.27Z" fill="#9B616A" stroke="#252527"/>
        <path d="M180.794 162.602L180.794 162.602L180.792 162.611C180.655 163.442 180.312 164.133 179.896 164.581C179.476 165.032 179.029 165.197 178.646 165.131C178.26 165.062 177.887 164.752 177.633 164.179C177.382 163.611 177.279 162.841 177.416 162.009L177.416 162.009L177.417 162.002C177.515 161.352 177.773 160.738 178.169 160.207L178.24 160.112L178.261 159.995L179.547 152.767L182.286 153.341L180.648 160.384L180.617 160.518L180.659 160.65C180.864 161.287 180.912 161.956 180.794 162.602Z" fill="#9B616A" stroke="#252527"/>
        <path d="M191.463 213.631V207.258H195.661V213.631H191.463Z" fill="#9B616A" stroke="#252527"/>
        <path d="M184.548 218.047L184.547 218.047C183.958 217.993 183.356 217.744 182.806 217.42C182.259 217.098 181.792 216.718 181.477 216.434L181.476 216.433C181.336 216.308 181.293 216.108 181.365 215.941L181.365 215.941L181.367 215.935C181.418 215.813 181.521 215.72 181.652 215.683L181.652 215.683L185.299 214.642L185.376 214.62L185.442 214.576L190.891 210.899C191.076 211.26 191.339 211.81 191.45 212.217L191.45 212.217L191.451 212.222C191.501 212.399 191.465 212.463 191.457 212.475L191.456 212.476C191.445 212.493 191.426 212.51 191.391 212.526L190.761 212.817L191.236 213.322C191.46 213.561 191.937 213.809 192.994 213.977L192.994 213.977C193.462 214.052 193.867 213.989 194.206 213.829C194.541 213.672 194.783 213.433 194.954 213.199C195.125 212.965 195.232 212.726 195.298 212.545C195.323 212.475 195.343 212.411 195.358 212.359C195.616 212.195 195.825 212.075 195.986 211.994C195.99 212.016 195.995 212.04 196 212.065C196.1 212.587 196.245 213.643 196.459 215.77L196.464 215.825L196.482 215.878C196.52 215.993 196.773 216.842 196.614 217.63C196.606 217.637 196.593 217.647 196.571 217.66C196.49 217.709 196.352 217.764 196.145 217.813C195.734 217.91 195.171 217.958 194.556 217.972C193.335 218.001 192.024 217.896 191.585 217.855L191.562 217.853H191.539C191.517 217.853 191.48 217.856 191.467 217.856C191.465 217.857 191.464 217.857 191.463 217.857L191.35 217.864C191.252 217.871 191.112 217.88 190.937 217.891C190.586 217.914 190.098 217.944 189.54 217.973C188.421 218.033 187.028 218.093 185.902 218.093C185.359 218.093 184.891 218.079 184.548 218.047ZM196.625 217.62C196.625 217.62 196.625 217.62 196.624 217.622C196.625 217.62 196.625 217.62 196.625 217.62ZM196.259 211.882C196.259 211.883 196.256 211.883 196.251 211.884C196.257 211.883 196.26 211.882 196.259 211.882Z" fill="#FCA728" stroke="#252527"/>
        <path d="M210.606 209.279L207.234 203.872L210.796 201.65L214.169 207.057L210.606 209.279Z" fill="#9B616A" stroke="#252527"/>
        <path d="M203.617 216.946L203.62 216.946C203.996 217.014 204.527 217.082 205.1 217.082H205.106C205.796 217.082 206.506 216.98 207.083 216.69C207.897 216.281 209.329 215.335 210.586 214.469C211.208 214.039 211.779 213.636 212.196 213.339C212.405 213.19 212.574 213.068 212.692 212.983C212.751 212.94 212.797 212.907 212.829 212.884C212.848 212.869 212.858 212.862 212.862 212.859L212.895 212.831L212.949 212.804C213.342 212.606 214.51 212.002 215.531 211.332C216.045 210.994 216.497 210.655 216.794 210.355C216.944 210.204 217.033 210.085 217.076 210C217.087 209.977 217.093 209.961 217.097 209.951C216.816 209.195 216.151 208.611 216.055 208.531L216.014 208.496L215.981 208.454C214.674 206.763 213.993 205.945 213.631 205.554C213.613 205.535 213.597 205.518 213.581 205.501C213.488 205.655 213.375 205.866 213.243 206.139C213.302 206.34 213.375 206.685 213.347 207.072C213.326 207.362 213.246 207.692 213.045 208.003C212.841 208.318 212.531 208.585 212.095 208.769L203.617 216.946ZM203.617 216.946C203.436 216.914 203.293 216.771 203.261 216.585M203.617 216.946L203.261 216.585M203.261 216.585C203.24 216.447 203.28 216.316 203.368 216.219C203.368 216.219 203.368 216.219 203.368 216.219L205.912 213.404L205.965 213.345L205.998 213.272L208.677 207.27C208.753 207.315 208.838 207.367 208.927 207.423C209.257 207.63 209.62 207.879 209.852 208.094L209.854 208.095C209.993 208.223 209.994 208.294 209.993 208.306L209.993 208.314V208.322C209.993 208.326 209.992 208.332 209.988 208.343C209.984 208.355 209.976 208.37 209.965 208.388L209.581 208.976L210.262 209.146C210.574 209.224 211.103 209.189 212.095 208.769L203.261 216.585ZM217.1 209.937C217.1 209.937 217.1 209.937 217.1 209.939L217.1 209.937ZM213.754 205.261C213.754 205.261 213.751 205.263 213.747 205.267C213.751 205.262 213.754 205.26 213.754 205.261Z" fill="#FCA728" stroke="#252527"/>
        <path d="M199.987 145.107H185.44L184.118 158.64L189.895 208.644H197.322L194.353 179.763L206.401 205.836L213.003 201.217L203.596 176.876C203.596 176.876 206.955 155.668 204.315 150.387C201.675 145.107 199.99 145.107 199.99 145.107H199.987Z" fill="#1D1D1D"/>
        <path d="M198.554 107.527C198.554 110.303 196.303 112.554 193.527 112.554C190.751 112.554 188.5 110.303 188.5 107.527C188.5 104.751 190.751 102.5 193.527 102.5C196.303 102.5 198.554 104.751 198.554 107.527Z" fill="#9B616A" stroke="#252527"/>
        <path d="M194.456 99.2842C194.456 99.2842 201.113 97.5788 203.148 106.434C203.148 106.434 203.202 108.746 204.356 109.681C205.51 110.616 205.127 115.458 205.127 115.458C205.127 115.458 207.329 119.088 205.456 120.738C205.456 120.738 204.63 124.094 205.839 126.019C207.048 127.944 211.616 138.535 204.024 139.179C204.024 139.179 200.175 136.854 201.99 129.923C203.805 122.992 201.771 119.163 201.771 119.163C201.771 119.163 195.939 117.05 196.271 112.537C196.6 108.027 192.532 103.572 192.254 103.626C191.977 103.681 189.118 102.031 187.854 107.092L186.498 106.863C186.498 106.863 185.929 98.3459 194.456 99.2808V99.2842Z" fill="#1D1D1D"/>
        <path d="M207.745 160.356L206.378 153.144L209.141 152.708L210.111 159.876L210.129 160.013L210.216 160.121C210.634 160.643 210.914 161.253 211.036 161.901L211.09 162.188C211.189 162.905 211.107 163.562 210.904 164.062C210.672 164.632 210.312 164.945 209.929 165.019C209.545 165.092 209.086 164.935 208.646 164.49C208.209 164.048 207.84 163.365 207.672 162.537L207.672 162.537L207.67 162.531C207.53 161.889 207.552 161.22 207.734 160.587L207.767 160.473L207.745 160.356Z" fill="#9B616A" stroke="#252527"/>
        <mask id="path-12-inside-1_7105_35532" fill="white">
            <path fill-rule="evenodd" clip-rule="evenodd" d="M203.474 145.932H185.433L182.406 158.48H177.29C177.29 158.48 185.046 119.201 185.707 117.55C186.152 116.44 189.138 116.151 191.042 116.081L191.048 116.061H191.921C192.125 116.059 192.293 116.06 192.415 116.061H197.062C197.792 115.989 199.537 115.856 200.942 116.061H201.116L201.122 116.089C201.985 116.237 202.69 116.524 202.901 117.05C203.562 118.701 211.318 157.98 211.318 157.98H206.202L203.474 145.932Z"/>
        </mask>
        <path fill-rule="evenodd" clip-rule="evenodd" d="M203.474 145.932H185.433L182.406 158.48H177.29C177.29 158.48 185.046 119.201 185.707 117.55C186.152 116.44 189.138 116.151 191.042 116.081L191.048 116.061H191.921C192.125 116.059 192.293 116.06 192.415 116.061H197.062C197.792 115.989 199.537 115.856 200.942 116.061H201.116L201.122 116.089C201.985 116.237 202.69 116.524 202.901 117.05C203.562 118.701 211.318 157.98 211.318 157.98H206.202L203.474 145.932Z" fill="#9654F4"/>
        <path d="M185.433 145.932V144.932H184.645L184.46 145.698L185.433 145.932ZM203.474 145.932L204.45 145.712L204.273 144.932H203.474V145.932ZM182.406 158.48V159.48H183.193L183.378 158.714L182.406 158.48ZM177.29 158.48L176.308 158.286L176.073 159.48H177.29V158.48ZM185.707 117.55L186.635 117.922V117.922L185.707 117.55ZM191.042 116.081L191.079 117.08L191.792 117.054L191.999 116.371L191.042 116.081ZM191.048 116.061V115.061H190.307L190.092 115.77L191.048 116.061ZM191.921 116.061V117.061L191.929 117.061L191.921 116.061ZM192.415 116.061L192.406 117.061H192.415V116.061ZM197.062 116.061V117.061H197.112L197.161 117.056L197.062 116.061ZM200.942 116.061L200.798 117.05L200.869 117.061H200.942V116.061ZM201.116 116.061L202.096 115.861L201.933 115.061H201.116V116.061ZM201.122 116.089L200.142 116.29L200.279 116.96L200.954 117.075L201.122 116.089ZM202.901 117.05L203.829 116.679L203.829 116.679L202.901 117.05ZM211.318 157.98V158.98H212.535L212.299 157.786L211.318 157.98ZM206.202 157.98L205.227 158.201L205.403 158.98H206.202V157.98ZM185.433 146.932H203.474V144.932H185.433V146.932ZM183.378 158.714L186.405 146.167L184.46 145.698L181.434 158.245L183.378 158.714ZM177.29 159.48H182.406V157.48H177.29V159.48ZM184.779 117.179C184.706 117.361 184.62 117.687 184.532 118.043C184.437 118.432 184.318 118.946 184.18 119.565C183.903 120.803 183.544 122.478 183.134 124.437C182.313 128.355 181.281 133.423 180.27 138.436C179.259 143.451 178.269 148.413 177.531 152.122C177.162 153.976 176.857 155.517 176.643 156.594C176.536 157.133 176.453 157.556 176.396 157.844C176.367 157.988 176.345 158.099 176.331 158.173C176.323 158.21 176.318 158.238 176.314 158.257C176.312 158.267 176.311 158.274 176.31 158.279C176.309 158.281 176.309 158.283 176.309 158.284C176.309 158.285 176.309 158.285 176.309 158.285C176.309 158.286 176.308 158.286 177.29 158.48C178.271 158.673 178.271 158.673 178.271 158.673C178.271 158.673 178.271 158.672 178.271 158.672C178.271 158.67 178.272 158.669 178.272 158.666C178.273 158.662 178.274 158.654 178.276 158.645C178.28 158.626 178.286 158.598 178.293 158.561C178.308 158.486 178.329 158.376 178.358 158.232C178.415 157.944 178.498 157.521 178.605 156.983C178.818 155.906 179.124 154.365 179.493 152.512C180.23 148.804 181.22 143.844 182.231 138.832C183.241 133.819 184.272 128.758 185.092 124.847C185.501 122.891 185.858 121.227 186.131 120.001C186.268 119.388 186.384 118.889 186.474 118.521C186.52 118.337 186.558 118.19 186.588 118.08C186.622 117.959 186.637 117.918 186.635 117.922L184.779 117.179ZM191.006 115.081C190.034 115.117 188.744 115.209 187.62 115.447C187.061 115.565 186.495 115.729 186.016 115.966C185.561 116.192 185.026 116.562 184.779 117.179L186.635 117.922C186.611 117.983 186.615 117.901 186.904 117.758C187.17 117.626 187.553 117.505 188.034 117.404C188.99 117.202 190.146 117.114 191.079 117.08L191.006 115.081ZM190.092 115.77L190.086 115.79L191.999 116.371L192.005 116.352L190.092 115.77ZM191.921 115.061H191.048V117.061H191.921V115.061ZM192.425 115.061C192.297 115.06 192.123 115.059 191.912 115.061L191.929 117.061C192.127 117.059 192.289 117.06 192.406 117.061L192.425 115.061ZM197.062 115.061H192.415V117.061H197.062V115.061ZM197.161 117.056C197.884 116.985 199.523 116.865 200.798 117.05L201.086 115.071C199.551 114.848 197.7 114.993 196.964 115.066L197.161 117.056ZM201.116 115.061H200.942V117.061H201.116V115.061ZM202.102 115.889L202.096 115.861L200.137 116.261L200.142 116.29L202.102 115.889ZM200.954 117.075C201.335 117.14 201.62 117.227 201.807 117.321C201.997 117.417 201.992 117.47 201.973 117.422L203.829 116.679C203.599 116.104 203.136 115.751 202.705 115.534C202.271 115.316 201.772 115.186 201.291 115.104L200.954 117.075ZM201.973 117.422C201.971 117.418 201.986 117.459 202.02 117.581C202.05 117.69 202.088 117.837 202.133 118.021C202.224 118.389 202.339 118.888 202.476 119.501C202.75 120.727 203.106 122.391 203.516 124.347C204.335 128.258 205.366 133.319 206.377 138.332C207.388 143.344 208.378 148.304 209.115 152.012C209.484 153.865 209.789 155.406 210.003 156.483C210.109 157.022 210.193 157.444 210.25 157.732C210.278 157.876 210.3 157.986 210.315 158.061C210.322 158.098 210.328 158.126 210.332 158.145C210.333 158.154 210.335 158.162 210.336 158.166C210.336 158.169 210.337 158.17 210.337 158.172C210.337 158.172 210.337 158.173 210.337 158.173C210.337 158.173 210.337 158.173 211.318 157.98C212.299 157.786 212.299 157.786 212.299 157.785C212.299 157.785 212.299 157.785 212.299 157.784C212.299 157.783 212.298 157.781 212.298 157.779C212.297 157.774 212.296 157.767 212.294 157.757C212.29 157.739 212.284 157.71 212.277 157.673C212.262 157.599 212.24 157.488 212.212 157.344C212.155 157.056 212.071 156.633 211.965 156.094C211.751 155.017 211.446 153.476 211.077 151.622C210.339 147.913 209.349 142.951 208.338 137.936C207.327 132.923 206.295 127.855 205.474 123.937C205.063 121.978 204.705 120.303 204.428 119.065C204.29 118.446 204.171 117.932 204.075 117.543C203.988 117.187 203.902 116.861 203.829 116.679L201.973 117.422ZM211.318 156.98H206.202V158.98H211.318V156.98ZM207.177 157.759L204.45 145.712L202.499 146.153L205.227 158.201L207.177 157.759Z" fill="#252527" mask="url(#path-12-inside-1_7105_35532)"/>
        <path d="M27.0511 65.8031H10.9938C9.73704 65.8031 8.71655 64.7826 8.71655 63.5258C8.71655 62.269 9.73704 61.2485 10.9938 61.2485H27.0511C28.3079 61.2485 29.3284 62.269 29.3284 63.5258C29.3284 64.7826 28.3079 65.8031 27.0511 65.8031Z" fill="#69696B"/>
        <path d="M86.4965 65.8031H70.4391C69.1824 65.8031 68.1619 64.7826 68.1619 63.5258C68.1619 62.269 69.1824 61.2485 70.4391 61.2485H86.4965C87.7532 61.2485 88.7737 62.269 88.7737 63.5258C88.7737 64.7826 87.7532 65.8031 86.4965 65.8031Z" fill="#69696B"/>
        <path d="M145.945 65.8031H129.888C128.631 65.8031 127.611 64.7826 127.611 63.5258C127.611 62.269 128.631 61.2485 129.888 61.2485H145.945C147.202 61.2485 148.222 62.269 148.222 63.5258C148.222 64.7826 147.202 65.8031 145.945 65.8031Z" fill="#69696B"/>
        <path d="M145.945 139.792H129.888C128.631 139.792 127.611 138.772 127.611 137.515C127.611 136.258 128.631 135.238 129.888 135.238H145.945C147.202 135.238 148.222 136.258 148.222 137.515C148.222 138.772 147.202 139.792 145.945 139.792Z" fill="#69696B"/>
        <path d="M204.394 65.8031H188.337C187.08 65.8031 186.059 64.7826 186.059 63.5258C186.059 62.269 187.08 61.2485 188.337 61.2485H204.394C205.651 61.2485 206.671 62.269 206.671 63.5258C206.671 64.7826 205.651 65.8031 204.394 65.8031Z" fill="#69696B"/>
        <path d="M27.0511 139.107H10.9938C9.73704 139.107 8.71655 138.087 8.71655 136.83C8.71655 135.573 9.73704 134.553 10.9938 134.553H27.0511C28.3079 134.553 29.3284 135.573 29.3284 136.83C29.3284 138.087 28.3079 139.107 27.0511 139.107Z" fill="#69696B"/>
        <path d="M86.4965 139.107H70.4391C69.1824 139.107 68.1619 138.087 68.1619 136.83C68.1619 135.573 69.1824 134.553 70.4391 134.553H86.4965C87.7532 134.553 88.7737 135.573 88.7737 136.83C88.7737 138.087 87.7532 139.107 86.4965 139.107Z" fill="#69696B"/>
        <path d="M102.228 162.993C103.31 162.993 104.187 162.116 104.187 161.034C104.187 159.952 103.31 159.075 102.228 159.075C101.147 159.075 100.27 159.952 100.27 161.034C100.27 162.116 101.147 162.993 102.228 162.993Z" fill="#FCA728"/>
        <path d="M108.036 162.993C109.118 162.993 109.995 162.116 109.995 161.034C109.995 159.952 109.118 159.075 108.036 159.075C106.954 159.075 106.077 159.952 106.077 161.034C106.077 162.116 106.954 162.993 108.036 162.993Z" fill="#69696B"/>
        <path d="M113.844 162.993C114.926 162.993 115.803 162.116 115.803 161.034C115.803 159.952 114.926 159.075 113.844 159.075C112.762 159.075 111.885 159.952 111.885 161.034C111.885 162.116 112.762 162.993 113.844 162.993Z" fill="#69696B"/>
        <path d="M134.939 9.65356H81.1268C78.466 9.65356 76.3018 7.4893 76.3018 4.82849C76.3018 2.16768 78.466 0.00341797 81.1268 0.00341797H134.939C137.6 0.00341797 139.764 2.16768 139.764 4.82849C139.764 7.4893 137.6 9.65356 134.939 9.65356ZM81.1303 0.684887C78.8461 0.684887 76.9901 2.54437 76.9901 4.82507C76.9901 7.10576 78.8496 8.96525 81.1303 8.96525H134.942C137.226 8.96525 139.082 7.10576 139.082 4.82507C139.082 2.54437 137.223 0.684887 134.942 0.684887H81.1303Z" fill="#444446"/>
        <path d="M96.5335 6.08874C95.4514 6.08874 94.5713 5.20866 94.5713 4.12653C94.5713 3.04439 95.4514 2.16431 96.5335 2.16431C97.6156 2.16431 98.4957 3.04439 98.4957 4.12653C98.4957 5.20866 97.6156 6.08874 96.5335 6.08874ZM96.5335 2.69852C95.7459 2.69852 95.1055 3.3389 95.1055 4.12653C95.1055 4.91415 95.7459 5.55453 96.5335 5.55453C97.3211 5.55453 97.9615 4.91415 97.9615 4.12653C97.9615 3.3389 97.3211 2.69852 96.5335 2.69852Z" fill="#FCA728"/>
        <path d="M100.232 7.69471C100.17 7.69471 100.109 7.67416 100.057 7.62965L97.578 5.50305C97.465 5.40717 97.4547 5.23937 97.5506 5.12636C97.6465 5.01335 97.8143 5.00308 97.9273 5.09896L100.407 7.22556C100.52 7.32144 100.53 7.48924 100.434 7.60225C100.383 7.66389 100.307 7.69471 100.232 7.69471Z" fill="#FCA728"/>
        <path d="M31.5882 57.6877H8.23112C3.77305 57.6877 0.14624 54.0609 0.14624 49.6028V26.2458C0.14624 21.7877 3.77305 18.1609 8.23112 18.1609H31.5882C36.0463 18.1609 39.6731 21.7877 39.6731 26.2458V49.6028C39.6731 54.0609 36.0463 57.6877 31.5882 57.6877Z" fill="#3E3E40"/>
        <path d="M90.3443 57.6877H66.9872C62.5292 57.6877 58.9023 54.0609 58.9023 49.6028V26.2458C58.9023 21.7877 62.5292 18.1609 66.9872 18.1609H90.3443C94.8024 18.1609 98.4292 21.7877 98.4292 26.2458V49.6028C98.4292 54.0609 94.8024 57.6877 90.3443 57.6877Z" fill="#3E3E40"/>
        <path d="M149.1 57.6877H125.743C121.285 57.6877 117.658 54.0609 117.658 49.6028V26.2458C117.658 21.7877 121.285 18.1609 125.743 18.1609H149.1C153.558 18.1609 157.185 21.7877 157.185 26.2458V49.6028C157.185 54.0609 153.558 57.6877 149.1 57.6877Z" fill="#252527"/>
        <path d="M206.788 57.6877H183.431C178.973 57.6877 175.346 54.0609 175.346 49.6028V26.2458C175.346 21.7877 178.973 18.1609 183.431 18.1609H206.788C211.246 18.1609 214.873 21.7877 214.873 26.2458V49.6028C214.873 54.0609 211.246 57.6877 206.788 57.6877Z" fill="#3E3E40"/>
        <path d="M149.1 130.332H125.743C121.285 130.332 117.658 126.705 117.658 122.247V98.8898C117.658 94.4317 121.285 90.8049 125.743 90.8049H149.1C153.558 90.8049 157.185 94.4317 157.185 98.8898V122.247C157.185 126.705 153.558 130.332 149.1 130.332Z" fill="#3E3E40"/>
        <path d="M90.3443 130.332H66.9872C62.5292 130.332 58.9023 126.705 58.9023 122.247V98.8898C58.9023 94.4317 62.5292 90.8049 66.9872 90.8049H90.3443C94.8024 90.8049 98.4292 94.4317 98.4292 98.8898V122.247C98.4292 126.705 94.8024 130.332 90.3443 130.332Z" fill="#3E3E40"/>
        <path d="M31.5882 130.332H8.23112C3.77305 130.332 0.14624 126.705 0.14624 122.247V98.8898C0.14624 94.4317 3.77305 90.8049 8.23112 90.8049H31.5882C36.0463 90.8049 39.6731 94.4317 39.6731 98.8898V122.247C39.6731 126.705 36.0463 130.332 31.5882 130.332Z" fill="#252527"/>
        <path d="M38.29 101.123C42.6986 101.123 46.2725 97.5492 46.2725 93.1406C46.2725 88.7321 42.6986 85.1582 38.29 85.1582C33.8815 85.1582 30.3076 88.7321 30.3076 93.1406C30.3076 97.5492 33.8815 101.123 38.29 101.123Z" fill="#FCA728"/>
        <path d="M156.328 27.8189C160.737 27.8189 164.311 24.245 164.311 19.8364C164.311 15.4279 160.737 11.854 156.328 11.854C151.92 11.854 148.346 15.4279 148.346 19.8364C148.346 24.245 151.92 27.8189 156.328 27.8189Z" fill="#FCA728"/>
    </g>
    <defs>
        <clipPath id="clip0_7105_35532">
            <rect width="245.707" height="219" fill="white" transform="translate(0.14624)"/>
        </clipPath>
    </defs>
</svg>
