<svg width="44" height="44" viewBox="0 0 44 44" fill="none" xmlns="http://www.w3.org/2000/svg">
    <path d="M17.0242 12.3103C17.7752 12.5647 18.4896 12.9164 19.1492 13.3563C20.0808 13.1182 21.0387 12.9986 22.0002 13.0003C22.9932 13.0003 23.9512 13.1243 24.8492 13.3553C25.5086 12.9158 26.2227 12.5645 26.9732 12.3103C27.6702 12.0733 28.6632 11.6893 29.2532 12.3423C29.6532 12.7863 29.7532 13.5303 29.8242 14.0983C29.9042 14.7323 29.9232 15.5583 29.7132 16.3783C30.5162 17.4153 31.0002 18.6523 31.0002 20.0003C31.0002 22.0423 29.8942 23.8153 28.2572 25.0433C27.4694 25.6268 26.5956 26.0843 25.6672 26.3993C25.8812 26.8893 26.0002 27.4313 26.0002 28.0003V31.0003C26.0002 31.2655 25.8949 31.5199 25.7073 31.7074C25.5198 31.8949 25.2654 32.0003 25.0002 32.0003H19.0002C18.735 32.0003 18.4807 31.8949 18.2931 31.7074C18.1056 31.5199 18.0002 31.2655 18.0002 31.0003V30.0093C17.0452 30.1263 16.2442 30.0223 15.5632 29.7333C14.8512 29.4313 14.3552 28.9633 13.9822 28.5153C13.6282 28.0913 13.2422 27.1353 12.6842 26.9493C12.5596 26.9078 12.4444 26.8422 12.3451 26.7561C12.2459 26.6701 12.1645 26.5654 12.1057 26.4479C11.987 26.2107 11.9674 25.936 12.0512 25.6843C12.135 25.4326 12.3154 25.2245 12.5526 25.1058C12.7899 24.9871 13.0645 24.9675 13.3162 25.0513C13.9822 25.2733 14.4162 25.7533 14.7132 26.1393C15.1932 26.7593 15.5832 27.5693 16.3432 27.8923C16.6562 28.0253 17.1152 28.1123 17.8332 28.0143L18.0002 27.9803C18.0021 27.4361 18.1155 26.898 18.3332 26.3993C17.4048 26.0843 16.531 25.6269 15.7432 25.0433C14.1062 23.8153 13.0002 22.0433 13.0002 20.0003C13.0002 18.6543 13.4832 17.4183 14.2842 16.3823C14.0742 15.5623 14.0922 14.7343 14.1722 14.0993L14.1772 14.0613C14.2502 13.4793 14.3352 12.7943 14.7432 12.3423C15.3332 11.6893 16.3272 12.0743 17.0232 12.3113L17.0242 12.3103Z" fill="#444446"/>
</svg>
