<svg width="44" height="44" viewBox="0 0 44 44" fill="none" xmlns="http://www.w3.org/2000/svg">
    <path fill-rule="evenodd" clip-rule="evenodd" d="M28.2985 14.4678C28.5183 14.3753 28.7589 14.3433 28.9953 14.3754C29.2316 14.4074 29.455 14.5022 29.6423 14.6498C29.8295 14.7975 29.9738 14.9927 30.0601 15.215C30.1463 15.4374 30.1714 15.6788 30.1327 15.9141L28.1153 28.151C27.9196 29.3313 26.6245 30.0083 25.542 29.4203C24.6364 28.9284 23.2915 28.1705 22.0818 27.3798C21.4769 26.984 19.6241 25.7164 19.8518 24.8145C20.0475 24.0433 23.1608 21.1453 24.9398 19.4223C25.638 18.7454 25.3196 18.3549 24.495 18.9775C22.4474 20.5235 19.1598 22.8745 18.0728 23.5362C17.1139 24.1198 16.614 24.2194 16.0163 24.1198C14.9257 23.9383 13.9144 23.6572 13.0889 23.3148C11.9735 22.8522 12.0277 21.3187 13.088 20.8722L28.2985 14.4678Z" fill="#444446"/>
</svg>
