<svg width="24.000000" height="24.000000" viewBox="0 0 24 24" fill="none" xmlns="http://www.w3.org/2000/svg" xmlns:xlink="http://www.w3.org/1999/xlink">
	<desc>
			Created with Pixso.
	</desc>
	<defs>
		<clipPath id="clip3_5618">
			<rect id="Icon" width="24.000000" height="24.000000" fill="white" fill-opacity="0"/>
		</clipPath>
	</defs>
	<rect id="Icon" width="24.000000" height="24.000000" fill="#FFFFFF" fill-opacity="0"/>
	<g clip-path="url(#clip3_5618)">
		<path id="Union" d="M2 12C2 6.47705 6.47705 2 12 2C17.5229 2 22 6.47705 22 12C22 17.5229 17.5229 22 12 22C6.47705 22 2 17.5229 2 12ZM11.3145 15.0162C11.5098 14.8698 11.6724 14.6882 11.8032 14.4731C12.0093 14.1482 12.1104 13.7803 12.1108 13.37C12.1108 12.9734 12.021 12.6355 11.8413 12.3573C11.6631 12.0782 11.396 11.8754 11.0444 11.7467C11.2764 11.6284 11.4521 11.4973 11.5708 11.3534C11.7842 11.0964 11.8901 10.7582 11.8901 10.3356C11.8901 9.92578 11.7852 9.57361 11.5742 9.27979C11.2217 8.8009 10.625 8.55713 9.7832 8.54333L6.44434 8.54333L6.44434 15.4567L9.55762 15.4567C9.9082 15.4567 10.2334 15.4253 10.5342 15.3633C10.8335 15.3014 11.0942 15.1853 11.3145 15.0162ZM16.4785 8.82996L13.6943 8.82996L13.6943 9.52161L16.4785 9.52161L16.4785 8.82996ZM10.5132 10.4897C10.5132 10.7809 10.4199 10.9835 10.2324 11.0975C10.0454 11.2118 9.80225 11.2689 9.50195 11.2689L8.03906 11.2689L8.03906 9.74377L9.32568 9.74377C9.65625 9.74377 9.92871 9.78064 10.1416 9.85205C10.3896 9.95471 10.5132 10.1682 10.5132 10.4897ZM13.9487 13.1298L17.5542 13.1298C17.5605 12.7009 17.5449 12.3727 17.5112 12.1462C17.4507 11.7581 17.3198 11.4169 17.1162 11.1219C16.8916 10.7871 16.6064 10.5436 16.2617 10.3887C15.9155 10.234 15.5273 10.1571 15.0972 10.1571C14.3711 10.1571 13.7822 10.3854 13.3257 10.844C12.8711 11.3018 12.644 11.9594 12.644 12.8185C12.644 13.7346 12.8965 14.3951 13.3994 14.8022C13.9033 15.208 14.4844 15.4115 15.1436 15.4115C15.9419 15.4115 16.563 15.1702 17.0063 14.6887C17.292 14.3855 17.4512 14.0875 17.4858 13.7936L16.1646 13.7936C16.0879 13.938 15.999 14.0522 15.8984 14.1333C15.7139 14.2863 15.4741 14.3607 15.1802 14.3607C14.9009 14.3607 14.6626 14.2996 14.4663 14.1747C14.1406 13.9756 13.9683 13.6276 13.9487 13.1298ZM15.0977 11.2249C14.7646 11.2249 14.5073 11.3207 14.3252 11.5089C14.1411 11.6967 14.0269 11.9523 13.98 12.2755L16.2109 12.2755C16.187 11.9313 16.0718 11.6709 15.8652 11.4929C15.6597 11.3145 15.4033 11.2249 15.0977 11.2249ZM10.2144 12.5306C10.0508 12.4548 9.81934 12.4163 9.52295 12.4136L8.03906 12.4136L8.03906 14.256L9.5 14.256C9.80029 14.256 10.0322 14.2167 10.2002 14.1346C10.5024 13.984 10.6543 13.6971 10.6543 13.2714C10.6543 12.9122 10.5073 12.6641 10.2144 12.5306Z" clip-rule="evenodd" fill="#C5C5C6" fill-opacity="1.000000" fill-rule="evenodd"/>
	</g>
</svg>
