<svg width="24.000000" height="24.000000" viewBox="0 0 24 24" fill="none" xmlns="http://www.w3.org/2000/svg"
>
    <desc>
        Created with Pixso.
    </desc>
    <defs>
        <filter id="filter_438_3804_dd" x="12.000000" y="0.000000" width="12.000000" height="12.000000"
                filterUnits="userSpaceOnUse" color-interpolation-filters="sRGB">
            <feFlood flood-opacity="0" result="BackgroundImageFix"/>
            <feColorMatrix in="SourceAlpha" type="matrix" values="0 0 0 0 0 0 0 0 0 0 0 0 0 0 0 0 0 0 127 0"
                           result="hardAlpha"/>
            <feOffset dx="0" dy="0"/>
            <feGaussianBlur stdDeviation="0.333333"/>
            <feComposite in2="hardAlpha" operator="out" k2="-1" k3="1"/>
            <feColorMatrix type="matrix" values="0 0 0 0 1 0 0 0 0 0 0 0 0 0 0 0 0 0 0.43 0"/>
            <feBlend mode="normal" in2="BackgroundImageFix" result="effect_dropShadow_1"/>
            <feColorMatrix in="SourceAlpha" type="matrix" values="0 0 0 0 0 0 0 0 0 0 0 0 0 0 0 0 0 0 127 0"
                           result="hardAlpha"/>
            <feOffset dx="0" dy="0"/>
            <feGaussianBlur stdDeviation="0.333333"/>
            <feComposite in2="hardAlpha" operator="out" k2="-1" k3="1"/>
            <feColorMatrix type="matrix" values="0 0 0 0 1 0 0 0 0 0 0 0 0 0 0 0 0 0 0.25 0"/>
            <feBlend mode="normal" in2="effect_dropShadow_1" result="effect_dropShadow_2"/>
            <feColorMatrix in="SourceAlpha" type="matrix" values="0 0 0 0 0 0 0 0 0 0 0 0 0 0 0 0 0 0 127 0"
                           result="hardAlpha"/>
            <feOffset dx="0" dy="0"/>
            <feGaussianBlur stdDeviation="0.333333"/>
            <feComposite in2="hardAlpha" operator="out" k2="-1" k3="1"/>
            <feColorMatrix type="matrix" values="0 0 0 0 1 0 0 0 0 0 0 0 0 0 0 0 0 0 0.071 0"/>
            <feBlend mode="normal" in2="effect_dropShadow_2" result="effect_dropShadow_3"/>
            <feColorMatrix in="SourceAlpha" type="matrix" values="0 0 0 0 0 0 0 0 0 0 0 0 0 0 0 0 0 0 127 0"
                           result="hardAlpha"/>
            <feOffset dx="-1" dy="1"/>
            <feGaussianBlur stdDeviation="0.333333"/>
            <feComposite in2="hardAlpha" operator="out" k2="-1" k3="1"/>
            <feColorMatrix type="matrix" values="0 0 0 0 1 0 0 0 0 0 0 0 0 0 0 0 0 0 0.012 0"/>
            <feBlend mode="normal" in2="effect_dropShadow_3" result="effect_dropShadow_4"/>
            <feBlend mode="normal" in="SourceGraphic" in2="effect_dropShadow_4" result="shape"/>
        </filter>
        <clipPath id="clip438_3800">
            <rect id="Icon" width="24.000000" height="24.000000" fill="white" fill-opacity="0"/>
        </clipPath>
    </defs>
    <rect id="Icon" width="24.000000" height="24.000000" fill="#FFFFFF" fill-opacity="0"/>
    <g clip-path="url(#clip438_3800)">
        <path id="Vector"
              d="M8.18 3.73C9.3 2.73 10.75 2.18 12.25 2.18C13.75 2.18 15.19 2.73 16.31 3.73C17.43 4.73 18.14 6.11 18.3 7.6L18.58 10.07L18.58 10.13C18.72 11.36 19.12 12.54 19.75 13.6L19.79 13.66L20.42 14.71C20.99 15.66 21.28 16.14 21.21 16.53C21.17 16.79 21.04 17.03 20.84 17.19C20.53 17.45 19.98 17.45 18.86 17.45L5.62 17.45C4.51 17.45 3.96 17.45 3.65 17.2C3.45 17.03 3.32 16.79 3.28 16.53C3.21 16.14 3.5 15.66 4.07 14.71L4.7 13.66L4.74 13.6C5.37 12.54 5.77 11.36 5.91 10.13L5.91 10.07L6.19 7.6C6.35 6.11 7.06 4.73 8.18 3.73Z"
              stroke="#C5C5C6" stroke-opacity="1.000000" stroke-width="2.000000"/>
        <path id="Vector"
              d="M7.88 17.45C7.88 18.61 8.34 19.72 9.16 20.54C9.98 21.35 11.09 21.81 12.25 21.81C13.4 21.81 14.51 21.35 15.33 20.54C16.15 19.72 16.61 18.61 16.61 17.45"
              stroke="#C5C5C6" stroke-opacity="1.000000" stroke-width="2.000000" stroke-linecap="round"/>
    </g>
</svg>
