<svg width="48.000000" height="48.000000" viewBox="0 0 48 48" fill="none" xmlns="http://www.w3.org/2000/svg" xmlns:xlink="http://www.w3.org/1999/xlink">
	<desc>
			Created with Pixso.
	</desc>
	<defs>
		<clipPath id="clip457_5421">
			<rect id="Icon" width="48.000000" height="48.000000" fill="white" fill-opacity="0"/>
		</clipPath>
	</defs>
	<rect id="Icon" width="48.000000" height="48.000000" fill="#FFFFFF" fill-opacity="0"/>
	<g clip-path="url(#clip457_5421)">
		<path id="Vector" d="M43.12 37.33L25.64 37.33C25.41 37.33 25.19 37.24 25.03 37.08C24.87 36.91 24.78 36.69 24.78 36.46C24.78 36.23 24.87 36.01 25.03 35.85C25.19 35.69 25.41 35.6 25.64 35.6L42.27 35.6L42.27 5.66L5.68 5.66L5.68 35.66L20.65 35.66C20.88 35.66 21.1 35.75 21.26 35.92C21.43 36.08 21.52 36.3 21.52 36.53C21.52 36.76 21.43 36.98 21.26 37.14C21.1 37.3 20.88 37.4 20.65 37.4L4.86 37.4C4.63 37.39 4.41 37.3 4.25 37.14C4.09 36.97 4 36.76 4 36.53L4 4.85C4 4.63 4.09 4.41 4.25 4.25C4.41 4.09 4.63 4 4.86 4L43.12 4C43.35 4 43.57 4.09 43.73 4.25C43.9 4.41 43.99 4.63 44 4.86L44 36.53C43.95 36.74 43.85 36.93 43.69 37.07C43.53 37.22 43.33 37.31 43.12 37.33Z" fill="#69696B" fill-opacity="1.000000" fill-rule="nonzero"/>
		<path id="Vector" d="M25.64 43.99C25.41 43.99 25.19 43.9 25.03 43.74C24.87 43.58 24.78 43.36 24.78 43.13L24.78 37.26L21.48 37.26L21.48 43.12C21.48 43.35 21.39 43.57 21.22 43.73C21.06 43.9 20.84 43.99 20.61 43.99C20.38 43.99 20.16 43.9 20 43.73C19.84 43.57 19.75 43.35 19.75 43.12L19.75 36.46C19.75 36.23 19.84 36.02 20.01 35.85C20.17 35.69 20.38 35.6 20.61 35.6L25.67 35.6C25.9 35.6 26.11 35.69 26.27 35.85C26.44 36.02 26.53 36.23 26.53 36.46L26.53 43.13C26.53 43.36 26.43 43.58 26.26 43.74C26.1 43.91 25.87 44 25.64 43.99Z" fill="#69696B" fill-opacity="1.000000" fill-rule="nonzero"/>
		<path id="Vector" d="M28.17 44L18.19 44C17.96 44 17.74 43.9 17.58 43.74C17.42 43.58 17.33 43.36 17.33 43.13C17.33 42.9 17.42 42.68 17.58 42.52C17.74 42.35 17.96 42.26 18.19 42.26L28.17 42.26C28.4 42.27 28.61 42.36 28.78 42.52C28.94 42.68 29.03 42.9 29.03 43.13C29.01 43.35 28.91 43.55 28.75 43.71C28.59 43.87 28.39 43.97 28.17 44Z" fill="#69696B" fill-opacity="1.000000" fill-rule="nonzero"/>
		<path id="Vector" d="M42.93 32.33L4.86 32.33C4.64 32.31 4.44 32.21 4.29 32.05C4.15 31.89 4.06 31.68 4.06 31.46C4.06 31.24 4.15 31.03 4.29 30.87C4.44 30.71 4.64 30.61 4.86 30.59L42.91 30.59C43.12 30.61 43.33 30.71 43.47 30.87C43.62 31.03 43.7 31.24 43.7 31.46C43.7 31.68 43.62 31.89 43.47 32.05C43.33 32.21 43.12 32.31 42.91 32.33L42.93 32.33Z" fill="#69696B" fill-opacity="1.000000" fill-rule="nonzero"/>
		<path id="Vector" d="M11.34 27.34C11.18 27.32 11.02 27.28 10.88 27.21C10.72 27.12 10.6 26.97 10.54 26.8C10.48 26.63 10.48 26.44 10.54 26.27L11.94 22.4L8.16 22.4C7.93 22.4 7.71 22.31 7.55 22.15C7.39 21.99 7.3 21.77 7.29 21.54L7.29 9.86C7.3 9.63 7.39 9.41 7.55 9.25C7.71 9.09 7.93 9 8.16 8.99L26.45 8.99C26.68 9 26.9 9.09 27.06 9.25C27.22 9.41 27.31 9.63 27.32 9.86L27.32 21.53C27.31 21.75 27.22 21.97 27.06 22.13C26.9 22.3 26.68 22.39 26.45 22.39L17.66 22.39L11.94 27.19C11.75 27.27 11.54 27.32 11.34 27.34ZM9.01 20.67L13.13 20.67C13.26 20.67 13.39 20.7 13.5 20.76C13.62 20.82 13.72 20.9 13.79 21.01C13.86 21.12 13.91 21.23 13.93 21.36C13.96 21.48 13.95 21.61 13.92 21.74L13.2 23.87L16.79 20.87C16.93 20.74 17.12 20.67 17.32 20.67L25.63 20.67L25.63 10.66L9.01 10.66L9.01 20.67Z" fill="#69696B" fill-opacity="1.000000" fill-rule="nonzero"/>
		<path id="Vector" d="M15.67 18.99C15.5 18.98 15.34 18.94 15.2 18.86C15.07 18.79 14.96 18.68 14.89 18.55C14.82 18.42 14.79 18.27 14.8 18.13L14.8 13.13C14.8 12.98 14.84 12.84 14.91 12.71C14.98 12.58 15.08 12.48 15.2 12.39C15.45 12.27 15.73 12.25 16 12.33L20.98 14.86C21.12 14.92 21.24 15.03 21.33 15.16C21.41 15.29 21.46 15.44 21.46 15.59C21.46 15.75 21.41 15.9 21.33 16.03C21.24 16.16 21.12 16.26 20.98 16.33L16 18.86C15.93 18.99 15.8 18.99 15.67 18.99ZM16.53 14.53L16.53 16.86L18.85 15.73L16.53 14.53Z" fill="#69696B" fill-opacity="1.000000" fill-rule="nonzero"/>
		<path id="Vector" d="M39.83 10.66L29.83 10.66C29.6 10.66 29.38 10.57 29.22 10.41C29.06 10.24 28.97 10.02 28.97 9.79C28.97 9.56 29.06 9.34 29.22 9.18C29.38 9.02 29.6 8.93 29.83 8.93L39.83 8.93C40.05 8.93 40.27 9.02 40.43 9.19C40.59 9.35 40.69 9.57 40.69 9.79C40.66 10.02 40.56 10.22 40.41 10.38C40.25 10.54 40.05 10.64 39.83 10.66Z" fill="#69696B" fill-opacity="1.000000" fill-rule="nonzero"/>
		<path id="Vector" d="M39.83 16.53L29.83 16.53C29.6 16.53 29.38 16.43 29.22 16.27C29.06 16.11 28.97 15.89 28.97 15.66C28.97 15.43 29.06 15.21 29.22 15.05C29.38 14.88 29.6 14.79 29.83 14.79L39.83 14.79C40.05 14.8 40.27 14.89 40.43 15.05C40.59 15.21 40.69 15.43 40.69 15.66C40.66 15.88 40.57 16.09 40.41 16.25C40.25 16.4 40.05 16.5 39.83 16.53Z" fill="#69696B" fill-opacity="1.000000" fill-rule="nonzero"/>
		<path id="Vector" d="M39.83 22.33L29.83 22.33C29.6 22.33 29.38 22.23 29.22 22.07C29.06 21.91 28.97 21.69 28.97 21.46C28.97 21.23 29.06 21.01 29.22 20.85C29.38 20.68 29.6 20.59 29.83 20.59L39.83 20.59C40.05 20.6 40.27 20.69 40.43 20.85C40.59 21.01 40.69 21.23 40.69 21.46C40.66 21.68 40.57 21.89 40.41 22.04C40.25 22.2 40.05 22.3 39.83 22.33Z" fill="#69696B" fill-opacity="1.000000" fill-rule="nonzero"/>
	</g>
</svg>
