<svg width="18" height="18" viewBox="0 0 18 18" fill="none" xmlns="http://www.w3.org/2000/svg">
<g clip-path="url(#clip0_446_387)">
<path d="M2.77734 15.0703H5.48438V6.9375H2.77734V15.0703ZM5.66016 4.42969C5.65234 4.02344 5.51172 3.6875 5.23828 3.42188C4.96484 3.15625 4.60156 3.02344 4.14844 3.02344C3.69531 3.02344 3.32617 3.15625 3.04102 3.42188C2.75586 3.6875 2.61328 4.02344 2.61328 4.42969C2.61328 4.82812 2.75195 5.16211 3.0293 5.43164C3.30664 5.70117 3.66797 5.83594 4.11328 5.83594H4.125C4.58594 5.83594 4.95703 5.70117 5.23828 5.43164C5.51953 5.16211 5.66016 4.82812 5.66016 4.42969ZM12.5156 15.0703H15.2227V10.4062C15.2227 9.20312 14.9375 8.29297 14.3672 7.67578C13.7969 7.05859 13.043 6.75 12.1055 6.75C11.043 6.75 10.2266 7.20703 9.65625 8.12109H9.67969V6.9375H6.97266C6.99609 7.45312 6.99609 10.1641 6.97266 15.0703H9.67969V10.5234C9.67969 10.2266 9.70703 10.0078 9.76172 9.86719C9.87891 9.59375 10.0547 9.36133 10.2891 9.16992C10.5234 8.97852 10.8125 8.88281 11.1562 8.88281C12.0625 8.88281 12.5156 9.49609 12.5156 10.7227V15.0703ZM18 3.375V14.625C18 15.5547 17.6699 16.3496 17.0098 17.0098C16.3496 17.6699 15.5547 18 14.625 18H3.375C2.44531 18 1.65039 17.6699 0.990234 17.0098C0.330078 16.3496 0 15.5547 0 14.625V3.375C0 2.44531 0.330078 1.65039 0.990234 0.990234C1.65039 0.330078 2.44531 0 3.375 0H14.625C15.5547 0 16.3496 0.330078 17.0098 0.990234C17.6699 1.65039 18 2.44531 18 3.375Z" fill="#F1F1F1"/>
</g>
<defs>
<clipPath id="clip0_446_387">
<rect width="18" height="18" fill="white"/>
</clipPath>
</defs>
</svg>
