<svg width="20" height="20" viewBox="0 0 20 20" fill="none" xmlns="http://www.w3.org/2000/svg">
<path d="M17.2525 2.22017L17.7816 2.756C18.75 3.75013 18.2233 4.26822 17.5 4.99989L8.33329 14.1666L5.55329 15.5377C5.36179 15.5913 5.15684 15.5667 4.98343 15.4694C4.81001 15.3721 4.68229 15.2099 4.62829 15.0185C4.58811 14.8809 4.58753 14.7348 4.62663 14.5968L5.83329 11.6666L15 2.50039C15.1726 2.32652 15.6091 1.96205 15.9812 1.80811C16.1544 1.73646 16.5986 1.54833 17.2525 2.22017ZM7.65329 3.181C8.06663 3.181 8.40163 3.52017 8.40163 3.9385C8.40228 4.03739 8.38344 4.13544 8.34618 4.22705C8.30892 4.31865 8.25397 4.40201 8.18447 4.47236C8.11497 4.54272 8.03228 4.59868 7.94114 4.63705C7.85 4.67543 7.75218 4.69546 7.65329 4.696H4.65996C3.83329 4.696 3.16329 5.37433 3.16329 6.21017V15.2985C3.16329 16.1352 3.83329 16.8135 4.65996 16.8135H13.64C14.4666 16.8135 15.1375 16.1352 15.1375 15.2985V12.2693C15.1375 11.851 15.4725 11.5118 15.8858 11.5118C16.2991 11.5118 16.6341 11.851 16.6341 12.2702V15.2985C16.6341 16.9718 15.2933 18.3285 13.64 18.3285H4.65996C3.00663 18.3285 1.66663 16.9718 1.66663 15.2985V6.21017C1.66663 4.53767 3.00663 3.181 4.65996 3.181H7.65329Z" fill="#F1F1F1" fill-opacity="0.5"/>
</svg>
