<svg width="525" height="283" viewBox="0 0 525 283" fill="none" xmlns="http://www.w3.org/2000/svg">
<path opacity="0.4" d="M525 145.5C525 221.439 463.439 283 387.5 283C311.561 283 250 221.439 250 145.5C250 69.5608 311.561 8 387.5 8C463.439 8 525 69.5608 525 145.5Z" fill="url(#paint0_radial_16010_2302)"/>
<path d="M260 130C260 201.797 201.797 260 130 260C58.203 260 0 201.797 0 130C0 58.203 58.203 0 130 0C201.797 0 260 58.203 260 130Z" fill="url(#paint1_radial_16010_2302)"/>
<defs>
<radialGradient id="paint0_radial_16010_2302" cx="0" cy="0" r="1" gradientUnits="userSpaceOnUse" gradientTransform="translate(387.5 145.5) rotate(90) scale(137.5)">
<stop stop-color="#D98D00"/>
<stop offset="1" stop-color="#735100" stop-opacity="0"/>
</radialGradient>
<radialGradient id="paint1_radial_16010_2302" cx="0" cy="0" r="1" gradientUnits="userSpaceOnUse" gradientTransform="translate(130.593 142.5) rotate(90) scale(130)">
<stop stop-color="#5900D9"/>
<stop offset="1" stop-color="#2F0073" stop-opacity="0"/>
</radialGradient>
</defs>
</svg>
