<svg width="160" height="68" viewBox="0 0 160 68" fill="none" xmlns="http://www.w3.org/2000/svg">
<g filter="url(#filter0_d_12053_63560)">
<path d="M134.188 16.5288H134.202C140.55 16.5288 145.695 21.2634 145.695 27.1039V42.9537C145.695 48.7942 140.55 53.5288 134.202 53.5288H134.188C127.841 53.5288 122.695 48.7942 122.695 42.9537V27.1039C122.695 21.2634 127.841 16.5288 134.188 16.5288Z" fill="#6853AC"/>
</g>
<g filter="url(#filter1_d_12053_63560)">
<path d="M38.2629 9.76623L38.2741 9.77556C43.4201 14.0648 44.1439 21.3828 39.8905 26.1207L28.3478 38.9787C24.0945 43.7166 16.4748 44.0804 11.3288 39.7911L11.3176 39.7817C6.17152 35.4925 5.44782 28.1744 9.70114 23.4365L21.2439 10.5786C25.4972 5.8406 33.1168 5.47695 38.2629 9.76623Z" fill="#6853AC"/>
</g>
<defs>
<filter id="filter0_d_12053_63560" x="116.695" y="10.5288" width="43" height="57" filterUnits="userSpaceOnUse" color-interpolation-filters="sRGB">
<feFlood flood-opacity="0" result="BackgroundImageFix"/>
<feColorMatrix in="SourceAlpha" type="matrix" values="0 0 0 0 0 0 0 0 0 0 0 0 0 0 0 0 0 0 127 0" result="hardAlpha"/>
<feOffset dx="4" dy="4"/>
<feGaussianBlur stdDeviation="5"/>
<feComposite in2="hardAlpha" operator="out"/>
<feColorMatrix type="matrix" values="0 0 0 0 0 0 0 0 0 0 0 0 0 0 0 0 0 0 0.25 0"/>
<feBlend mode="normal" in2="BackgroundImageFix" result="effect1_dropShadow_12053_63560"/>
<feBlend mode="normal" in="SourceGraphic" in2="effect1_dropShadow_12053_63560" result="shape"/>
</filter>
<filter id="filter1_d_12053_63560" x="0.930176" y="0.772949" width="55.7314" height="56.0117" filterUnits="userSpaceOnUse" color-interpolation-filters="sRGB">
<feFlood flood-opacity="0" result="BackgroundImageFix"/>
<feColorMatrix in="SourceAlpha" type="matrix" values="0 0 0 0 0 0 0 0 0 0 0 0 0 0 0 0 0 0 127 0" result="hardAlpha"/>
<feOffset dx="4" dy="4"/>
<feGaussianBlur stdDeviation="5"/>
<feComposite in2="hardAlpha" operator="out"/>
<feColorMatrix type="matrix" values="0 0 0 0 0 0 0 0 0 0 0 0 0 0 0 0 0 0 0.25 0"/>
<feBlend mode="normal" in2="BackgroundImageFix" result="effect1_dropShadow_12053_63560"/>
<feBlend mode="normal" in="SourceGraphic" in2="effect1_dropShadow_12053_63560" result="shape"/>
</filter>
</defs>
</svg>
