<svg width="236" height="320" viewBox="0 0 236 320" fill="none" xmlns="http://www.w3.org/2000/svg">
<g filter="url(#filter0_d_12053_63544)">
<path d="M91.2861 236.35H135.115C141.449 236.35 146.626 242.478 146.626 249.955V292.268C146.626 299.745 141.449 305.873 135.115 305.873C129.387 305.873 124.733 300.375 124.733 293.602V293.059C124.733 286.271 120.684 280.157 115.011 279.16C107.947 277.914 101.806 284.424 101.806 292.561V293.426C101.806 300.302 97.0969 305.873 91.2861 305.873C84.952 305.873 79.7746 299.745 79.7746 292.268V249.955C79.7746 242.478 84.952 236.35 91.2861 236.35Z" fill="#6853AC"/>
</g>
<path d="M12.4001 141.549L223.749 165.558C228.929 166.147 232.68 171.095 232.128 176.61L231.108 186.786C230.555 192.301 225.908 196.295 220.728 195.706L9.37905 171.697C4.19917 171.109 0.448081 166.16 1.00074 160.645L2.02039 150.469C2.57305 144.954 7.22017 140.96 12.4001 141.549Z" fill="#D9BDDC"/>
<g filter="url(#filter1_d_12053_63544)">
<path d="M59.358 237.434L144.234 247.081C176.221 250.717 212.504 228.945 215.919 194.887L220.725 146.945C224.14 112.887 200.759 82.0543 168.772 78.4183L83.8955 68.7712C51.9086 65.1352 22.9509 90.0299 19.536 124.088L14.7304 172.03C11.3155 206.088 27.3848 233.798 59.358 237.434Z" fill="#6853AC"/>
</g>
<path opacity="0.8" d="M106.5 11.3571C115.509 11.3443 129.34 13.4867 126.315 26.6161C122.923 41.3685 100.589 25.5269 95.6705 40.752C87.4983 66.1131 135.41 59.0266 149.183 64.2639C182.881 77.0596 175.401 130.549 141.249 131.166C132.939 131.313 100.59 128.409 93.0213 126.333C82.5632 123.446 83.6336 105.845 94.8633 105.197C108.023 104.444 128.969 111.348 141.346 109.48C150.376 108.125 153.953 94.9954 147.506 88.0243C136.04 75.6449 98.8225 91.0098 81.0315 65.8406C64.923 43.0434 79.9843 11.3865 106.486 11.3542L106.5 11.3571Z" fill="#6853AC"/>
<path opacity="0.8" d="M148.294 14.1377C164.085 13.7708 163.797 37.5227 149.862 37.4728C134.937 37.4185 134.792 14.4467 148.294 14.1377Z" fill="#6853AC"/>
<path d="M100.286 87.3215L149.207 92.879C181.323 96.5273 204.579 127.205 201.153 161.4L199.425 178.646C195.998 212.841 167.186 237.604 135.071 233.955L86.1494 228.398C54.0342 224.749 30.7773 194.072 34.2038 159.877L35.932 142.631C39.3584 108.436 68.1707 83.6732 100.286 87.3215Z" fill="#191320"/>
<path d="M58.684 155.883C57.6788 165.868 64.481 174.826 73.8582 175.896C83.2353 176.966 91.6486 169.723 92.6538 159.739L75.6758 157.804L58.6978 155.869L58.684 155.883Z" fill="#D9BDDC"/>
<path d="M140.098 165.758C139.093 175.743 145.895 184.701 155.272 185.771C164.649 186.841 173.063 179.599 174.068 169.614L157.09 167.679L140.112 165.744L140.098 165.758Z" fill="#D9BDDC"/>
<path d="M121.886 189.066C120.73 193.083 113.473 196.206 109.397 195.751C105.321 195.297 102.264 191.807 101.92 187.629L121.872 189.066H121.886Z" fill="#D9BDDC"/>
<defs>
<filter id="filter0_d_12053_63544" x="73.7747" y="230.35" width="86.8518" height="89.5234" filterUnits="userSpaceOnUse" color-interpolation-filters="sRGB">
<feFlood flood-opacity="0" result="BackgroundImageFix"/>
<feColorMatrix in="SourceAlpha" type="matrix" values="0 0 0 0 0 0 0 0 0 0 0 0 0 0 0 0 0 0 127 0" result="hardAlpha"/>
<feOffset dx="4" dy="4"/>
<feGaussianBlur stdDeviation="5"/>
<feComposite in2="hardAlpha" operator="out"/>
<feColorMatrix type="matrix" values="0 0 0 0 0 0 0 0 0 0 0 0 0 0 0 0 0 0 0.25 0"/>
<feBlend mode="normal" in2="BackgroundImageFix" result="effect1_dropShadow_12053_63544"/>
<feBlend mode="normal" in="SourceGraphic" in2="effect1_dropShadow_12053_63544" result="shape"/>
</filter>
<filter id="filter1_d_12053_63544" x="8.27905" y="62.4185" width="226.777" height="199.058" filterUnits="userSpaceOnUse" color-interpolation-filters="sRGB">
<feFlood flood-opacity="0" result="BackgroundImageFix"/>
<feColorMatrix in="SourceAlpha" type="matrix" values="0 0 0 0 0 0 0 0 0 0 0 0 0 0 0 0 0 0 127 0" result="hardAlpha"/>
<feOffset dx="4" dy="4"/>
<feGaussianBlur stdDeviation="5"/>
<feComposite in2="hardAlpha" operator="out"/>
<feColorMatrix type="matrix" values="0 0 0 0 0 0 0 0 0 0 0 0 0 0 0 0 0 0 0.25 0"/>
<feBlend mode="normal" in2="BackgroundImageFix" result="effect1_dropShadow_12053_63544"/>
<feBlend mode="normal" in="SourceGraphic" in2="effect1_dropShadow_12053_63544" result="shape"/>
</filter>
</defs>
</svg>
