<svg width="256" height="305" viewBox="0 0 256 305" fill="none" xmlns="http://www.w3.org/2000/svg">
<path d="M241.883 135.877L10.2779 160.588C4.60157 161.194 0.49095 166.286 1.09657 171.962L2.21395 182.435C2.81958 188.112 7.9121 192.222 13.5884 191.617L245.194 166.906C250.87 166.301 254.98 161.208 254.375 155.532L253.257 145.059C252.652 139.382 247.559 135.272 241.883 135.877Z" fill="#D9BDDC"/>
<path d="M155.433 233.446H107.403C100.462 233.446 94.7886 239.754 94.7886 247.449V290.997C94.7886 298.693 100.462 305 107.403 305C113.68 305 118.781 299.342 118.781 292.37V291.812C118.781 284.826 123.217 278.533 129.434 277.507C137.175 276.225 143.904 282.924 143.904 291.299V292.189C143.904 299.266 149.065 305 155.433 305C162.374 305 168.047 298.693 168.047 290.997V247.449C168.047 239.754 162.374 233.446 155.433 233.446Z" fill="#6853AC"/>
<g filter="url(#filter0_d_12283_61695)">
<path d="M190.425 234.563L97.414 244.492C62.3614 248.234 22.6009 225.826 18.8587 190.774L13.5925 141.431C9.85034 106.379 35.4721 74.6458 70.5247 70.9037L163.536 60.9748C198.588 57.2327 230.321 82.8544 234.063 117.907L239.33 167.249C243.072 202.302 225.462 230.821 190.425 234.563Z" fill="#6853AC"/>
</g>
<path opacity="0.8" d="M92.495 5.97356C102.092 3.99685 117.226 3.16695 116.442 17.2152C115.567 32.9987 88.8283 21.7118 86.414 38.3101C82.4153 65.9538 132.15 48.2842 147.798 50.6231C186.079 56.3268 188.041 112.505 151.766 120.577C142.939 122.539 107.931 126.628 99.4814 126.16C87.8022 125.497 85.6746 107.314 97.5197 104.205C111.402 100.569 135.002 103.044 147.843 98.4413C157.213 95.0915 158.586 80.9225 150.423 75.2187C135.907 65.0938 99.1041 88.8746 75.4742 67.0855C54.0774 47.3486 64.2477 11.783 92.4799 5.97356H92.495Z" fill="#6853AC"/>
<path opacity="0.8" d="M137.386 0.40588C154.15 -3.41173 158.254 20.8821 143.391 23.8698C127.472 27.0688 123.051 3.66518 137.386 0.40588Z" fill="#6853AC"/>
<path d="M145.906 80.3638L92.2957 86.0836C57.1025 89.8384 31.6167 121.412 35.3715 156.605L37.2653 174.355C41.0202 209.549 72.5938 235.034 107.787 231.279L161.397 225.56C196.59 221.805 222.076 190.231 218.321 155.038L216.427 137.288C212.673 102.095 181.099 76.6089 145.906 80.3638Z" fill="#191320"/>
<path d="M73.045 248.822H73.0299C66.0964 248.822 60.4756 254.443 60.4756 261.377V280.193C60.4756 287.127 66.0964 292.747 73.0299 292.747H73.045C79.9786 292.747 85.5994 287.127 85.5994 280.193V261.377C85.5994 254.443 79.9786 248.822 73.045 248.822Z" fill="#6853AC"/>
<path d="M171.998 261.436L172.003 261.45C174.134 268.048 181.21 271.669 187.808 269.538L205.714 263.755C212.312 261.624 215.933 254.548 213.802 247.95L213.797 247.935C211.666 241.337 204.59 237.716 197.992 239.847L180.086 245.631C173.488 247.762 169.867 254.838 171.998 261.436Z" fill="#6853AC"/>
<path d="M204.307 142.397C205.409 152.673 197.954 161.892 187.679 162.994C177.403 164.095 168.183 156.641 167.082 146.365L185.687 144.374L204.292 142.382L204.307 142.397Z" fill="#D9BDDC"/>
<path d="M114.058 152.748C115.16 163.024 107.705 172.243 97.4295 173.345C87.1537 174.446 77.934 166.992 76.8325 156.717L95.4377 154.725L114.043 152.733L114.058 152.748Z" fill="#D9BDDC"/>
<path d="M132.859 165.227C134.126 169.362 142.078 172.576 146.545 172.108C151.011 171.64 154.361 168.049 154.738 163.749L132.874 165.227H132.859Z" fill="#D9BDDC"/>
<defs>
<filter id="filter0_d_12283_61695" x="7.22949" y="54.6118" width="246.595" height="204.287" filterUnits="userSpaceOnUse" color-interpolation-filters="sRGB">
<feFlood flood-opacity="0" result="BackgroundImageFix"/>
<feColorMatrix in="SourceAlpha" type="matrix" values="0 0 0 0 0 0 0 0 0 0 0 0 0 0 0 0 0 0 127 0" result="hardAlpha"/>
<feOffset dx="4" dy="4"/>
<feGaussianBlur stdDeviation="5"/>
<feComposite in2="hardAlpha" operator="out"/>
<feColorMatrix type="matrix" values="0 0 0 0 0 0 0 0 0 0 0 0 0 0 0 0 0 0 0.25 0"/>
<feBlend mode="normal" in2="BackgroundImageFix" result="effect1_dropShadow_12283_61695"/>
<feBlend mode="normal" in="SourceGraphic" in2="effect1_dropShadow_12283_61695" result="shape"/>
</filter>
</defs>
</svg>
