<svg width="351" height="474" viewBox="0 0 351 474" fill="none" xmlns="http://www.w3.org/2000/svg">
<circle cx="233.5" cy="117.5" r="117.5" fill="url(#paint0_radial_16007_33565)"/>
<circle opacity="0.4" cx="110.5" cy="363.5" r="110.5" fill="url(#paint1_radial_16007_33565)"/>
<path d="M275.328 180.708H52.6723C47.1734 180.708 42.7156 185.168 42.7156 190.67V200.631C42.7156 206.132 47.1734 210.592 52.6723 210.592H275.328C280.827 210.592 285.284 206.132 285.284 200.631V190.67C285.284 185.168 280.827 180.708 275.328 180.708Z" fill="#D9BDDC"/>
<g filter="url(#filter0_d_16007_33565)">
<path d="M209.238 101.596H119.916C86.0459 101.596 58.5886 129.066 58.5886 162.952V210.304C58.5886 244.19 86.0459 271.659 119.916 271.659H209.238C243.108 271.659 270.566 244.19 270.566 210.304V162.952C270.566 129.066 243.108 101.596 209.238 101.596Z" fill="#6853AC"/>
</g>
<path d="M146.468 41.9726C155.847 41.1064 170.277 41.8282 168.113 55.1099C165.66 69.9797 141.417 56.5536 137.377 72.1452C130.739 97.9867 179.801 86.293 194.52 90.0466C230.306 99.4304 226.554 152.99 191.201 157.033C182.687 158.043 148.921 158.332 140.984 157.033C129.873 155.3 129.729 137.687 141.417 135.955C154.981 133.934 177.204 138.698 189.902 135.522C199.137 133.212 201.879 119.93 194.664 113.723C181.965 102.606 144.447 121.518 124.245 98.4198C105.919 77.4867 119.195 44.7156 146.612 41.9726H146.468Z" fill="#6853AC"/>
<path d="M189.613 41.1063C205.919 39.2295 207.362 62.7612 192.932 64.0605C177.492 65.5042 175.616 42.6943 189.613 41.1063Z" fill="#6853AC"/>
<path d="M189.613 118.054H138.098C104.228 118.054 76.7705 145.524 76.7705 179.409V196.445C76.7705 230.33 104.228 257.8 138.098 257.8H189.613C223.484 257.8 250.941 230.33 250.941 196.445V179.409C250.941 145.524 223.484 118.054 189.613 118.054Z" fill="#191320"/>
<g filter="url(#filter1_d_16007_33565)">
<path d="M186.872 271.948H140.984C134.346 271.948 128.863 277.434 128.863 284.075V321.61C128.863 328.251 134.346 333.737 140.984 333.737C147.045 333.737 151.807 328.828 151.807 322.909V322.476C151.807 316.413 155.991 311.071 162.052 310.205C169.411 309.05 175.905 314.825 175.905 322.043V322.765C175.905 328.828 180.811 333.737 186.872 333.737C193.509 333.737 198.993 328.251 198.993 321.61V284.075C198.993 277.434 193.509 271.948 186.872 271.948Z" fill="#6853AC"/>
</g>
<path d="M155.27 198.754C156.136 202.796 159.599 205.828 163.928 205.828C168.257 205.828 171.72 202.796 172.586 198.754H155.27Z" fill="#D9BDDC"/>
<path d="M149.021 126.773L188.675 140.502L185.948 148.356L156.972 138.323C156.972 138.323 151.792 162.865 164.418 174.876C177.059 186.887 162.008 186.267 162.008 186.267C162.008 186.267 136.265 163.601 149.007 126.759L149.021 126.773Z" fill="#F7A422"/>
<path d="M275.948 170.733L236.294 157.003L233.567 164.857L262.542 174.89C262.542 174.89 251.446 197.383 234.086 199.014C216.727 200.645 228.949 209.452 228.949 209.452C228.949 209.452 263.192 207.56 275.948 170.733Z" fill="#F7A422"/>
<path d="M258.242 151.301L216.569 136.864L216.107 136.706L174.433 122.269C174.433 122.269 143.307 187.422 176.713 218.864C176.713 218.864 178.343 236.232 171.835 246.207L158.618 241.631L153.48 255.129L172.802 261.828L173.264 261.987L192.6 268.685L196.9 254.898L183.683 250.322C184.736 238.469 196.742 225.823 196.742 225.823C242.427 221.781 258.242 151.33 258.242 151.33V151.301Z" fill="#FFC210"/>
<path d="M202.134 268.921L146.228 249.553L135.367 280.93L191.274 300.298L202.134 268.921Z" fill="#9F7B61"/>
<path d="M194.466 299.885L133.106 278.627L130.273 286.812L191.633 308.07L194.466 299.885Z" fill="#89633E"/>
<g filter="url(#filter2_d_16007_33565)">
<path d="M216.901 300.995C213.235 306.495 205.789 307.982 200.292 304.315L185.284 294.31C179.787 290.644 178.3 283.194 181.966 277.694C185.631 272.193 193.077 270.707 198.574 274.373L213.582 284.378C219.08 288.045 220.566 295.494 216.901 300.995Z" fill="#6853AC"/>
</g>
<g filter="url(#filter3_d_16007_33565)">
<path d="M113.827 294.411C109.512 289.402 110.061 281.837 115.068 277.506L128.719 265.711C133.726 261.395 141.287 261.943 145.616 266.953C149.931 271.962 149.382 279.527 144.375 283.858L130.724 295.653C125.717 299.97 118.156 299.421 113.827 294.411Z" fill="#6853AC"/>
</g>
<path d="M143.726 180.608C143.856 183.639 142.701 186.729 140.493 188.995L137.449 192.027L121.677 207.618L106.092 191.839L103.062 188.793C98.8195 184.505 98.805 177.417 103.076 173.043C105.154 171.065 107.708 169.953 110.306 169.838C112.903 169.722 116.424 170.863 118.69 173.072L121.72 176.118L124.765 173.086C129.05 168.697 136.136 168.827 140.508 173.1C142.485 175.179 143.596 177.735 143.711 180.333V180.622L143.726 180.608Z" fill="#D9BDDC"/>
<defs>
<filter id="filter0_d_16007_33565" x="52.5886" y="95.5959" width="231.977" height="190.063" filterUnits="userSpaceOnUse" color-interpolation-filters="sRGB">
<feFlood flood-opacity="0" result="BackgroundImageFix"/>
<feColorMatrix in="SourceAlpha" type="matrix" values="0 0 0 0 0 0 0 0 0 0 0 0 0 0 0 0 0 0 127 0" result="hardAlpha"/>
<feOffset dx="4" dy="4"/>
<feGaussianBlur stdDeviation="5"/>
<feComposite in2="hardAlpha" operator="out"/>
<feColorMatrix type="matrix" values="0 0 0 0 0 0 0 0 0 0 0 0 0 0 0 0 0 0 0.25 0"/>
<feBlend mode="normal" in2="BackgroundImageFix" result="effect1_dropShadow_16007_33565"/>
<feBlend mode="normal" in="SourceGraphic" in2="effect1_dropShadow_16007_33565" result="shape"/>
</filter>
<filter id="filter1_d_16007_33565" x="122.863" y="265.948" width="90.1299" height="81.7888" filterUnits="userSpaceOnUse" color-interpolation-filters="sRGB">
<feFlood flood-opacity="0" result="BackgroundImageFix"/>
<feColorMatrix in="SourceAlpha" type="matrix" values="0 0 0 0 0 0 0 0 0 0 0 0 0 0 0 0 0 0 127 0" result="hardAlpha"/>
<feOffset dx="4" dy="4"/>
<feGaussianBlur stdDeviation="5"/>
<feComposite in2="hardAlpha" operator="out"/>
<feColorMatrix type="matrix" values="0 0 0 0 0 0 0 0 0 0 0 0 0 0 0 0 0 0 0.25 0"/>
<feBlend mode="normal" in2="BackgroundImageFix" result="effect1_dropShadow_16007_33565"/>
<feBlend mode="normal" in="SourceGraphic" in2="effect1_dropShadow_16007_33565" result="shape"/>
</filter>
<filter id="filter2_d_16007_33565" x="173.955" y="266.362" width="58.9561" height="53.9644" filterUnits="userSpaceOnUse" color-interpolation-filters="sRGB">
<feFlood flood-opacity="0" result="BackgroundImageFix"/>
<feColorMatrix in="SourceAlpha" type="matrix" values="0 0 0 0 0 0 0 0 0 0 0 0 0 0 0 0 0 0 127 0" result="hardAlpha"/>
<feOffset dx="4" dy="4"/>
<feGaussianBlur stdDeviation="5"/>
<feComposite in2="hardAlpha" operator="out"/>
<feColorMatrix type="matrix" values="0 0 0 0 0 0 0 0 0 0 0 0 0 0 0 0 0 0 0.25 0"/>
<feBlend mode="normal" in2="BackgroundImageFix" result="effect1_dropShadow_16007_33565"/>
<feBlend mode="normal" in="SourceGraphic" in2="effect1_dropShadow_16007_33565" result="shape"/>
</filter>
<filter id="filter3_d_16007_33565" x="104.919" y="256.803" width="57.604" height="55.7588" filterUnits="userSpaceOnUse" color-interpolation-filters="sRGB">
<feFlood flood-opacity="0" result="BackgroundImageFix"/>
<feColorMatrix in="SourceAlpha" type="matrix" values="0 0 0 0 0 0 0 0 0 0 0 0 0 0 0 0 0 0 127 0" result="hardAlpha"/>
<feOffset dx="4" dy="4"/>
<feGaussianBlur stdDeviation="5"/>
<feComposite in2="hardAlpha" operator="out"/>
<feColorMatrix type="matrix" values="0 0 0 0 0 0 0 0 0 0 0 0 0 0 0 0 0 0 0.25 0"/>
<feBlend mode="normal" in2="BackgroundImageFix" result="effect1_dropShadow_16007_33565"/>
<feBlend mode="normal" in="SourceGraphic" in2="effect1_dropShadow_16007_33565" result="shape"/>
</filter>
<radialGradient id="paint0_radial_16007_33565" cx="0" cy="0" r="1" gradientUnits="userSpaceOnUse" gradientTransform="translate(233.5 117.5) rotate(90) scale(117.5)">
<stop stop-color="#5900D9"/>
<stop offset="1" stop-color="#2F0073" stop-opacity="0"/>
</radialGradient>
<radialGradient id="paint1_radial_16007_33565" cx="0" cy="0" r="1" gradientUnits="userSpaceOnUse" gradientTransform="translate(110.5 363.5) rotate(90) scale(110.5)">
<stop stop-color="#D98D00"/>
<stop offset="1" stop-color="#735100" stop-opacity="0"/>
</radialGradient>
</defs>
</svg>
