<svg width="232" height="216" viewBox="0 0 232 216" fill="none" xmlns="http://www.w3.org/2000/svg">
<g filter="url(#filter0_d_12053_63935)">
<path d="M130.755 160.728H99.9961C95.5509 160.728 91.9175 164.361 91.9175 168.806V193.921C91.9175 198.367 95.5509 202 99.9961 202C104.016 202 107.282 198.734 107.282 194.714V194.395C107.282 190.365 110.123 186.742 114.105 186.142C119.062 185.398 123.372 189.273 123.372 194.095V194.608C123.372 198.686 126.677 201.99 130.755 201.99C135.2 201.99 138.833 198.357 138.833 193.912V168.797C138.833 164.351 135.2 160.718 130.755 160.718V160.728Z" fill="#6853AC"/>
</g>
<g filter="url(#filter1_d_12053_63935)">
<path d="M103.213 6.56739C109.455 5.95859 119.148 6.46109 117.698 15.3611C116.075 25.353 99.8016 16.3468 97.1442 26.7542C92.7183 44.0807 125.593 36.2147 135.402 38.7658C159.396 44.9987 156.825 80.9079 133.169 83.5847C127.42 84.2321 104.846 84.4641 99.4924 83.5847C92.0999 82.3768 91.9743 70.6454 99.7436 69.4664C108.837 68.0942 123.699 71.2735 132.184 69.2152C138.378 67.7174 140.214 58.7884 135.402 54.6041C126.849 47.173 101.802 59.8127 88.2345 44.332C75.9523 30.3104 84.8427 8.34545 103.213 6.56739Z" fill="#6853AC"/>
<path d="M132.183 6.07457C143.113 4.78934 144.079 20.531 134.416 21.4297C124.066 22.3864 122.829 7.1762 132.183 6.07457Z" fill="#6853AC"/>
</g>
<path d="M189.962 99.6357H40.7981C37.1423 99.6357 34.1787 102.599 34.1787 106.255V113C34.1787 116.656 37.1423 119.62 40.7981 119.62H189.962C193.618 119.62 196.582 116.656 196.582 113V106.255C196.582 102.599 193.618 99.6357 189.962 99.6357Z" fill="#D9BDDC"/>
<path d="M145.298 47.5884H85.3844C62.7184 47.5884 44.344 65.9628 44.344 88.6288V120.421C44.344 143.087 62.7184 161.462 85.3844 161.462H145.298C167.964 161.462 186.338 143.087 186.338 120.421V88.6288C186.338 65.9628 167.964 47.5884 145.298 47.5884Z" fill="#6853AC"/>
<g filter="url(#filter2_d_12053_63935)">
<path d="M145.328 46.4871H85.4147C62.7487 46.4871 44.3743 64.8615 44.3743 87.5275V119.32C44.3743 141.986 62.7487 160.361 85.4147 160.361H145.328C167.994 160.361 186.368 141.986 186.368 119.32V87.5275C186.368 64.8615 167.994 46.4871 145.328 46.4871Z" fill="#6853AC"/>
</g>
<path d="M132.61 57.7642H98.0829C75.4169 57.7642 57.0425 76.1386 57.0425 98.8046V110.236C57.0425 132.902 75.4169 151.277 98.0829 151.277H132.61C155.276 151.277 173.651 132.902 173.651 110.236V98.8046C173.651 76.1386 155.276 57.7642 132.61 57.7642Z" fill="#191320"/>
<g filter="url(#filter3_d_12053_63935)">
<path d="M167.45 165.07L167.445 165.061C165.225 161.216 160.307 159.898 156.462 162.119L146.026 168.144C142.181 170.364 140.863 175.281 143.083 179.127L143.088 179.135C145.308 182.98 150.226 184.298 154.071 182.078L164.507 176.053C168.352 173.832 169.67 168.915 167.45 165.07Z" fill="#6853AC"/>
</g>
<g filter="url(#filter4_d_12053_63935)">
<path d="M85.1407 179.121L85.1456 179.113C87.3657 175.268 86.0482 170.35 82.2027 168.13L71.7669 162.105C67.9214 159.885 63.0043 161.202 60.7841 165.048L60.7793 165.056C58.5591 168.902 59.8767 173.819 63.7221 176.039L74.1579 182.064C78.0034 184.284 82.9206 182.967 85.1407 179.121Z" fill="#6853AC"/>
</g>
<path d="M106.344 111.928C107.833 114.257 110.799 115.29 113.476 114.247C116.153 113.203 117.622 110.41 117.119 107.695L106.354 111.928H106.344Z" fill="#D9BDDC"/>
<path d="M73.4308 96.1953C71.7397 98.8334 71.0729 102.119 71.846 105.405C73.3631 111.85 79.8086 115.841 86.2541 114.324C92.6996 112.807 96.2654 107.009 95.357 100.901L73.4308 96.1953Z" fill="#D9BDDC"/>
<path d="M151.183 96.1953C152.874 98.8334 153.54 102.119 152.767 105.405C151.25 111.85 144.805 115.841 138.359 114.324C132.242 112.884 128.348 107.009 129.256 100.901L151.183 96.1953Z" fill="#D9BDDC"/>
<g filter="url(#filter5_d_12053_63935)">
<path d="M214.362 160.728H9.18892C7.42773 160.728 6 162.155 6 163.916C6 165.678 7.42773 167.105 9.18892 167.105H214.362C216.123 167.105 217.551 165.678 217.551 163.916C217.551 162.155 216.123 160.728 214.362 160.728Z" fill="#3E3E40"/>
</g>
<g filter="url(#filter6_d_12053_63935)">
<path d="M22.8052 138.676H22.7956C18.3552 138.676 14.7556 142.275 14.7556 146.716V181.717C14.7556 186.157 18.3552 189.757 22.7956 189.757H22.8052C27.2456 189.757 30.8452 186.157 30.8452 181.717V146.716C30.8452 142.275 27.2456 138.676 22.8052 138.676Z" fill="#303032"/>
</g>
<g filter="url(#filter7_d_12053_63935)">
<path d="M202.524 138.676H202.514C198.074 138.676 194.474 142.275 194.474 146.716V181.717C194.474 186.157 198.074 189.757 202.514 189.757H202.524C206.964 189.757 210.564 186.157 210.564 181.717V146.716C210.564 142.275 206.964 138.676 202.524 138.676Z" fill="#303032"/>
</g>
<defs>
<filter id="filter0_d_12053_63935" x="85.9175" y="154.718" width="66.9158" height="61.282" filterUnits="userSpaceOnUse" color-interpolation-filters="sRGB">
<feFlood flood-opacity="0" result="BackgroundImageFix"/>
<feColorMatrix in="SourceAlpha" type="matrix" values="0 0 0 0 0 0 0 0 0 0 0 0 0 0 0 0 0 0 127 0" result="hardAlpha"/>
<feOffset dx="4" dy="4"/>
<feGaussianBlur stdDeviation="5"/>
<feComposite in2="hardAlpha" operator="out"/>
<feColorMatrix type="matrix" values="0 0 0 0 0 0 0 0 0 0 0 0 0 0 0 0 0 0 0.25 0"/>
<feBlend mode="normal" in2="BackgroundImageFix" result="effect1_dropShadow_12053_63935"/>
<feBlend mode="normal" in="SourceGraphic" in2="effect1_dropShadow_12053_63935" result="shape"/>
</filter>
<filter id="filter1_d_12053_63935" x="76.5645" y="0" width="89.635" height="98.1604" filterUnits="userSpaceOnUse" color-interpolation-filters="sRGB">
<feFlood flood-opacity="0" result="BackgroundImageFix"/>
<feColorMatrix in="SourceAlpha" type="matrix" values="0 0 0 0 0 0 0 0 0 0 0 0 0 0 0 0 0 0 127 0" result="hardAlpha"/>
<feOffset dx="4" dy="4"/>
<feGaussianBlur stdDeviation="5"/>
<feComposite in2="hardAlpha" operator="out"/>
<feColorMatrix type="matrix" values="0 0 0 0 0 0 0 0 0 0 0 0 0 0 0 0 0 0 0.25 0"/>
<feBlend mode="normal" in2="BackgroundImageFix" result="effect1_dropShadow_12053_63935"/>
<feBlend mode="normal" in="SourceGraphic" in2="effect1_dropShadow_12053_63935" result="shape"/>
</filter>
<filter id="filter2_d_12053_63935" x="38.3743" y="40.4871" width="161.994" height="133.874" filterUnits="userSpaceOnUse" color-interpolation-filters="sRGB">
<feFlood flood-opacity="0" result="BackgroundImageFix"/>
<feColorMatrix in="SourceAlpha" type="matrix" values="0 0 0 0 0 0 0 0 0 0 0 0 0 0 0 0 0 0 127 0" result="hardAlpha"/>
<feOffset dx="4" dy="4"/>
<feGaussianBlur stdDeviation="5"/>
<feComposite in2="hardAlpha" operator="out"/>
<feColorMatrix type="matrix" values="0 0 0 0 0 0 0 0 0 0 0 0 0 0 0 0 0 0 0.25 0"/>
<feBlend mode="normal" in2="BackgroundImageFix" result="effect1_dropShadow_12053_63935"/>
<feBlend mode="normal" in="SourceGraphic" in2="effect1_dropShadow_12053_63935" result="shape"/>
</filter>
<filter id="filter3_d_12053_63935" x="136.005" y="155.04" width="46.5232" height="42.1162" filterUnits="userSpaceOnUse" color-interpolation-filters="sRGB">
<feFlood flood-opacity="0" result="BackgroundImageFix"/>
<feColorMatrix in="SourceAlpha" type="matrix" values="0 0 0 0 0 0 0 0 0 0 0 0 0 0 0 0 0 0 127 0" result="hardAlpha"/>
<feOffset dx="4" dy="4"/>
<feGaussianBlur stdDeviation="5"/>
<feComposite in2="hardAlpha" operator="out"/>
<feColorMatrix type="matrix" values="0 0 0 0 0 0 0 0 0 0 0 0 0 0 0 0 0 0 0.25 0"/>
<feBlend mode="normal" in2="BackgroundImageFix" result="effect1_dropShadow_12053_63935"/>
<feBlend mode="normal" in="SourceGraphic" in2="effect1_dropShadow_12053_63935" result="shape"/>
</filter>
<filter id="filter4_d_12053_63935" x="53.7007" y="155.027" width="46.5234" height="42.116" filterUnits="userSpaceOnUse" color-interpolation-filters="sRGB">
<feFlood flood-opacity="0" result="BackgroundImageFix"/>
<feColorMatrix in="SourceAlpha" type="matrix" values="0 0 0 0 0 0 0 0 0 0 0 0 0 0 0 0 0 0 127 0" result="hardAlpha"/>
<feOffset dx="4" dy="4"/>
<feGaussianBlur stdDeviation="5"/>
<feComposite in2="hardAlpha" operator="out"/>
<feColorMatrix type="matrix" values="0 0 0 0 0 0 0 0 0 0 0 0 0 0 0 0 0 0 0.25 0"/>
<feBlend mode="normal" in2="BackgroundImageFix" result="effect1_dropShadow_12053_63935"/>
<feBlend mode="normal" in="SourceGraphic" in2="effect1_dropShadow_12053_63935" result="shape"/>
</filter>
<filter id="filter5_d_12053_63935" x="0" y="154.728" width="231.551" height="26.3779" filterUnits="userSpaceOnUse" color-interpolation-filters="sRGB">
<feFlood flood-opacity="0" result="BackgroundImageFix"/>
<feColorMatrix in="SourceAlpha" type="matrix" values="0 0 0 0 0 0 0 0 0 0 0 0 0 0 0 0 0 0 127 0" result="hardAlpha"/>
<feOffset dx="4" dy="4"/>
<feGaussianBlur stdDeviation="5"/>
<feComposite in2="hardAlpha" operator="out"/>
<feColorMatrix type="matrix" values="0 0 0 0 0 0 0 0 0 0 0 0 0 0 0 0 0 0 0.25 0"/>
<feBlend mode="normal" in2="BackgroundImageFix" result="effect1_dropShadow_12053_63935"/>
<feBlend mode="normal" in="SourceGraphic" in2="effect1_dropShadow_12053_63935" result="shape"/>
</filter>
<filter id="filter6_d_12053_63935" x="8.75562" y="132.676" width="36.0896" height="71.0808" filterUnits="userSpaceOnUse" color-interpolation-filters="sRGB">
<feFlood flood-opacity="0" result="BackgroundImageFix"/>
<feColorMatrix in="SourceAlpha" type="matrix" values="0 0 0 0 0 0 0 0 0 0 0 0 0 0 0 0 0 0 127 0" result="hardAlpha"/>
<feOffset dx="4" dy="4"/>
<feGaussianBlur stdDeviation="5"/>
<feComposite in2="hardAlpha" operator="out"/>
<feColorMatrix type="matrix" values="0 0 0 0 0 0 0 0 0 0 0 0 0 0 0 0 0 0 0.25 0"/>
<feBlend mode="normal" in2="BackgroundImageFix" result="effect1_dropShadow_12053_63935"/>
<feBlend mode="normal" in="SourceGraphic" in2="effect1_dropShadow_12053_63935" result="shape"/>
</filter>
<filter id="filter7_d_12053_63935" x="188.474" y="132.676" width="36.0896" height="71.0808" filterUnits="userSpaceOnUse" color-interpolation-filters="sRGB">
<feFlood flood-opacity="0" result="BackgroundImageFix"/>
<feColorMatrix in="SourceAlpha" type="matrix" values="0 0 0 0 0 0 0 0 0 0 0 0 0 0 0 0 0 0 127 0" result="hardAlpha"/>
<feOffset dx="4" dy="4"/>
<feGaussianBlur stdDeviation="5"/>
<feComposite in2="hardAlpha" operator="out"/>
<feColorMatrix type="matrix" values="0 0 0 0 0 0 0 0 0 0 0 0 0 0 0 0 0 0 0.25 0"/>
<feBlend mode="normal" in2="BackgroundImageFix" result="effect1_dropShadow_12053_63935"/>
<feBlend mode="normal" in="SourceGraphic" in2="effect1_dropShadow_12053_63935" result="shape"/>
</filter>
</defs>
</svg>
