<svg width="168" height="216" viewBox="0 0 168 216" fill="none" xmlns="http://www.w3.org/2000/svg">
<g filter="url(#filter0_d_12053_63989)">
<path d="M97.2424 160.443H66.2716C61.7957 160.443 58.1372 164.101 58.1372 168.577V193.866C58.1372 198.341 61.7957 202 66.2716 202C70.3193 202 73.608 198.711 73.608 194.664V194.342C73.608 190.285 76.4687 186.636 80.4775 186.033C85.469 185.284 89.8086 189.185 89.8086 194.041V194.556C89.8086 198.663 93.1363 201.99 97.2424 201.99C101.718 201.99 105.377 198.332 105.377 193.856V168.567C105.377 164.092 101.718 160.433 97.2424 160.433V160.443Z" fill="url(#paint0_radial_12053_63989)"/>
</g>
<g filter="url(#filter1_d_12053_63989)">
<path d="M69.7742 6.5713C76.0598 5.95831 85.8191 6.46428 84.3596 15.4257C82.725 25.4866 66.3395 16.4181 63.6637 26.8974C59.2073 44.3435 92.3091 36.4232 102.185 38.9919C126.345 45.2678 123.757 81.4248 99.9375 84.12C94.1481 84.7719 71.4186 85.0055 66.0282 84.12C58.5846 82.9038 58.4581 71.0915 66.2811 69.9044C75.4371 68.5227 90.402 71.7239 98.945 69.6514C105.182 68.1432 107.031 59.1526 102.185 54.9395C93.574 47.4571 68.3536 60.184 54.6926 44.5964C42.3257 30.4781 51.2773 8.36164 69.7742 6.5713Z" fill="#5C4998"/>
</g>
<g filter="url(#filter2_d_12053_63989)">
<path d="M98.9446 6.07508C109.949 4.78098 110.922 20.6313 101.192 21.5362C90.7713 22.4995 89.5259 7.18431 98.9446 6.07508Z" fill="#5C4998"/>
</g>
<path d="M156.859 98.9292H6.66511C2.98408 98.9292 0 101.913 0 105.594V112.386C0 116.067 2.98408 119.051 6.66511 119.051H156.859C160.54 119.051 163.524 116.067 163.524 112.386V105.594C163.524 101.913 160.54 98.9292 156.859 98.9292Z" fill="#D9BDDC"/>
<path d="M111.886 46.5232H51.5592C28.7368 46.5232 10.2356 65.0244 10.2356 87.8468V119.859C10.2356 142.681 28.7368 161.182 51.5592 161.182H111.886C134.708 161.182 153.209 142.681 153.209 119.859V87.8468C153.209 65.0244 134.708 46.5232 111.886 46.5232Z" fill="#5C4998"/>
<g filter="url(#filter3_d_12053_63989)">
<path d="M112.178 46.7664H51.852C29.0296 46.7664 10.5283 65.2676 10.5283 88.09V120.102C10.5283 142.924 29.0296 161.426 51.852 161.426H112.178C135.001 161.426 153.502 142.924 153.502 120.102V88.09C153.502 65.2676 135.001 46.7664 112.178 46.7664Z" fill="#5C4998"/>
</g>
<path d="M99.1107 56.7688H64.3451C41.5227 56.7688 23.0215 75.27 23.0215 98.0925V109.603C23.0215 132.426 41.5227 150.927 64.3451 150.927H99.1107C121.933 150.927 140.434 132.426 140.434 109.603V98.0925C140.434 75.27 121.933 56.7688 99.1107 56.7688Z" fill="#191320"/>
<g filter="url(#filter4_d_12053_63989)">
<path d="M95.6753 170.017C95.6753 172.061 94.8482 174.094 93.2136 175.573L91.0632 177.519L79.9515 187.541L69.9295 176.439L67.9932 174.289C65.2299 171.224 65.4634 166.495 68.5284 163.722C69.9587 162.428 71.749 161.795 73.5393 161.795C75.5827 161.795 77.626 162.622 79.0952 164.267L81.0315 166.407L83.1819 164.471C86.2468 161.698 90.9757 161.941 93.7487 165.006C95.0428 166.437 95.6753 168.227 95.6753 170.017Z" fill="#BA2547"/>
</g>
<g filter="url(#filter5_d_12053_63989)">
<path d="M75.8567 175.651V175.641C75.8567 171.17 72.2322 167.546 67.7613 167.546H55.6278C51.1569 167.546 47.5324 171.17 47.5324 175.641V175.651C47.5324 180.122 51.1569 183.746 55.6278 183.746H67.7613C72.2322 183.746 75.8567 180.122 75.8567 175.651Z" fill="url(#paint1_radial_12053_63989)"/>
</g>
<g filter="url(#filter6_d_12053_63989)">
<path d="M112.694 175.651V175.641C112.694 171.17 109.07 167.546 104.599 167.546H92.4652C87.9943 167.546 84.3698 171.17 84.3698 175.641V175.651C84.3698 180.122 87.9943 183.746 92.4652 183.746H104.599C109.07 183.746 112.694 180.122 112.694 175.651Z" fill="url(#paint2_radial_12053_63989)"/>
</g>
<path d="M74.2507 108.718C74.7859 111.452 77.1892 113.515 80.079 113.515C82.9689 113.515 85.3722 111.452 85.9074 108.718H74.2605H74.2507Z" fill="#D9BDDC"/>
<path d="M99.3733 111.364L99.9279 105.448L96.1137 100.885C94.8488 99.3671 95.6369 97.0611 97.5635 96.6232L103.363 95.3194L106.525 90.289C107.576 88.6154 110.018 88.6543 111.02 90.3474L114.046 95.4654L119.816 96.9152C121.733 97.3919 122.453 99.7271 121.149 101.206L117.218 105.672L117.617 111.608C117.753 113.573 115.759 114.984 113.939 114.205L108.481 111.851L102.964 114.069C101.134 114.809 99.1787 113.34 99.3636 111.374L99.3733 111.364Z" fill="#D9BDDC"/>
<path d="M42.1995 111.364L42.7541 105.448L38.9399 100.885C37.675 99.3671 38.4631 97.0611 40.3897 96.6232L46.1888 95.3194L49.3511 90.289C50.4019 88.6154 52.8442 88.6543 53.8464 90.3474L56.8724 95.4654L62.6424 96.9152C64.5592 97.3919 65.2792 99.7271 63.9754 101.206L60.0444 105.672L60.4434 111.608C60.5796 113.573 58.5849 114.984 56.7654 114.205L51.3068 111.851L45.7899 114.069C43.9606 114.809 42.0049 113.34 42.1897 111.374L42.1995 111.364Z" fill="#D9BDDC"/>
<defs>
<filter id="filter0_d_12053_63989" x="52.1372" y="154.433" width="67.2395" height="61.5669" filterUnits="userSpaceOnUse" color-interpolation-filters="sRGB">
<feFlood flood-opacity="0" result="BackgroundImageFix"/>
<feColorMatrix in="SourceAlpha" type="matrix" values="0 0 0 0 0 0 0 0 0 0 0 0 0 0 0 0 0 0 127 0" result="hardAlpha"/>
<feOffset dx="4" dy="4"/>
<feGaussianBlur stdDeviation="5"/>
<feComposite in2="hardAlpha" operator="out"/>
<feColorMatrix type="matrix" values="0 0 0 0 0 0 0 0 0 0 0 0 0 0 0 0 0 0 0.25 0"/>
<feBlend mode="normal" in2="BackgroundImageFix" result="effect1_dropShadow_12053_63989"/>
<feBlend mode="normal" in="SourceGraphic" in2="effect1_dropShadow_12053_63989" result="shape"/>
</filter>
<filter id="filter1_d_12053_63989" x="42.9834" y="0.391602" width="90.1157" height="98.3081" filterUnits="userSpaceOnUse" color-interpolation-filters="sRGB">
<feFlood flood-opacity="0" result="BackgroundImageFix"/>
<feColorMatrix in="SourceAlpha" type="matrix" values="0 0 0 0 0 0 0 0 0 0 0 0 0 0 0 0 0 0 127 0" result="hardAlpha"/>
<feOffset dx="4" dy="4"/>
<feGaussianBlur stdDeviation="5"/>
<feComposite in2="hardAlpha" operator="out"/>
<feColorMatrix type="matrix" values="0 0 0 0 0 0 0 0 0 0 0 0 0 0 0 0 0 0 0.25 0"/>
<feBlend mode="normal" in2="BackgroundImageFix" result="effect1_dropShadow_12053_63989"/>
<feBlend mode="normal" in="SourceGraphic" in2="effect1_dropShadow_12053_63989" result="shape"/>
</filter>
<filter id="filter2_d_12053_63989" x="86.571" y="0" width="35.3198" height="35.5798" filterUnits="userSpaceOnUse" color-interpolation-filters="sRGB">
<feFlood flood-opacity="0" result="BackgroundImageFix"/>
<feColorMatrix in="SourceAlpha" type="matrix" values="0 0 0 0 0 0 0 0 0 0 0 0 0 0 0 0 0 0 127 0" result="hardAlpha"/>
<feOffset dx="4" dy="4"/>
<feGaussianBlur stdDeviation="5"/>
<feComposite in2="hardAlpha" operator="out"/>
<feColorMatrix type="matrix" values="0 0 0 0 0 0 0 0 0 0 0 0 0 0 0 0 0 0 0.25 0"/>
<feBlend mode="normal" in2="BackgroundImageFix" result="effect1_dropShadow_12053_63989"/>
<feBlend mode="normal" in="SourceGraphic" in2="effect1_dropShadow_12053_63989" result="shape"/>
</filter>
<filter id="filter3_d_12053_63989" x="4.52832" y="40.7664" width="162.974" height="134.659" filterUnits="userSpaceOnUse" color-interpolation-filters="sRGB">
<feFlood flood-opacity="0" result="BackgroundImageFix"/>
<feColorMatrix in="SourceAlpha" type="matrix" values="0 0 0 0 0 0 0 0 0 0 0 0 0 0 0 0 0 0 127 0" result="hardAlpha"/>
<feOffset dx="4" dy="4"/>
<feGaussianBlur stdDeviation="5"/>
<feComposite in2="hardAlpha" operator="out"/>
<feColorMatrix type="matrix" values="0 0 0 0 0 0 0 0 0 0 0 0 0 0 0 0 0 0 0.25 0"/>
<feBlend mode="normal" in2="BackgroundImageFix" result="effect1_dropShadow_12053_63989"/>
<feBlend mode="normal" in="SourceGraphic" in2="effect1_dropShadow_12053_63989" result="shape"/>
</filter>
<filter id="filter4_d_12053_63989" x="60.0657" y="155.795" width="49.6096" height="45.7458" filterUnits="userSpaceOnUse" color-interpolation-filters="sRGB">
<feFlood flood-opacity="0" result="BackgroundImageFix"/>
<feColorMatrix in="SourceAlpha" type="matrix" values="0 0 0 0 0 0 0 0 0 0 0 0 0 0 0 0 0 0 127 0" result="hardAlpha"/>
<feOffset dx="4" dy="4"/>
<feGaussianBlur stdDeviation="5"/>
<feComposite in2="hardAlpha" operator="out"/>
<feColorMatrix type="matrix" values="0 0 0 0 0 0 0 0 0 0 0 0 0 0 0 0 0 0 0.25 0"/>
<feBlend mode="normal" in2="BackgroundImageFix" result="effect1_dropShadow_12053_63989"/>
<feBlend mode="normal" in="SourceGraphic" in2="effect1_dropShadow_12053_63989" result="shape"/>
</filter>
<filter id="filter5_d_12053_63989" x="41.5325" y="161.546" width="48.3242" height="36.2007" filterUnits="userSpaceOnUse" color-interpolation-filters="sRGB">
<feFlood flood-opacity="0" result="BackgroundImageFix"/>
<feColorMatrix in="SourceAlpha" type="matrix" values="0 0 0 0 0 0 0 0 0 0 0 0 0 0 0 0 0 0 127 0" result="hardAlpha"/>
<feOffset dx="4" dy="4"/>
<feGaussianBlur stdDeviation="5"/>
<feComposite in2="hardAlpha" operator="out"/>
<feColorMatrix type="matrix" values="0 0 0 0 0 0 0 0 0 0 0 0 0 0 0 0 0 0 0.25 0"/>
<feBlend mode="normal" in2="BackgroundImageFix" result="effect1_dropShadow_12053_63989"/>
<feBlend mode="normal" in="SourceGraphic" in2="effect1_dropShadow_12053_63989" result="shape"/>
</filter>
<filter id="filter6_d_12053_63989" x="78.3699" y="161.546" width="48.3242" height="36.2007" filterUnits="userSpaceOnUse" color-interpolation-filters="sRGB">
<feFlood flood-opacity="0" result="BackgroundImageFix"/>
<feColorMatrix in="SourceAlpha" type="matrix" values="0 0 0 0 0 0 0 0 0 0 0 0 0 0 0 0 0 0 127 0" result="hardAlpha"/>
<feOffset dx="4" dy="4"/>
<feGaussianBlur stdDeviation="5"/>
<feComposite in2="hardAlpha" operator="out"/>
<feColorMatrix type="matrix" values="0 0 0 0 0 0 0 0 0 0 0 0 0 0 0 0 0 0 0.25 0"/>
<feBlend mode="normal" in2="BackgroundImageFix" result="effect1_dropShadow_12053_63989"/>
<feBlend mode="normal" in="SourceGraphic" in2="effect1_dropShadow_12053_63989" result="shape"/>
</filter>
<radialGradient id="paint0_radial_12053_63989" cx="0" cy="0" r="1" gradientUnits="userSpaceOnUse" gradientTransform="translate(81.7521 181.217) scale(22.243 22.243)">
<stop stop-color="#5C4998"/>
<stop offset="0.57" stop-color="#5B4895"/>
<stop offset="0.83" stop-color="#58468E"/>
<stop offset="1" stop-color="#554384"/>
</radialGradient>
<radialGradient id="paint1_radial_12053_63989" cx="0" cy="0" r="1" gradientUnits="userSpaceOnUse" gradientTransform="translate(61.6897 175.651) scale(11.5302 11.5302)">
<stop stop-color="#5C4998"/>
<stop offset="0.85" stop-color="#5C4998"/>
<stop offset="1" stop-color="#5C4998"/>
</radialGradient>
<radialGradient id="paint2_radial_12053_63989" cx="0" cy="0" r="1" gradientUnits="userSpaceOnUse" gradientTransform="translate(98.5271 175.651) scale(11.5302 11.5301)">
<stop stop-color="#5C4998"/>
<stop offset="0.85" stop-color="#5C4998"/>
<stop offset="1" stop-color="#5C4998"/>
</radialGradient>
</defs>
</svg>
