<svg width="400" height="497" viewBox="0 0 400 497" fill="none" xmlns="http://www.w3.org/2000/svg">
<path d="M383.581 230.478H16.4188C7.35095 230.478 0 237.835 0 246.911V263.345C0 272.421 7.35095 279.779 16.4188 279.779H383.581C392.649 279.779 400 272.421 400 263.345V246.911C400 237.835 392.649 230.478 383.581 230.478Z" fill="#D9BDDC"/>
<g filter="url(#filter0_d_14557_3903)">
<path d="M274.598 99.9602H127.305C71.4524 99.9602 26.1748 145.279 26.1748 201.183V279.303C26.1748 335.206 71.4524 380.525 127.305 380.525H274.598C330.451 380.525 375.729 335.206 375.729 279.303V201.183C375.729 145.279 330.451 99.9602 274.598 99.9602Z" fill="#6853AC"/>
</g>
<path d="M171.089 1.59574C186.556 0.166719 210.351 1.35757 206.782 23.2693C202.736 47.8008 162.76 25.651 156.097 51.3734C145.152 94.0059 226.056 74.7141 250.327 80.9065C309.34 96.3876 303.153 184.749 244.854 191.418C230.815 193.085 175.134 193.561 162.046 191.418C143.724 188.56 143.486 159.503 162.76 156.645C185.128 153.31 221.773 161.17 242.713 155.93C257.942 152.12 262.463 130.208 250.565 119.967C229.625 101.627 167.757 132.828 134.444 94.7204C104.224 60.1857 126.115 6.12098 171.326 1.59574H171.089Z" fill="#6853AC"/>
<path d="M242.237 0.16667C269.126 -2.92955 271.505 35.8923 247.71 38.0358C222.249 40.4175 219.155 2.78655 242.237 0.16667Z" fill="#6853AC"/>
<path d="M242.237 127.112H157.288C101.435 127.112 56.1572 172.43 56.1572 228.334V256.438C56.1572 312.342 101.435 357.661 157.288 357.661H242.237C298.09 357.661 343.367 312.342 343.367 256.438V228.334C343.367 172.43 298.09 127.112 242.237 127.112Z" fill="#191320"/>
<g filter="url(#filter1_d_14557_3903)">
<path d="M237.715 381.001H162.046C151.1 381.001 142.058 390.052 142.058 401.008V462.932C142.058 473.888 151.1 482.938 162.046 482.938C172.04 482.938 179.893 474.841 179.893 465.076V464.361C179.893 454.358 186.793 445.546 196.787 444.117C208.923 442.211 219.631 451.738 219.631 463.647V464.837C219.631 474.841 227.721 482.938 237.715 482.938C248.661 482.938 257.704 473.888 257.704 462.932V401.008C257.704 390.052 248.661 381.001 237.715 381.001Z" fill="#6853AC"/>
</g>
<path d="M185.604 260.249C187.032 266.918 192.743 271.919 199.881 271.919C207.02 271.919 212.731 266.918 214.158 260.249H185.604Z" fill="#D9BDDC"/>
<path d="M175.301 141.497L240.69 164.147L236.193 177.104L188.412 160.551C188.412 160.551 179.869 201.04 200.69 220.856C221.535 240.671 196.717 239.647 196.717 239.647C196.717 239.647 154.266 202.254 175.277 141.473L175.301 141.497Z" fill="#F7A422"/>
<path d="M384.605 214.02L319.215 191.37L314.718 204.326L362.499 220.879C362.499 220.879 344.2 257.986 315.574 260.678C286.949 263.369 307.103 277.897 307.103 277.897C307.103 277.897 363.57 274.777 384.605 214.02Z" fill="#F7A422"/>
<path d="M355.408 181.962L286.687 158.145L285.925 157.883L217.204 134.066C217.204 134.066 165.878 241.553 220.964 293.426C220.964 293.426 223.653 322.078 212.921 338.536L191.124 330.986L182.653 353.255L214.515 364.306L215.277 364.568L247.163 375.619L254.254 352.873L232.457 345.323C234.194 325.77 253.992 304.906 253.992 304.906C329.328 298.237 355.408 182.01 355.408 182.01V181.962Z" fill="#FFC210"/>
<path d="M262.883 376.008L170.693 344.056L152.785 395.819L244.975 427.772L262.883 376.008Z" fill="#9F7B61"/>
<path d="M250.24 427.091L149.056 392.021L144.384 405.524L245.568 440.594L250.24 427.091Z" fill="#89633E"/>
<g filter="url(#filter2_d_14557_3903)">
<path d="M287.234 428.921C281.19 437.996 268.911 440.449 259.845 434.399L235.098 417.894C226.032 411.845 223.581 399.555 229.625 390.481C235.669 381.406 247.948 378.953 257.014 385.003L281.761 401.508C290.827 407.557 293.278 419.847 287.234 428.921Z" fill="#6853AC"/>
</g>
<g filter="url(#filter3_d_14557_3903)">
<path d="M117.263 418.061C110.149 409.796 111.053 397.316 119.31 390.171L141.82 370.712C150.077 363.591 162.546 364.496 169.685 372.761C176.799 381.025 175.895 393.505 167.638 400.65L145.128 420.109C136.871 427.23 124.402 426.325 117.263 418.061Z" fill="#6853AC"/>
</g>
<path d="M166.567 230.311C166.782 235.312 164.878 240.409 161.237 244.149L156.216 249.15L130.208 274.873L104.509 248.841L99.5121 243.815C92.5163 236.741 92.4925 225.047 99.5359 217.831C102.962 214.568 107.174 212.734 111.457 212.543C115.741 212.353 121.547 214.234 125.282 217.878L130.279 222.904L135.3 217.902C142.368 210.662 154.051 210.876 161.261 217.926C164.521 221.356 166.353 225.571 166.544 229.858V230.335L166.567 230.311Z" fill="#D9BDDC"/>
<defs>
<filter id="filter0_d_14557_3903" x="20.1748" y="93.9602" width="369.554" height="300.565" filterUnits="userSpaceOnUse" color-interpolation-filters="sRGB">
<feFlood flood-opacity="0" result="BackgroundImageFix"/>
<feColorMatrix in="SourceAlpha" type="matrix" values="0 0 0 0 0 0 0 0 0 0 0 0 0 0 0 0 0 0 127 0" result="hardAlpha"/>
<feOffset dx="4" dy="4"/>
<feGaussianBlur stdDeviation="5"/>
<feComposite in2="hardAlpha" operator="out"/>
<feColorMatrix type="matrix" values="0 0 0 0 0 0 0 0 0 0 0 0 0 0 0 0 0 0 0.25 0"/>
<feBlend mode="normal" in2="BackgroundImageFix" result="effect1_dropShadow_14557_3903"/>
<feBlend mode="normal" in="SourceGraphic" in2="effect1_dropShadow_14557_3903" result="shape"/>
</filter>
<filter id="filter1_d_14557_3903" x="136.058" y="375.001" width="135.646" height="121.937" filterUnits="userSpaceOnUse" color-interpolation-filters="sRGB">
<feFlood flood-opacity="0" result="BackgroundImageFix"/>
<feColorMatrix in="SourceAlpha" type="matrix" values="0 0 0 0 0 0 0 0 0 0 0 0 0 0 0 0 0 0 127 0" result="hardAlpha"/>
<feOffset dx="4" dy="4"/>
<feGaussianBlur stdDeviation="5"/>
<feComposite in2="hardAlpha" operator="out"/>
<feColorMatrix type="matrix" values="0 0 0 0 0 0 0 0 0 0 0 0 0 0 0 0 0 0 0.25 0"/>
<feBlend mode="normal" in2="BackgroundImageFix" result="effect1_dropShadow_14557_3903"/>
<feBlend mode="normal" in="SourceGraphic" in2="effect1_dropShadow_14557_3903" result="shape"/>
</filter>
<filter id="filter2_d_14557_3903" x="220.31" y="375.684" width="84.2393" height="76.0331" filterUnits="userSpaceOnUse" color-interpolation-filters="sRGB">
<feFlood flood-opacity="0" result="BackgroundImageFix"/>
<feColorMatrix in="SourceAlpha" type="matrix" values="0 0 0 0 0 0 0 0 0 0 0 0 0 0 0 0 0 0 127 0" result="hardAlpha"/>
<feOffset dx="4" dy="4"/>
<feGaussianBlur stdDeviation="5"/>
<feComposite in2="hardAlpha" operator="out"/>
<feColorMatrix type="matrix" values="0 0 0 0 0 0 0 0 0 0 0 0 0 0 0 0 0 0 0.25 0"/>
<feBlend mode="normal" in2="BackgroundImageFix" result="effect1_dropShadow_14557_3903"/>
<feBlend mode="normal" in="SourceGraphic" in2="effect1_dropShadow_14557_3903" result="shape"/>
</filter>
<filter id="filter3_d_14557_3903" x="106.469" y="359.914" width="82.0098" height="78.9938" filterUnits="userSpaceOnUse" color-interpolation-filters="sRGB">
<feFlood flood-opacity="0" result="BackgroundImageFix"/>
<feColorMatrix in="SourceAlpha" type="matrix" values="0 0 0 0 0 0 0 0 0 0 0 0 0 0 0 0 0 0 127 0" result="hardAlpha"/>
<feOffset dx="4" dy="4"/>
<feGaussianBlur stdDeviation="5"/>
<feComposite in2="hardAlpha" operator="out"/>
<feColorMatrix type="matrix" values="0 0 0 0 0 0 0 0 0 0 0 0 0 0 0 0 0 0 0.25 0"/>
<feBlend mode="normal" in2="BackgroundImageFix" result="effect1_dropShadow_14557_3903"/>
<feBlend mode="normal" in="SourceGraphic" in2="effect1_dropShadow_14557_3903" result="shape"/>
</filter>
</defs>
</svg>
