<svg width="170" height="216" viewBox="0 0 170 216" fill="none" xmlns="http://www.w3.org/2000/svg">
<g filter="url(#filter0_d_12053_63915)">
<path d="M111.583 195.202C107.768 175.056 96.2472 160.407 82.607 160.407C68.9668 160.407 58.1256 174.209 53.9862 193.429C53.8088 194.247 54.203 195.114 54.9619 195.468C55.1393 195.557 55.3167 195.646 55.4842 195.744L64.9654 201.221C64.5514 200.867 64.2853 200.345 64.2853 199.754C64.2853 198.68 65.1526 197.813 66.2269 197.813C67.3012 197.813 68.1685 198.68 68.1685 199.754C68.1685 200.02 68.1192 200.276 68.0206 200.502L71.4405 195.192C72.8499 193.005 75.2744 191.685 77.8763 191.685H88.2444C90.8463 191.685 93.2609 193.045 94.6013 195.271L98.5436 200.985C98.3957 200.709 98.2972 200.394 98.2972 200.059C98.2972 198.985 99.1645 198.118 100.239 198.118C101.313 198.118 102.18 198.985 102.18 200.059C102.18 200.69 101.875 201.251 101.402 201.606L110.459 197.271C110.459 197.271 110.459 197.271 110.469 197.271C111.257 196.897 111.73 196.069 111.563 195.212L111.583 195.202Z" fill="#6853AC"/>
<path d="M66.2353 197.813C65.161 197.813 64.2937 198.68 64.2937 199.754C64.2937 200.345 64.5598 200.867 64.9737 201.222C65.1511 201.379 65.368 201.497 65.5947 201.576C65.7918 201.645 66.0086 201.694 66.2353 201.694C66.8167 201.694 67.3292 201.438 67.684 201.034C67.822 200.877 67.9502 200.699 68.029 200.502C68.1276 200.276 68.1768 200.02 68.1768 199.754C68.1768 198.68 67.3095 197.813 66.2353 197.813Z" fill="#6853AC"/>
<path d="M102.2 200.059C102.2 198.986 101.332 198.119 100.258 198.119C99.1839 198.119 98.3167 198.986 98.3167 200.059C98.3167 200.394 98.4152 200.71 98.563 200.985C98.632 201.104 98.701 201.212 98.7897 201.32C99.1445 201.734 99.6669 202 100.258 202C100.416 202 100.574 201.971 100.721 201.941C100.978 201.882 101.214 201.764 101.421 201.606C101.884 201.251 102.2 200.7 102.2 200.059Z" fill="#6853AC"/>
</g>
<g filter="url(#filter1_d_12053_63915)">
<path d="M70.389 6.57892C76.7557 5.95828 86.6409 6.47055 85.1626 15.5437C83.5068 25.73 66.9099 16.5485 64.1996 27.1584C59.6857 44.822 93.2146 36.8029 103.218 39.4037C127.69 45.7578 125.068 82.3656 100.941 85.0944C95.0774 85.7544 72.0546 85.9909 66.5945 85.0944C59.055 83.863 58.9268 71.9034 66.8508 70.7015C76.1249 69.3026 91.2829 72.5437 99.9362 70.4454C106.254 68.9184 108.126 59.8158 103.218 55.5501C94.4959 47.9744 68.95 60.86 55.1127 45.0781C42.5862 30.7837 51.6534 8.39157 70.389 6.57892Z" fill="#6853AC"/>
<path d="M99.936 6.07602C111.083 4.76579 112.068 20.8137 102.213 21.7299C91.6573 22.7051 90.3958 7.19908 99.936 6.07602Z" fill="#6853AC"/>
</g>
<path d="M158.883 100.334H6.75112C3.02258 100.334 0 103.355 0 107.082V113.958C0 117.685 3.02258 120.707 6.75112 120.707H158.883C162.611 120.707 165.634 117.685 165.634 113.958V107.082C165.634 103.355 162.611 100.334 158.883 100.334Z" fill="#D9BDDC"/>
<g filter="url(#filter2_d_12053_63915)">
<path d="M113.339 47.2744H52.2341C29.1172 47.2744 10.3772 66.0063 10.3772 89.1132V121.524C10.3772 144.631 29.1172 163.363 52.2341 163.363H113.339C136.456 163.363 155.196 144.631 155.196 121.524V89.1132C155.196 66.0063 136.456 47.2744 113.339 47.2744Z" fill="#6853AC"/>
</g>
<path d="M100.389 57.6479H65.1748C42.0579 57.6479 23.3179 76.3798 23.3179 99.4868V111.141C23.3179 134.248 42.0579 152.98 65.1748 152.98H100.389C123.506 152.98 142.246 134.248 142.246 111.141V99.4868C142.246 76.3798 123.506 57.6479 100.389 57.6479Z" fill="#191320"/>
<g filter="url(#filter3_d_12053_63915)">
<path d="M28.2221 166.293L28.2171 166.301C25.9528 170.221 27.2965 175.234 31.2185 177.498L41.8619 183.64C45.7839 185.903 50.7989 184.56 53.0632 180.64L53.0681 180.631C55.3325 176.711 53.9887 171.698 50.0668 169.435L39.4233 163.293C35.5014 161.029 30.4864 162.372 28.2221 166.293Z" fill="#6853AC"/>
</g>
<g filter="url(#filter4_d_12053_63915)">
<path d="M137.885 167.265L137.881 167.256C135.924 163.174 131.027 161.45 126.943 163.406L115.86 168.714C111.776 170.67 110.051 175.565 112.008 179.648L112.012 179.656C113.969 183.739 118.866 185.463 122.95 183.507L134.034 178.199C138.118 176.243 139.842 171.348 137.885 167.265Z" fill="#6853AC"/>
</g>
<path d="M76.8826 113.229C77.4246 115.998 79.859 118.086 82.7861 118.086C85.7132 118.086 88.1476 115.998 88.6896 113.229H76.8924H76.8826Z" fill="#D9BDDC"/>
<path d="M64.644 113.033C64.92 112.008 65.0875 110.925 65.0875 109.811C65.0875 103.063 59.6176 97.5957 52.8665 97.5957C46.1154 97.5957 40.6455 103.063 40.6455 109.811C40.6455 110.925 40.8131 112.008 41.089 113.033H64.644Z" fill="#D9BDDC"/>
<path d="M124.499 113.23C124.775 112.205 124.942 111.121 124.942 110.008C124.942 103.26 119.473 97.7925 112.721 97.7925C105.97 97.7925 100.5 103.26 100.5 110.008C100.5 111.121 100.668 112.205 100.944 113.23H124.499Z" fill="#D9BDDC"/>
<defs>
<filter id="filter0_d_12053_63915" x="47.9441" y="154.407" width="77.6523" height="61.5928" filterUnits="userSpaceOnUse" color-interpolation-filters="sRGB">
<feFlood flood-opacity="0" result="BackgroundImageFix"/>
<feColorMatrix in="SourceAlpha" type="matrix" values="0 0 0 0 0 0 0 0 0 0 0 0 0 0 0 0 0 0 127 0" result="hardAlpha"/>
<feOffset dx="4" dy="4"/>
<feGaussianBlur stdDeviation="5"/>
<feComposite in2="hardAlpha" operator="out"/>
<feColorMatrix type="matrix" values="0 0 0 0 0 0 0 0 0 0 0 0 0 0 0 0 0 0 0.25 0"/>
<feBlend mode="normal" in2="BackgroundImageFix" result="effect1_dropShadow_12053_63915"/>
<feBlend mode="normal" in="SourceGraphic" in2="effect1_dropShadow_12053_63915" result="shape"/>
</filter>
<filter id="filter1_d_12053_63915" x="43.3298" y="0" width="91.0205" height="99.6816" filterUnits="userSpaceOnUse" color-interpolation-filters="sRGB">
<feFlood flood-opacity="0" result="BackgroundImageFix"/>
<feColorMatrix in="SourceAlpha" type="matrix" values="0 0 0 0 0 0 0 0 0 0 0 0 0 0 0 0 0 0 127 0" result="hardAlpha"/>
<feOffset dx="4" dy="4"/>
<feGaussianBlur stdDeviation="5"/>
<feComposite in2="hardAlpha" operator="out"/>
<feColorMatrix type="matrix" values="0 0 0 0 0 0 0 0 0 0 0 0 0 0 0 0 0 0 0.25 0"/>
<feBlend mode="normal" in2="BackgroundImageFix" result="effect1_dropShadow_12053_63915"/>
<feBlend mode="normal" in="SourceGraphic" in2="effect1_dropShadow_12053_63915" result="shape"/>
</filter>
<filter id="filter2_d_12053_63915" x="4.3772" y="41.2744" width="164.819" height="136.089" filterUnits="userSpaceOnUse" color-interpolation-filters="sRGB">
<feFlood flood-opacity="0" result="BackgroundImageFix"/>
<feColorMatrix in="SourceAlpha" type="matrix" values="0 0 0 0 0 0 0 0 0 0 0 0 0 0 0 0 0 0 127 0" result="hardAlpha"/>
<feOffset dx="4" dy="4"/>
<feGaussianBlur stdDeviation="5"/>
<feComposite in2="hardAlpha" operator="out"/>
<feColorMatrix type="matrix" values="0 0 0 0 0 0 0 0 0 0 0 0 0 0 0 0 0 0 0.25 0"/>
<feBlend mode="normal" in2="BackgroundImageFix" result="effect1_dropShadow_12053_63915"/>
<feBlend mode="normal" in="SourceGraphic" in2="effect1_dropShadow_12053_63915" result="shape"/>
</filter>
<filter id="filter3_d_12053_63915" x="21.1172" y="156.193" width="47.0508" height="42.5464" filterUnits="userSpaceOnUse" color-interpolation-filters="sRGB">
<feFlood flood-opacity="0" result="BackgroundImageFix"/>
<feColorMatrix in="SourceAlpha" type="matrix" values="0 0 0 0 0 0 0 0 0 0 0 0 0 0 0 0 0 0 127 0" result="hardAlpha"/>
<feOffset dx="4" dy="4"/>
<feGaussianBlur stdDeviation="5"/>
<feComposite in2="hardAlpha" operator="out"/>
<feColorMatrix type="matrix" values="0 0 0 0 0 0 0 0 0 0 0 0 0 0 0 0 0 0 0.25 0"/>
<feBlend mode="normal" in2="BackgroundImageFix" result="effect1_dropShadow_12053_63915"/>
<feBlend mode="normal" in="SourceGraphic" in2="effect1_dropShadow_12053_63915" result="shape"/>
</filter>
<filter id="filter4_d_12053_63915" x="105.201" y="156.6" width="47.4915" height="41.7134" filterUnits="userSpaceOnUse" color-interpolation-filters="sRGB">
<feFlood flood-opacity="0" result="BackgroundImageFix"/>
<feColorMatrix in="SourceAlpha" type="matrix" values="0 0 0 0 0 0 0 0 0 0 0 0 0 0 0 0 0 0 127 0" result="hardAlpha"/>
<feOffset dx="4" dy="4"/>
<feGaussianBlur stdDeviation="5"/>
<feComposite in2="hardAlpha" operator="out"/>
<feColorMatrix type="matrix" values="0 0 0 0 0 0 0 0 0 0 0 0 0 0 0 0 0 0 0.25 0"/>
<feBlend mode="normal" in2="BackgroundImageFix" result="effect1_dropShadow_12053_63915"/>
<feBlend mode="normal" in="SourceGraphic" in2="effect1_dropShadow_12053_63915" result="shape"/>
</filter>
</defs>
</svg>
