<svg width="454" height="360" viewBox="0 0 454 360" fill="none" xmlns="http://www.w3.org/2000/svg">
<path d="M88.1014 -0.000488281H21.1039C9.44855 -0.000488281 0 9.4532 0 21.1149V88.1488C0 99.8106 9.44855 109.264 21.1039 109.264H88.1014C99.7568 109.264 109.205 99.8106 109.205 88.1488V21.1149C109.205 9.4532 99.7568 -0.000488281 88.1014 -0.000488281Z" fill="#3E3E40"/>
<path d="M260.101 -0.000488281H193.104C181.449 -0.000488281 172 9.4532 172 21.1149V88.1488C172 99.8106 181.449 109.264 193.104 109.264H260.101C271.757 109.264 281.205 99.8106 281.205 88.1488V21.1149C281.205 9.4532 271.757 -0.000488281 260.101 -0.000488281Z" fill="#3E3E40"/>
<path d="M432.097 -0.000488281H365.1C353.445 -0.000488281 343.996 9.4532 343.996 21.1149V88.1488C343.996 99.8106 353.445 109.264 365.1 109.264H432.097C443.753 109.264 453.201 99.8106 453.201 88.1488V21.1149C453.201 9.4532 443.753 -0.000488281 432.097 -0.000488281Z" fill="#3E3E40"/>
<path d="M88.1014 152.97H21.1039C9.44855 152.97 0 162.424 0 174.086V241.12C0 252.781 9.44855 262.235 21.1039 262.235H88.1014C99.7568 262.235 109.205 252.781 109.205 241.12V174.086C109.205 162.424 99.7568 152.97 88.1014 152.97Z" fill="#3E3E40"/>
<path d="M260.101 152.97H193.104C181.449 152.97 172 162.424 172 174.086V241.12C172 252.781 181.449 262.235 193.104 262.235H260.101C271.757 262.235 281.205 252.781 281.205 241.12V174.086C281.205 162.424 271.757 152.97 260.101 152.97Z" fill="#3E3E40"/>
<path d="M432.097 152.97H365.1C353.445 152.97 343.996 162.424 343.996 174.086V241.12C343.996 252.781 353.445 262.235 365.1 262.235H432.097C443.753 262.235 453.201 252.781 453.201 241.12V174.086C453.201 162.424 443.753 152.97 432.097 152.97Z" fill="#3E3E40"/>
<path d="M152.216 340H301.083C306.667 340 311.223 344.558 311.223 350C311.223 355.588 306.667 360 301.083 360H152.216C146.631 360 142.223 355.441 142.223 350C142.223 344.411 146.778 340 152.216 340Z" fill="#241B2E"/>
<path d="M340.084 175H113.361C107.762 175 103.223 179.626 103.223 185.333V195.666C103.223 201.373 107.762 206 113.361 206H340.084C345.683 206 350.223 201.373 350.223 195.666V185.333C350.223 179.626 345.683 175 340.084 175Z" fill="#241B2E"/>
<path d="M273.02 93.9995H182.425C148.072 93.9995 120.223 122.267 120.223 157.136V205.863C120.223 240.732 148.072 269 182.425 269H273.02C307.374 269 335.223 240.732 335.223 205.863V157.136C335.223 122.267 307.374 93.9995 273.02 93.9995Z" fill="#5C4998"/>
<path d="M209.129 32.2141C218.662 31.3225 233.329 32.0655 231.129 45.7356C228.636 61.0402 203.995 47.2215 199.889 63.269C193.142 89.8664 243.009 77.8307 257.97 81.694C294.344 91.3522 290.53 146.479 254.596 150.639C245.943 151.679 211.622 151.976 203.555 150.639C192.262 148.856 192.115 130.728 203.995 128.945C217.782 126.865 240.369 131.768 253.276 128.499C262.663 126.122 265.45 112.452 258.116 106.062C245.209 94.6212 207.075 114.086 186.542 90.3121C167.915 68.7668 181.408 35.0372 209.275 32.2141H209.129Z" fill="#5C4998"/>
<path d="M252.984 31.322C269.558 29.3904 271.024 53.6103 256.357 54.9476C240.664 56.4335 238.757 32.9565 252.984 31.322Z" fill="#5C4998"/>
<path d="M252.899 111H200.547C166.126 111 138.223 139.109 138.223 173.784V191.215C138.223 225.89 166.126 254 200.547 254H252.899C287.319 254 315.223 225.89 315.223 191.215V173.784C315.223 139.109 287.319 111 252.899 111Z" fill="#241B2E"/>
<path d="M182.058 300.834C179.194 307.078 171.924 309.741 165.829 306.807L149.218 298.788C143.122 295.855 140.523 288.408 143.387 282.165C146.251 275.921 153.521 273.258 159.616 276.192L176.228 284.211C182.323 287.144 184.922 294.591 182.058 300.834Z" fill="#5C4998"/>
<path d="M268.175 299.418C265.581 293.125 268.467 285.862 274.633 283.207L291.425 275.974C297.576 273.32 304.675 276.273 307.27 282.581C309.865 288.874 306.978 296.137 300.812 298.792L284.02 306.025C277.869 308.679 270.77 305.726 268.175 299.418Z" fill="#5C4998"/>
<path d="M249.951 269H203.494C196.774 269 191.223 274.682 191.223 281.56V320.439C191.223 327.317 196.774 333 203.494 333C209.63 333 214.451 327.915 214.451 321.785V321.336C214.451 315.056 218.688 309.523 224.823 308.626C232.274 307.429 238.848 313.411 238.848 320.887V321.635C238.848 327.915 243.815 333 249.951 333C256.671 333 262.223 327.317 262.223 320.439V281.56C262.223 274.682 256.671 269 249.951 269Z" fill="#5C4998"/>
<path d="M201.223 182.702C201.223 186.941 199.858 190.862 197.565 194L165.426 185.508C165.295 184.588 165.223 183.653 165.223 182.702C165.223 172.371 173.279 164 183.223 164C193.166 164 201.223 172.371 201.223 182.702Z" fill="#D9BDDC"/>
<path d="M251.223 182.702C251.223 186.941 252.625 190.862 254.982 194L288.014 185.508C288.148 184.588 288.223 183.653 288.223 182.702C288.223 172.371 279.942 164 269.723 164C259.503 164 251.223 172.371 251.223 182.702Z" fill="#D9BDDC"/>
<path d="M218.223 194C219.073 198 222.473 201 226.723 201C230.973 201 234.373 198 235.223 194H218.223Z" fill="#D9BDDC"/>
</svg>
