<svg width="454" height="360" viewBox="0 0 454 360" fill="none" xmlns="http://www.w3.org/2000/svg">
<path d="M21.1039 0.5H88.1014C99.4804 0.5 108.705 9.72958 108.705 21.1154V88.1493C108.705 99.5352 99.4804 108.765 88.1014 108.765H21.1039C9.72495 108.765 0.5 99.5352 0.5 88.1493V21.1154C0.5 9.72958 9.72495 0.5 21.1039 0.5Z" fill="#ECECED" stroke="#C5C5C6"/>
<path d="M193.104 0.5H260.101C271.48 0.5 280.705 9.72958 280.705 21.1154V88.1493C280.705 99.5352 271.48 108.765 260.101 108.765H193.104C181.725 108.765 172.5 99.5352 172.5 88.1493V21.1154C172.5 9.72958 181.725 0.5 193.104 0.5Z" fill="#ECECED" stroke="#C5C5C6"/>
<path d="M365.1 0.5H432.097C443.476 0.5 452.701 9.72958 452.701 21.1154V88.1493C452.701 99.5352 443.476 108.765 432.097 108.765H365.1C353.721 108.765 344.496 99.5352 344.496 88.1493V21.1154C344.496 9.72958 353.721 0.5 365.1 0.5Z" fill="#ECECED" stroke="#C5C5C6"/>
<path d="M21.1039 153.471H88.1014C99.4804 153.471 108.705 162.7 108.705 174.086V241.12C108.705 252.506 99.4804 261.735 88.1014 261.735H21.1039C9.72495 261.735 0.5 252.506 0.5 241.12V174.086C0.5 162.7 9.72495 153.471 21.1039 153.471Z" fill="#ECECED" stroke="#C5C5C6"/>
<path d="M193.104 153.471H260.101C271.48 153.471 280.705 162.7 280.705 174.086V241.12C280.705 252.506 271.48 261.735 260.101 261.735H193.104C181.725 261.735 172.5 252.506 172.5 241.12V174.086C172.5 162.7 181.725 153.471 193.104 153.471Z" fill="#ECECED" stroke="#C5C5C6"/>
<path d="M365.1 153.471H432.097C443.476 153.471 452.701 162.7 452.701 174.086V241.12C452.701 252.506 443.476 261.735 432.097 261.735H365.1C353.721 261.735 344.496 252.506 344.496 241.12V174.086C344.496 162.7 353.721 153.471 365.1 153.471Z" fill="#ECECED" stroke="#C5C5C6"/>
<path d="M152.216 340H301.083C306.667 340 311.223 344.559 311.223 350C311.223 355.588 306.667 360 301.083 360H152.216C146.631 360 142.223 355.441 142.223 350C142.223 344.412 146.778 340 152.216 340Z" fill="#241B2E"/>
<path d="M340.084 175H113.361C107.762 175 103.223 179.626 103.223 185.333V195.667C103.223 201.374 107.762 206 113.361 206H340.084C345.683 206 350.223 201.374 350.223 195.667V185.333C350.223 179.626 345.683 175 340.084 175Z" fill="#241B2E"/>
<path d="M273.02 94H182.425C148.072 94 120.223 122.267 120.223 157.137V205.863C120.223 240.733 148.072 269 182.425 269H273.02C307.374 269 335.223 240.733 335.223 205.863V157.137C335.223 122.267 307.374 94 273.02 94Z" fill="#5C4998"/>
<path d="M209.129 32.2145C218.662 31.323 233.329 32.066 231.129 45.7361C228.636 61.0407 203.995 47.222 199.889 63.2695C193.142 89.8668 243.009 77.8312 257.97 81.6945C294.344 91.3527 290.53 146.479 254.596 150.64C245.943 151.68 211.622 151.977 203.555 150.64C192.262 148.856 192.115 130.729 203.995 128.946C217.782 126.865 240.369 131.769 253.276 128.5C262.663 126.122 265.45 112.452 258.116 106.063C245.209 94.6217 207.075 114.087 186.542 90.3126C167.915 68.7673 181.408 35.0377 209.275 32.2145H209.129Z" fill="#5C4998"/>
<path d="M252.984 31.3225C269.558 29.3909 271.024 53.6108 256.357 54.9481C240.664 56.4339 238.757 32.957 252.984 31.3225Z" fill="#5C4998"/>
<path d="M252.899 111H200.547C166.126 111 138.223 139.109 138.223 173.784V191.216C138.223 225.891 166.126 254 200.547 254H252.899C287.319 254 315.223 225.891 315.223 191.216V173.784C315.223 139.109 287.319 111 252.899 111Z" fill="#241B2E"/>
<path d="M182.058 300.835C179.194 307.078 171.924 309.741 165.829 306.808L149.218 298.789C143.122 295.855 140.523 288.408 143.387 282.165C146.251 275.922 153.521 273.259 159.616 276.192L176.228 284.211C182.323 287.145 184.922 294.592 182.058 300.835Z" fill="#5C4998"/>
<path d="M268.175 299.419C265.581 293.125 268.467 285.862 274.633 283.208L291.425 275.975C297.576 273.32 304.675 276.273 307.27 282.581C309.865 288.875 306.978 296.138 300.812 298.792L284.02 306.025C277.869 308.68 270.77 305.727 268.175 299.419Z" fill="#5C4998"/>
<path d="M249.951 269H203.494C196.774 269 191.223 274.682 191.223 281.561V320.439C191.223 327.318 196.774 333 203.494 333C209.63 333 214.451 327.916 214.451 321.785V321.336C214.451 315.056 218.688 309.523 224.823 308.626C232.274 307.43 238.848 313.411 238.848 320.888V321.636C238.848 327.916 243.815 333 249.951 333C256.671 333 262.223 327.318 262.223 320.439V281.561C262.223 274.682 256.671 269 249.951 269Z" fill="#5C4998"/>
<path d="M201.223 182.703C201.223 186.941 199.858 190.863 197.565 194L165.426 185.508C165.295 184.588 165.223 183.653 165.223 182.703C165.223 172.371 173.279 164 183.223 164C193.166 164 201.223 172.371 201.223 182.703Z" fill="#D9BDDC"/>
<path d="M251.223 182.703C251.223 186.941 252.625 190.863 254.982 194L288.014 185.508C288.148 184.588 288.223 183.653 288.223 182.703C288.223 172.371 279.942 164 269.723 164C259.503 164 251.223 172.371 251.223 182.703Z" fill="#D9BDDC"/>
<path d="M218.223 194C219.073 198 222.473 201 226.723 201C230.973 201 234.373 198 235.223 194H218.223Z" fill="#D9BDDC"/>
</svg>
