<svg width="538" height="360" viewBox="0 0 538 360" fill="none" xmlns="http://www.w3.org/2000/svg">
<path d="M172.898 0H105.901C94.2454 0 84.7969 9.45369 84.7969 21.1154V88.1493C84.7969 99.8111 94.2454 109.265 105.901 109.265H172.898C184.554 109.265 194.002 99.8111 194.002 88.1493V21.1154C194.002 9.45369 184.554 0 172.898 0Z" fill="#3E3E40"/>
<path d="M344.898 0H277.901C266.245 0 256.797 9.45369 256.797 21.1154V88.1493C256.797 99.8111 266.245 109.265 277.901 109.265H344.898C356.554 109.265 366.002 99.8111 366.002 88.1493V21.1154C366.002 9.45369 356.554 0 344.898 0Z" fill="#3E3E40"/>
<path d="M516.894 0H449.897C438.242 0 428.793 9.45369 428.793 21.1154V88.1493C428.793 99.8111 438.242 109.265 449.897 109.265H516.894C528.55 109.265 537.998 99.8111 537.998 88.1493V21.1154C537.998 9.45369 528.55 0 516.894 0Z" fill="#3E3E40"/>
<path d="M172.898 152.971H105.901C94.2454 152.971 84.7969 162.424 84.7969 174.086V241.12C84.7969 252.782 94.2454 262.235 105.901 262.235H172.898C184.554 262.235 194.002 252.782 194.002 241.12V174.086C194.002 162.424 184.554 152.971 172.898 152.971Z" fill="#B2B2B2"/>
<path d="M344.898 152.971H277.901C266.245 152.971 256.797 162.424 256.797 174.086V241.12C256.797 252.782 266.245 262.235 277.901 262.235H344.898C356.554 262.235 366.002 252.782 366.002 241.12V174.086C366.002 162.424 356.554 152.971 344.898 152.971Z" fill="#3E3E40"/>
<path d="M516.894 152.971H449.897C438.242 152.971 428.793 162.424 428.793 174.086V241.12C428.793 252.782 438.242 262.235 449.897 262.235H516.894C528.55 262.235 537.998 252.782 537.998 241.12V174.086C537.998 162.424 528.55 152.971 516.894 152.971Z" fill="#3E3E40"/>
<path d="M187.001 341.288H48.5832C43.4567 341.288 39.3008 345.447 39.3008 350.576V350.713C39.3008 355.842 43.4567 360 48.5832 360H187.001C192.128 360 196.283 355.842 196.283 350.713V350.576C196.283 345.447 192.128 341.288 187.001 341.288Z" fill="#241B2E"/>
<path d="M218.005 181.214L8.2963 203.637C3.19877 204.182 -0.491971 208.759 0.0527979 213.859L1.0827 223.501C1.62747 228.602 6.20146 232.294 11.299 231.749L221.008 209.326C226.105 208.781 229.796 204.204 229.251 199.104L228.221 189.462C227.676 184.361 223.102 180.669 218.005 181.214Z" fill="#241B2E"/>
<path d="M171.167 270.54L87.0784 279.554C55.4089 282.968 19.3711 262.618 15.9585 230.931L11.1807 186.269C7.76808 154.582 30.9742 125.764 62.6437 122.486L146.732 113.471C178.401 110.057 207.204 133.276 210.48 164.962L215.258 209.624C218.671 241.311 202.7 267.125 171.03 270.54H171.167Z" fill="#5C4998"/>
<path d="M82.575 63.756C91.3114 61.9804 104.962 61.161 104.28 73.9996C103.461 88.3406 79.2988 78.097 77.1147 93.1209C73.4291 118.115 118.476 102.135 132.673 104.321C167.346 109.511 169.12 160.319 136.222 167.694C128.305 169.47 96.6352 173.157 88.8543 172.748C78.3433 172.201 76.2957 155.675 87.0797 152.943C99.6383 149.665 120.933 151.851 132.536 147.753C141 144.748 142.228 131.91 134.857 126.72C121.752 117.569 88.4448 139.012 67.0132 119.344C47.6293 101.452 56.9118 69.2192 82.4385 64.0292L82.575 63.756Z" fill="#5C4998"/>
<path d="M123.253 58.7024C138.405 55.2879 142.091 77.2774 128.713 79.8725C114.243 82.7407 110.285 61.5706 123.253 58.7024Z" fill="#5C4998"/>
<path d="M131.116 130.973L82.6595 136.155C50.7999 139.561 27.7328 168.164 31.1376 200.041L32.8493 216.067C36.2541 247.943 64.8415 271.023 96.7011 267.616L145.158 262.435C177.018 259.028 200.085 230.425 196.68 198.549L194.968 182.523C191.563 150.646 162.976 127.567 131.116 130.973Z" fill="#241B2E"/>
<path d="M65.0994 283.515H64.9629C58.7054 283.515 53.6328 288.59 53.6328 294.851V311.923C53.6328 318.184 58.7054 323.26 64.9629 323.26H65.0994C71.3568 323.26 76.4294 318.184 76.4294 311.923V294.851C76.4294 288.59 71.3568 283.515 65.0994 283.515Z" fill="#5C4998"/>
<path d="M161.804 280.715L178.034 275.47C183.986 273.544 190.375 276.822 192.299 282.777C194.224 288.732 190.948 295.124 184.996 297.05L168.766 302.295C162.814 304.22 156.425 300.942 154.501 294.987C152.576 289.033 155.852 282.641 161.804 280.715Z" fill="#5C4998"/>
<path d="M139.497 269.583H96.0876C89.8083 269.583 84.6211 275.32 84.6211 282.285V321.757C84.6211 328.723 89.8083 334.459 96.0876 334.459C101.821 334.459 106.326 329.269 106.326 322.987V322.44C106.326 316.158 110.284 310.421 116.018 309.465C122.979 308.372 129.122 314.382 129.122 321.894V322.713C129.122 329.133 133.763 334.323 139.497 334.323C145.776 334.323 150.963 328.586 150.963 321.621V282.149C150.963 275.183 145.776 269.447 139.497 269.447V269.583Z" fill="#5C4998"/>
<path d="M116.426 207.849C117.518 211.537 124.753 214.541 128.848 214.132C132.943 213.722 135.946 210.444 136.219 206.62L116.426 207.985V207.849Z" fill="#D9BDDC"/>
<path d="M149.914 189.124L150.952 200.118L179.918 209.775L182.935 200.733L161.49 193.576L182.143 182.062L177.502 173.731L149.914 189.124Z" fill="#D9BDDC"/>
<path d="M99.8144 194.396V205.431L71.8578 217.765L68.022 209.037L88.7164 199.913L67.0664 190.38L70.9159 181.653L99.8144 194.396Z" fill="#D9BDDC"/>
</svg>
