<svg width="538" height="360" viewBox="0 0 538 360" fill="none" xmlns="http://www.w3.org/2000/svg">
<g clip-path="url(#clip0_14053_50950)">
<path d="M105.901 0.5H172.898C184.277 0.5 193.502 9.72958 193.502 21.1154V88.1493C193.502 99.5352 184.277 108.765 172.898 108.765H105.901C94.5218 108.765 85.2969 99.5352 85.2969 88.1493V21.1154C85.2969 9.72958 94.5218 0.5 105.901 0.5Z" fill="#ECECED" stroke="#C5C5C6"/>
<path d="M277.901 0.5H344.898C356.277 0.5 365.502 9.72958 365.502 21.1154V88.1493C365.502 99.5352 356.277 108.765 344.898 108.765H277.901C266.522 108.765 257.297 99.5352 257.297 88.1493V21.1154C257.297 9.72958 266.522 0.5 277.901 0.5Z" fill="#ECECED" stroke="#C5C5C6"/>
<path d="M449.897 0.5H516.894C528.273 0.5 537.498 9.72958 537.498 21.1154V88.1493C537.498 99.5352 528.273 108.765 516.894 108.765H449.897C438.518 108.765 429.293 99.5352 429.293 88.1493V21.1154C429.293 9.72958 438.518 0.5 449.897 0.5Z" fill="#ECECED" stroke="#C5C5C6"/>
<path d="M105.901 153.471H172.898C184.277 153.471 193.502 162.7 193.502 174.086V241.12C193.502 252.506 184.277 261.735 172.898 261.735H105.901C94.5218 261.735 85.2969 252.506 85.2969 241.12V174.086C85.2969 162.7 94.5218 153.471 105.901 153.471Z" fill="#ECECED" stroke="#C5C5C6"/>
<path d="M277.901 153.471H344.898C356.277 153.471 365.502 162.7 365.502 174.086V241.12C365.502 252.506 356.277 261.735 344.898 261.735H277.901C266.522 261.735 257.297 252.506 257.297 241.12V174.086C257.297 162.7 266.522 153.471 277.901 153.471Z" fill="#ECECED" stroke="#C5C5C6"/>
<path d="M450.104 153.5H517.101C528.48 153.5 537.705 162.73 537.705 174.115V241.149C537.705 252.535 528.48 261.765 517.101 261.765H450.104C438.725 261.765 429.5 252.535 429.5 241.149V174.115C429.5 162.73 438.725 153.5 450.104 153.5Z" fill="#ECECED" stroke="#C5C5C6"/>
<path d="M187.001 341.288H48.5832C43.4567 341.288 39.3008 345.446 39.3008 350.576V350.712C39.3008 355.842 43.4567 360 48.5832 360H187.001C192.128 360 196.283 355.842 196.283 350.712V350.576C196.283 345.446 192.128 341.288 187.001 341.288Z" fill="#241B2E"/>
<path d="M218.005 181.214L8.2963 203.637C3.19877 204.182 -0.491971 208.759 0.0527979 213.859L1.0827 223.501C1.62747 228.602 6.20146 232.294 11.299 231.749L221.008 209.326C226.105 208.781 229.796 204.204 229.251 199.104L228.221 189.462C227.676 184.361 223.102 180.668 218.005 181.214Z" fill="#241B2E"/>
<path d="M171.167 270.539L87.0784 279.553C55.4089 282.968 19.3711 262.617 15.9585 230.931L11.1807 186.269C7.76808 154.582 30.9742 125.763 62.6437 122.485L146.732 113.471C178.401 110.056 207.204 133.275 210.48 164.962L215.258 209.624C218.671 241.311 202.7 267.125 171.03 270.539H171.167Z" fill="#5C4998"/>
<path d="M82.575 63.7562C91.3114 61.9807 104.962 61.1612 104.28 73.9998C103.461 88.3408 79.2988 78.0972 77.1147 93.1211C73.4291 118.115 118.476 102.135 132.673 104.321C167.346 109.511 169.12 160.319 136.222 167.694C128.305 169.47 96.6352 173.158 88.8543 172.748C78.3433 172.201 76.2957 155.675 87.0797 152.944C99.6383 149.666 120.933 151.851 132.536 147.753C141 144.749 142.228 131.91 134.857 126.72C121.752 117.569 88.4448 139.012 67.0132 119.345C47.6293 101.453 56.9118 69.2195 82.4385 64.0294L82.575 63.7562Z" fill="#5C4998"/>
<path d="M123.253 58.7029C138.405 55.2884 142.091 77.2779 128.713 79.873C114.243 82.7412 110.285 61.5711 123.253 58.7029Z" fill="#5C4998"/>
<path d="M131.116 130.974L82.6595 136.155C50.7999 139.562 27.7328 168.165 31.1376 200.041L32.8493 216.067C36.2541 247.944 64.8415 271.023 96.7011 267.617L145.158 262.435C177.018 259.029 200.085 230.426 196.68 198.549L194.968 182.524C191.563 150.647 162.976 127.567 131.116 130.974Z" fill="#241B2E"/>
<path d="M65.0994 283.515H64.9629C58.7054 283.515 53.6328 288.59 53.6328 294.851V311.923C53.6328 318.184 58.7054 323.26 64.9629 323.26H65.0994C71.3568 323.26 76.4294 318.184 76.4294 311.923V294.851C76.4294 288.59 71.3568 283.515 65.0994 283.515Z" fill="#5C4998"/>
<path d="M161.804 280.714L178.034 275.47C183.986 273.544 190.375 276.822 192.299 282.777C194.224 288.732 190.948 295.124 184.996 297.049L168.766 302.294C162.814 304.22 156.425 300.942 154.501 294.987C152.576 289.032 155.852 282.64 161.804 280.714Z" fill="#5C4998"/>
<path d="M139.497 269.584H96.0876C89.8083 269.584 84.6211 275.32 84.6211 282.286V321.758C84.6211 328.723 89.8083 334.46 96.0876 334.46C101.821 334.46 106.326 329.27 106.326 322.987V322.441C106.326 316.158 110.284 310.422 116.018 309.465C122.979 308.373 129.122 314.382 129.122 321.894V322.714C129.122 329.133 133.763 334.323 139.497 334.323C145.776 334.323 150.963 328.587 150.963 321.621V282.149C150.963 275.184 145.776 269.447 139.497 269.447V269.584Z" fill="#5C4998"/>
<path d="M116.426 207.849C117.518 211.537 124.753 214.542 128.848 214.132C132.943 213.722 135.946 210.444 136.219 206.62L116.426 207.986V207.849Z" fill="#D9BDDC"/>
<path d="M149.914 189.123L150.952 200.118L179.918 209.774L182.935 200.733L161.49 193.576L182.143 182.062L177.502 173.73L149.914 189.123Z" fill="#D9BDDC"/>
<path d="M99.8144 194.395V205.431L71.8578 217.764L68.022 209.037L88.7164 199.913L67.0664 190.38L70.9159 181.652L99.8144 194.395Z" fill="#D9BDDC"/>
</g>
<defs>
<clipPath id="clip0_14053_50950">
<rect width="538" height="360" fill="white"/>
</clipPath>
</defs>
</svg>
