<svg width="680" height="196" viewBox="0 0 680 196" fill="none" xmlns="http://www.w3.org/2000/svg">
    <path d="M122.728 136.254C124.994 139.817 129.828 140.148 133.486 138.597C138.133 136.626 140.89 131.692 143.066 127.432C146.956 119.819 150.234 111.655 160.763 109.228C167.51 109.199 172.234 110.132 180.821 115.861C187.956 122.93 193.01 130.587 198.735 138.117C204.248 145.368 211.512 151.604 221.125 151.9C225.161 152.025 229.316 150.897 232.202 147.927C235.286 144.755 236.413 140.258 239.11 136.799C244.129 130.363 252.783 128.557 260.493 129.534C269.462 130.67 276.93 135.767 283.628 141.475C290.572 147.393 296.973 154.182 305.192 158.395C312.205 161.99 320.703 163.932 328.208 160.424C335.562 156.986 339.722 149.449 343.481 142.677C347.35 135.707 351.249 128.354 357.805 123.491C371.855 113.07 391.304 117.662 405.445 124.987C421.586 133.348 436.642 146.574 455.7 147.285C463.892 147.59 472.726 145.685 478.857 139.869C485.054 133.991 486.74 125.518 488.039 117.473C489.37 109.233 490.718 101.09 495.179 93.833C499.556 86.7108 505.878 80.8587 513.356 77.0863C516.968 75.2644 520.753 74.0067 524.715 73.2335C526.525 72.8802 526.696 75.7346 524.899 76.0855C516.21 77.7814 508.209 82.4919 502.288 89.0537C496.338 95.6467 493.343 103.467 491.825 112.068C490.436 119.944 489.769 128.288 485.807 135.436C481.799 142.666 474.748 147.347 466.76 149.144C458.659 150.967 450.096 150.272 442.256 147.765C433.149 144.854 424.946 139.761 416.838 134.844C402.183 125.957 384.282 115.868 366.493 122.105C349.65 128.011 347.601 147.694 335.647 158.727C329.769 164.151 322.053 166.116 314.273 164.637C306.219 163.105 299.137 158.652 292.951 153.494C285.372 147.174 278.502 139.556 269.496 135.174C262.377 131.711 252.763 130.547 245.641 134.815C241.56 137.26 239.774 141.1 237.597 145.117C235.635 148.738 233.023 151.692 229.175 153.347C221.967 156.447 213.226 154.235 206.927 150.203C191.39 140.259 187.396 116.618 167.496 112.614C163.858 111.882 159.984 112.106 156.647 113.885C152.176 116.268 149.588 120.838 147.383 125.188C143.573 132.702 138.913 142.454 129.051 142.327C125.551 142.282 122.253 140.866 120.349 137.872C119.367 136.326 121.741 134.702 122.728 136.254Z" fill="#3E3E40"/>
    <path d="M338.475 137.723C341.115 133.841 346.402 132.835 350.283 135.474C354.165 138.114 355.172 143.401 352.532 147.283C349.892 151.165 344.606 152.172 340.724 149.532C336.842 146.892 335.835 141.605 338.475 137.723Z" fill="#FCA728" stroke="#252527"/>
    <path d="M481.116 134.735C482.168 133.188 484.274 132.787 485.82 133.839C487.366 134.89 487.768 136.996 486.716 138.543C485.664 140.089 483.559 140.49 482.012 139.439C480.466 138.387 480.065 136.281 481.116 134.735Z" fill="#FCA728" stroke="#252527"/>
    <path d="M233.878 135.986C235.908 133.001 239.973 132.227 242.957 134.257C245.942 136.286 246.716 140.351 244.686 143.336C242.657 146.321 238.592 147.095 235.607 145.065C232.622 143.036 231.848 138.971 233.878 135.986Z" fill="#FCA728" stroke="#252527"/>
    <path d="M623.443 56.3194H636.63C639.147 56.3194 641.194 54.2718 641.194 51.7548V38.568C641.194 36.051 639.147 34.0034 636.63 34.0034H623.443C620.926 34.0034 618.878 36.051 618.878 38.568V51.7548C618.878 54.2718 620.926 56.3194 623.443 56.3194Z" fill="#3E3E40"/>
    <path d="M596.705 49.316H609.892C612.408 49.316 614.456 47.2684 614.456 44.7514V31.5645C614.456 29.0476 612.408 27 609.892 27H596.705C594.188 27 592.14 29.0476 592.14 31.5645V44.7514C592.14 47.2684 594.188 49.316 596.705 49.316Z" fill="#3E3E40"/>
    <path d="M562.705 51.316H575.892C578.408 51.316 580.456 49.2684 580.456 46.7514V33.5645C580.456 31.0476 578.408 29 575.892 29H562.705C560.188 29 558.14 31.0476 558.14 33.5645V46.7514C558.14 49.2684 560.188 51.316 562.705 51.316Z" fill="#3E3E40"/>
    <path d="M572.749 41.3453C572.472 41.233 572.472 40.8453 572.749 40.733C574.68 39.9498 576.842 38.8348 578.495 37.622C578.759 37.4278 579.113 37.6955 579.001 38.0041L578.06 40.6039H594.154V41.4742H578.06L579.001 44.0749C579.113 44.3835 578.759 44.6512 578.495 44.457C576.842 43.2442 574.68 42.129 572.749 41.3453Z" fill="#252527"/>
    <path d="M608.957 37.1537C608.805 36.8968 609.04 36.5882 609.328 36.6664C611.339 37.2121 613.735 37.6338 615.784 37.6691C616.112 37.6747 616.231 38.1018 615.956 38.2798L613.633 39.7794L626.442 49.5236L625.915 50.2162L613.106 40.4721L612.28 43.1115C612.182 43.4247 611.739 43.4237 611.646 43.109C611.065 41.1432 610.019 38.9465 608.957 37.1537Z" fill="#252527"/>
    <path d="M564.916 35.9195C560.796 35.9195 557.456 32.5797 557.456 28.4598C557.456 24.3398 560.796 21 564.916 21C569.036 21 572.376 24.3398 572.376 28.4598C572.376 32.5797 569.036 35.9195 564.916 35.9195Z" fill="#FCA728"/>
    <path opacity="0.7" d="M601.469 35.9195C597.349 35.9195 594.009 32.5797 594.009 28.4598C594.009 24.3398 597.349 21 601.469 21C605.589 21 608.929 24.3398 608.929 28.4598C608.929 32.5797 605.589 35.9195 601.469 35.9195Z" fill="#FCA728"/>
    <path opacity="0.25" d="M634.54 42.8819C630.42 42.8819 627.08 39.5421 627.08 35.4222C627.08 31.3023 630.42 27.9624 634.54 27.9624C638.66 27.9624 642 31.3023 642 35.4222C642 39.5421 638.66 42.8819 634.54 42.8819Z" fill="#FCA728"/>
    <path d="M583.991 30C584.422 29.7129 584.882 29.4587 585.356 29.2422C585.347 29.1198 585.342 28.9927 585.342 28.8703C585.318 27.6325 585.569 26.3946 586.083 25.2602C586.015 26.2581 586.33 27.2748 586.95 28.0702C587.056 28.2114 587.172 28.3432 587.298 28.4703C587.332 28.5032 587.366 28.5362 587.4 28.5644C588.083 28.4138 588.79 28.3432 589.492 28.3526C590.272 28.3667 591.047 28.4703 591.817 28.6162C592.781 28.7951 593.739 29.0445 594.698 29.2516C594.756 29.2657 594.81 29.2752 594.868 29.2893C595.309 28.1267 596.001 27.063 596.902 26.1875C596.471 27.0912 596.384 28.1502 596.665 29.1104C596.713 29.2798 596.771 29.4446 596.844 29.6046C597.89 29.7082 598.936 29.6799 599.938 29.3975C600.365 29.2798 600.767 29.1198 601.159 28.9315C602.544 28.2726 603.793 27.2936 605.222 26.7052C605.992 26.3852 606.806 26.1875 607.639 26.1075C608.336 22.2243 608.142 18.779 606.002 16.2891C606.002 10.608 601.26 6 595.415 6L590.562 7.63796L585.661 9.29476C583.356 15.2724 579.69 20.5346 583.991 30Z" fill="#1D1D1D"/>
    <path d="M533.123 55.3194H519.936C517.419 55.3194 515.371 53.2718 515.371 50.7548V37.568C515.371 35.051 517.419 33.0034 519.936 33.0034H533.123C535.639 33.0034 537.687 35.051 537.687 37.568V50.7548C537.687 53.2718 535.639 55.3194 533.123 55.3194Z" fill="#252527"/>
    <path d="M535.33 40.7039C538.281 40.7039 540.673 38.3116 540.673 35.3606C540.673 32.4096 538.281 30.0173 535.33 30.0173C532.379 30.0173 529.986 32.4096 529.986 35.3606C529.986 38.3116 532.379 40.7039 535.33 40.7039Z" fill="#FCA728"/>
    <path d="M601.617 44.4623L601.617 44.4615C601.734 43.9684 601.789 43.4759 601.789 42.9957C601.789 39.5902 599.02 36.6626 595.437 36.6626C592.133 36.6626 589.383 39.1945 589.112 42.4867L589.111 42.4869L587.571 61.069L587.528 61.5878L587.012 61.5239L568.691 59.2576L568.678 59.2561L568.665 59.2538L568.612 59.2444L568.602 59.2427L568.602 59.2426L568.587 59.2395L568.385 59.1999L568.269 59.0297C567.521 57.9269 566.207 57.0508 564.582 56.7645C561.708 56.2589 559.206 57.789 558.822 59.9609L601.617 44.4623ZM601.617 44.4623L596.364 66.8129L596.364 66.8131M601.617 44.4623L596.364 66.8131M596.364 66.8131C595.684 69.7158 592.78 71.5155 589.879 70.8386L568.847 64.3123L568.846 64.3121M596.364 66.8131L568.846 64.3121M568.846 64.3121L567.818 63.9947L567.58 63.9211M568.846 64.3121L567.58 63.9211M567.58 63.9211L567.377 64.0675M567.58 63.9211L567.377 64.0675M567.377 64.0675C566.297 64.8499 564.765 65.2249 563.14 64.9386M567.377 64.0675L563.14 64.9386M563.14 64.9386C560.266 64.4299 558.438 62.1362 558.822 59.9611L563.14 64.9386Z" fill="#D9AAA7" stroke="#252527"/>
    <path d="M602.289 42.9957C602.289 43.5143 602.229 44.0454 602.104 44.5767L597.794 67.8702C597.049 71.0478 593.865 73.0154 590.691 72.2642L569.642 66.4117L570.584 57.2968L586.614 59.4969L588.613 42.4456C588.906 38.8939 591.873 36.1626 595.437 36.1626C599.303 36.1626 602.289 39.3214 602.289 42.9957Z" fill="#1D1D1D"/>
    <path d="M628.396 173.87L625.241 169.591L629.521 166.436L632.676 170.715L628.396 173.87Z" fill="#D9AAA7" stroke="#252527"/>
    <path d="M625.566 171.325L621.551 179.603L621.528 179.652L621.495 179.694L618.223 183.862C617.95 184.209 617.943 184.701 618.205 185.056C618.427 185.359 618.813 185.51 619.182 185.44L619.275 185.931L619.182 185.44L621.881 184.929C622.934 184.729 623.949 184.287 624.812 183.65L635.62 175.683C636.232 175.232 636.665 174.598 636.846 173.904L637.329 174.03L636.846 173.904C636.998 173.321 636.931 172.909 636.744 172.617L636.744 172.617C636.527 172.276 636.062 171.979 635.218 171.826L635.045 171.795L634.929 171.661C634.869 171.591 634.452 171.114 633.98 170.646C633.742 170.411 633.5 170.187 633.287 170.021C633.18 169.937 633.089 169.875 633.016 169.833C632.95 169.796 632.921 169.788 632.921 169.787C632.921 169.787 632.921 169.787 632.921 169.787L632.631 169.746L632.527 169.467C632.51 169.423 632.433 169.227 632.298 169.024C632.157 168.81 631.995 168.654 631.831 168.595C631.831 168.595 631.831 168.595 631.831 168.595L625.566 171.325ZM625.566 171.325C625.757 171.499 625.951 171.674 626.125 171.831C626.287 171.977 626.433 172.107 626.544 172.204C626.599 172.252 626.647 172.294 626.685 172.326C626.686 172.327 626.687 172.328 626.689 172.329C626.711 172.348 626.767 172.396 626.818 172.425L626.886 172.466L626.964 172.483C628.373 172.795 629.59 172.648 630.444 171.874L630.108 171.503L630.444 171.874C631.171 171.215 631.433 170.272 631.528 169.558C631.58 169.17 631.585 168.823 631.578 168.579L625.566 171.325Z" fill="#9654F4" stroke="#252527"/>
    <path d="M580.211 186.389V181.072H585.527V186.389H580.211Z" fill="#D9AAA7" stroke="#252527"/>
    <path d="M571.299 186.942L579.443 182.661C579.493 182.914 579.545 183.17 579.593 183.4C579.637 183.613 579.677 183.805 579.708 183.948C579.724 184.02 579.738 184.082 579.75 184.13C579.75 184.131 579.75 184.133 579.751 184.135C579.758 184.164 579.775 184.236 579.797 184.289L579.829 184.362L579.881 184.422C580.83 185.51 581.896 186.113 583.043 185.997C584.019 185.898 584.79 185.295 585.29 184.776C585.562 184.494 585.772 184.218 585.912 184.018C586.005 184.061 586.064 184.118 586.106 184.181C586.202 184.326 586.24 184.548 586.227 184.803C586.215 185.047 586.161 185.25 586.148 185.296L586.066 185.582L586.276 185.787C586.276 185.787 586.275 185.787 586.275 185.787C586.275 185.788 586.294 185.812 586.325 185.881C586.359 185.958 586.395 186.062 586.431 186.193C586.504 186.453 586.567 186.777 586.618 187.107C586.721 187.764 586.773 188.395 586.78 188.488L586.794 188.663L586.915 188.792C587.503 189.415 587.701 189.93 587.674 190.334C587.651 190.68 587.46 191.051 586.992 191.43L587.306 191.818L586.992 191.43C586.434 191.881 585.71 192.134 584.949 192.134H571.522C570.45 192.134 569.371 191.889 568.404 191.424L568.187 191.874L568.404 191.424L565.929 190.234L565.712 190.685L565.929 190.234C565.59 190.071 565.37 189.721 565.37 189.345C565.37 188.904 565.668 188.512 566.093 188.394C566.093 188.394 566.093 188.394 566.093 188.394L571.2 186.981L571.251 186.967L571.299 186.942Z" fill="#9654F4" stroke="#252527"/>
    <path d="M611.8 81.8325H581.527L576.702 182.262H587.363L594.251 136.612L621.891 173.132L631.982 164.002L611.8 136.612V81.8325Z" fill="#1D1D1D"/>
    <path d="M590.836 30.2583L590.79 29.9494L590.492 29.856C586.165 28.4991 583.028 24.4586 583.028 19.6862C583.028 13.8006 587.799 9.0293 593.685 9.0293C599.57 9.0293 604.341 13.8005 604.341 19.6862C604.341 23.3956 602.446 26.6614 599.568 28.5708L599.238 28.7904L599.376 29.1623C600.03 30.9134 600.962 32.5555 601.725 33.7538C602.108 34.3545 602.45 34.8472 602.697 35.1905C602.737 35.2457 602.774 35.2971 602.809 35.3445L592.86 43.6349L590.836 30.2583Z" fill="#D9AAA7" stroke="#252527"/>
    <path d="M605.153 68.0654L610.097 82.6353L582.123 82.321L586.294 69.0084L605.153 68.0654Z" fill="#D9AAA7"/>
    <path d="M602.626 31.0854L590.221 35.398L578.494 95.9421L602.626 98.8885L604.386 89.6576L606.064 98.8885H614.423L605.411 38.6819C605.007 35.9872 604.06 33.4026 602.626 31.0854Z" fill="#9654F4"/>
    <path d="M611.447 103.579C611.27 103.579 611.093 103.572 610.915 103.559C608.795 103.399 606.971 102.263 605.492 100.18C599.929 92.3413 588.712 66.4005 588.712 59.0237C588.712 51.9743 590.246 35.8177 590.3 35.5756L601.629 29.3027C607.064 30.5788 610.848 35.5562 610.626 41.1381C610.083 54.7758 611.481 85.8643 620.629 98.7476L620.704 98.8538L620.614 98.9477C620.425 99.1435 616.092 103.579 611.447 103.579Z" fill="#1D1D1D"/>
    <path d="M590.61 146.5H649.39C650.305 146.5 651.112 146.264 651.674 145.908C652.243 145.548 652.5 145.114 652.5 144.717V106.283C652.5 105.886 652.243 105.452 651.674 105.092C651.112 104.736 650.305 104.5 649.39 104.5H590.61C589.695 104.5 588.888 104.736 588.326 105.092C587.757 105.452 587.5 105.886 587.5 106.283V144.717C587.5 145.114 587.757 145.548 588.326 145.908C588.888 146.264 589.695 146.5 590.61 146.5Z" fill="#3E3E40" stroke="#252527"/>
    <path d="M603.538 141.393H607.43C607.904 141.393 608.29 141.129 608.29 140.804V125.939C608.29 125.614 607.904 125.35 607.43 125.35H603.538C603.064 125.35 602.678 125.614 602.678 125.939V140.804C602.678 141.129 603.064 141.393 603.538 141.393Z" fill="#FCA728"/>
    <path d="M616.406 132.632C616.789 132.632 617.101 132.846 617.101 133.108V140.788C617.101 141.05 616.789 141.263 616.406 141.263H612.514C612.131 141.263 611.82 141.05 611.82 140.788V133.108C611.82 132.846 612.131 132.632 612.514 132.632H616.406Z" fill="#FCA728"/>
    <path d="M625.026 137C625.409 137 625.72 137.099 625.72 137.22V140.78C625.72 140.901 625.409 141 625.026 141H621.135C620.752 141 620.44 140.901 620.44 140.78V137.22C620.44 137.099 620.752 137 621.135 137H625.026Z" fill="#FCA728"/>
    <path d="M594.561 141.393H598.453C598.927 141.393 599.313 141.129 599.313 140.804V116.442C599.313 116.117 598.927 115.854 598.453 115.854H594.561C594.087 115.854 593.701 116.117 593.701 116.442V140.804C593.701 141.129 594.087 141.393 594.561 141.393Z" fill="#FCA728"/>
    <path d="M637.999 138.268H645.922C646.45 138.268 646.88 137.886 646.88 137.417C646.88 136.948 646.45 136.567 645.922 136.567H637.999C637.47 136.567 637.04 136.948 637.04 137.417C637.04 137.886 637.47 138.268 637.999 138.268Z" fill="#FCA728"/>
    <path d="M637.999 126.211H645.922C646.45 126.211 646.88 125.829 646.88 125.36C646.88 124.891 646.45 124.51 645.922 124.51H637.999C637.47 124.51 637.04 124.891 637.04 125.36C637.04 125.829 637.47 126.211 637.999 126.211Z" fill="#FCA728"/>
    <path d="M637.999 117.516H645.922C646.45 117.516 646.88 117.134 646.88 116.665C646.88 116.196 646.45 115.814 645.922 115.814H637.999C637.47 115.814 637.04 116.196 637.04 116.665C637.04 117.134 637.47 117.516 637.999 117.516Z" fill="#FCA728"/>
    <path d="M647.198 141.435C647.198 141.587 647.06 141.71 646.888 141.71H593.57C593.397 141.71 593.259 141.587 593.259 141.435C593.259 141.282 593.397 141.159 593.57 141.159H646.888C647.06 141.159 647.198 141.282 647.198 141.435Z" fill="#252527"/>
    <path d="M598.649 102.213L598.644 102.424L598.793 102.575C599.73 103.524 600.332 104.984 600.297 106.631C600.233 109.55 598.244 111.706 596.037 111.658C593.83 111.61 591.936 109.37 592 106.451C592.035 104.804 592.701 103.372 593.678 102.464L593.833 102.32L593.838 102.109L594.043 92.6567L598.854 92.7611L598.649 102.213Z" fill="#D9AAA7" stroke="#252527"/>
    <path d="M591.127 52.4153V100.652H601.218L604.2 52.8225" fill="#1D1D1D"/>
    <path d="M588.016 16.5657C588.074 15.7066 588.303 14.8557 588.681 14.0664C588.618 14.9379 588.91 15.8258 589.485 16.5205C589.498 16.537 589.512 16.5493 589.521 16.5657C591.006 17.2255 593.509 16.8524 595.928 16.5657V8.34426H590.985C586.133 6.84795 582.139 10.1036 582 16.5657C584.328 16.9515 586.51 17.1628 588.016 16.5657Z" fill="#1D1D1D"/>
    <path d="M594.045 5.09654C594.223 4.51788 594.901 4.24206 595.479 4.33523C596.057 4.42841 596.554 4.79476 597.028 5.15062C596.567 4.62875 596.802 3.70808 597.367 3.31075C597.932 2.91342 598.687 2.94084 599.339 3.14912C599.991 3.3574 600.585 3.72484 601.222 3.97876C601.859 4.23268 602.586 4.36753 603.217 4.09765C602.971 4.90016 602.496 5.62531 601.868 6.15729C602.611 6.02223 603.417 6.42247 603.782 7.10832C604.147 7.7942 604.045 8.71567 603.54 9.29791C602.96 9.96624 601.98 10.1228 601.137 9.91307C600.295 9.70329 599.558 9.18756 598.848 8.67243C598.138 8.15726 597.417 7.62402 596.585 7.37048L599.317 9.15494C597.922 8.55118 596.569 7.8439 595.27 7.04031C594.923 6.82542 594.573 6.59736 594.319 6.27063C594.066 5.94393 593.922 5.49639 594.045 5.09654Z" fill="#1D1D1D"/>
    <path d="M591.764 28.8752C592.707 29.046 593.645 29.2842 594.583 29.482C594.64 29.4955 594.692 29.5045 594.749 29.518C595.18 28.4078 595.857 27.3919 596.739 26.5559C596.317 27.4189 596.232 28.4302 596.506 29.3472C596.554 29.509 596.611 29.6663 596.682 29.8191C597.705 29.918 598.728 29.8911 599.709 29.6214C600.126 29.509 600.519 29.3562 600.903 29.1764L605.5 23L605 15.5L599.5 7.5L590.954 9.97433C594.815 16.2132 595.365 22.506 591.764 28.8752Z" fill="#1D1D1D"/>
    <g clip-path="url(#clip0_7480_22305)">
        <path d="M20.5 90C11.9396 90 5 82.6127 5 73.5C5 64.3873 11.9396 57 20.5 57C29.0604 57 36 64.3873 36 73.5C36 82.6127 29.0604 90 20.5 90Z" fill="#3E3E40"/>
        <path d="M112.71 91.3743H136.76C137.366 91.3743 137.86 90.8585 137.86 90.2247C137.86 89.5908 137.366 89.0752 136.76 89.0752H112.71C112.103 89.0752 111.61 89.5907 111.61 90.2247C111.61 90.8586 112.103 91.3743 112.71 91.3743Z" fill="#252527"/>
        <path d="M7.70744 54.5714C7.70744 65.5492 16.2142 74.4101 26.6615 74.4101C37.1088 74.4101 45.6155 65.5492 45.6155 54.5714C45.6155 43.5936 37.1088 34.7327 26.6615 34.7327C16.2142 34.7327 7.70744 43.5936 7.70744 54.5714Z" fill="#252527" stroke="#252527"/>
        <path d="M3.98853 29.2439C27.4383 51.6629 47.0082 73.7599 54.8115 94.8804L54.9021 96.2306C44.2228 73.8604 25.4053 51.7463 3.41167 29.7322L3.98853 29.2439Z" fill="#FCA728"/>
        <path d="M2.8883 33.4826L3.62924 33.5364L4.82484 30.8274L7.50172 30.2589L7.60568 29.49L3.19316 28.8345L2.8883 33.4826Z" fill="#FCA728"/>
        <path d="M79.0145 50.0584L76.3911 39.5144L66.1711 39.0005L63.1134 53.535L79.0145 50.0584Z" fill="#9B616A"/>
        <path opacity="0.1" d="M66.5725 39.5213L63.7619 52.8814L78.4051 49.6799L75.9954 39.9952L66.5725 39.5213Z" fill="#1D1D1D" stroke="#252527"/>
        <path d="M59.8285 31.7629C59.8285 38.6306 65.1483 44.1596 71.6643 44.1596C78.1802 44.1596 83.5 38.6306 83.5 31.7629C83.5 24.8952 78.1802 19.3662 71.6643 19.3662C65.1483 19.3662 59.8285 24.8952 59.8285 31.7629Z" fill="#9B616A" stroke="#252527"/>
        <path d="M65.4835 35.2481C65.4835 35.2481 70.1696 25.5411 75.6602 26.1015C81.1508 26.662 84.0434 27.3435 84.0434 27.3435C84.0434 27.3435 85.6732 19.7832 77.9999 16.8752C77.9999 16.8752 87.7563 6.82036 76.1405 1.88804C64.5247 -3.04429 58.0248 3.24627 58.0248 3.24627C58.0248 3.24627 49.4266 12.2202 60.2557 18.9273C60.2557 18.9273 52.2147 30.2353 61.9502 39.5556C61.9502 39.5556 59.7727 32.0134 62.0448 33.4043C64.3168 34.7952 65.4835 35.2481 65.4835 35.2481Z" fill="#1D1D1D"/>
        <path d="M104.013 57.3194H90.8263C88.3093 57.3194 86.2617 55.2718 86.2617 52.7548V39.568C86.2617 37.051 88.3093 35.0034 90.8263 35.0034H104.013C106.53 35.0034 108.578 37.051 108.578 39.568V52.7548C108.578 55.2718 106.53 57.3194 104.013 57.3194Z" fill="#3E3E40"/>
        <path d="M130.751 50.316H117.565C115.048 50.316 113 48.2684 113 45.7514V32.5645C113 30.0476 115.048 28 117.565 28H130.751C133.268 28 135.316 30.0476 135.316 32.5645V45.7514C135.316 48.2684 133.268 50.316 130.751 50.316Z" fill="#3E3E40"/>
        <path d="M164.751 52.316H151.565C149.048 52.316 147 50.2684 147 47.7514V34.5645C147 32.0476 149.048 30 151.565 30H164.751C167.268 30 169.316 32.0476 169.316 34.5645V47.7514C169.316 50.2684 167.268 52.316 164.751 52.316Z" fill="#3E3E40"/>
        <path d="M154.707 42.3453C154.984 42.233 154.984 41.8453 154.707 41.733C152.776 40.9498 150.614 39.8348 148.962 38.622C148.697 38.4278 148.343 38.6955 148.455 39.0041L149.396 41.6039H133.302V42.4742H149.396L148.455 45.0749C148.343 45.3835 148.697 45.6512 148.961 45.457C150.614 44.2442 152.776 43.129 154.707 42.3453Z" fill="#252527"/>
        <path d="M118.499 38.1537C118.651 37.8968 118.416 37.5882 118.128 37.6664C116.117 38.2121 113.721 38.6338 111.672 38.6691C111.344 38.6747 111.225 39.1018 111.5 39.2798L113.823 40.7794L101.014 50.5236L101.541 51.2162L114.35 41.4721L115.176 44.1115C115.274 44.4247 115.717 44.4237 115.81 44.109C116.391 42.1432 117.437 39.9465 118.499 38.1537Z" fill="#252527"/>
        <path d="M162.54 36.9195C166.66 36.9195 170 33.5797 170 29.4598C170 25.3398 166.66 22 162.54 22C158.42 22 155.08 25.3398 155.08 29.4598C155.08 33.5797 158.42 36.9195 162.54 36.9195Z" fill="#FCA728"/>
        <path opacity="0.7" d="M125.987 36.9195C130.107 36.9195 133.447 33.5797 133.447 29.4598C133.447 25.3398 130.107 22 125.987 22C121.867 22 118.527 25.3398 118.527 29.4598C118.527 33.5797 121.867 36.9195 125.987 36.9195Z" fill="#FCA728"/>
        <path opacity="0.25" d="M92.9158 43.8819C97.0357 43.8819 100.376 40.5421 100.376 36.4222C100.376 32.3023 97.0357 28.9624 92.9158 28.9624C88.7959 28.9624 85.4561 32.3023 85.4561 36.4222C85.4561 40.5421 88.7959 43.8819 92.9158 43.8819Z" fill="#FCA728"/>
        <path d="M70.9365 153.733L71.9246 153.701L81.4156 204.933H100.406L98.8969 131.716L87.1216 105.319L85.727 103.922L54.5967 108.99L43.5851 136.299L47.9236 204.723H64.9177L70.9365 153.733Z" fill="#1D1D1D" stroke="#1D1D1D"/>
        <path d="M2.79755 191.687H50.2081C51.8138 191.687 53.1201 190.322 53.1201 188.643V137.402C53.1201 135.724 51.8138 134.358 50.2081 134.358H2.79755C1.19174 134.358 -0.114452 135.724 -0.114452 137.402V188.643C-0.114452 190.322 1.19174 191.687 2.79755 191.687Z" fill="#3E3E40"/>
        <path d="M2.79797 192H50.2087C51.9793 192 53.4199 190.494 53.4199 188.643V137.402C53.4199 135.551 51.9793 134.045 50.2087 134.045H2.79797C1.02735 134.045 -0.413288 135.551 -0.413288 137.402V188.643C-0.413288 190.494 1.02735 192 2.79797 192ZM50.2087 134.671C51.6493 134.671 52.8213 135.896 52.8213 137.402V188.643C52.8213 190.149 51.6493 191.374 50.2087 191.374H2.79797C1.35733 191.374 0.185299 190.149 0.185299 188.643V137.402C0.185299 135.896 1.35733 134.671 2.79797 134.671H50.2087Z" fill="#252527"/>
        <path d="M24.6325 178.226H28.54C29.0158 178.226 29.4028 177.913 29.4028 177.529V159.941C29.4028 159.557 29.0158 159.244 28.54 159.244H24.6325C24.1567 159.244 23.7697 159.557 23.7697 159.941V177.529C23.7697 177.913 24.1567 178.226 24.6325 178.226Z" fill="#FCA728"/>
        <path d="M37.5514 167.86C37.9358 167.86 38.2485 168.113 38.2485 168.423V177.51C38.2485 177.82 37.9358 178.072 37.5514 178.072H33.6438C33.2595 178.072 32.9467 177.82 32.9467 177.51V168.423C32.9467 168.113 33.2595 167.86 33.6438 167.86H37.5514Z" fill="#FCA728"/>
        <path d="M15.6217 178.226H19.5293C20.0051 178.226 20.3921 177.913 20.3921 177.529V148.705C20.3921 148.321 20.0051 148.008 19.5293 148.008H15.6217C15.1459 148.008 14.7589 148.321 14.7589 148.705V177.529C14.7589 177.913 15.1459 178.226 15.6217 178.226Z" fill="#FCA728"/>
        <path d="M40.7143 138.555L40.7137 138.562C40.5467 140.385 40.8484 142.058 41.4458 143.284C42.048 144.519 42.9043 145.224 43.8217 145.316C44.7369 145.407 45.7019 144.887 46.5153 143.796C47.3228 142.713 47.9223 141.133 48.0889 139.31L48.0896 139.303C48.2405 137.863 48.0591 136.406 47.5611 135.055L47.5231 134.952L47.5319 134.842L48.3041 125.227L48.3069 125.193L48.3143 125.159C49.3091 120.665 50.5616 114.477 51.2732 108.938C51.6292 106.167 51.8481 103.573 51.8345 101.441C51.8277 100.375 51.7628 99.4351 51.6314 98.6524C51.4989 97.8635 51.3042 97.2673 51.0589 96.8651L51.0589 96.8651C50.7438 96.3485 50.4081 96.0499 50.0782 95.8913C49.751 95.7339 49.3887 95.6944 48.9826 95.7653C48.1425 95.912 47.1667 96.5227 46.1554 97.4229C42.8203 100.392 41.0768 104.898 41.3296 109.499L42.4306 129.541L42.5581 129.581L42.516 129.987L42.0704 134.287L42.059 134.397L42.0022 134.492C41.2694 135.718 40.8273 137.112 40.7143 138.555Z" fill="#9B616A" stroke="#252527"/>
        <mask id="path-65-inside-1_7480_22305" fill="white">
            <path fill-rule="evenodd" clip-rule="evenodd" d="M65.2685 48.9868H78.5694L93.0371 57.1265L92.9504 57.5308C95.4297 58.0109 99.3064 59.3355 100.173 62.9599C101.471 68.3863 102.509 96.3325 102.509 96.3325C102.509 96.3325 101.73 112.915 93.0363 105.031C90.5514 102.777 88.8403 99.2172 87.6637 95.2816C87.1673 100.718 87.5872 105.693 87.5872 105.693L54.2389 108.542L54.18 106.725L40.2245 109.356C40.2245 109.356 43.5982 69.2003 46.7125 61.0606C48.5038 56.3787 51.4972 55.2875 53.7171 55.2053L53.7198 55.0916L65.2685 48.9868Z"/>
        </mask>
        <path fill-rule="evenodd" clip-rule="evenodd" d="M65.2685 48.9868H78.5694L93.0371 57.1265L92.9504 57.5308C95.4297 58.0109 99.3064 59.3355 100.173 62.9599C101.471 68.3863 102.509 96.3325 102.509 96.3325C102.509 96.3325 101.73 112.915 93.0363 105.031C90.5514 102.777 88.8403 99.2172 87.6637 95.2816C87.1673 100.718 87.5872 105.693 87.5872 105.693L54.2389 108.542L54.18 106.725L40.2245 109.356C40.2245 109.356 43.5982 69.2003 46.7125 61.0606C48.5038 56.3787 51.4972 55.2875 53.7171 55.2053L53.7198 55.0916L65.2685 48.9868Z" fill="#9654F4"/>
        <path d="M78.5694 48.9868V47.9868H78.8314L79.0597 48.1153L78.5694 48.9868ZM65.2685 48.9868L64.8011 48.1027L65.0204 47.9868H65.2685V48.9868ZM93.0371 57.1265L93.5274 56.2549L94.1693 56.616L94.0149 57.3361L93.0371 57.1265ZM92.9504 57.5308L92.7603 58.5125L91.7588 58.3186L91.9727 57.3211L92.9504 57.5308ZM100.173 62.9599L99.2005 63.1925L100.173 62.9599ZM102.509 96.3325L103.508 96.2954L103.51 96.3374L103.508 96.3794L102.509 96.3325ZM93.0363 105.031L92.3645 105.772H92.3645L93.0363 105.031ZM87.6637 95.2816L86.6678 95.1907L88.6218 94.9952L87.6637 95.2816ZM87.5872 105.693L88.5837 105.609L88.6677 106.604L87.6723 106.689L87.5872 105.693ZM54.2389 108.542L54.324 109.538L53.2736 109.628L53.2394 108.574L54.2389 108.542ZM54.18 106.725L53.9947 105.742L55.1416 105.526L55.1795 106.693L54.18 106.725ZM40.2245 109.356L40.4097 110.339L39.1179 110.582L39.228 109.272L40.2245 109.356ZM46.7125 61.0606L45.7785 60.7033L46.7125 61.0606ZM53.7171 55.2053L54.7168 55.2295L54.694 56.1698L53.7541 56.2046L53.7171 55.2053ZM53.7198 55.0916L52.7201 55.0674L52.7343 54.4814L53.2525 54.2075L53.7198 55.0916ZM78.5694 49.9868H65.2685V47.9868H78.5694V49.9868ZM92.5468 57.998L78.0791 49.8584L79.0597 48.1153L93.5274 56.2549L92.5468 57.998ZM91.9727 57.3211L92.0593 56.9168L94.0149 57.3361L93.9282 57.7404L91.9727 57.3211ZM99.2005 63.1925C98.8466 61.7125 97.8796 60.6707 96.6467 59.9205C95.4011 59.1626 93.9412 58.7412 92.7603 58.5125L93.1405 56.549C94.4389 56.8004 96.157 57.2814 97.6863 58.212C99.2283 59.1502 100.633 60.5829 101.146 62.7273L99.2005 63.1925ZM102.509 96.3325C101.509 96.3696 101.509 96.3695 101.509 96.3693C101.509 96.3691 101.509 96.3688 101.509 96.3684C101.509 96.3676 101.509 96.3663 101.509 96.3647C101.509 96.3613 101.509 96.3563 101.509 96.3496C101.508 96.3363 101.507 96.3163 101.506 96.2899C101.504 96.2371 101.502 96.1585 101.498 96.0557C101.49 95.8502 101.478 95.5478 101.462 95.161C101.432 94.3872 101.386 93.2756 101.327 91.9245C101.21 89.2222 101.04 85.5634 100.829 81.736C100.618 77.9074 100.368 73.9158 100.089 70.5461C99.8077 67.1457 99.5039 64.4612 99.2005 63.1925L101.146 62.7273C101.491 64.1718 101.804 67.0155 102.082 70.3812C102.363 73.7775 102.615 77.7899 102.826 81.6262C103.037 85.4636 103.208 89.1305 103.325 91.8377C103.384 93.1914 103.43 94.3054 103.461 95.0812C103.476 95.4691 103.488 95.7724 103.496 95.9789C103.5 96.0821 103.503 96.1611 103.505 96.2144C103.506 96.241 103.507 96.2612 103.507 96.2748C103.508 96.2816 103.508 96.2867 103.508 96.2901C103.508 96.2918 103.508 96.2931 103.508 96.294C103.508 96.2944 103.508 96.2948 103.508 96.295C103.508 96.2952 103.508 96.2954 102.509 96.3325ZM93.7081 104.29C95.7858 106.174 97.0845 106.319 97.8587 106.052C98.7205 105.756 99.4877 104.788 100.106 103.263C100.703 101.791 101.058 100.055 101.262 98.656C101.363 97.9628 101.425 97.3654 101.462 96.9426C101.481 96.7314 101.493 96.5644 101.5 96.4515C101.504 96.395 101.506 96.3521 101.508 96.3241C101.509 96.31 101.509 96.2997 101.51 96.2932C101.51 96.29 101.51 96.2877 101.51 96.2865C101.51 96.2858 101.51 96.2854 101.51 96.2853C101.51 96.2852 101.51 96.2853 101.51 96.2852C101.51 96.2854 101.51 96.2856 102.509 96.3325C103.508 96.3794 103.508 96.3797 103.508 96.3801C103.508 96.3803 103.508 96.3808 103.508 96.3812C103.508 96.3821 103.508 96.3832 103.507 96.3845C103.507 96.3873 103.507 96.391 103.507 96.3957C103.506 96.4051 103.506 96.4185 103.505 96.4356C103.503 96.4698 103.5 96.519 103.496 96.5821C103.488 96.7083 103.474 96.8898 103.455 97.1167C103.415 97.5699 103.349 98.2064 103.241 98.9447C103.027 100.409 102.644 102.326 101.959 104.014C101.296 105.649 100.239 107.348 98.5096 107.943C96.6927 108.569 94.6338 107.829 92.3645 105.772L93.7081 104.29ZM88.6218 94.9952C89.779 98.8658 91.4234 102.218 93.7081 104.29L92.3645 105.772C89.6793 103.336 87.9016 99.5685 86.7056 95.568L88.6218 94.9952ZM87.5872 105.693C86.5907 105.777 86.5907 105.777 86.5907 105.777C86.5907 105.777 86.5907 105.777 86.5907 105.777C86.5907 105.776 86.5906 105.776 86.5906 105.776C86.5905 105.775 86.5904 105.774 86.5903 105.772C86.5901 105.769 86.5897 105.765 86.5893 105.76C86.5884 105.749 86.5872 105.734 86.5856 105.714C86.5825 105.674 86.5781 105.616 86.5727 105.54C86.5619 105.389 86.5471 105.169 86.531 104.888C86.4988 104.327 86.4613 103.523 86.4396 102.548C86.3961 100.601 86.4151 97.9584 86.6678 95.1907L88.6595 95.3725C88.4159 98.0415 88.3967 100.604 88.4391 102.504C88.4602 103.452 88.4967 104.232 88.5277 104.774C88.5432 105.044 88.5574 105.255 88.5676 105.397C88.5727 105.468 88.5768 105.522 88.5796 105.558C88.581 105.576 88.582 105.589 88.5827 105.598C88.5831 105.602 88.5833 105.605 88.5835 105.607C88.5836 105.608 88.5836 105.608 88.5836 105.609C88.5837 105.609 88.5837 105.609 88.5837 105.609C88.5837 105.609 88.5837 105.609 88.5837 105.609C88.5837 105.609 88.5837 105.609 87.5872 105.693ZM54.1538 107.546L87.5021 104.697L87.6723 106.689L54.324 109.538L54.1538 107.546ZM55.1795 106.693L55.2384 108.51L53.2394 108.574L53.1805 106.757L55.1795 106.693ZM40.0392 108.373L53.9947 105.742L54.3652 107.708L40.4097 110.339L40.0392 108.373ZM47.6464 61.418C46.9126 63.3361 46.1305 67.2641 45.3733 72.1925C44.6221 77.0821 43.9102 82.8491 43.2945 88.3715C42.679 93.892 42.1605 99.1597 41.7959 103.048C41.6136 104.992 41.4698 106.59 41.3716 107.703C41.3225 108.259 41.2848 108.693 41.2594 108.989C41.2467 109.136 41.2371 109.249 41.2306 109.325C41.2274 109.363 41.225 109.392 41.2234 109.411C41.2226 109.421 41.222 109.428 41.2215 109.433C41.2213 109.435 41.2212 109.437 41.2211 109.438C41.221 109.439 41.221 109.439 41.221 109.439C41.221 109.44 41.221 109.44 40.2245 109.356C39.228 109.272 39.228 109.272 39.228 109.272C39.228 109.271 39.2281 109.271 39.2281 109.27C39.2282 109.269 39.2284 109.267 39.2286 109.265C39.229 109.26 39.2296 109.252 39.2305 109.243C39.2321 109.223 39.2346 109.194 39.2378 109.156C39.2443 109.079 39.254 108.966 39.2668 108.817C39.2923 108.52 39.3302 108.084 39.3794 107.527C39.4779 106.411 39.622 104.809 39.8046 102.861C40.1699 98.9656 40.6896 93.6856 41.3068 88.1498C41.9238 82.6158 42.6392 76.8178 43.3965 71.8888C44.1478 66.9988 44.9552 62.855 45.7785 60.7033L47.6464 61.418ZM53.7541 56.2046C52.7923 56.2402 51.6852 56.4924 50.6246 57.2293C49.5669 57.9642 48.4831 59.2313 47.6464 61.418L45.7785 60.7033C46.7332 58.208 48.0417 56.5886 49.4835 55.5868C50.9223 54.5871 52.4219 54.2526 53.6801 54.206L53.7541 56.2046ZM54.7196 55.1158L54.7168 55.2295L52.7174 55.1811L52.7201 55.0674L54.7196 55.1158ZM65.7358 49.8709L54.1872 55.9756L53.2525 54.2075L64.8011 48.1027L65.7358 49.8709Z" fill="#1D1D1D" mask="url(#path-65-inside-1_7480_22305)"/>
        <path d="M31.8545 148.307C31.8545 148.513 31.6959 148.679 31.4983 148.679H-29.6442C-29.8417 148.679 -30.0003 148.513 -30.0003 148.307C-30.0003 148.1 -29.8417 147.935 -29.6442 147.935H31.4983C31.6959 147.935 31.8545 148.1 31.8545 148.307Z" fill="#252527"/>
        <path d="M49.8125 178.658C49.8125 178.865 49.6539 179.031 49.4563 179.031H-11.6862C-11.8837 179.031 -12.0423 178.865 -12.0423 178.658C-12.0423 178.452 -11.8837 178.286 -11.6862 178.286H49.4563C49.6539 178.286 49.8125 178.452 49.8125 178.658Z" fill="#252527"/>
        <path d="M103.985 61.308L103.986 61.308C103.872 62.7518 103.43 64.1449 102.698 65.371L102.641 65.466L102.629 65.576L102.184 69.8759L102.142 70.2824L102.269 70.3223L103.37 90.3645C103.623 94.9658 101.879 99.4717 98.5444 102.44C97.533 103.341 96.5572 103.951 95.7171 104.098C95.311 104.169 94.9487 104.129 94.6215 103.972C94.2916 103.813 93.9559 103.515 93.6408 102.998C93.3955 102.596 93.2008 102 93.0683 101.211C92.9369 100.428 92.872 99.4885 92.8652 98.4225C92.8516 96.2904 93.0705 93.696 93.4265 90.9254C94.1381 85.3866 95.3906 79.1979 96.3854 74.7042L96.3928 74.6705L96.3956 74.6361L97.1678 65.0213L97.1766 64.9116L97.1386 64.8084C96.6406 63.4574 96.4592 62.0005 96.6101 60.5601L96.6108 60.5535L96.6107 60.5535C96.7774 58.7305 97.3769 57.1499 98.1844 56.0669C98.9978 54.976 99.9628 54.456 100.878 54.5476L103.985 61.308ZM103.985 61.308L103.986 61.3014M103.985 61.308L103.986 61.3014M103.986 61.3014C104.153 59.4779 103.851 57.8054 103.254 56.5797M103.986 61.3014L103.254 56.5797M103.254 56.5797C102.652 55.3442 101.795 54.6394 100.878 54.5476L103.254 56.5797Z" fill="#9B616A" stroke="#252527"/>
    </g>
    <defs>
        <clipPath id="clip0_7480_22305">
            <rect width="204" height="206" fill="white" transform="matrix(-1 0 0 1 174 0)"/>
        </clipPath>
    </defs>
</svg>
