<svg width="156" height="179" viewBox="0 0 156 179" fill="none" xmlns="http://www.w3.org/2000/svg">
    <path d="M7.97844 79.573L143.965 94.0443C147.298 94.399 149.712 97.3813 149.356 100.706L148.7 106.839C148.344 110.163 145.354 112.57 142.022 112.216L6.03466 97.7444C2.70181 97.3898 0.288275 94.4074 0.643865 91.0832L1.29994 84.9499C1.65553 81.6256 4.64559 79.2183 7.97844 79.573Z" fill="#D9BDDC"/>
    <path d="M58.7365 136.711H86.937C91.0125 136.711 94.3438 140.405 94.3438 144.912V170.415C94.3438 174.921 91.0125 178.615 86.937 178.615C83.2514 178.615 80.2568 175.301 80.2568 171.219V170.892C80.2568 166.8 77.652 163.115 74.0018 162.515C69.4568 161.763 65.5054 165.687 65.5054 170.591V171.113C65.5054 175.257 62.4753 178.615 58.7365 178.615C54.661 178.615 51.3298 174.921 51.3298 170.415V144.912C51.3298 140.405 54.661 136.711 58.7365 136.711Z" fill="#6853AC"/>
    <g filter="url(#filter0_d_15534_64644)">
        <path d="M38.1902 137.366L92.8016 143.181C113.383 145.372 136.728 132.25 138.925 111.722L142.017 82.8252C144.215 62.2973 129.171 43.7134 108.59 41.5219L53.9782 35.7072C33.3971 33.5157 14.7651 48.5206 12.5679 69.0486L9.47586 97.9451C7.27864 118.473 17.618 135.175 38.1902 137.366Z" fill="#6853AC"/>
    </g>
    <path opacity="0.8" d="M95.6933 3.49618C90.0586 2.33855 81.1723 1.85254 81.633 10.0796C82.1468 19.323 97.8463 12.713 99.2638 22.4335C101.612 38.6226 72.41 28.2747 63.2225 29.6444C40.7453 32.9847 39.5936 65.8843 60.8923 70.612C66.0753 71.7608 86.6298 74.1556 91.5913 73.8816C98.4487 73.4928 99.6979 62.8444 92.7431 61.024C84.5921 58.8943 70.7355 60.3436 63.1959 57.6483C57.694 55.6866 56.8877 47.3888 61.6809 44.0484C70.2039 38.1189 91.8128 52.0458 105.687 39.2854C118.25 27.7268 112.279 6.89836 95.7022 3.49618H95.6933Z" fill="#6853AC"/>
    <path opacity="0.8" d="M69.3323 0.235743C59.4892 -1.99998 57.0793 12.2273 65.8061 13.977C75.1531 15.8504 77.749 2.1445 69.3323 0.235743Z" fill="#6853AC"/>
    <path d="M64.3345 47.0637L95.8117 50.4134C116.475 52.6124 131.439 71.103 129.235 91.7133L128.123 102.108C125.918 122.719 107.38 137.644 86.7159 135.445L55.2388 132.095C34.5751 129.896 19.6111 111.406 21.8158 90.7954L22.9277 80.4004C25.1324 59.7901 43.6709 44.8648 64.3345 47.0637Z" fill="#191320"/>
    <path d="M107.112 145.718H107.121C111.192 145.718 114.492 149.009 114.492 153.07V164.09C114.492 168.15 111.192 171.442 107.121 171.442H107.112C103.041 171.442 99.7408 168.15 99.7408 164.09V153.07C99.7408 149.009 103.041 145.718 107.112 145.718Z" fill="#6853AC"/>
    <path d="M49.0105 153.103L49.0078 153.112C47.7565 156.976 43.6017 159.096 39.7278 157.848L29.2144 154.461C25.3405 153.213 23.2143 149.069 24.4656 145.205L24.4683 145.197C25.7196 141.333 29.8744 139.212 33.7484 140.46L44.2617 143.847C48.1357 145.095 50.2618 149.239 49.0105 153.103Z" fill="#6853AC"/>
    <path d="M30.0415 83.3897C29.3947 89.4075 33.7714 94.8069 39.8049 95.452C45.8384 96.097 51.2517 91.7316 51.8984 85.7137L40.9744 84.5473L30.0504 83.3809L30.0415 83.3897Z" fill="#D9BDDC"/>
    <path d="M83.0298 89.4542C82.383 95.472 86.7597 100.871 92.7932 101.516C98.8267 102.161 104.24 97.7961 104.887 91.7783L93.9627 90.6118L83.0386 89.4453L83.0298 89.4542Z" fill="#D9BDDC"/>
    <path d="M71.9922 96.762C71.248 99.1833 66.5789 101.066 63.9564 100.792C61.3339 100.518 59.3671 98.4145 59.1456 95.896L71.9833 96.762H71.9922Z" fill="#D9BDDC"/>
    <defs>
        <filter id="filter0_d_15534_64644" x="3.18359" y="29.4946" width="153.047" height="127.924" filterUnits="userSpaceOnUse" color-interpolation-filters="sRGB">
            <feFlood flood-opacity="0" result="BackgroundImageFix"/>
            <feColorMatrix in="SourceAlpha" type="matrix" values="0 0 0 0 0 0 0 0 0 0 0 0 0 0 0 0 0 0 127 0" result="hardAlpha"/>
            <feOffset dx="4" dy="4"/>
            <feGaussianBlur stdDeviation="5"/>
            <feComposite in2="hardAlpha" operator="out"/>
            <feColorMatrix type="matrix" values="0 0 0 0 0 0 0 0 0 0 0 0 0 0 0 0 0 0 0.25 0"/>
            <feBlend mode="normal" in2="BackgroundImageFix" result="effect1_dropShadow_15534_64644"/>
            <feBlend mode="normal" in="SourceGraphic" in2="effect1_dropShadow_15534_64644" result="shape"/>
        </filter>
    </defs>
</svg>
