<svg width="33" height="32" viewBox="0 0 33 32" fill="none" xmlns="http://www.w3.org/2000/svg">
<g id="ic-google" clip-path="url(#clip0_14700_32698)">
<path id="Vector" d="M16.5244 32C25.3744 32 32.5487 24.8366 32.5487 16C32.5487 7.16344 25.3744 0 16.5244 0C7.67436 0 0.5 7.16344 0.5 16C0.5 24.8366 7.67436 32 16.5244 32Z" fill="#E0E0E0"/>
<path id="Vector_2" d="M16.5242 31.5137C25.2398 31.5137 32.3051 24.4591 32.3051 15.7568C32.3051 7.05457 25.2398 0 16.5242 0C7.80874 0 0.743408 7.05457 0.743408 15.7568C0.743408 24.4591 7.80874 31.5137 16.5242 31.5137Z" fill="white"/>
<g id="Group">
<g id="Clip path group">
<mask id="mask0_14700_32698" style="mask-type:luminance" maskUnits="userSpaceOnUse" x="6" y="5" width="21" height="22">
<g id="SVGID_2_">
<path id="Vector_3" d="M26.7526 13.9086H16.7679V18.0423H22.5152C21.9794 20.6685 19.7389 22.1761 16.7679 22.1761C13.261 22.1761 10.4361 19.3554 10.4361 15.8539C10.4361 12.3524 13.261 9.53168 16.7679 9.53168C18.2778 9.53168 19.6415 10.0667 20.7131 10.942L23.8303 7.82956C21.9307 6.17606 19.4954 5.15479 16.7679 5.15479C10.8257 5.15479 6.05249 9.92074 6.05249 15.8539C6.05249 21.787 10.8257 26.553 16.7679 26.553C22.1255 26.553 26.9962 22.6624 26.9962 15.8539C26.9962 15.2217 26.8988 14.5408 26.7526 13.9086Z" fill="white"/>
</g>
</mask>
<g mask="url(#mask0_14700_32698)">
<path id="Vector_4" d="M5.07837 22.1761V9.53174L13.3584 15.8539L5.07837 22.1761Z" fill="#FBBC05"/>
</g>
</g>
<g id="Clip path group_2">
<mask id="mask1_14700_32698" style="mask-type:luminance" maskUnits="userSpaceOnUse" x="6" y="5" width="21" height="22">
<g id="SVGID_4_">
<path id="Vector_5" d="M26.7526 13.9086H16.7679V18.0423H22.5152C21.9794 20.6685 19.7389 22.1761 16.7679 22.1761C13.261 22.1761 10.4361 19.3554 10.4361 15.8539C10.4361 12.3524 13.261 9.53168 16.7679 9.53168C18.2778 9.53168 19.6415 10.0667 20.7131 10.942L23.8303 7.82956C21.9307 6.17606 19.4954 5.15479 16.7679 5.15479C10.8257 5.15479 6.05249 9.92074 6.05249 15.8539C6.05249 21.787 10.8257 26.553 16.7679 26.553C22.1255 26.553 26.9962 22.6624 26.9962 15.8539C26.9962 15.2217 26.8988 14.5408 26.7526 13.9086Z" fill="white"/>
</g>
</mask>
<g mask="url(#mask1_14700_32698)">
<path id="Vector_6" d="M5.07837 9.53167L13.3584 15.8539L16.7679 12.8873L28.4574 10.9906V4.18213H5.07837V9.53167Z" fill="#EA4335"/>
</g>
</g>
<g id="Group_2">
<g id="Clip path group_3">
<mask id="mask2_14700_32698" style="mask-type:luminance" maskUnits="userSpaceOnUse" x="6" y="5" width="21" height="22">
<g id="SVGID_6_">
<path id="Vector_7" d="M26.7526 13.9086H16.7679V18.0423H22.5152C21.9794 20.6685 19.7389 22.1761 16.7679 22.1761C13.261 22.1761 10.4361 19.3554 10.4361 15.8539C10.4361 12.3524 13.261 9.53168 16.7679 9.53168C18.2778 9.53168 19.6415 10.0667 20.7131 10.942L23.8303 7.82956C21.9307 6.17606 19.4954 5.15479 16.7679 5.15479C10.8257 5.15479 6.05249 9.92074 6.05249 15.8539C6.05249 21.787 10.8257 26.553 16.7679 26.553C22.1255 26.553 26.9962 22.6624 26.9962 15.8539C26.9962 15.2217 26.8988 14.5408 26.7526 13.9086Z" fill="white"/>
</g>
</mask>
<g mask="url(#mask2_14700_32698)">
<path id="Vector_8" d="M5.07837 22.176L19.6902 10.9906L23.538 11.477L28.4574 4.18213V27.5256H5.07837V22.176Z" fill="#34A853"/>
</g>
</g>
</g>
<g id="Group_3">
<g id="Clip path group_4">
<mask id="mask3_14700_32698" style="mask-type:luminance" maskUnits="userSpaceOnUse" x="6" y="5" width="21" height="22">
<g id="SVGID_8_">
<path id="Vector_9" d="M26.7526 13.9086H16.7679V18.0423H22.5152C21.9794 20.6685 19.7389 22.1761 16.7679 22.1761C13.261 22.1761 10.4361 19.3554 10.4361 15.8539C10.4361 12.3524 13.261 9.53168 16.7679 9.53168C18.2778 9.53168 19.6415 10.0667 20.7131 10.942L23.8303 7.82956C21.9307 6.17606 19.4954 5.15479 16.7679 5.15479C10.8257 5.15479 6.05249 9.92074 6.05249 15.8539C6.05249 21.787 10.8257 26.553 16.7679 26.553C22.1255 26.553 26.9962 22.6624 26.9962 15.8539C26.9962 15.2217 26.8988 14.5408 26.7526 13.9086Z" fill="white"/>
</g>
</mask>
<g mask="url(#mask3_14700_32698)">
<path id="Vector_10" d="M28.4573 27.5257L13.3584 15.8539L11.4102 14.395L28.4573 9.53174V27.5257Z" fill="#4285F4"/>
</g>
</g>
</g>
</g>
</g>
<defs>
<clipPath id="clip0_14700_32698">
<rect width="32" height="32" fill="white" transform="translate(0.5)"/>
</clipPath>
</defs>
</svg>
