<svg width="32" height="32" viewBox="0 0 32 32" fill="none" xmlns="http://www.w3.org/2000/svg">
<g id="ic-linkedin" clip-path="url(#clip0_14700_32664)">
<path id="Vector" d="M2.40723 3.95947H28.9154V29.3783H2.40723V3.95947Z" fill="white"/>
<path id="Vector_2" d="M0.0319824 2.29269C0.0319824 1.02683 1.08882 0 2.39191 0H29.6081C30.9111 0 31.968 1.02683 31.968 2.29269V29.7086C31.968 30.9745 30.9111 32 29.6081 32H2.39191C1.08882 32 0.0319824 30.9745 0.0319824 29.7086V2.29269Z" fill="#0A66C2"/>
<path id="Vector_3" d="M9.73723 26.7795V12.3731H4.95837V26.7795H9.73723ZM7.34908 10.4069C9.01514 10.4069 10.0527 9.30035 10.0527 7.91754C10.022 6.50389 9.01514 5.42822 7.38115 5.42822C5.74587 5.42822 4.67749 6.50389 4.67749 7.91754C4.67749 9.30035 5.71381 10.4069 7.3183 10.4069H7.34908ZM12.3819 26.7795H17.1607V18.7346C17.1607 18.304 17.1915 17.8735 17.3185 17.5664C17.6635 16.7053 18.4497 15.8147 19.7708 15.8147C21.4997 15.8147 22.191 17.1359 22.191 19.0726V26.7783H26.9698V18.5187C26.9698 14.0939 24.6125 12.0351 21.4689 12.0351C18.8909 12.0351 17.7597 13.4783 17.13 14.4615H17.162V12.3731H12.3819C12.4447 13.7251 12.3819 26.7795 12.3819 26.7795Z" fill="white"/>
</g>
<defs>
<clipPath id="clip0_14700_32664">
<rect width="32" height="32" fill="white"/>
</clipPath>
</defs>
</svg>
