<svg width="681" height="220" viewBox="0 0 681 220" fill="none" xmlns="http://www.w3.org/2000/svg">
    <path d="M522.869 178.308C526.648 177.083 531.435 177.837 533.38 181.585C534.227 183.217 536.735 181.807 535.892 180.182C534.257 177.032 531.096 175.332 527.614 174.981C517.801 173.99 512.304 183.297 507.851 190.448C505.273 194.588 502.294 198.914 497.632 200.896C494.152 202.376 490.273 202.259 486.713 201.212C467.24 195.479 465.334 171.579 450.727 160.312C444.806 155.744 436.292 152.774 428.84 155.231C424.862 156.543 422.001 159.256 419.729 162.691C417.209 166.502 415.093 170.171 410.814 172.249C403.345 175.877 393.87 173.875 387.082 169.801C378.495 164.647 372.319 156.456 365.322 149.496C359.612 143.816 352.947 138.76 345.058 136.528C337.438 134.373 329.579 135.655 323.249 140.543C310.374 150.486 306.608 169.914 289.312 174.321C271.046 178.976 254.098 167.357 240.278 157.22C232.632 151.612 224.907 145.82 216.09 142.121C208.5 138.938 200.03 137.495 191.801 138.601C183.685 139.692 176.252 143.736 171.626 150.587C167.053 157.361 165.657 165.614 163.583 173.338C161.318 181.774 157.649 189.301 151.144 195.347C149.366 197 149.657 199.9 151.144 199.5C152.631 199.1 156.764 193.806 158.645 191.209C163.724 184.371 165.78 176.377 167.828 168.286C169.828 160.386 172.249 152.093 178.937 146.781C185.555 141.524 194.522 140.4 202.655 141.422C221.577 143.8 235.417 158.294 250.763 168.037C264.208 176.573 283.18 182.851 298.089 173.701C305.046 169.432 309.574 162.449 314.039 155.844L314.094 155.763C318.418 149.367 323.214 142.272 330.808 139.504C338.592 136.667 346.886 139.346 353.558 143.542C361.376 148.459 367.157 155.782 373.557 162.286C379.729 168.559 386.721 174.291 395.556 176.209C403.151 177.857 411.93 176.817 417.494 170.845C420.483 167.636 422 163.254 425.349 160.364C428.485 157.659 432.723 156.9 436.732 157.377C446.282 158.515 452.972 165.363 457.829 173.07C462.872 181.072 467.235 189.142 473.723 196.809C481.776 203.269 486.4 204.612 493.123 205.174C503.824 203.679 507.806 195.833 512.347 188.591C514.888 184.538 518.067 179.865 522.869 178.308Z" fill="#A9A9AA"/>
    <path d="M446.811 151.724C444.171 147.842 438.885 146.835 435.003 149.475C431.121 152.115 430.114 157.402 432.754 161.283C435.394 165.165 440.68 166.172 444.562 163.532C448.444 160.893 449.451 155.606 446.811 151.724Z" fill="#EE7538" stroke="#69696B"/>
    <path d="M184.17 141.735C183.118 140.188 181.012 139.787 179.466 140.839C177.92 141.89 177.518 143.996 178.57 145.543C179.622 147.089 181.727 147.49 183.274 146.439C184.82 145.387 185.221 143.281 184.17 141.735Z" fill="#EE7538" stroke="#69696B"/>
    <path d="M317.408 149.986C315.378 147.002 311.313 146.227 308.329 148.257C305.344 150.287 304.57 154.352 306.6 157.337C308.629 160.321 312.694 161.096 315.679 159.066C318.664 157.036 319.438 152.971 317.408 149.986Z" fill="#EE7538" stroke="#69696B"/>
    <path d="M34.0337 197.061L30.9716 201.215L26.8181 198.153L29.8802 193.999L34.0337 197.061Z" fill="#D9AAA7" stroke="#252527"/>
    <path d="M39.6279 65.4796H27.7786C26.8512 65.4796 26.0981 64.7979 26.0981 63.9585C26.0981 63.1191 26.8512 62.4375 27.7786 62.4375H39.6279C40.5554 62.4375 41.3084 63.1191 41.3084 63.9585C41.3084 64.7979 40.5554 65.4796 39.6279 65.4796Z" fill="#A9A9AA"/>
    <path d="M84.2446 65.4796H72.3953C71.4679 65.4796 70.7148 64.7979 70.7148 63.9585C70.7148 63.1191 71.4679 62.4375 72.3953 62.4375H84.2446C85.172 62.4375 85.9251 63.1191 85.9251 63.9585C85.9251 64.7979 85.172 65.4796 84.2446 65.4796Z" fill="#A9A9AA"/>
    <path d="M128.861 65.4796H117.012C116.085 65.4796 115.332 64.7979 115.332 63.9585C115.332 63.1191 116.085 62.4375 117.012 62.4375H128.861C129.789 62.4375 130.542 63.1191 130.542 63.9585C130.542 64.7979 129.789 65.4796 128.861 65.4796Z" fill="#A9A9AA"/>
    <path d="M128.861 121.25H117.012C116.085 121.25 115.332 120.342 115.332 119.222C115.332 118.103 116.085 117.194 117.012 117.194H128.861C129.789 117.194 130.542 118.103 130.542 119.222C130.542 120.342 129.789 121.25 128.861 121.25Z" fill="#A9A9AA"/>
    <path d="M39.6279 120.236H27.7786C26.8512 120.236 26.0981 119.555 26.0981 118.715C26.0981 117.876 26.8512 117.194 27.7786 117.194H39.6279C40.5554 117.194 41.3084 117.876 41.3084 118.715C41.3084 119.555 40.5554 120.236 39.6279 120.236Z" fill="#A9A9AA"/>
    <path d="M84.2446 120.236H72.3953C71.4679 120.236 70.7148 119.555 70.7148 118.715C70.7148 117.876 71.4679 117.194 72.3953 117.194H84.2446C85.172 117.194 85.9251 117.876 85.9251 118.715C85.9251 119.555 85.172 120.236 84.2446 120.236Z" fill="#A9A9AA"/>
    <path d="M94.4471 136.5C95.2614 136.5 95.9214 135.84 95.9214 135.026C95.9214 134.212 95.2614 133.552 94.4471 133.552C93.6329 133.552 92.9728 134.212 92.9728 135.026C92.9728 135.84 93.6329 136.5 94.4471 136.5Z" fill="#EE7538"/>
    <path d="M98.8181 136.5C99.6323 136.5 100.292 135.84 100.292 135.026C100.292 134.212 99.6323 133.552 98.8181 133.552C98.0038 133.552 97.3438 134.212 97.3438 135.026C97.3438 135.84 98.0038 136.5 98.8181 136.5Z" fill="#A9A9AA"/>
    <path d="M103.19 136.5C104.004 136.5 104.664 135.84 104.664 135.026C104.664 134.212 104.004 133.552 103.19 133.552C102.376 133.552 101.716 134.212 101.716 135.026C101.716 135.84 102.376 136.5 103.19 136.5Z" fill="#A9A9AA"/>
    <path opacity="0.4" d="M42.3917 59.3958H25.0149C21.6982 59.3958 19 56.6976 19 53.3809V36.0041C19 32.6875 21.6982 29.9893 25.0149 29.9893H42.3917C45.7083 29.9893 48.4065 32.6875 48.4065 36.0041V53.3809C48.4065 56.6976 45.7083 59.3958 42.3917 59.3958Z" fill="#EE7538"/>
    <path opacity="0.4" d="M87.0085 59.3958H69.6317C66.315 59.3958 63.6168 56.6976 63.6168 53.3809V36.0041C63.6168 32.6875 66.315 29.9893 69.6317 29.9893H87.0085C90.3251 29.9893 93.0233 32.6875 93.0233 36.0041V53.3809C93.0233 56.6976 90.3251 59.3958 87.0085 59.3958Z" fill="#EE7538"/>
    <path d="M131.418 59.3958H113.442C110.011 59.3958 107.219 56.6976 107.219 53.3809V36.0041C107.219 32.6875 110.011 29.9893 113.442 29.9893H131.418C134.849 29.9893 137.64 32.6875 137.64 36.0041V53.3809C137.64 56.6976 134.849 59.3958 131.418 59.3958Z" fill="#444446"/>
    <path opacity="0.4" d="M131.418 114.153H113.442C110.011 114.153 107.219 111.362 107.219 107.931V89.9547C107.219 86.5237 110.011 83.7324 113.442 83.7324H131.418C134.849 83.7324 137.64 86.5237 137.64 89.9547V107.931C137.64 111.362 134.849 114.153 131.418 114.153Z" fill="#EE7538"/>
    <path opacity="0.4" d="M87.0085 114.153H69.6317C66.315 114.153 63.6168 111.362 63.6168 107.931V89.9547C63.6168 86.5237 66.315 83.7324 69.6317 83.7324H87.0085C90.3251 83.7324 93.0233 86.5237 93.0233 89.9547V107.931C93.0233 111.362 90.3251 114.153 87.0085 114.153Z" fill="#EE7538"/>
    <path d="M42.3917 114.153H25.0149C21.6982 114.153 19 111.362 19 107.931V89.9547C19 86.5237 21.6982 83.7324 25.0149 83.7324H42.3917C45.7083 83.7324 48.4065 86.5237 48.4065 89.9547V107.931C48.4065 111.362 45.7083 114.153 42.3917 114.153Z" fill="#444446"/>
    <path d="M47.8995 91.844C50.9796 91.844 53.4766 89.12 53.4766 85.7599C53.4766 82.3997 50.9796 79.6758 47.8995 79.6758C44.8193 79.6758 42.3224 82.3997 42.3224 85.7599C42.3224 89.12 44.8193 91.844 47.8995 91.844Z" fill="#EE7538"/>
    <path d="M136.626 37.0872C139.986 37.0872 142.71 34.3632 142.71 31.003C142.71 27.6429 139.986 24.9189 136.626 24.9189C133.266 24.9189 130.542 27.6429 130.542 31.003C130.542 34.3632 133.266 37.0872 136.626 37.0872Z" fill="#EE7538"/>
    <path d="M22.2626 201.389C22.0916 200.733 22.1453 200.181 22.4223 199.748C22.7391 199.253 23.3488 198.92 24.2345 198.76C24.3582 198.617 25.8976 196.852 26.4895 196.769C26.5348 196.647 26.8512 195.851 27.4575 195.63C27.7431 195.526 28.0487 195.568 28.3659 195.754L28.3797 195.763L28.3778 195.779C28.3753 195.799 28.1406 197.87 29.3051 198.925C29.9728 199.53 30.9689 199.691 32.2661 199.404C32.3353 199.363 33.2574 198.529 33.8645 197.974L33.8888 197.951L38.0891 206.612L41.28 210.676C41.6811 211.187 41.692 211.909 41.3066 212.432C40.978 212.878 40.4141 213.099 39.8699 212.996L37.2383 212.497C36.1387 212.289 35.0813 211.828 34.1804 211.164L23.6406 203.394C22.9577 202.89 22.4683 202.178 22.2626 201.389Z" fill="#252527"/>
    <path d="M88.0704 206.736V211.896H82.9102V206.736H88.0704Z" fill="#D9AAA7" stroke="#252527"/>
    <path d="M81.163 217.204C80.636 216.777 80.3516 216.301 80.3176 215.788C80.2787 215.202 80.5723 214.572 81.1899 213.918C81.2048 213.729 81.3965 211.395 81.8237 210.977C81.7878 210.852 81.5702 210.024 81.9269 209.486C82.095 209.233 82.3658 209.085 82.732 209.047L82.7479 209.045L82.7558 209.059C82.7662 209.077 83.8057 210.883 85.3693 211.042C86.2658 211.133 87.1634 210.671 88.0371 209.67C88.0685 209.596 88.3154 208.377 88.4747 207.57L88.4811 207.538L97.001 212.016L101.981 213.394C102.607 213.568 103.044 214.142 103.044 214.792C103.044 215.345 102.722 215.858 102.223 216.098L99.8087 217.259C98.8 217.744 97.6753 218 96.5561 218H83.4616C82.6133 218 81.7969 217.717 81.163 217.204Z" fill="#252527"/>
    <path d="M51.0313 108.458H80.5551L90.3964 207.025H80.5551L65.3841 143.777L60.8726 161.622L36.027 200.604L26.2413 191.075L47.3417 157.741L51.0313 108.458Z" fill="#252527"/>
    <path d="M72.7664 61.9609L72.4684 62.0544L72.4217 62.3632L70.6184 74.2806L61.795 66.9278C61.8179 66.8963 61.842 66.863 61.8672 66.8281C62.0895 66.5192 62.3972 66.0761 62.7412 65.536C63.427 64.4587 64.2657 62.9814 64.8544 61.405L64.9933 61.033L64.6625 60.8135C62.0935 59.1085 60.4009 56.1928 60.4009 52.881C60.4009 47.6261 64.6608 43.3662 69.9155 43.3662C75.1704 43.3662 79.4303 47.6261 79.4303 52.881C79.4303 57.1419 76.6289 60.7494 72.7664 61.9609Z" fill="#D9AAA7" stroke="#252527"/>
    <path d="M64.663 61.5355C64.663 61.5355 62.7534 51.8741 65.5133 53.0241C68.2733 54.1741 67.5347 56.1181 67.5347 56.1181L70.1797 52.2082V47.7233L71.9046 45.7684L79.2644 48.8733C79.2644 48.8733 83.1743 37.3736 72.0196 41.0535C72.0196 41.0535 62.4749 37.1437 59.715 43.9285C53.1717 59.2125 64.663 61.5355 64.663 61.5355Z" fill="#252527"/>
    <path d="M83.3683 113.389L83.3288 113.181L83.152 113.065L75.4604 108.003L78.0265 104.104L85.7181 109.165L85.8949 109.282L86.1015 109.236C87.3679 108.954 88.8823 109.212 90.2226 110.094C92.5971 111.657 93.3425 114.41 92.164 116.201C90.9856 117.992 88.1616 118.397 85.787 116.834C84.4467 115.952 83.6107 114.663 83.3683 113.389Z" fill="#D9AAA7" stroke="#252527"/>
    <mask id="path-30-outside-1_7694_38732" maskUnits="userSpaceOnUse" x="49.2662" y="63.5615" width="38" height="51" fill="black">
        <rect fill="white" x="49.2662" y="63.5615" width="38" height="51"/>
        <path fill-rule="evenodd" clip-rule="evenodd" d="M71.6428 109.2L51.133 109.109C49.6734 109.035 50.3122 108.438 51.1897 107.618C52.0686 106.797 53.1869 105.752 52.6764 104.784L51.7138 102.961C51.288 102.154 51.1497 101.286 51.3109 100.433L53.7647 76.1016C54.0854 74.4049 54.9711 72.7857 56.3497 71.3758L61.6055 66.0009C63.0824 64.4904 65.3752 64.1277 67.2463 65.1083L76.1153 69.7568L80.613 103.085L85.0562 105.492L77.5402 112.873L71.6428 109.2Z"/>
    </mask>
    <path fill-rule="evenodd" clip-rule="evenodd" d="M71.6428 109.2L51.133 109.109C49.6734 109.035 50.3122 108.438 51.1897 107.618C52.0686 106.797 53.1869 105.752 52.6764 104.784L51.7138 102.961C51.288 102.154 51.1497 101.286 51.3109 100.433L53.7647 76.1016C54.0854 74.4049 54.9711 72.7857 56.3497 71.3758L61.6055 66.0009C63.0824 64.4904 65.3752 64.1277 67.2463 65.1083L76.1153 69.7568L80.613 103.085L85.0562 105.492L77.5402 112.873L71.6428 109.2Z" fill="#9654F4"/>
    <path d="M51.133 109.109L51.0826 110.108L51.1056 110.109L51.1286 110.109L51.133 109.109ZM71.6428 109.2L72.1715 108.351L71.9308 108.201L71.6472 108.2L71.6428 109.2ZM51.1897 107.618L51.8725 108.349L51.1897 107.618ZM52.6764 104.784L53.5608 104.317L53.5608 104.317L52.6764 104.784ZM51.7138 102.961L50.8294 103.427L50.8294 103.427L51.7138 102.961ZM51.3109 100.433L52.2935 100.619L52.3016 100.576L52.3059 100.533L51.3109 100.433ZM53.7647 76.1016L52.7821 75.9158L52.774 75.9583L52.7697 76.0012L53.7647 76.1016ZM56.3497 71.3758L55.6347 70.6767L56.3497 71.3758ZM61.6055 66.0009L62.3204 66.7V66.7L61.6055 66.0009ZM67.2463 65.1083L66.7821 65.9941V65.9941L67.2463 65.1083ZM76.1153 69.7568L77.1063 69.6231L77.0372 69.111L76.5796 68.8711L76.1153 69.7568ZM80.613 103.085L79.622 103.218L79.6899 103.722L80.1366 103.964L80.613 103.085ZM85.0562 105.492L85.7569 106.205L86.7224 105.257L85.5326 104.613L85.0562 105.492ZM77.5402 112.873L77.0115 113.722L77.6795 114.138L78.2409 113.586L77.5402 112.873ZM51.1286 110.109L71.6384 110.2L71.6472 108.2L51.1374 108.109L51.1286 110.109ZM50.5069 106.887C50.2955 107.085 50.0626 107.302 49.8734 107.505C49.7105 107.68 49.4545 107.972 49.3362 108.327C49.2685 108.531 49.2214 108.826 49.3335 109.149C49.448 109.479 49.6777 109.691 49.8875 109.817C50.248 110.034 50.7018 110.088 51.0826 110.108L51.1834 108.11C51.0328 108.102 50.9375 108.089 50.8833 108.078C50.8221 108.065 50.851 108.063 50.9179 108.103C50.996 108.15 51.1451 108.269 51.2227 108.493C51.2981 108.709 51.2579 108.887 51.2337 108.959C51.2115 109.026 51.19 109.047 51.2145 109.013C51.2351 108.984 51.2734 108.937 51.3374 108.868C51.4692 108.726 51.6452 108.561 51.8725 108.349L50.5069 106.887ZM51.792 105.251C51.8042 105.274 51.8092 105.288 51.8006 105.333C51.7878 105.401 51.7433 105.521 51.6239 105.698C51.3745 106.07 50.968 106.457 50.5069 106.887L51.8725 108.349C52.2903 107.958 52.8825 107.412 53.2843 106.813C53.6859 106.215 54.074 105.29 53.5608 104.317L51.792 105.251ZM50.8294 103.427L51.792 105.251L53.5608 104.317L52.5982 102.494L50.8294 103.427ZM50.3283 100.247C50.1228 101.334 50.3038 102.431 50.8294 103.427L52.5982 102.494C52.2723 101.876 52.1766 101.238 52.2935 100.619L50.3283 100.247ZM52.7697 76.0012L50.316 100.333L52.3059 100.533L54.7596 76.2019L52.7697 76.0012ZM55.6347 70.6767C54.1384 72.2069 53.1444 73.9989 52.7821 75.9158L54.7473 76.2873C55.0263 74.8109 55.8038 73.3644 57.0647 72.075L55.6347 70.6767ZM60.8905 65.3017L55.6347 70.6767L57.0647 72.075L62.3204 66.7L60.8905 65.3017ZM67.7105 64.2226C65.4483 63.0369 62.6761 63.4756 60.8905 65.3017L62.3204 66.7C63.4886 65.5053 65.3021 65.2184 66.7821 65.9941L67.7105 64.2226ZM76.5796 68.8711L67.7105 64.2226L66.7821 65.9941L75.6511 70.6426L76.5796 68.8711ZM81.604 102.951L77.1063 69.6231L75.1243 69.8906L79.622 103.218L81.604 102.951ZM85.5326 104.613L81.0894 102.205L80.1366 103.964L84.5799 106.371L85.5326 104.613ZM78.2409 113.586L85.7569 106.205L84.3556 104.779L76.8396 112.159L78.2409 113.586ZM71.1141 110.049L77.0115 113.722L78.0689 112.024L72.1715 108.351L71.1141 110.049Z" fill="#252527" mask="url(#path-30-outside-1_7694_38732)"/>
    <path d="M642.082 65.4796H653.932C654.859 65.4796 655.612 64.7979 655.612 63.9585C655.612 63.1191 654.859 62.4375 653.932 62.4375H642.082C641.155 62.4375 640.402 63.1191 640.402 63.9585C640.402 64.7979 641.155 65.4796 642.082 65.4796Z" fill="#A9A9AA"/>
    <path d="M597.466 65.4796H609.315C610.242 65.4796 610.995 64.7979 610.995 63.9585C610.995 63.1191 610.242 62.4375 609.315 62.4375H597.466C596.538 62.4375 595.785 63.1191 595.785 63.9585C595.785 64.7979 596.538 65.4796 597.466 65.4796Z" fill="#A9A9AA"/>
    <path d="M552.849 65.4796H564.698C565.625 65.4796 566.379 64.7979 566.379 63.9585C566.379 63.1191 565.625 62.4375 564.698 62.4375H552.849C551.921 62.4375 551.168 63.1191 551.168 63.9585C551.168 64.7979 551.921 65.4796 552.849 65.4796Z" fill="#A9A9AA"/>
    <path d="M552.849 121.25H564.698C565.625 121.25 566.379 120.342 566.379 119.222C566.379 118.103 565.625 117.194 564.698 117.194H552.849C551.921 117.194 551.168 118.103 551.168 119.222C551.168 120.342 551.921 121.25 552.849 121.25Z" fill="#A9A9AA"/>
    <path d="M642.082 120.236H653.932C654.859 120.236 655.612 119.555 655.612 118.715C655.612 117.876 654.859 117.194 653.932 117.194H642.082C641.155 117.194 640.402 117.876 640.402 118.715C640.402 119.555 641.155 120.236 642.082 120.236Z" fill="#A9A9AA"/>
    <path d="M597.466 120.236H609.315C610.242 120.236 610.995 119.555 610.995 118.715C610.995 117.876 610.242 117.194 609.315 117.194H597.466C596.538 117.194 595.785 117.876 595.785 118.715C595.785 119.555 596.538 120.236 597.466 120.236Z" fill="#A9A9AA"/>
    <path d="M578.52 136.5C579.334 136.5 579.995 135.84 579.995 135.026C579.995 134.212 579.334 133.552 578.52 133.552C577.706 133.552 577.046 134.212 577.046 135.026C577.046 135.84 577.706 136.5 578.52 136.5Z" fill="#EE7538"/>
    <path d="M582.891 136.5C583.705 136.5 584.366 135.84 584.366 135.026C584.366 134.212 583.705 133.552 582.891 133.552C582.077 133.552 581.417 134.212 581.417 135.026C581.417 135.84 582.077 136.5 582.891 136.5Z" fill="#A9A9AA"/>
    <path d="M587.263 136.5C588.077 136.5 588.737 135.84 588.737 135.026C588.737 134.212 588.077 133.552 587.263 133.552C586.449 133.552 585.789 134.212 585.789 135.026C585.789 135.84 586.449 136.5 587.263 136.5Z" fill="#A9A9AA"/>
    <path opacity="0.4" d="M639.319 59.3958H656.695C660.012 59.3958 662.71 56.6976 662.71 53.3809V36.0041C662.71 32.6875 660.012 29.9893 656.695 29.9893H639.319C636.002 29.9893 633.304 32.6875 633.304 36.0041V53.3809C633.304 56.6976 636.002 59.3958 639.319 59.3958Z" fill="#EE7538"/>
    <path opacity="0.4" d="M594.702 59.3958H612.079C615.395 59.3958 618.093 56.6976 618.093 53.3809V36.0041C618.093 32.6875 615.395 29.9893 612.079 29.9893H594.702C591.385 29.9893 588.687 32.6875 588.687 36.0041V53.3809C588.687 56.6976 591.385 59.3958 594.702 59.3958Z" fill="#EE7538"/>
    <path d="M550.292 59.3958H568.268C571.699 59.3958 574.491 56.6976 574.491 53.3809V36.0041C574.491 32.6875 571.699 29.9893 568.268 29.9893H550.292C546.861 29.9893 544.07 32.6875 544.07 36.0041V53.3809C544.07 56.6976 546.861 59.3958 550.292 59.3958Z" fill="#444446"/>
    <path opacity="0.4" d="M550.292 114.153H568.268C571.699 114.153 574.491 111.362 574.491 107.931V89.9547C574.491 86.5237 571.699 83.7324 568.268 83.7324H550.292C546.861 83.7324 544.07 86.5237 544.07 89.9547V107.931C544.07 111.362 546.861 114.153 550.292 114.153Z" fill="#EE7538"/>
    <path opacity="0.4" d="M594.702 114.153H612.079C615.395 114.153 618.093 111.362 618.093 107.931V89.9547C618.093 86.5237 615.395 83.7324 612.079 83.7324H594.702C591.385 83.7324 588.687 86.5237 588.687 89.9547V107.931C588.687 111.362 591.385 114.153 594.702 114.153Z" fill="#EE7538"/>
    <path d="M639.319 114.153H656.695C660.012 114.153 662.71 111.362 662.71 107.931V89.9547C662.71 86.5237 660.012 83.7324 656.695 83.7324H639.319C636.002 83.7324 633.304 86.5237 633.304 89.9547V107.931C633.304 111.362 636.002 114.153 639.319 114.153Z" fill="#444446"/>
    <path d="M633.811 91.844C630.731 91.844 628.234 89.12 628.234 85.7599C628.234 82.3997 630.731 79.6758 633.811 79.6758C636.891 79.6758 639.388 82.3997 639.388 85.7599C639.388 89.12 636.891 91.844 633.811 91.844Z" fill="#EE7538"/>
    <path d="M545.084 37.0872C541.724 37.0872 539 34.3632 539 31.003C539 27.6429 541.724 24.9189 545.084 24.9189C548.444 24.9189 551.168 27.6429 551.168 31.003C551.168 34.3632 548.444 37.0872 545.084 37.0872Z" fill="#EE7538"/>
    <path d="M580.044 59.6148L579.973 59.8143L580.067 60.0039L580.096 60.0616L580.102 60.0732L580.108 60.0844L588.351 74.7592L588.589 75.1832L589.02 74.9569L603.771 67.2013L603.786 67.1933L603.801 67.1844C605.132 66.3643 606.565 65.8662 607.865 65.8655C609.143 65.8648 610.3 66.3422 611.158 67.508C613.354 70.4892 612.196 74.7382 608.792 76.1936L589.543 84.423C587.068 85.4812 584.205 84.3344 583.143 81.8629L576.24 61.9713L576.158 61.7351L575.92 61.659C574.774 61.2922 573.68 60.3765 573.018 59.04L573.018 59.04C571.843 56.6699 572.54 54.1181 574.315 53.2384C576.089 52.3588 578.542 53.3487 579.717 55.7188L580.165 55.4967L579.717 55.7188C580.38 57.0553 580.446 58.4807 580.044 59.6148Z" fill="#9B616A" stroke="#252527"/>
    <path d="M585.135 207.085V199.684H590.509V207.085H585.135Z" fill="#9B616A" stroke="#252527"/>
    <path d="M589.922 213.382H576.373C575.215 213.382 574.051 213.117 573.007 212.615L570.51 211.415C569.993 211.167 569.659 210.636 569.659 210.063C569.659 209.391 570.112 208.796 570.759 208.617L575.912 207.191L584.728 202.558L584.735 202.591C584.899 203.426 585.155 204.687 585.187 204.764C586.091 205.8 587.02 206.277 587.948 206.183C589.566 206.019 590.641 204.15 590.652 204.132L590.66 204.117L590.677 204.119C591.055 204.158 591.336 204.311 591.51 204.573C591.879 205.13 591.653 205.987 591.616 206.116C592.058 206.548 592.257 208.963 592.272 209.158C592.911 209.836 593.215 210.487 593.175 211.094C593.14 211.625 592.845 212.118 592.3 212.559C591.644 213.09 590.799 213.382 589.922 213.382Z" fill="#252527"/>
    <path d="M629.615 204.58L627.548 197.473L632.708 195.972L634.775 203.079L629.615 204.58Z" fill="#9B616A" stroke="#252527"/>
    <path d="M635.97 209.289L622.96 213.074C621.848 213.397 620.657 213.468 619.515 213.278L616.781 212.823C616.216 212.728 615.747 212.312 615.587 211.762C615.399 211.117 615.667 210.419 616.239 210.066L620.789 207.258L627.959 200.346L627.975 200.377C628.366 201.132 628.964 202.272 629.017 202.336C630.174 203.078 631.199 203.277 632.063 202.928C633.571 202.318 634.082 200.224 634.087 200.203L634.091 200.187L634.107 200.184C634.482 200.116 634.794 200.184 635.034 200.387C635.544 200.818 635.567 201.704 635.567 201.839C636.113 202.131 636.978 204.394 637.047 204.577C637.85 205.049 638.323 205.589 638.454 206.184C638.569 206.703 638.424 207.258 638.024 207.834C637.542 208.527 636.813 209.044 635.97 209.289Z" fill="#252527"/>
    <path d="M601.924 58.0207L601.878 57.7119L601.58 57.6184C597.576 56.3628 594.672 52.6235 594.672 48.207C594.672 42.7602 599.088 38.3447 604.534 38.3447C609.981 38.3447 614.397 42.7602 614.397 48.207C614.397 51.6398 612.642 54.662 609.979 56.4291L609.649 56.6487L609.787 57.0206C610.396 58.6502 611.263 60.1776 611.972 61.2917C612.328 61.8503 612.646 62.3085 612.876 62.6278C612.906 62.6689 612.934 62.7076 612.96 62.744L603.795 70.3821L601.924 58.0207Z" fill="#9B616A" stroke="#252527"/>
    <path fill-rule="evenodd" clip-rule="evenodd" d="M619 99.0002L620.482 78.4088C620.612 76.5927 620.382 74.7688 619.806 73.0416L615.374 59.7441L602.317 63.9379L601.162 66.5805L592.634 70.8239L596.179 77.6946L593.807 82.0431C592.441 84.5474 592.888 87.6523 594.905 89.6695L596.808 91.5718L594 101L594.434 101.287L619 99.0002ZM594 101.5C594 101.5 576.334 154.666 576.968 200.021H599.722L601.073 147.372L605.025 202.065L635.01 200.338L619.038 99.2414L594.217 101.394L594 101.5Z" fill="#252527"/>
    <mask id="path-56-outside-2_7694_38732" maskUnits="userSpaceOnUse" x="590.634" y="61.3652" width="27" height="24" fill="black">
        <rect fill="white" x="590.634" y="61.3652" width="27" height="24"/>
        <path d="M609.631 62.3652L592.634 70.8231L599.075 83.3061L616.185 73.1972"/>
    </mask>
    <path d="M609.631 62.3652L592.634 70.8231L599.075 83.3061L616.185 73.1972" fill="#9654F4"/>
    <path d="M592.634 70.8231L592.189 69.9278L591.28 70.3799L591.745 71.2816L592.634 70.8231ZM599.075 83.3061L598.186 83.7647L598.672 84.7058L599.583 84.1671L599.075 83.3061ZM609.186 61.4699L592.189 69.9278L593.08 71.7184L610.077 63.2605L609.186 61.4699ZM591.745 71.2816L598.186 83.7647L599.963 82.8476L593.523 70.3646L591.745 71.2816ZM599.583 84.1671L616.693 74.0582L615.676 72.3363L598.566 82.4452L599.583 84.1671Z" fill="#252527" mask="url(#path-56-outside-2_7694_38732)"/>
    <path d="M620.959 78.7006L620.959 78.7003C621.093 76.8186 620.856 74.9289 620.259 73.1393L615.826 59.8419L615.67 59.3727L615.199 59.524L602.142 63.7177L601.927 63.7867L601.837 63.9935L596.337 76.5776L593.346 82.0595L593.346 82.0595C591.874 84.7586 592.356 88.1049 594.53 90.2789L594.53 90.2789L596.261 92.0094L593.5 101.111L593.392 101.468L593.703 101.673L594.137 101.96L594.284 102.057L594.459 102.041L619.025 99.754L619.447 99.7147L619.477 99.292L620.959 78.7006Z" fill="#9654F4" stroke="#252527"/>
    <path d="M618.224 61.8213C618.224 61.8213 617.74 65.4925 613.257 65.6124C607.194 65.7746 604.163 65.8556 604.163 65.8556C604.163 65.8556 611.851 47.1468 608.69 49.2545C605.529 51.3622 597.099 42.5261 597.099 42.5261L594.612 47.1909C594.612 47.1909 588.67 45.0391 595.255 39.7699C595.255 39.7699 603.113 33.6951 611.454 37.3431C619.796 40.991 618.224 61.8213 618.224 61.8213Z" fill="#252527"/>
    <path d="M590.076 100.728L590.231 100.872L590.442 100.861L590.506 100.858L590.519 100.857L590.532 100.856L607.274 99.1219L607.758 99.0718L607.721 98.5869L606.465 81.9685L606.464 81.9515L606.461 81.9346C606.238 80.3872 606.35 78.8736 606.866 77.681C607.373 76.5077 608.271 75.6357 609.682 75.311C613.29 74.4809 616.729 77.2316 616.712 80.9339L616.616 101.867C616.604 104.559 614.413 106.731 611.724 106.724L590.727 105.155L590.478 105.136L590.313 105.324C589.521 106.23 588.246 106.87 586.756 106.947C584.115 107.084 582.05 105.43 581.948 103.452C581.845 101.474 583.729 99.6163 586.37 99.4798C587.86 99.4028 589.195 99.9084 590.076 100.728Z" fill="#9B616A" stroke="#252527"/>
</svg>
