<svg width="288" height="219" viewBox="0 0 288 219" fill="none" xmlns="http://www.w3.org/2000/svg">
    <g clip-path="url(#clip0_7105_35502)">
        <path d="M1.85515 209L1 208.063L84.4622 131.903L114.532 145.383L147.003 89.6984L173.681 76.8392L198.399 118.036C211.744 83.4872 245.212 47.3417 285.314 10.6694L286.301 11.4682C248.688 47.4782 216.507 83.6517 198.244 120.244L175.381 82.0267C174.301 80.2213 172.031 79.5239 170.124 80.4115C155.541 87.1967 143.378 98.2723 135.26 112.157L114.92 146.947L110.277 144.866C94.7486 137.905 76.5702 140.822 64 152.293L1.85515 209Z" fill="#FCA728"/>
        <path d="M287.196 17.6032L285.929 17.6912L283.884 13.2599L279.306 12.3301L279.128 11.0724L286.675 10L287.196 17.6032Z" fill="#FCA728"/>
        <path d="M182.396 218.571H112.764C102.635 218.571 94.3965 210.332 94.3965 200.204V18.3672C94.3965 8.23891 102.635 0 112.764 0H182.396C192.524 0 200.763 8.23891 200.763 18.3672V200.204C200.763 210.332 192.524 218.571 182.396 218.571Z" fill="#252527"/>
        <path d="M182.447 213.599H112.713C105.217 213.599 99.1165 207.498 99.1165 200.002V18.2121C99.1165 10.716 105.217 4.61523 112.713 4.61523H182.447C189.943 4.61523 196.044 10.716 196.044 18.2121V200.002C196.044 207.498 189.943 213.599 182.447 213.599Z" fill="#3E3E40"/>
        <path d="M157.438 16.7157H137.718C135.115 16.7157 132.999 14.5992 132.999 11.9959C132.999 9.39264 135.115 7.27612 137.718 7.27612H157.438C160.041 7.27612 162.157 9.39264 162.157 11.9959C162.157 14.5992 160.041 16.7157 157.438 16.7157Z" fill="#252527"/>
        <path d="M123 100.641V113.603L114.736 113.603C111.163 113.603 108.253 110.697 108.253 107.12C108.253 103.543 111.163 100.641 114.736 100.641L123 100.641Z" fill="#FCA728"/>
        <path d="M180.424 100.641H114.736C111.163 100.641 108.253 103.547 108.253 107.12C108.253 110.693 111.163 113.603 114.736 113.603H180.424C184.001 113.603 186.907 110.697 186.907 107.12C186.907 103.543 184.001 100.641 180.424 100.641ZM180.424 111.44H114.736C112.356 111.44 110.417 109.504 110.417 107.12C110.417 104.737 112.356 102.804 114.736 102.804H180.424C182.807 102.804 184.743 104.74 184.743 107.12C184.743 109.5 182.807 111.44 180.424 111.44Z" fill="#252527"/>
        <path d="M284.537 218.571C284.537 218.809 284.346 219 284.108 219H43.8922C43.6542 219 43.4631 218.809 43.4631 218.571C43.4631 218.333 43.6542 218.142 43.8922 218.142H284.108C284.346 218.142 284.537 218.333 284.537 218.571Z" fill="#2E2E43"/>
        <path d="M235.362 206.453L230.291 198.522L235.634 195.107L240.704 203.038L235.362 206.453Z" fill="#D9AAA7" stroke="#252527"/>
        <path d="M212.891 68.2878L213.636 76.1303L206.85 78.4476L206.74 68.3564L212.891 68.2878Z" fill="#D9AAA7" stroke="#252527"/>
        <path d="M214.46 63.1638C214.46 67.2029 211.186 70.4772 207.147 70.4772C203.108 70.4772 199.833 67.2029 199.833 63.1638C199.833 59.1247 203.108 55.8503 207.147 55.8503C211.186 55.8503 214.46 59.1247 214.46 63.1638Z" fill="#D9AAA7" stroke="#252527"/>
        <path d="M209.284 62.3669C207.979 62.3417 207.103 61.0328 206.58 59.8285C206.057 58.6314 205.52 57.2469 204.305 56.7601C203.31 56.3635 201.593 59.1326 200.8 58.4115C199.974 57.6579 200.728 53.7205 201.59 53.0102C202.452 52.2999 203.634 52.1485 204.745 52.08C207.467 51.9249 210.204 52.1124 212.879 52.6425C214.53 52.967 216.24 53.4682 217.44 54.6472C218.965 56.1435 219.376 58.4223 219.506 60.5533C219.643 62.7347 219.539 65.0207 218.5 66.9461C217.458 68.8679 215.255 70.2993 213.117 69.8378C212.89 68.6804 213.092 67.4941 213.164 66.3115C213.236 65.136 213.131 63.8668 212.403 62.9366C211.675 62.0063 210.139 61.653 209.313 62.4931" fill="#1D1D1D"/>
        <path d="M218.926 64.9665C219.702 64.386 220.628 63.8957 221.591 64.0038C222.633 64.1156 223.52 64.9665 223.798 65.9761C224.075 66.9857 223.787 68.1035 223.156 68.94C222.525 69.7765 221.577 70.3317 220.567 70.6166C219.983 70.7825 219.345 70.851 218.782 70.6166C217.956 70.2705 217.502 69.2284 217.816 68.3883" fill="#1D1D1D"/>
        <path d="M193.247 95.6667L200.316 96.9131L194.377 136.728L194.361 136.839L194.393 136.946C194.672 137.873 194.715 138.848 194.519 139.79L194.519 139.79L194.518 139.798C194.286 141.001 193.758 142.011 193.116 142.675C192.47 143.343 191.759 143.617 191.128 143.503L191.127 143.503C190.496 143.389 189.938 142.888 189.584 142.044C189.231 141.204 189.112 140.08 189.341 138.878L189.343 138.878C189.509 137.926 189.91 137.032 190.514 136.259L190.608 136.137L190.618 135.984L193.247 95.6667Z" fill="#D9AAA7" stroke="#252527"/>
        <path d="M208.258 212.032L208.153 202.62L214.494 202.549L214.599 211.962L208.258 212.032Z" fill="#D9AAA7" stroke="#252527"/>
        <path d="M200.654 218.424C199.886 218.435 199.226 218.424 198.732 218.383L198.73 218.383C197.855 218.313 196.972 217.957 196.176 217.498C195.383 217.042 194.705 216.502 194.246 216.1L194.245 216.099C193.982 215.869 193.894 215.492 194.026 215.169L194.026 215.169C194.121 214.937 194.314 214.759 194.559 214.683L199.695 213.155L199.771 213.132L199.836 213.087L207.666 207.678C207.749 207.831 207.854 208.031 207.966 208.255C208.213 208.749 208.476 209.33 208.605 209.781C208.689 210.076 208.647 210.227 208.594 210.309L208.592 210.312C208.55 210.378 208.484 210.427 208.408 210.465L207.795 210.772L208.273 211.262C208.543 211.538 209.156 211.875 210.649 212.096C211.272 212.189 211.8 212.099 212.237 211.887C212.67 211.678 212.984 211.364 213.207 211.051C213.542 210.581 213.696 210.083 213.756 209.836C214.199 209.546 214.547 209.342 214.805 209.215C214.86 209.188 214.908 209.166 214.951 209.148C214.974 209.234 215 209.349 215.031 209.502C215.183 210.249 215.403 211.747 215.739 214.747L215.744 214.798L215.76 214.847C215.82 215.028 216.218 216.295 215.973 217.482L215.973 217.483C215.973 217.483 215.971 217.493 215.954 217.514C215.934 217.538 215.896 217.574 215.828 217.616C215.689 217.703 215.47 217.788 215.169 217.863C214.569 218.011 213.757 218.089 212.884 218.119C211.146 218.178 209.283 218.049 208.659 218L208.615 217.997L208.571 218.001C208.572 218.001 208.502 218.007 208.36 218.018C208.223 218.029 208.024 218.045 207.777 218.064C207.282 218.101 206.592 218.151 205.803 218.202C204.222 218.304 202.252 218.408 200.654 218.424L200.654 218.424ZM215.156 209.078C215.156 209.079 215.155 209.079 215.153 209.079C215.155 209.079 215.156 209.078 215.156 209.078ZM214.88 208.926C214.879 208.924 214.879 208.924 214.879 208.924C214.879 208.924 214.879 208.924 214.88 208.926Z" fill="#FCA728" stroke="#252527"/>
        <path d="M227.759 216.683L227.23 216.686C226.615 216.663 226.058 216.591 225.631 216.52C225.284 216.461 225.01 216.188 224.952 215.845L224.953 215.845L224.952 215.839C224.908 215.595 224.978 215.347 225.146 215.154C225.146 215.153 225.147 215.153 225.147 215.152L228.692 211.139L228.745 211.079L228.776 211.006L232.554 202.272C232.705 202.359 232.9 202.473 233.113 202.603C233.585 202.892 234.116 203.247 234.466 203.561C234.692 203.764 234.74 203.917 234.74 204.026C234.74 204.101 234.712 204.171 234.675 204.225L234.269 204.824L234.973 204.992C235.348 205.081 236.043 205.041 237.426 204.441L237.427 204.441C238.004 204.189 238.405 203.833 238.664 203.422C238.92 203.016 239.02 202.583 239.044 202.199C239.079 201.63 238.95 201.131 238.869 200.886C239.092 200.407 239.28 200.048 239.433 199.803C239.465 199.751 239.495 199.706 239.522 199.667C239.586 199.728 239.67 199.811 239.776 199.924C240.299 200.476 241.279 201.628 243.152 203.997L243.184 204.038L243.224 204.071C243.37 204.193 244.379 205.054 244.798 206.189C244.799 206.189 244.799 206.189 244.799 206.189C244.799 206.191 244.802 206.201 244.799 206.226C244.795 206.257 244.781 206.308 244.746 206.379C244.673 206.527 244.533 206.715 244.317 206.938C243.887 207.382 243.239 207.877 242.515 208.364C241.073 209.334 239.423 210.209 238.866 210.497L238.81 210.526L238.776 210.555C238.776 210.556 238.775 210.556 238.774 210.557L238.724 210.594C238.68 210.627 238.615 210.675 238.533 210.737C238.367 210.859 238.129 211.034 237.836 211.248C237.252 211.675 236.45 212.254 235.576 212.87C233.815 214.112 231.794 215.479 230.637 216.079C229.786 216.519 228.746 216.676 227.759 216.683ZM239.341 199.515C239.341 199.515 239.341 199.516 239.342 199.516C239.341 199.516 239.341 199.515 239.341 199.515ZM239.662 199.496C239.662 199.496 239.661 199.497 239.659 199.498C239.661 199.496 239.662 199.496 239.662 199.496Z" fill="#FCA728" stroke="#252527"/>
        <path d="M219.412 114.883L198.86 115.111L197.208 134.249L206.154 204.805L216.646 204.686L211.999 163.931L229.428 200.582L238.68 193.948L225.008 159.702C225.008 159.702 229.425 129.688 225.61 122.268C221.799 114.847 219.415 114.873 219.415 114.873V114.883H219.412Z" fill="#1D1D1D"/>
        <path d="M233.342 137.433L233.343 137.432C233.6 138.632 233.505 139.76 233.172 140.607C232.837 141.459 232.29 141.971 231.663 142.098L231.662 142.098C231.031 142.227 230.314 141.969 229.655 141.315C228.999 140.666 228.45 139.667 228.195 138.467L228.195 138.467L228.193 138.459C227.978 137.519 227.997 136.543 228.253 135.61L228.283 135.502L228.264 135.393L221.438 95.7166L228.475 94.3129L232 134.566L232.013 134.719L232.111 134.838C232.731 135.598 233.153 136.487 233.342 137.433Z" fill="#D9AAA7" stroke="#252527"/>
        <mask id="path-20-inside-1_7105_35502" fill="white">
            <path fill-rule="evenodd" clip-rule="evenodd" d="M226.644 115.936L194.002 116.3L198.269 96.9398C195.462 96.1223 192.915 95.0625 191.847 94.6184L191.847 94.6184C191.579 94.5069 191.404 94.4342 191.342 94.414C190.996 94.3058 192.64 86.4779 193.927 80.6043C194.767 76.7535 195.802 74.6586 199.696 74.0276L205.213 73.9663H205.217L205.217 73.97L217.551 73.8293L217.56 73.8737L221.555 73.8293C225.459 74.3774 226.541 76.447 227.471 80.2799C228.888 86.1246 230.702 93.9092 230.363 94.0282C230.298 94.0504 230.109 94.1334 229.82 94.2608C228.616 94.7911 225.662 96.0917 222.552 96.988L226.644 115.936Z"/>
        </mask>
        <path fill-rule="evenodd" clip-rule="evenodd" d="M226.644 115.936L194.002 116.3L198.269 96.9398C195.462 96.1223 192.915 95.0625 191.847 94.6184L191.847 94.6184C191.579 94.5069 191.404 94.4342 191.342 94.414C190.996 94.3058 192.64 86.4779 193.927 80.6043C194.767 76.7535 195.802 74.6586 199.696 74.0276L205.213 73.9663H205.217L205.217 73.97L217.551 73.8293L217.56 73.8737L221.555 73.8293C225.459 74.3774 226.541 76.447 227.471 80.2799C228.888 86.1246 230.702 93.9092 230.363 94.0282C230.298 94.0504 230.109 94.1334 229.82 94.2608C228.616 94.7911 225.662 96.0917 222.552 96.988L226.644 115.936Z" fill="#9654F4"/>
        <path d="M194.002 116.3L193.026 116.085L192.755 117.314L194.013 117.3L194.002 116.3ZM226.644 115.936L226.655 116.936L227.88 116.922L227.622 115.725L226.644 115.936ZM198.269 96.9398L199.246 97.155L199.447 96.2413L198.549 95.9797L198.269 96.9398ZM191.847 94.6184L191.454 95.5381L191.463 95.5418L191.847 94.6184ZM191.847 94.6184L192.24 93.6988L192.231 93.6951L191.847 94.6184ZM191.342 94.414L191.653 93.4633L191.64 93.4595L191.342 94.414ZM193.927 80.6043L194.904 80.8184L194.904 80.8175L193.927 80.6043ZM199.696 74.0276L199.685 73.0277L199.61 73.0285L199.536 73.0405L199.696 74.0276ZM205.213 73.9663V72.9662L205.202 72.9664L205.213 73.9663ZM205.217 73.9663L206.216 73.929L206.18 72.9663H205.217V73.9663ZM205.217 73.97L204.217 74.0073L204.254 74.9811L205.228 74.97L205.217 73.97ZM217.551 73.8293L218.528 73.6182L218.356 72.8201L217.539 72.8294L217.551 73.8293ZM217.56 73.8737L216.583 74.0848L216.755 74.8827L217.571 74.8737L217.56 73.8737ZM221.555 73.8293L221.693 72.8391L221.619 72.8286L221.543 72.8294L221.555 73.8293ZM227.471 80.2799L228.443 80.0442L228.443 80.044L227.471 80.2799ZM230.363 94.0282L230.685 94.9751L230.694 94.9717L230.363 94.0282ZM229.82 94.2608L229.417 93.3456L229.417 93.3456L229.82 94.2608ZM222.552 96.988L222.275 96.0272L221.377 96.2859L221.575 97.1991L222.552 96.988ZM194.013 117.3L226.655 116.936L226.633 114.936L193.991 115.3L194.013 117.3ZM197.292 96.7245L193.026 116.085L194.979 116.516L199.246 97.155L197.292 96.7245ZM191.463 95.5418C192.533 95.9867 195.125 97.0656 197.989 97.8999L198.549 95.9797C195.8 95.179 193.296 94.1383 192.231 93.6951L191.463 95.5418ZM191.454 95.538L191.454 95.538L192.24 93.6989L192.24 93.6988L191.454 95.538ZM191.031 95.3645C191.019 95.3605 191.02 95.3604 191.047 95.3706C191.069 95.3793 191.099 95.3915 191.14 95.4079C191.221 95.441 191.327 95.4854 191.463 95.5417L192.231 93.6951C191.995 93.5969 191.764 93.4997 191.653 93.4634L191.031 95.3645ZM192.95 80.3902C192.306 83.3288 191.572 86.7631 191.041 89.4793C190.776 90.835 190.559 92.0251 190.43 92.8888C190.366 93.3162 190.32 93.6888 190.303 93.9697C190.295 94.1031 190.29 94.2606 190.305 94.4079C190.312 94.4758 190.329 94.6024 190.382 94.7412C190.42 94.8387 190.582 95.2241 191.044 95.3684L191.64 93.4595C192.08 93.597 192.225 93.9606 192.248 94.0218C192.288 94.1243 192.294 94.2 192.295 94.2032C192.296 94.2211 192.293 94.1936 192.299 94.0911C192.311 93.9003 192.346 93.5977 192.408 93.1842C192.53 92.3663 192.74 91.212 193.004 89.863C193.53 87.1698 194.261 83.7534 194.904 80.8184L192.95 80.3902ZM199.536 73.0405C197.416 73.3841 195.926 74.1573 194.88 75.4912C193.877 76.7692 193.372 78.4556 192.95 80.3912L194.904 80.8175C195.322 78.9022 195.755 77.6157 196.453 76.7258C197.108 75.8918 198.083 75.3021 199.856 75.0147L199.536 73.0405ZM205.202 72.9664L199.685 73.0277L199.707 75.0275L205.224 74.9662L205.202 72.9664ZM205.217 72.9663H205.213V74.9663H205.217V72.9663ZM206.216 73.9328L206.216 73.929L204.217 74.0036L204.217 74.0073L206.216 73.9328ZM217.539 72.8294L205.205 72.9701L205.228 74.97L217.562 74.8293L217.539 72.8294ZM218.538 73.6626L218.528 73.6182L216.573 74.0404L216.583 74.0848L218.538 73.6626ZM217.571 74.8737L221.566 74.8293L221.543 72.8294L217.549 72.8738L217.571 74.8737ZM221.416 74.8196C223.194 75.0693 224.182 75.6376 224.856 76.4576C225.574 77.3324 226.037 78.6093 226.5 80.5157L228.443 80.044C227.976 78.1176 227.432 76.4433 226.401 75.1881C225.325 73.878 223.82 73.1375 221.693 72.8391L221.416 74.8196ZM226.5 80.5155C227.208 83.436 228.013 86.8344 228.599 89.5147C228.892 90.8571 229.127 92.0064 229.268 92.8217C229.339 93.2337 229.382 93.536 229.398 93.7273C229.407 93.8298 229.404 93.8584 229.405 93.8419C229.405 93.8392 229.409 93.765 229.445 93.6633C229.465 93.6059 229.597 93.2374 230.032 93.0847L230.694 94.9717C231.151 94.8116 231.299 94.4206 231.332 94.3264C231.381 94.188 231.394 94.0625 231.399 93.9949C231.41 93.8484 231.402 93.6919 231.391 93.5588C231.367 93.2787 231.312 92.9076 231.239 92.4818C231.091 91.6213 230.847 90.4369 230.553 89.0877C229.962 86.3847 229.152 82.9685 228.443 80.0442L226.5 80.5155ZM230.041 93.0814C229.922 93.122 229.671 93.2338 229.417 93.3456L230.223 95.176C230.369 95.1117 230.484 95.0609 230.572 95.0233C230.615 95.0045 230.648 94.9906 230.671 94.9809C230.7 94.9692 230.7 94.9699 230.685 94.975L230.041 93.0814ZM229.417 93.3456C228.213 93.8759 225.314 95.1513 222.275 96.0272L222.829 97.9489C226.01 97.032 229.018 95.7064 230.223 95.176L229.417 93.3456ZM227.622 115.725L223.53 96.7769L221.575 97.1991L225.667 116.147L227.622 115.725Z" fill="#252527" mask="url(#path-20-inside-1_7105_35502)"/>
    </g>
    <defs>
        <clipPath id="clip0_7105_35502">
            <rect width="287" height="219" fill="white" transform="translate(0.5)"/>
        </clipPath>
    </defs>
</svg>
