<svg width="288" height="219" viewBox="0 0 288 219" fill="none" xmlns="http://www.w3.org/2000/svg">
    <g clip-path="url(#clip0_7694_38998)">
        <path d="M1.85515 209L1 208.063L84.4622 131.904L114.532 145.384L147.003 89.6989L173.681 76.8397L198.399 118.036C211.744 83.4877 245.212 47.3422 285.314 10.6699L286.301 11.4687C248.688 47.4787 216.507 83.6522 198.244 120.245L175.381 82.0272C174.301 80.2217 172.031 79.5244 170.124 80.4119C155.541 87.1972 143.378 98.2728 135.26 112.158L114.92 146.948L110.277 144.866C94.7486 137.906 76.5702 140.823 64 152.293L1.85515 209Z" fill="#EE7538"/>
        <path d="M287.196 17.6032L285.929 17.6912L283.884 13.2599L279.306 12.3301L279.128 11.0724L286.675 10L287.196 17.6032Z" fill="#EE7538"/>
        <path d="M182.396 218.571H112.764C102.635 218.571 94.3965 210.332 94.3965 200.204V18.3672C94.3965 8.23891 102.635 0 112.764 0H182.396C192.524 0 200.763 8.23891 200.763 18.3672V200.204C200.763 210.332 192.524 218.571 182.396 218.571Z" fill="#252527"/>
        <path d="M182.447 213.599H112.713C105.217 213.599 99.1165 207.498 99.1165 200.002V18.2121C99.1165 10.716 105.217 4.61523 112.713 4.61523H182.447C189.943 4.61523 196.044 10.716 196.044 18.2121V200.002C196.044 207.498 189.943 213.599 182.447 213.599Z" fill="#69696B"/>
        <path d="M157.438 16.715H137.718C135.115 16.715 132.999 14.5985 132.999 11.9952C132.999 9.39191 135.115 7.27539 137.718 7.27539H157.438C160.041 7.27539 162.157 9.39191 162.157 11.9952C162.157 14.5985 160.041 16.715 157.438 16.715Z" fill="#252527"/>
        <path d="M123 100.641V113.603L114.736 113.603C111.163 113.603 108.253 110.697 108.253 107.12C108.253 103.543 111.163 100.641 114.736 100.641L123 100.641Z" fill="#EE7538"/>
        <path d="M180.424 100.641H114.736C111.163 100.641 108.253 103.547 108.253 107.12C108.253 110.693 111.163 113.603 114.736 113.603H180.424C184.001 113.603 186.907 110.697 186.907 107.12C186.907 103.543 184.001 100.641 180.424 100.641ZM180.424 111.44H114.736C112.356 111.44 110.417 109.503 110.417 107.12C110.417 104.737 112.356 102.804 114.736 102.804H180.424C182.807 102.804 184.743 104.74 184.743 107.12C184.743 109.5 182.807 111.44 180.424 111.44Z" fill="#252527"/>
        <path d="M284.537 218.572C284.537 218.81 284.346 219.001 284.108 219.001H43.8922C43.6542 219.001 43.4631 218.81 43.4631 218.572C43.4631 218.334 43.6542 218.143 43.8922 218.143H284.108C284.346 218.143 284.537 218.334 284.537 218.572Z" fill="#2E2E43"/>
        <path d="M235.362 206.454L230.291 198.523L235.634 195.108L240.704 203.039L235.362 206.454Z" fill="#D9AAA7" stroke="#252527"/>
        <path d="M212.891 68.2883L213.636 76.1308L206.85 78.4481L206.74 68.3569L212.891 68.2883Z" fill="#D9AAA7" stroke="#252527"/>
        <path d="M214.46 63.1631C214.46 67.2022 211.186 70.4765 207.147 70.4765C203.108 70.4765 199.833 67.2022 199.833 63.1631C199.833 59.1239 203.108 55.8496 207.147 55.8496C211.186 55.8496 214.46 59.1239 214.46 63.1631Z" fill="#D9AAA7" stroke="#252527"/>
        <path d="M209.284 62.3669C207.979 62.3417 207.103 61.0328 206.58 59.8285C206.057 58.6314 205.52 57.2469 204.305 56.7601C203.31 56.3635 201.593 59.1326 200.8 58.4115C199.974 57.6579 200.728 53.7205 201.59 53.0102C202.452 52.2999 203.634 52.1485 204.745 52.08C207.467 51.9249 210.204 52.1124 212.879 52.6425C214.53 52.967 216.24 53.4682 217.44 54.6472C218.965 56.1435 219.376 58.4223 219.506 60.5533C219.643 62.7347 219.539 65.0207 218.5 66.9461C217.458 68.8679 215.255 70.2993 213.117 69.8378C212.89 68.6804 213.092 67.4941 213.164 66.3115C213.236 65.136 213.131 63.8668 212.403 62.9366C211.675 62.0063 210.139 61.653 209.313 62.4931" fill="#1D1D1D"/>
        <path d="M218.926 64.966C219.702 64.3855 220.628 63.8952 221.591 64.0033C222.633 64.1151 223.52 64.9661 223.798 65.9756C224.075 66.9852 223.787 68.103 223.156 68.9395C222.525 69.776 221.577 70.3313 220.567 70.6161C219.983 70.782 219.345 70.8505 218.782 70.6161C217.956 70.27 217.502 69.2279 217.816 68.3878" fill="#1D1D1D"/>
        <path d="M193.247 95.6674L200.316 96.9138L194.377 136.729L194.361 136.84L194.393 136.947C194.672 137.873 194.715 138.849 194.519 139.791L194.519 139.791L194.518 139.798C194.286 141.001 193.758 142.012 193.116 142.676C192.47 143.344 191.759 143.618 191.128 143.504L191.127 143.504C190.496 143.39 189.938 142.889 189.584 142.045C189.231 141.205 189.112 140.081 189.341 138.879L189.343 138.879C189.509 137.927 189.91 137.033 190.514 136.259L190.608 136.138L190.618 135.984L193.247 95.6674Z" fill="#D9AAA7" stroke="#252527"/>
        <path d="M208.258 212.032L208.153 202.619L214.494 202.549L214.599 211.961L208.258 212.032Z" fill="#D9AAA7" stroke="#252527"/>
        <path d="M200.654 218.424C199.886 218.435 199.226 218.424 198.732 218.382L198.73 218.382C197.855 218.313 196.972 217.956 196.176 217.498C195.383 217.041 194.705 216.501 194.246 216.099L194.245 216.099C193.982 215.869 193.894 215.491 194.026 215.169L194.026 215.168C194.121 214.936 194.314 214.758 194.559 214.683L199.695 213.155L199.771 213.132L199.836 213.087L207.666 207.677C207.749 207.831 207.854 208.031 207.966 208.254C208.213 208.749 208.476 209.33 208.605 209.781C208.689 210.076 208.647 210.226 208.594 210.309L208.592 210.311C208.55 210.377 208.484 210.427 208.408 210.465L207.795 210.771L208.273 211.262C208.543 211.537 209.156 211.875 210.649 212.095C211.272 212.188 211.8 212.098 212.237 211.887C212.67 211.678 212.984 211.363 213.207 211.05C213.542 210.58 213.696 210.082 213.756 209.835C214.199 209.545 214.547 209.341 214.805 209.215C214.86 209.188 214.908 209.165 214.951 209.147C214.974 209.233 215 209.348 215.031 209.501C215.183 210.249 215.403 211.746 215.739 214.746L215.744 214.797L215.76 214.846C215.82 215.028 216.218 216.294 215.973 217.481L215.973 217.482C215.973 217.483 215.971 217.493 215.954 217.514C215.934 217.538 215.896 217.573 215.828 217.615C215.689 217.702 215.47 217.788 215.169 217.862C214.569 218.011 213.757 218.088 212.884 218.118C211.146 218.178 209.283 218.048 208.659 218L208.615 217.996L208.571 218.001C208.572 218.001 208.502 218.007 208.36 218.018C208.223 218.029 208.024 218.045 207.777 218.063C207.282 218.101 206.592 218.151 205.803 218.201C204.222 218.303 202.252 218.408 200.654 218.424L200.654 218.424ZM215.156 209.078C215.156 209.078 215.155 209.078 215.153 209.078C215.155 209.078 215.156 209.078 215.156 209.078ZM214.88 208.925C214.879 208.924 214.879 208.923 214.879 208.923C214.879 208.923 214.879 208.924 214.88 208.925Z" fill="#EE7538" stroke="#252527"/>
        <path d="M227.759 216.683L227.23 216.687C226.615 216.663 226.058 216.591 225.631 216.52C225.284 216.462 225.01 216.188 224.952 215.845L224.953 215.845L224.952 215.84C224.908 215.596 224.978 215.348 225.146 215.154C225.146 215.154 225.147 215.153 225.147 215.153L228.692 211.139L228.745 211.08L228.776 211.007L232.554 202.273C232.705 202.359 232.9 202.473 233.113 202.604C233.585 202.893 234.116 203.247 234.466 203.561C234.692 203.765 234.74 203.917 234.74 204.026C234.74 204.102 234.712 204.171 234.675 204.225L234.269 204.825L234.973 204.992C235.348 205.081 236.043 205.041 237.426 204.442L237.427 204.441C238.004 204.19 238.405 203.834 238.664 203.423C238.92 203.016 239.02 202.584 239.044 202.2C239.079 201.63 238.95 201.131 238.869 200.887C239.092 200.408 239.28 200.049 239.433 199.804C239.465 199.752 239.495 199.707 239.522 199.668C239.586 199.729 239.67 199.812 239.776 199.924C240.299 200.477 241.279 201.628 243.152 203.997L243.184 204.038L243.224 204.071C243.37 204.193 244.379 205.054 244.798 206.189C244.799 206.189 244.799 206.189 244.799 206.19C244.799 206.192 244.802 206.202 244.799 206.227C244.795 206.258 244.781 206.308 244.746 206.38C244.673 206.528 244.533 206.716 244.317 206.939C243.887 207.382 243.239 207.877 242.515 208.364C241.073 209.334 239.423 210.21 238.866 210.497L238.81 210.526L238.776 210.556C238.776 210.556 238.775 210.557 238.774 210.557L238.724 210.595C238.68 210.628 238.615 210.676 238.533 210.737C238.367 210.86 238.129 211.035 237.836 211.248C237.252 211.675 236.45 212.254 235.576 212.871C233.815 214.112 231.794 215.479 230.637 216.079C229.786 216.519 228.746 216.676 227.759 216.683ZM239.341 199.516C239.341 199.516 239.341 199.516 239.342 199.517C239.341 199.516 239.341 199.516 239.341 199.516ZM239.662 199.496C239.662 199.496 239.661 199.497 239.659 199.498C239.661 199.497 239.662 199.496 239.662 199.496Z" fill="#EE7538" stroke="#252527"/>
        <path d="M219.412 114.884L198.86 115.111L197.208 134.25L206.154 204.805L216.646 204.686L211.999 163.932L229.428 200.583L238.68 193.949L225.008 159.702C225.008 159.702 229.425 129.689 225.61 122.268C221.799 114.848 219.415 114.873 219.415 114.873V114.884H219.412Z" fill="#1D1D1D"/>
        <path d="M233.342 137.432L233.343 137.432C233.6 138.632 233.505 139.76 233.172 140.607C232.837 141.459 232.29 141.97 231.663 142.097L231.662 142.098C231.031 142.226 230.314 141.968 229.655 141.315C228.999 140.666 228.45 139.666 228.195 138.467L228.195 138.467L228.193 138.459C227.978 137.519 227.997 136.543 228.253 135.609L228.283 135.502L228.264 135.392L221.438 95.7161L228.475 94.3124L232 134.565L232.013 134.718L232.111 134.838C232.731 135.598 233.153 136.486 233.342 137.432Z" fill="#D9AAA7" stroke="#252527"/>
        <mask id="path-20-inside-1_7694_38998" fill="white">
            <path fill-rule="evenodd" clip-rule="evenodd" d="M226.644 115.937L194.002 116.301L198.269 96.9405C195.462 96.123 192.915 95.0633 191.847 94.6192L191.847 94.6191C191.579 94.5077 191.404 94.435 191.342 94.4147C190.996 94.3065 192.64 86.4786 193.927 80.605C194.767 76.7542 195.802 74.6593 199.696 74.0283L205.213 73.967H205.217L205.217 73.9708L217.551 73.8301L217.56 73.8745L221.555 73.8301C225.459 74.3781 226.541 76.4478 227.471 80.2806C228.888 86.1253 230.702 93.9099 230.363 94.0289C230.298 94.0511 230.109 94.1341 229.82 94.2615C228.616 94.7919 225.662 96.0924 222.552 96.9888L226.644 115.937Z"/>
        </mask>
        <path fill-rule="evenodd" clip-rule="evenodd" d="M226.644 115.937L194.002 116.301L198.269 96.9405C195.462 96.123 192.915 95.0633 191.847 94.6192L191.847 94.6191C191.579 94.5077 191.404 94.435 191.342 94.4147C190.996 94.3065 192.64 86.4786 193.927 80.605C194.767 76.7542 195.802 74.6593 199.696 74.0283L205.213 73.967H205.217L205.217 73.9708L217.551 73.8301L217.56 73.8745L221.555 73.8301C225.459 74.3781 226.541 76.4478 227.471 80.2806C228.888 86.1253 230.702 93.9099 230.363 94.0289C230.298 94.0511 230.109 94.1341 229.82 94.2615C228.616 94.7919 225.662 96.0924 222.552 96.9888L226.644 115.937Z" fill="#9654F4"/>
        <path d="M194.002 116.301L193.026 116.086L192.755 117.315L194.013 117.301L194.002 116.301ZM226.644 115.937L226.655 116.937L227.88 116.923L227.622 115.726L226.644 115.937ZM198.269 96.9405L199.246 97.1557L199.447 96.242L198.549 95.9804L198.269 96.9405ZM191.847 94.6192L191.454 95.5388L191.463 95.5425L191.847 94.6192ZM191.847 94.6191L192.24 93.6995L192.231 93.6958L191.847 94.6191ZM191.342 94.4147L191.653 93.4641L191.64 93.4602L191.342 94.4147ZM193.927 80.605L194.904 80.8191L194.904 80.8182L193.927 80.605ZM199.696 74.0283L199.685 73.0284L199.61 73.0292L199.536 73.0412L199.696 74.0283ZM205.213 73.967V72.967L205.202 72.9671L205.213 73.967ZM205.217 73.967L206.216 73.9298L206.18 72.967H205.217V73.967ZM205.217 73.9708L204.217 74.008L204.254 74.9818L205.228 74.9707L205.217 73.9708ZM217.551 73.8301L218.528 73.619L218.356 72.8208L217.539 72.8301L217.551 73.8301ZM217.56 73.8745L216.583 74.0856L216.755 74.8835L217.571 74.8744L217.56 73.8745ZM221.555 73.8301L221.693 72.8398L221.619 72.8293L221.543 72.8301L221.555 73.8301ZM227.471 80.2806L228.443 80.045L228.443 80.0447L227.471 80.2806ZM230.363 94.0289L230.685 94.9758L230.694 94.9725L230.363 94.0289ZM229.82 94.2615L229.417 93.3463L229.417 93.3463L229.82 94.2615ZM222.552 96.9888L222.275 96.0279L221.377 96.2866L221.575 97.1999L222.552 96.9888ZM194.013 117.301L226.655 116.937L226.633 114.937L193.991 115.301L194.013 117.301ZM197.292 96.7253L193.026 116.086L194.979 116.516L199.246 97.1557L197.292 96.7253ZM191.463 95.5425C192.533 95.9875 195.125 97.0663 197.989 97.9006L198.549 95.9804C195.8 95.1798 193.296 94.139 192.231 93.6959L191.463 95.5425ZM191.454 95.5387L191.454 95.5388L192.24 93.6996L192.24 93.6995L191.454 95.5387ZM191.031 95.3652C191.019 95.3612 191.02 95.3611 191.047 95.3714C191.069 95.38 191.099 95.3922 191.14 95.4087C191.221 95.4417 191.327 95.4862 191.463 95.5424L192.231 93.6958C191.995 93.5976 191.764 93.5004 191.653 93.4642L191.031 95.3652ZM192.95 80.391C192.306 83.3295 191.572 86.7639 191.041 89.4801C190.776 90.8358 190.559 92.0258 190.43 92.8896C190.366 93.317 190.32 93.6896 190.303 93.9705C190.295 94.1038 190.29 94.2614 190.305 94.4086C190.312 94.4766 190.329 94.6031 190.382 94.7419C190.42 94.8395 190.582 95.2248 191.044 95.3692L191.64 93.4602C192.08 93.5978 192.225 93.9613 192.248 94.0225C192.288 94.125 192.294 94.2008 192.295 94.204C192.296 94.2218 192.293 94.1944 192.299 94.0919C192.311 93.901 192.346 93.5984 192.408 93.185C192.53 92.367 192.74 91.2127 193.004 89.8637C193.53 87.1706 194.261 83.7542 194.904 80.8191L192.95 80.391ZM199.536 73.0412C197.416 73.3848 195.926 74.158 194.88 75.492C193.877 76.7699 193.372 78.4563 192.95 80.3919L194.904 80.8182C195.322 78.9029 195.755 77.6165 196.453 76.7265C197.108 75.8926 198.083 75.3029 199.856 75.0155L199.536 73.0412ZM205.202 72.9671L199.685 73.0284L199.707 75.0283L205.224 74.967L205.202 72.9671ZM205.217 72.967H205.213V74.967H205.217V72.967ZM206.216 73.9335L206.216 73.9298L204.217 74.0043L204.217 74.008L206.216 73.9335ZM217.539 72.8301L205.205 72.9708L205.228 74.9707L217.562 74.83L217.539 72.8301ZM218.538 73.6634L218.528 73.619L216.573 74.0412L216.583 74.0856L218.538 73.6634ZM217.571 74.8744L221.566 74.83L221.543 72.8301L217.549 72.8745L217.571 74.8744ZM221.416 74.8204C223.194 75.07 224.182 75.6383 224.856 76.4583C225.574 77.3331 226.037 78.61 226.5 80.5164L228.443 80.0447C227.976 78.1183 227.432 76.444 226.401 75.1888C225.325 73.8788 223.82 73.1382 221.693 72.8398L221.416 74.8204ZM226.5 80.5162C227.208 83.4367 228.013 86.8352 228.599 89.5154C228.892 90.8579 229.127 92.0072 229.268 92.8224C229.339 93.2345 229.382 93.5367 229.398 93.728C229.407 93.8306 229.404 93.8592 229.405 93.8426C229.405 93.84 229.409 93.7657 229.445 93.6641C229.465 93.6066 229.597 93.2381 230.032 93.0854L230.694 94.9725C231.151 94.8123 231.299 94.4214 231.332 94.3272C231.381 94.1887 231.394 94.0633 231.399 93.9957C231.41 93.8491 231.402 93.6926 231.391 93.5595C231.367 93.2795 231.312 92.9084 231.239 92.4825C231.091 91.6221 230.847 90.4376 230.553 89.0884C229.962 86.3854 229.152 82.9692 228.443 80.045L226.5 80.5162ZM230.041 93.0821C229.922 93.1228 229.671 93.2346 229.417 93.3463L230.223 95.1767C230.369 95.1124 230.484 95.0616 230.572 95.024C230.615 95.0052 230.648 94.9914 230.671 94.9817C230.7 94.9699 230.7 94.9707 230.685 94.9757L230.041 93.0821ZM229.417 93.3463C228.213 93.8766 225.314 95.152 222.275 96.0279L222.829 97.9497C226.01 97.0328 229.018 95.7071 230.223 95.1767L229.417 93.3463ZM227.622 115.726L223.53 96.7777L221.575 97.1999L225.667 116.148L227.622 115.726Z" fill="#252527" mask="url(#path-20-inside-1_7694_38998)"/>
    </g>
    <defs>
        <clipPath id="clip0_7694_38998">
            <rect width="287" height="219" fill="white" transform="translate(0.5)"/>
        </clipPath>
    </defs>
</svg>
