<svg width="690" height="230" viewBox="0 0 690 230" fill="none" xmlns="http://www.w3.org/2000/svg">
    <path d="M172.417 178.308C168.638 177.083 163.851 177.837 161.906 181.585C161.059 183.217 158.551 181.807 159.394 180.182C161.029 177.032 164.19 175.332 167.672 174.981C177.485 173.99 182.982 183.297 187.435 190.448C190.013 194.588 192.992 198.914 197.654 200.896C201.134 202.376 205.013 202.259 208.573 201.212C228.046 195.479 229.952 171.579 244.559 160.312C250.48 155.744 258.994 152.774 266.446 155.231C270.424 156.543 273.285 159.256 275.557 162.691C278.077 166.502 280.193 170.171 284.472 172.249C291.941 175.877 301.416 173.875 308.204 169.801C316.791 164.647 322.967 156.456 329.964 149.496C335.674 143.816 342.339 138.76 350.228 136.528C357.848 134.373 365.707 135.655 372.037 140.543C384.912 150.486 388.678 169.914 405.974 174.321C424.24 178.976 441.188 167.357 455.008 157.22C462.654 151.612 470.379 145.82 479.196 142.121C486.786 138.938 495.256 137.495 503.485 138.601C511.601 139.692 519.034 143.736 523.66 150.587C528.233 157.361 529.629 165.614 531.703 173.338C533.968 181.774 537.637 189.301 544.142 195.347C545.92 197 545.629 199.9 544.142 199.5C542.655 199.1 538.522 193.806 536.641 191.209C531.562 184.371 529.506 176.377 527.458 168.286C525.458 160.386 523.037 152.093 516.349 146.781C509.731 141.524 500.764 140.4 492.631 141.422C473.709 143.8 459.869 158.294 444.523 168.037C431.078 176.573 412.106 182.851 397.197 173.701C390.24 169.432 385.712 162.449 381.247 155.844L381.192 155.763C376.868 149.367 372.072 142.272 364.478 139.504C356.694 136.667 348.4 139.346 341.728 143.542C333.91 148.459 328.129 155.782 321.729 162.286C315.557 168.559 308.565 174.291 299.73 176.209C292.135 177.857 283.356 176.817 277.792 170.845C274.803 167.636 273.286 163.254 269.937 160.364C266.801 157.659 262.563 156.9 258.554 157.377C249.004 158.515 242.314 165.363 237.457 173.07C232.414 181.072 228.051 189.142 221.563 196.809C213.51 203.269 208.886 204.612 202.163 205.174C191.462 203.679 187.48 195.833 182.939 188.591C180.398 184.538 177.219 179.865 172.417 178.308Z" fill="#C5C5C6"/>
    <path d="M248.475 151.724C251.115 147.842 256.402 146.835 260.283 149.475C264.165 152.115 265.172 157.402 262.532 161.283C259.892 165.165 254.606 166.172 250.724 163.532C246.842 160.893 245.835 155.606 248.475 151.724Z" fill="#EE7538" stroke="#69696B"/>
    <path d="M511.116 141.735C512.168 140.188 514.274 139.787 515.82 140.839C517.366 141.89 517.768 143.996 516.716 145.543C515.664 147.089 513.559 147.49 512.012 146.439C510.466 145.387 510.065 143.281 511.116 141.735Z" fill="#EE7538" stroke="#69696B"/>
    <path d="M377.878 149.986C379.908 147.002 383.973 146.227 386.957 148.257C389.942 150.287 390.716 154.352 388.686 157.337C386.657 160.321 382.592 161.096 379.607 159.066C376.622 157.036 375.848 152.971 377.878 149.986Z" fill="#EE7538" stroke="#69696B"/>
    <g clip-path="url(#clip0_7694_39089)">
        <path d="M52.7015 136.34L39.3261 124.422C37.3058 122.634 37.1203 119.549 38.9118 117.531C40.7032 115.514 43.7935 115.329 45.8138 117.118L45.8368 117.138L59.2122 129.056C61.2212 130.857 61.3871 133.943 59.5829 135.949C57.7868 137.946 54.7128 138.12 52.7015 136.34Z" fill="#C5C5C6"/>
        <path d="M146.705 206.025C146.66 206.025 146.613 206.024 146.567 206.024L24.9763 204.606C18.0653 204.517 12.4989 198.844 12.5475 191.95C3.96336 163.52 0.181106 141.132 0.284533 119.366C0.392513 96.6476 4.88825 73.5379 14.4321 46.6432C14.5429 39.7952 20.167 34.2812 27.0185 34.2812C27.0629 34.2812 27.1072 34.2815 27.1515 34.2819L148.743 35.7022C155.67 35.7914 161.244 41.4886 161.168 48.4022L160.922 69.4593L160.74 69.4614L159.288 193.618C159.199 200.488 153.568 206.025 146.705 206.025ZM27.0184 34.8459C20.4594 34.8459 15.0791 40.1359 14.997 46.6974L14.9964 46.7441L14.9807 46.7881C-3.24475 98.1262 -3.73661 136.08 13.1015 191.828L13.1139 191.869L13.1135 191.912C13.0446 198.515 18.3692 203.956 24.9832 204.042L146.574 205.459C146.618 205.46 146.662 205.46 146.706 205.46C153.259 205.46 158.637 200.172 158.722 193.611L160.063 79.0246L160.068 78.4603L160.224 65.3582L160.404 65.3567L160.603 48.3959C160.675 41.7933 155.351 36.3521 148.736 36.2669L27.1453 34.8466C27.1033 34.8462 27.0602 34.8459 27.0184 34.8459Z" fill="#C5C5C6"/>
        <path d="M135.904 155.148L135.895 155.713H66.4404V155.148H135.904Z" fill="#C5C5C6"/>
        <path d="M136.042 143.148L136.036 143.713H66.4404V143.148H136.042Z" fill="#C5C5C6"/>
        <path d="M136.184 131.148L136.178 131.713H66.4404V131.148H136.184Z" fill="#C5C5C6"/>
        <path d="M135.748 168.249L135.742 168.814H64.8906V109.55L65.4562 109.555V145.021C65.4562 148.652 66.2905 152.088 67.778 155.148C67.8713 155.338 67.9646 155.527 68.0636 155.713C71.9379 163.161 79.7374 168.249 88.7247 168.249H135.748Z" fill="#C5C5C6"/>
        <path d="M37.4937 197.711C30.7089 197.624 25.2749 192.071 25.3465 185.297C9.18745 131.799 8.17548 93.7545 27.2282 40.0814C27.2663 37.9454 27.8689 35.8575 28.9748 34.0287L26.5821 34.0007C19.7972 33.9293 14.2345 39.3546 14.1473 46.1285C-4.90546 99.8017 -3.89345 137.846 12.2656 191.344C12.1939 198.118 17.628 203.672 24.4128 203.758L146.004 205.178C150.401 205.214 154.48 202.896 156.692 199.102L37.4937 197.711Z" fill="#C5C5C6"/>
        <path d="M43.9361 118.564C43.5403 118.302 43.1178 118.07 42.6819 117.873C42.6908 117.761 42.6953 117.645 42.6953 117.534C42.7175 116.405 42.4862 115.276 42.0148 114.241C42.0771 115.151 41.788 116.079 41.2187 116.804C41.1209 116.933 41.0141 117.053 40.8985 117.169C40.8673 117.199 40.8362 117.229 40.8051 117.255C40.178 117.117 39.5287 117.053 38.8838 117.062C38.1677 117.074 37.4561 117.169 36.749 117.302C35.8639 117.465 34.9833 117.693 34.1027 117.881C34.0493 117.894 34.0004 117.903 33.9471 117.916C33.5424 116.856 32.9064 115.885 32.0791 115.087C32.4749 115.911 32.555 116.877 32.2971 117.753C32.2526 117.907 32.1992 118.057 32.1325 118.203C31.1718 118.298 30.2112 118.272 29.2906 118.014C28.8992 117.907 28.53 117.761 28.1698 117.59C26.8978 116.989 25.7504 116.096 24.4384 115.559C23.7312 115.267 22.984 115.087 22.2191 115.014C21.5786 111.473 21.7565 108.331 23.7223 106.06C23.7223 100.879 28.0764 96.6768 33.4445 96.6768L37.9009 98.1705L42.4017 99.6815C44.5187 105.133 47.8855 109.932 43.9361 118.564Z" fill="#303032"/>
        <path d="M60.2561 208.311L53.5835 218.867L51.113 217.698L56.4319 206.5L60.2561 208.311Z" fill="#D9AAA7" stroke="#C5C5C6" stroke-width="0.6"/>
        <path d="M57.8833 225.792L54.699 220.284L55.711 218.154L54.6578 217.729L51.3904 216.416L50.5902 216.093L46.3875 223.32L48.6253 224.378L50.0256 222.459L50.0439 225.051L55.9727 227.859C56.7096 228.207 57.5905 227.892 57.9383 227.159C58.1459 226.722 58.1254 226.211 57.8833 225.792Z" fill="#303032"/>
        <path d="M89.2064 163.402L96.732 173.371L94.7615 175.263L86.1562 166.331L89.2064 163.402Z" fill="#D9AAA7" stroke="#C5C5C6" stroke-width="0.6"/>
        <path d="M104.74 171.808L98.4536 172.831L96.8164 171.132L96.045 171.965L93.6587 174.551L93.0723 175.183L98.3537 181.667L100.137 179.952L98.8354 177.965L101.27 178.866L106 174.325C106.587 173.76 106.603 172.826 106.04 172.241C105.704 171.893 105.218 171.731 104.74 171.808Z" fill="#303032"/>
        <path d="M44.3974 156.969L32.5654 154.38L32.6448 157.925C32.6448 157.925 20.2953 167.328 31.689 176.391C43.0827 185.455 62.3644 186.318 62.3644 186.318L53.6 211.351L57.9822 213.077L75.2361 189.871C77.5594 185.711 76.9026 180.468 73.4417 177.163C72.7721 176.523 72.0053 175.96 71.1288 175.528C65.8702 172.939 51.8471 167.759 51.8471 167.759L44.8356 160.854L44.3974 156.969Z" fill="#303032"/>
        <path d="M43.7744 163.056L67.8237 147.543C70.5223 145.803 74.0369 146.111 76.3999 148.297L94.5129 168.331L89.7426 172.288L71.0951 159.1C71.0951 159.1 60.2536 171.408 57.2179 171.408C54.1823 171.408 43.7744 163.056 43.7744 163.056Z" fill="#303032"/>
        <path d="M44.5693 107.123C44.5693 111.121 41.1078 114.384 36.8103 114.384C32.5128 114.384 29.0513 111.121 29.0513 107.123C29.0513 103.124 32.5128 99.8611 36.8103 99.8611C41.1078 99.8611 44.5693 103.124 44.5693 107.123Z" fill="#D9AAA7" stroke="#C5C5C6" stroke-width="0.4"/>
        <path d="M40.7429 105.258C40.6845 104.399 40.4554 103.548 40.078 102.759C40.1409 103.63 39.8488 104.518 39.2737 105.213C39.2603 105.229 39.2468 105.241 39.2378 105.258C37.7528 105.918 35.2492 105.545 32.8308 105.258V97.0364H37.7731C42.6255 95.5401 46.6197 98.7958 46.759 105.258C44.431 105.644 42.2489 105.855 40.7429 105.258Z" fill="#303032"/>
        <path d="M34.7806 95.4802C34.6213 94.9868 34.0139 94.7515 33.4965 94.831C32.979 94.9105 32.5333 95.2229 32.1089 95.5263C32.5222 95.0813 32.3119 94.2962 31.8061 93.9574C31.3002 93.6186 30.6239 93.6419 30.0399 93.8195C29.456 93.9972 28.9241 94.3105 28.3538 94.527C27.7834 94.7435 27.1331 94.8585 26.5682 94.6284C26.788 95.3127 27.2133 95.9311 27.7759 96.3848C27.1104 96.2696 26.3891 96.6109 26.0621 97.1957C25.7351 97.7806 25.8261 98.5664 26.2784 99.0629C26.7976 99.6328 27.6758 99.7664 28.43 99.5875C29.1841 99.4086 29.8442 98.9688 30.48 98.5295C31.1158 98.0902 31.7614 97.6355 32.5055 97.4193L30.0598 98.941C31.3089 98.4261 32.5207 97.823 33.6831 97.1377C33.9939 96.9545 34.3075 96.76 34.5346 96.4814C34.7617 96.2028 34.8907 95.8212 34.7806 95.4802Z" fill="#303032"/>
        <path d="M22.0125 192.613C21.9742 191.359 23.0981 190.47 24.2472 190.24C25.7073 189.948 27.1977 190.699 28.4348 191.382C30.6455 192.603 33.2103 191.393 35.5724 192.875C39.0592 195.062 39.7795 191.785 39.5599 187.917C39.3979 185.064 40.09 182.262 40.2374 179.456C40.3793 176.753 41.1165 174.007 43.4115 172.328C44.375 171.623 45.5751 171.206 46.7715 171.453C48.0492 171.717 49.0699 172.634 50.3011 173.033C52.5923 173.776 55.0019 172.774 56.7201 171.246C58.7187 169.468 59.6944 166.968 60.3811 164.446C61.0932 161.832 61.5281 159.094 62.8337 156.686C63.9477 154.631 65.6977 152.734 68.1096 152.342C70.4728 151.958 72.737 153.114 74.7766 154.15C76.8758 155.216 79.0459 156.371 81.451 156.471C86.6049 156.684 90.5861 152.306 92.8197 148.143C95.3691 143.392 96.8472 137.627 101.377 134.268C103.323 132.824 105.793 131.816 108.253 132.221C110.739 132.63 112.555 134.43 114.206 136.189C115.897 137.991 117.576 139.767 119.867 140.805C122.115 141.823 124.627 142.205 127.076 141.882C128.259 141.726 129.391 141.403 130.485 140.931C130.985 140.715 130.553 139.985 130.057 140.199C127.657 141.235 124.925 141.414 122.393 140.791C119.849 140.165 117.822 138.744 116.025 136.885C114.38 135.182 112.834 133.243 110.683 132.149C108.506 131.042 106.011 131.07 103.765 131.963C101.488 132.869 99.5146 134.47 98.0186 136.396C96.2806 138.633 95.1249 141.255 93.9631 143.818C91.8633 148.45 89.1715 153.92 83.7994 155.36C78.713 156.723 74.9495 152.229 70.2049 151.516C67.8723 151.165 65.6649 151.971 64.0131 153.635C62.3031 155.357 61.3146 157.634 60.6615 159.935C59.8613 162.755 59.4493 165.774 57.98 168.355C56.8185 170.396 54.6672 172.288 52.2226 172.43C50.8223 172.511 49.75 171.866 48.553 171.242C47.474 170.681 46.3473 170.391 45.1345 170.628C42.863 171.07 41.0981 173.074 40.2307 175.117C38.091 180.157 41.0374 186.632 36.8488 190.941C36.0833 191.729 35.1013 192.321 33.9926 192.442C32.5073 192.603 31.1185 191.913 29.8594 191.213C27.6845 190.003 24.9309 188.386 22.5471 190.064C21.7012 190.66 21.1319 191.559 21.1641 192.613C21.1808 193.157 22.0293 193.159 22.0125 192.613Z" fill="#444446"/>
        <path d="M108.939 131.431C108.939 132.668 107.934 133.672 106.694 133.672C105.453 133.672 104.448 132.668 104.448 131.431C104.448 130.193 105.453 129.19 106.694 129.19C107.934 129.19 108.939 130.193 108.939 131.431Z" fill="#EE7538" stroke="#69696B" stroke-width="0.6"/>
        <path d="M85.1839 155.431C85.1839 156.668 84.1791 157.672 82.9387 157.672C81.6983 157.672 80.6936 156.668 80.6936 155.431C80.6936 154.193 81.6983 153.19 82.9387 153.19C84.1791 153.19 85.1839 154.193 85.1839 155.431Z" fill="#EE7538" stroke="#69696B" stroke-width="0.6"/>
        <path opacity="0.4" d="M68.4263 78.6058C69.9871 75.3719 74.0365 73.5708 77.4885 74.5751C79.4331 75.1409 81.0641 76.4408 82.8522 77.3908C84.6403 78.3409 86.8585 78.9308 88.6572 78.001C91.7489 76.4026 91.5603 71.6306 94.2494 69.4227C96.0393 67.9532 98.6656 68.0219 100.878 68.7108C103.09 69.3998 105.113 70.6161 107.34 71.2573C111.483 72.4504 116.194 71.447 119.49 68.6697C119.523 68.642 119.555 68.614 119.587 68.5858C121.218 67.1509 123.775 68.3334 123.715 70.5032L123.298 85.6352H68.7182L68.4263 78.6058Z" fill="#EE7538"/>
        <path d="M116.327 75.8795C116.506 75.8066 116.506 75.555 116.327 75.4822C115.072 74.974 113.667 74.2505 112.593 73.4636C112.421 73.3376 112.191 73.5113 112.264 73.7115L112.875 75.3984H102.416V75.9631H112.875L112.264 77.6506C112.191 77.8508 112.421 78.0245 112.593 77.8985C113.667 77.1115 115.072 76.388 116.327 75.8795Z" fill="#C5C5C6"/>
        <path d="M92.7964 73.1601C92.8953 72.9934 92.7428 72.7932 92.5554 72.844C91.2487 73.198 89.6916 73.4717 88.3597 73.4945C88.1465 73.4982 88.069 73.7753 88.2481 73.8908L89.7575 74.8638L81.4336 81.1862L81.776 81.6356L90.1 75.3132L90.6368 77.0258C90.7005 77.229 90.9887 77.2283 91.0491 77.0241C91.4265 75.7487 92.1061 74.3233 92.7964 73.1601Z" fill="#444446"/>
        <path d="M121.417 72.3591C124.095 72.3591 126.265 70.1921 126.265 67.5189C126.265 64.8457 124.095 62.6787 121.417 62.6787C118.74 62.6787 116.569 64.8457 116.569 67.5189C116.569 70.1921 118.74 72.3591 121.417 72.3591Z" fill="#EE7538"/>
        <path opacity="0.7" d="M97.6624 72.3591C100.34 72.3591 102.51 70.1921 102.51 67.5189C102.51 64.8457 100.34 62.6787 97.6624 62.6787C94.985 62.6787 92.8145 64.8457 92.8145 67.5189C92.8145 70.1921 94.985 72.3591 97.6624 72.3591Z" fill="#EE7538"/>
        <path opacity="0.25" d="M76.17 76.8767C78.8474 76.8767 81.0179 74.7096 81.0179 72.0365C81.0179 69.3633 78.8474 67.1963 76.17 67.1963C73.4925 67.1963 71.322 69.3633 71.322 72.0365C71.322 74.7096 73.4925 76.8767 76.17 76.8767Z" fill="#EE7538"/>
        <path d="M134.98 95.2903L59.7587 94.7521C57.3409 94.7348 55.3614 96.683 55.3441 99.0969C55.3268 101.511 57.2781 103.487 59.6959 103.505L134.918 104.043C137.336 104.06 139.315 102.112 139.332 99.6979C139.35 97.2839 137.398 95.3076 134.98 95.2903Z" fill="#C5C5C6"/>
        <path d="M48.5213 100.191C49.6146 100.191 50.5009 99.3062 50.5009 98.2147C50.5009 97.1232 49.6146 96.2383 48.5213 96.2383C47.428 96.2383 46.5417 97.1232 46.5417 98.2147C46.5417 99.3062 47.428 100.191 48.5213 100.191Z" fill="#C5C5C6"/>
        <path d="M134.98 46.7269L59.7587 46.1886C57.3409 46.1713 55.3614 48.1195 55.3441 50.5335C55.3268 52.9474 57.2781 54.9237 59.6959 54.941L134.918 55.4793C137.336 55.4966 139.315 53.5484 139.332 51.1344C139.35 48.7205 137.398 46.7442 134.98 46.7269Z" fill="#C5C5C6"/>
        <path d="M48.5213 51.6276C49.6146 51.6276 50.5009 50.7428 50.5009 49.6512C50.5009 48.5597 49.6146 47.6748 48.5213 47.6748C47.428 47.6748 46.5417 48.5597 46.5417 49.6512C46.5417 50.7428 47.428 51.6276 48.5213 51.6276Z" fill="#C5C5C6"/>
        <path d="M51.6946 196.963H32.7406C31.1474 196.963 29.8513 195.669 29.8513 194.078V175.154C29.8513 173.564 31.1474 172.27 32.7406 172.27H51.6946C53.2878 172.27 54.584 173.564 54.584 175.154V194.078C54.584 195.669 53.2878 196.963 51.6946 196.963Z" fill="#C5C5C6"/>
        <path d="M51.6946 196.963H32.7406C31.1474 196.963 29.8513 195.669 29.8513 194.078V175.154C29.8513 173.564 31.1474 172.27 32.7406 172.27H51.6946C53.2878 172.27 54.584 173.564 54.584 175.154V194.078C54.584 195.669 53.2878 196.963 51.6946 196.963ZM32.7406 172.731C31.4002 172.731 30.3136 173.816 30.3136 175.154V194.078C30.3136 195.416 31.4002 196.501 32.7406 196.501H46.2486C50.5968 196.501 54.1217 192.982 54.1217 188.641V175.154C54.1217 173.816 53.035 172.731 51.6946 172.731H32.7406Z" fill="#C5C5C6"/>
        <path d="M131.145 195.356C131.73 195.393 132.052 194.668 131.61 194.246L131.566 194.071C131.572 194.057 131.578 194.043 131.584 194.029C132.175 192.622 134.177 192.632 134.763 194.041C135.283 195.291 135.945 196.544 136.108 197.865C136.181 198.449 136.148 199.044 136.018 199.616C137.237 196.959 137.878 194.058 137.878 191.14C137.878 190.407 137.838 189.674 137.755 188.942C137.688 188.344 137.595 187.75 137.474 187.161C136.822 183.977 135.41 180.944 133.374 178.411C132.394 177.877 131.578 177.041 131.085 176.04C130.908 175.679 130.769 175.291 130.703 174.895C130.815 174.91 131.123 173.216 131.039 173.112C131.194 172.876 131.472 172.759 131.642 172.53C132.485 171.388 133.647 171.588 134.254 173.139C135.55 173.792 135.562 174.875 134.767 175.916C134.261 176.579 134.192 177.476 133.748 178.185C133.794 178.243 133.841 178.3 133.887 178.358C134.724 179.43 135.448 180.583 136.059 181.794C135.886 180.448 136.141 178.827 136.575 177.782C137.07 176.591 137.996 175.588 138.812 174.559C139.793 173.322 141.803 173.862 141.975 175.429C141.977 175.445 141.979 175.46 141.98 175.475C141.859 175.543 141.74 175.616 141.624 175.692C140.963 176.129 141.191 177.153 141.975 177.274L141.993 177.277C141.949 177.713 141.874 178.145 141.765 178.57C142.812 182.612 140.551 184.084 137.324 184.15C137.253 184.186 137.184 184.223 137.112 184.258C137.439 185.177 137.701 186.12 137.894 187.075C138.068 187.919 138.188 188.773 138.256 189.63C138.34 190.711 138.333 191.798 138.241 192.878L138.247 192.84C138.479 191.651 139.125 190.54 140.064 189.77C141.463 188.623 143.439 188.201 144.948 187.279C145.674 186.835 146.605 187.409 146.478 188.249L146.472 188.29C146.247 188.381 146.028 188.487 145.816 188.605C145.695 188.673 145.576 188.746 145.46 188.822C144.798 189.259 145.027 190.283 145.811 190.404L145.829 190.407C145.841 190.409 145.852 190.411 145.865 190.412C145.48 191.326 144.943 192.174 144.271 192.905C143.616 196.434 140.805 196.768 137.797 195.741H137.796C137.467 197.171 136.986 198.568 136.369 199.899H131.273C131.255 199.842 131.238 199.784 131.222 199.727C131.693 199.757 132.168 199.729 132.632 199.644C132.254 199.18 131.876 198.713 131.498 198.25C131.489 198.241 131.481 198.232 131.474 198.223C131.282 197.986 131.089 197.751 130.897 197.514L130.897 197.513C130.885 196.785 130.972 196.06 131.145 195.356Z" fill="#69696B"/>
        <path d="M33.8354 174.474L33.833 174.472C32.3443 173.524 32.1375 171.48 33.3964 170.294L33.5518 170.147L33.4643 169.952L27.237 156.089L30.4583 153.84L37.698 170.292L37.7191 170.34L37.7551 170.378C38.6397 171.309 38.7648 172.71 37.9773 173.775L38.2186 173.953L37.9773 173.775C37.0469 175.034 35.1901 175.355 33.8354 174.474Z" fill="#D9AAA7" stroke="#C5C5C6" stroke-width="0.6"/>
        <path d="M34.454 179.251C34.1075 179.251 33.8257 179.586 33.8257 179.997V180.495C33.8257 180.906 34.1075 181.241 34.454 181.241H49.1153C49.4618 181.241 49.7436 180.906 49.7436 180.495V179.997C49.7436 179.586 49.4618 179.251 49.1153 179.251H34.454Z" fill="#C5C5C6"/>
        <path d="M34.454 184.226C34.1075 184.226 33.8257 184.56 33.8257 184.972V185.469C33.8257 185.881 34.1075 186.215 34.454 186.215H49.1153C49.4618 186.215 49.7436 185.881 49.7436 185.469V184.972C49.7436 184.56 49.4618 184.226 49.1153 184.226H34.454Z" fill="#C5C5C6"/>
        <path d="M34.454 189.2C34.1075 189.2 33.8257 189.368 33.8257 189.573V189.822C33.8257 190.028 34.1075 190.195 34.454 190.195H49.1153C49.4618 190.195 49.7436 190.028 49.7436 189.822V189.573C49.7436 189.368 49.4618 189.2 49.1153 189.2H34.454Z" fill="#C5C5C6"/>
        <path d="M74.2812 83.391L74.2812 83.391L74.2817 83.394C74.5502 85.0237 73.1696 86.5708 71.4335 86.523L71.2353 86.5176L71.1526 86.6978L64.9003 100.321L61.1256 99.6704L68.6235 83.6497L68.6457 83.6022L68.6505 83.55C68.7628 82.3273 69.7262 81.2808 71.0541 81.0893L71.0541 81.0893C72.6142 80.8643 74.0519 81.9053 74.2812 83.391Z" fill="#D9AAA7" stroke="#C5C5C6" stroke-width="0.6"/>
        <mask id="path-43-inside-1_7694_39089" fill="white">
            <path fill-rule="evenodd" clip-rule="evenodd" d="M45.5758 127.782C46.1485 127.605 46.6979 127.323 47.1949 126.934L62.0812 115.275L69.4568 92.3758L64.0944 89.8994L54.0199 109.96L41.2083 118.837C40.391 119.404 39.7987 120.161 39.4418 121.002L38.714 120.197V116.353L30.8826 116.787L29.5773 121.935L27.4012 123.456C25.6696 123.996 24.3033 125.45 23.9483 127.329L20.4404 145.891L26.2621 157.748C25.3489 159.761 27.2742 161.835 28.9117 163.145L31.3174 168.044L36.9734 165.438L36.786 164.877C40.3462 164.954 44.703 164.764 47.4155 163.636C52.6364 161.464 46.5454 145.391 46.5454 145.391L48.6488 139.721C50.0302 135.997 49.2249 131.816 46.559 128.869L45.5758 127.782ZM30.0121 144.588L30.5151 146.094C30.8143 143.746 30.8826 141.985 30.8826 141.985L30.7578 141.61L30.0121 144.588Z"/>
        </mask>
        <path fill-rule="evenodd" clip-rule="evenodd" d="M45.5758 127.782C46.1485 127.605 46.6979 127.323 47.1949 126.934L62.0812 115.275L69.4568 92.3758L64.0944 89.8994L54.0199 109.96L41.2083 118.837C40.391 119.404 39.7987 120.161 39.4418 121.002L38.714 120.197V116.353L30.8826 116.787L29.5773 121.935L27.4012 123.456C25.6696 123.996 24.3033 125.45 23.9483 127.329L20.4404 145.891L26.2621 157.748C25.3489 159.761 27.2742 161.835 28.9117 163.145L31.3174 168.044L36.9734 165.438L36.786 164.877C40.3462 164.954 44.703 164.764 47.4155 163.636C52.6364 161.464 46.5454 145.391 46.5454 145.391L48.6488 139.721C50.0302 135.997 49.2249 131.816 46.559 128.869L45.5758 127.782ZM30.0121 144.588L30.5151 146.094C30.8143 143.746 30.8826 141.985 30.8826 141.985L30.7578 141.61L30.0121 144.588Z" fill="#9654F4"/>
        <path d="M45.5758 127.782L45.3395 127.018L44.1407 127.388L44.9825 128.319L45.5758 127.782ZM47.1949 126.934L47.6882 127.563H47.6882L47.1949 126.934ZM62.0812 115.275L62.5745 115.905L62.7675 115.754L62.8427 115.52L62.0812 115.275ZM69.4568 92.3758L70.2183 92.6211L70.4355 91.9466L69.7922 91.6495L69.4568 92.3758ZM64.0944 89.8994L64.4298 89.1731L63.7269 88.8485L63.3795 89.5404L64.0944 89.8994ZM54.0199 109.96L54.4755 110.618L54.6432 110.502L54.7348 110.319L54.0199 109.96ZM41.2083 118.837L40.7527 118.18L40.7527 118.18L41.2083 118.837ZM39.4418 121.002L38.8486 121.538L39.689 122.467L40.1783 121.314L39.4418 121.002ZM38.714 120.197H37.914V120.505L38.1207 120.734L38.714 120.197ZM38.714 116.353H39.514V115.507L38.6696 115.554L38.714 116.353ZM30.8826 116.787L30.8382 115.988L30.2515 116.021L30.1071 116.591L30.8826 116.787ZM29.5773 121.935L30.0356 122.59L30.2796 122.42L30.3528 122.131L29.5773 121.935ZM27.4012 123.456L27.6393 124.219L27.7578 124.182L27.8594 124.111L27.4012 123.456ZM23.9483 127.329L24.7344 127.477L23.9483 127.329ZM20.4404 145.891L19.6543 145.742L19.6049 146.004L19.7223 146.243L20.4404 145.891ZM26.2621 157.748L26.9906 158.079L27.1467 157.735L26.9802 157.395L26.2621 157.748ZM28.9117 163.145L29.6298 162.792L29.5511 162.632L29.4115 162.52L28.9117 163.145ZM31.3174 168.044L30.5993 168.397L30.9433 169.098L31.6522 168.771L31.3174 168.044ZM36.9734 165.438L37.3082 166.165L37.9592 165.865L37.7322 165.185L36.9734 165.438ZM36.786 164.877L36.8034 164.077L35.6673 164.052L36.0272 165.13L36.786 164.877ZM47.4155 163.636L47.1082 162.897L47.4155 163.636ZM46.5454 145.391L45.7953 145.113L45.691 145.394L45.7973 145.675L46.5454 145.391ZM48.6488 139.721L47.8987 139.443H47.8987L48.6488 139.721ZM46.559 128.869L45.9657 129.406L46.559 128.869ZM30.5151 146.094L29.7563 146.347L31.3087 146.195L30.5151 146.094ZM30.0121 144.588L29.2361 144.393L29.1794 144.62L29.2533 144.841L30.0121 144.588ZM30.8826 141.985L31.682 142.016L31.6876 141.87L31.6417 141.732L30.8826 141.985ZM30.7578 141.61L31.517 141.357L30.6495 138.749L29.9818 141.415L30.7578 141.61ZM45.812 128.546C46.4763 128.341 47.1131 128.014 47.6882 127.563L46.7017 126.304C46.2827 126.632 45.8207 126.869 45.3395 127.018L45.812 128.546ZM47.6882 127.563L62.5745 115.905L61.588 114.645L46.7017 126.304L47.6882 127.563ZM62.8427 115.52L70.2183 92.6211L68.6953 92.1306L61.3197 115.03L62.8427 115.52ZM69.7922 91.6495L64.4298 89.1731L63.759 90.6257L69.1214 93.1021L69.7922 91.6495ZM63.3795 89.5404L53.305 109.601L54.7348 110.319L64.8093 90.2584L63.3795 89.5404ZM53.5643 109.303L40.7527 118.18L41.6639 119.495L54.4755 110.618L53.5643 109.303ZM40.7527 118.18C39.8075 118.835 39.1196 119.713 38.7054 120.689L40.1783 121.314C40.4777 120.609 40.9745 119.973 41.6639 119.495L40.7527 118.18ZM40.0351 120.465L39.3072 119.661L38.1207 120.734L38.8486 121.538L40.0351 120.465ZM39.514 120.197V116.353H37.914V120.197H39.514ZM38.6696 115.554L30.8382 115.988L30.9269 117.586L38.7583 117.152L38.6696 115.554ZM30.1071 116.591L28.8019 121.738L30.3528 122.131L31.658 116.984L30.1071 116.591ZM29.119 121.279L26.9429 122.8L27.8594 124.111L30.0356 122.59L29.119 121.279ZM27.163 122.692C25.1583 123.317 23.5739 125.002 23.1622 127.18L24.7344 127.477C25.0327 125.899 26.1809 124.674 27.6393 124.219L27.163 122.692ZM23.1622 127.18L19.6543 145.742L21.2265 146.039L24.7344 127.477L23.1622 127.18ZM19.7223 146.243L25.544 158.101L26.9802 157.395L21.1585 145.538L19.7223 146.243ZM25.5336 157.417C24.9251 158.759 25.3014 160.071 25.9482 161.128C26.5909 162.177 27.5646 163.092 28.412 163.769L29.4115 162.52C28.6214 161.888 27.8137 161.11 27.3127 160.292C26.8157 159.481 26.6859 158.75 26.9906 158.079L25.5336 157.417ZM28.1936 163.497L30.5993 168.397L32.0355 167.692L29.6298 162.792L28.1936 163.497ZM31.6522 168.771L37.3082 166.165L36.6386 164.712L30.9826 167.318L31.6522 168.771ZM37.7322 165.185L37.5448 164.624L36.0272 165.13L36.2146 165.691L37.7322 165.185ZM36.7686 165.677C38.5672 165.716 40.5799 165.688 42.4947 165.505C44.3985 165.323 46.258 164.984 47.7228 164.374L47.1082 162.897C45.8605 163.416 44.1854 163.736 42.3426 163.912C40.5109 164.087 38.5651 164.115 36.8034 164.077L36.7686 165.677ZM47.7228 164.374C49.4596 163.652 50.109 161.828 50.2789 159.94C50.4525 158.013 50.1625 155.71 49.7223 153.54C49.2796 151.357 48.6724 149.251 48.178 147.694C47.9303 146.915 47.7101 146.271 47.5514 145.82C47.472 145.595 47.408 145.418 47.3636 145.297C47.3414 145.237 47.3241 145.19 47.3122 145.158C47.3063 145.142 47.3017 145.13 47.2986 145.122C47.297 145.117 47.2958 145.114 47.2949 145.112C47.2945 145.111 47.2941 145.11 47.2939 145.109C47.2938 145.109 47.2937 145.109 47.2936 145.108C47.2935 145.108 47.2934 145.108 46.5454 145.391C45.7973 145.675 45.7973 145.675 45.7973 145.675C45.7973 145.675 45.7973 145.675 45.7974 145.675C45.7975 145.676 45.7977 145.676 45.798 145.677C45.7986 145.679 45.7996 145.681 45.8009 145.685C45.8036 145.692 45.8077 145.703 45.8131 145.717C45.824 145.746 45.8402 145.79 45.8613 145.848C45.9036 145.963 45.9654 146.134 46.0424 146.352C46.1964 146.789 46.4112 147.418 46.6531 148.179C47.1375 149.704 47.7269 151.751 48.1543 153.858C48.5842 155.977 48.8381 158.1 48.6854 159.797C48.529 161.534 47.9819 162.534 47.1082 162.897L47.7228 164.374ZM47.2954 145.67L49.3988 140L47.8987 139.443L45.7953 145.113L47.2954 145.67ZM49.3988 140C50.884 135.996 50.0181 131.5 47.1522 128.332L45.9657 129.406C48.4317 132.131 49.1763 135.999 47.8987 139.443L49.3988 140ZM47.1522 128.332L46.169 127.245L44.9825 128.319L45.9657 129.406L47.1522 128.332ZM31.2739 145.841L30.771 144.334L29.2533 144.841L29.7563 146.347L31.2739 145.841ZM30.8826 141.985C30.0832 141.954 30.0832 141.954 30.0832 141.954C30.0832 141.954 30.0832 141.954 30.0832 141.954C30.0832 141.954 30.0832 141.954 30.0832 141.954C30.0831 141.954 30.0831 141.954 30.0831 141.954C30.0831 141.955 30.0831 141.956 30.083 141.957C30.0829 141.96 30.0827 141.965 30.0824 141.971C30.0819 141.984 30.0811 142.003 30.0799 142.028C30.0775 142.079 30.0738 142.154 30.0684 142.253C30.0576 142.45 30.04 142.738 30.0132 143.1C29.9595 143.823 29.869 144.836 29.7215 145.993L31.3087 146.195C31.4604 145.004 31.5536 143.963 31.6088 143.218C31.6365 142.846 31.6547 142.547 31.666 142.341C31.6717 142.237 31.6756 142.157 31.6782 142.102C31.6794 142.075 31.6804 142.054 31.681 142.039C31.6813 142.032 31.6815 142.026 31.6817 142.022C31.6818 142.02 31.6818 142.019 31.6819 142.018C31.6819 142.017 31.6819 142.017 31.6819 142.016C31.6819 142.016 31.6819 142.016 31.6819 142.016C31.6819 142.016 31.6819 142.016 31.6819 142.016C31.6819 142.016 31.682 142.016 30.8826 141.985ZM29.9987 141.862L30.1234 142.237L31.6417 141.732L31.517 141.357L29.9987 141.862ZM30.7882 144.782L31.5339 141.804L29.9818 141.415L29.2361 144.393L30.7882 144.782Z" fill="#444446" mask="url(#path-43-inside-1_7694_39089)"/>
        <path d="M36.995 117.568C36.0523 117.739 35.1143 117.977 34.1763 118.175C34.1194 118.188 34.0673 118.197 34.0104 118.211C33.5793 117.1 32.9019 116.085 32.0207 115.249C32.4423 116.112 32.5276 117.123 32.2528 118.04C32.2055 118.202 32.1486 118.359 32.0775 118.512C31.0542 118.611 30.031 118.584 29.0503 118.314C28.6334 118.202 28.2402 118.049 27.8564 117.869V98.667H37.8052C33.9441 104.906 33.3946 111.199 36.995 117.568Z" fill="#303032"/>
    </g>
    <g clip-path="url(#clip1_7694_39089)">
        <path d="M639.125 132.794L652.037 121.29C653.987 119.563 654.166 116.585 652.437 114.638C650.707 112.69 647.724 112.512 645.774 114.238L645.752 114.258L632.84 125.762C630.9 127.501 630.74 130.481 632.482 132.417C634.216 134.345 637.183 134.513 639.125 132.794Z" fill="#69696B"/>
        <path d="M548.378 200.063C548.423 200.063 548.467 200.063 548.512 200.063L665.889 198.694C672.561 198.608 677.934 193.131 677.887 186.476C686.174 159.031 689.825 137.419 689.725 116.408C689.621 94.4766 685.281 72.1678 676.068 46.2051C675.961 39.5944 670.532 34.2715 663.918 34.2715C663.875 34.2715 663.832 34.2718 663.789 34.2721L546.411 35.6432C539.725 35.7293 534.344 41.2291 534.417 47.9031L534.654 68.2305L534.831 68.2325L536.232 188.087C536.318 194.718 541.754 200.063 548.378 200.063ZM663.918 34.8166C670.25 34.8166 675.443 39.9233 675.523 46.2574L675.523 46.3025L675.538 46.3449C693.132 95.9039 693.607 132.543 677.353 186.358L677.341 186.398L677.341 186.44C677.407 192.814 672.267 198.067 665.883 198.149L548.505 199.517C548.463 199.518 548.421 199.518 548.378 199.518C542.052 199.518 536.86 194.413 536.778 188.08L535.484 77.4643L535.478 76.9196L535.328 64.2715L535.154 64.27L534.963 47.897C534.893 41.5232 540.032 36.2706 546.418 36.1883L663.795 34.8173C663.836 34.8169 663.877 34.8166 663.918 34.8166Z" fill="#C5C5C6"/>
        <path d="M617.754 85.667L617.748 85.1219H550.427V85.667H617.754Z" fill="#69696B"/>
        <path d="M653.806 192.038C660.355 191.954 665.601 186.593 665.532 180.054C681.131 128.41 682.108 91.6838 663.715 39.8707C663.679 37.8087 663.097 35.7931 662.029 34.0277L664.339 34.0007C670.889 33.9317 676.259 39.169 676.343 45.7082C694.735 97.5214 693.759 134.247 678.159 185.891C678.229 192.431 672.983 197.792 666.433 197.876L549.055 199.246C544.811 199.281 540.874 197.043 538.738 193.381L653.806 192.038Z" fill="#C5C5C6"/>
        <path opacity="0.4" d="M616.261 144.289C614.755 141.167 610.846 139.428 607.513 140.398C605.636 140.944 604.062 142.199 602.335 143.116C600.609 144.033 598.468 144.602 596.732 143.705C593.747 142.162 593.929 137.555 591.333 135.424C589.605 134.005 587.07 134.071 584.935 134.736C582.799 135.402 580.846 136.576 578.697 137.195C574.697 138.346 570.149 137.378 566.968 134.697C566.936 134.67 566.904 134.643 566.874 134.616C565.299 133.231 562.831 134.372 562.889 136.467L563.291 151.074H615.98L616.261 144.289Z" fill="#EE7538"/>
        <path d="M570.021 141.657C569.847 141.586 569.847 141.343 570.021 141.273C571.232 140.782 572.589 140.084 573.625 139.324C573.791 139.203 574.013 139.37 573.943 139.564L573.353 141.192H583.449V141.737H573.353L573.943 143.366C574.013 143.56 573.791 143.727 573.625 143.606C572.589 142.846 571.232 142.147 570.021 141.657Z" fill="#3E3E40"/>
        <path d="M592.736 139.031C592.64 138.87 592.788 138.677 592.968 138.726C594.23 139.067 595.733 139.331 597.019 139.354C597.225 139.357 597.299 139.625 597.126 139.736L595.669 140.675L603.705 146.779L603.374 147.213L595.339 141.109L594.821 142.762C594.759 142.959 594.481 142.958 594.423 142.761C594.058 141.53 593.402 140.154 592.736 139.031Z" fill="#3E3E40"/>
        <path d="M565.107 138.258C562.522 138.258 560.427 136.166 560.427 133.586C560.427 131.005 562.522 128.913 565.107 128.913C567.691 128.913 569.787 131.005 569.787 133.586C569.787 136.166 567.691 138.258 565.107 138.258Z" fill="#EE7538"/>
        <path opacity="0.7" d="M588.038 138.258C585.454 138.258 583.358 136.166 583.358 133.586C583.358 131.005 585.454 128.913 588.038 128.913C590.623 128.913 592.718 131.005 592.718 133.586C592.718 136.166 590.623 138.258 588.038 138.258Z" fill="#EE7538"/>
        <path opacity="0.25" d="M608.786 142.619C606.201 142.619 604.106 140.527 604.106 137.947C604.106 135.366 606.201 133.274 608.786 133.274C611.371 133.274 613.466 135.366 613.466 137.947C613.466 140.527 611.371 142.619 608.786 142.619Z" fill="#EE7538"/>
        <path d="M552.014 160.394L624.629 159.874C626.963 159.857 628.874 161.738 628.891 164.068C628.908 166.399 627.024 168.307 624.69 168.323L552.075 168.843C549.741 168.86 547.83 166.979 547.813 164.649C547.797 162.318 549.68 160.41 552.014 160.394Z" fill="#C5C5C6"/>
        <path d="M635.477 165.124C634.422 165.124 633.566 164.27 633.566 163.217C633.566 162.163 634.422 161.309 635.477 161.309C636.533 161.309 637.388 162.163 637.388 163.217C637.388 164.27 636.533 165.124 635.477 165.124Z" fill="#C5C5C6"/>
        <path d="M552.014 113.514L624.629 112.994C626.963 112.978 628.874 114.858 628.891 117.189C628.908 119.519 627.024 121.427 624.69 121.443L552.075 121.963C549.741 121.98 547.83 120.099 547.813 117.769C547.797 115.438 549.68 113.531 552.014 113.514Z" fill="#C5C5C6"/>
        <path d="M635.477 118.245C634.422 118.245 633.566 117.39 633.566 116.337C633.566 115.283 634.422 114.429 635.477 114.429C636.533 114.429 637.388 115.283 637.388 116.337C637.388 117.39 636.533 118.245 635.477 118.245Z" fill="#C5C5C6"/>
        <path d="M563.399 189.764C562.835 189.8 562.524 189.1 562.95 188.692L562.993 188.524C562.987 188.51 562.982 188.497 562.976 188.483C562.406 187.126 560.473 187.135 559.907 188.495C559.405 189.702 558.766 190.911 558.609 192.187C558.538 192.75 558.57 193.324 558.695 193.877C557.519 191.312 556.9 188.511 556.9 185.694C556.9 184.987 556.939 184.279 557.018 183.573C557.084 182.996 557.173 182.422 557.29 181.853C557.919 178.779 559.282 175.852 561.248 173.407C562.193 172.891 562.982 172.085 563.458 171.118C563.629 170.769 563.763 170.395 563.826 170.013C563.719 170.027 563.421 168.391 563.502 168.291C563.352 168.064 563.084 167.951 562.92 167.729C562.106 166.627 560.984 166.82 560.398 168.317C559.147 168.948 559.135 169.993 559.903 170.998C560.391 171.638 560.458 172.504 560.887 173.188C560.843 173.245 560.797 173.299 560.753 173.356C559.944 174.391 559.245 175.503 558.656 176.672C558.823 175.373 558.577 173.808 558.157 172.799C557.68 171.65 556.786 170.682 555.998 169.688C555.052 168.494 553.111 169.015 552.945 170.528C552.943 170.543 552.941 170.558 552.94 170.572C553.057 170.638 553.172 170.708 553.284 170.782C553.922 171.204 553.701 172.192 552.945 172.309L552.928 172.312C552.97 172.732 553.042 173.15 553.148 173.56C552.137 177.462 554.319 178.883 557.434 178.947C557.503 178.982 557.57 179.017 557.639 179.051C557.323 179.938 557.071 180.848 556.884 181.77C556.717 182.585 556.6 183.409 556.535 184.237C556.454 185.281 556.461 186.33 556.549 187.372L556.544 187.335C556.32 186.187 555.696 185.115 554.79 184.372C553.439 183.265 551.532 182.857 550.075 181.967C549.374 181.539 548.476 182.092 548.598 182.904L548.604 182.943C548.821 183.031 549.033 183.133 549.237 183.247C549.354 183.313 549.469 183.383 549.581 183.457C550.219 183.879 549.999 184.867 549.242 184.984L549.225 184.987C549.212 184.988 549.202 184.99 549.189 184.992C549.562 185.874 550.08 186.693 550.729 187.399C551.361 190.805 554.075 191.128 556.978 190.136H556.979C557.297 191.516 557.761 192.865 558.357 194.15H563.276C563.294 194.095 563.31 194.039 563.325 193.984C562.87 194.012 562.412 193.986 561.964 193.903C562.329 193.456 562.694 193.005 563.059 192.558C563.068 192.55 563.075 192.541 563.082 192.532C563.267 192.303 563.454 192.076 563.639 191.847C563.651 191.145 563.566 190.444 563.399 189.764Z" fill="#69696B"/>
        <path d="M657.308 203.021L661.889 207.256L657.592 211.768L653.011 207.533L657.308 203.021Z" fill="#D9AAA7" stroke="#69696B"/>
        <path d="M666.585 212.596L655.983 223.728C655.077 224.679 653.946 225.431 652.711 225.902L649.755 227.028C649.144 227.261 648.44 227.126 647.962 226.685C647.402 226.167 647.26 225.337 647.618 224.666L650.461 219.334L653.494 208.519L653.527 208.539C654.352 209.047 655.604 209.81 655.693 209.842C657.264 209.898 658.389 209.503 659.036 208.668C660.166 207.212 659.449 204.888 659.442 204.865L659.436 204.847L659.451 204.835C659.78 204.554 660.126 204.441 660.481 204.501C661.234 204.626 661.772 205.472 661.851 205.602C662.558 205.573 664.727 207.271 664.901 207.409C665.966 207.406 666.747 207.659 667.222 208.16C667.637 208.598 667.818 209.219 667.759 210.008C667.689 210.956 667.272 211.875 666.585 212.596Z" fill="#303032"/>
        <path d="M650.055 219.944V213.763H656.343V219.944H650.055Z" fill="#D9AAA7" stroke="#69696B"/>
        <path d="M655.599 226.976H640.106C638.781 226.976 637.451 226.677 636.257 226.112L633.401 224.759C632.81 224.479 632.429 223.882 632.429 223.236C632.429 222.479 632.946 221.809 633.687 221.607L639.579 220.001L649.66 214.78L649.667 214.818C649.856 215.759 650.148 217.18 650.185 217.266C651.219 218.433 652.281 218.97 653.342 218.864C655.192 218.68 656.422 216.575 656.434 216.554L656.443 216.537L656.462 216.539C656.895 216.583 657.216 216.755 657.414 217.051C657.837 217.678 657.579 218.643 657.537 218.789C658.042 219.276 658.269 221.997 658.287 222.217C659.017 222.98 659.365 223.714 659.319 224.398C659.278 224.996 658.942 225.551 658.318 226.048C657.568 226.646 656.602 226.976 655.599 226.976Z" fill="#303032"/>
        <path d="M600.173 70.1952H553.173C550.863 70.1952 549.122 68.7542 549.122 67.1338C549.122 65.5135 550.863 64.0725 553.173 64.0725H600.173C602.484 64.0725 604.225 65.5135 604.225 67.1338C604.225 68.7542 602.484 70.1952 600.173 70.1952Z" fill="#EE7538" stroke="#69696B" stroke-width="0.6"/>
        <path d="M582.723 79.1385H552.376C550.416 79.1385 548.822 78.2768 548.822 77.2178C548.822 76.1586 550.416 75.2969 552.376 75.2969H582.723C584.683 75.2969 586.277 76.1586 586.277 77.2178C586.277 78.2768 584.683 79.1385 582.723 79.1385Z" fill="#69696B"/>
        <path d="M659.284 86.6812H550.561C549.487 86.6812 548.614 85.8075 548.614 84.7337C548.614 83.6598 549.487 82.7861 550.561 82.7861H659.284C660.358 82.7861 661.231 83.6598 661.231 84.7337C661.231 85.8075 660.358 86.6812 659.284 86.6812Z" fill="#69696B"/>
        <path d="M649.929 91.8773H550.561C549.487 91.8773 548.614 91.0037 548.614 89.9298C548.614 88.8561 549.487 87.9824 550.561 87.9824H649.929C651.003 87.9824 651.877 88.8561 651.877 89.9298C651.877 91.0037 651.003 91.8773 649.929 91.8773Z" fill="#69696B"/>
        <path d="M657.709 122.821L631.881 122.834L623.272 176.541L649.099 207.238L657.709 199.563L637.298 176.541L657.709 122.821Z" fill="#303032"/>
        <path d="M642.444 130.738L657.709 122.821V214.912L649.1 215.148L642.444 130.738Z" fill="#303032"/>
        <path d="M626.653 144.348L626.648 144.559L626.797 144.71C627.57 145.493 628.071 146.701 628.041 148.07C627.988 150.5 626.335 152.266 624.533 152.227C622.731 152.188 621.157 150.351 621.209 147.922C621.239 146.553 621.791 145.368 622.598 144.619L622.753 144.475L622.758 144.263L622.929 136.38L626.824 136.464L626.653 144.348Z" fill="#D9AAA7" stroke="#69696B"/>
        <path d="M650.362 62.4875C650.362 62.4875 657.388 62.4724 654.764 55.7024C652.139 48.9324 647.252 51.9637 647.252 51.9637C647.252 51.9637 645.192 53.0515 645.617 55.4785" fill="#303032"/>
        <path d="M639.346 74.6293L639.3 74.3205L639.002 74.227C635.389 73.094 632.769 69.7201 632.769 65.7353C632.769 60.8208 636.753 56.8369 641.668 56.8369C646.582 56.8369 650.566 60.8208 650.566 65.7353C650.566 68.8325 648.983 71.5595 646.581 73.154L646.25 73.3735L646.389 73.7455C646.942 75.2277 647.73 76.6161 648.375 77.628C648.698 78.1355 648.987 78.5518 649.196 78.842C649.213 78.8664 649.23 78.8898 649.247 78.9124L641.03 85.7593L639.346 74.6293Z" fill="#D9AAA7" stroke="#69696B"/>
        <path d="M646.182 73.6742C646.182 73.6742 647.431 68.8891 645.39 66.6889C643.354 64.4938 643.091 67.9094 643.091 67.9094L641.622 67.59C641.622 67.59 641.877 64.2684 639.003 63.6934L640.855 59.733C640.855 59.733 633.763 61.1101 633.567 60.4232C632.029 55.0183 646.703 50.4013 650.756 58.6471C657.06 71.472 646.182 73.6742 646.182 73.6742Z" fill="#303032"/>
        <path d="M656.917 123.455L660.235 125.497L656.103 132.213L655.992 132.393L656.044 132.598C656.316 133.665 656.137 134.96 655.419 136.126L655.845 136.388L655.419 136.126C654.145 138.196 651.826 138.885 650.291 137.94C648.756 136.995 648.326 134.615 649.599 132.545L649.177 132.285L649.599 132.545C650.317 131.379 651.393 130.635 652.467 130.397L652.674 130.351L652.785 130.171L656.917 123.455Z" fill="#D9AAA7" stroke="#69696B"/>
        <mask id="path-76-inside-2_7694_39089" fill="white">
            <path fill-rule="evenodd" clip-rule="evenodd" d="M625.315 95.9858C625.804 90.5364 629.08 85.8571 633.779 83.4609L638.248 77.6781L649.897 76.8838L650.01 77.045L650.055 77.0432L654.399 80.3258L654.44 80.3329C659.554 81.2048 661.042 81.4587 662.615 84.8493C663.278 86.2779 663.717 87.7998 663.963 89.3553L667.637 112.628L658.401 134.868L652.281 127.984L652.909 126.313L630.097 133.023L628.521 143.341H621.068L625.315 95.9858ZM657.403 114.371L658.22 112.2L657.342 114.216L657.403 114.371Z"/>
        </mask>
        <path fill-rule="evenodd" clip-rule="evenodd" d="M625.315 95.9858C625.804 90.5364 629.08 85.8571 633.779 83.4609L638.248 77.6781L649.897 76.8838L650.01 77.045L650.055 77.0432L654.399 80.3258L654.44 80.3329C659.554 81.2048 661.042 81.4587 662.615 84.8493C663.278 86.2779 663.717 87.7998 663.963 89.3553L667.637 112.628L658.401 134.868L652.281 127.984L652.909 126.313L630.097 133.023L628.521 143.341H621.068L625.315 95.9858ZM657.403 114.371L658.22 112.2L657.342 114.216L657.403 114.371Z" fill="#9654F4"/>
        <path d="M633.779 83.4609L634.233 84.3517L634.433 84.2498L634.57 84.0723L633.779 83.4609ZM625.315 95.9858L624.319 95.8964L625.315 95.9858ZM638.248 77.6781L638.18 76.6804L637.731 76.711L637.456 77.0667L638.248 77.6781ZM649.897 76.8838L650.718 76.3116L650.394 75.8476L649.829 75.8861L649.897 76.8838ZM650.01 77.045L649.19 77.6172L649.504 78.0669L650.051 78.0442L650.01 77.045ZM650.055 77.0432L650.658 76.2454L650.372 76.0292L650.014 76.044L650.055 77.0432ZM654.399 80.3258L653.796 81.1236L653.99 81.2706L654.231 81.3116L654.399 80.3258ZM654.44 80.3329L654.608 79.3471L654.608 79.3471L654.44 80.3329ZM662.615 84.8493L661.708 85.2701L661.708 85.2701L662.615 84.8493ZM663.963 89.3553L662.975 89.5112V89.5112L663.963 89.3553ZM667.637 112.628L668.561 113.011L668.669 112.751L668.625 112.472L667.637 112.628ZM658.401 134.868L657.654 135.533L658.713 136.724L659.324 135.252L658.401 134.868ZM652.281 127.984L651.345 127.632L651.132 128.198L651.533 128.649L652.281 127.984ZM652.909 126.313L653.845 126.665L654.552 124.788L652.627 125.354L652.909 126.313ZM630.097 133.023L629.815 132.064L629.204 132.243L629.108 132.872L630.097 133.023ZM628.521 143.341V144.341H629.38L629.51 143.492L628.521 143.341ZM621.068 143.341L620.072 143.252L619.974 144.341H621.068V143.341ZM657.403 114.371L656.474 114.74L657.428 117.143L658.339 114.723L657.403 114.371ZM658.22 112.2L659.156 112.552L657.303 111.801L658.22 112.2ZM657.342 114.216L656.425 113.817L656.259 114.199L656.412 114.586L657.342 114.216ZM633.325 82.57C628.325 85.1194 624.839 90.0978 624.319 95.8964L626.311 96.0751C626.769 90.9751 629.835 86.5948 634.233 84.3517L633.325 82.57ZM637.456 77.0667L632.988 82.8494L634.57 84.0723L639.039 78.2896L637.456 77.0667ZM649.829 75.8861L638.18 76.6804L638.316 78.6758L649.965 77.8815L649.829 75.8861ZM650.83 76.4729L650.718 76.3116L649.077 77.456L649.19 77.6172L650.83 76.4729ZM650.051 78.0442L650.097 78.0423L650.014 76.044L649.968 76.0459L650.051 78.0442ZM649.452 77.841L653.796 81.1236L655.002 79.528L650.658 76.2454L649.452 77.841ZM654.231 81.3116L654.272 81.3187L654.608 79.3471L654.567 79.34L654.231 81.3116ZM654.272 81.3187C656.893 81.7656 658.367 82.0273 659.413 82.5433C660.342 83.0018 660.975 83.6911 661.708 85.2701L663.522 84.4285C662.682 82.6169 661.785 81.484 660.298 80.7499C658.928 80.0734 657.1 79.7721 654.608 79.3471L654.272 81.3187ZM661.708 85.2701C662.328 86.6059 662.742 88.0374 662.975 89.5112L664.95 89.1993C664.692 87.5622 664.228 85.9499 663.522 84.4285L661.708 85.2701ZM662.975 89.5112L666.649 112.784L668.625 112.472L664.95 89.1993L662.975 89.5112ZM666.714 112.244L657.477 134.485L659.324 135.252L668.561 113.011L666.714 112.244ZM659.148 134.204L653.028 127.32L651.533 128.649L657.654 135.533L659.148 134.204ZM653.216 128.337L653.845 126.665L651.973 125.961L651.345 127.632L653.216 128.337ZM630.379 133.982L653.191 127.273L652.627 125.354L629.815 132.064L630.379 133.982ZM629.51 143.492L631.085 133.174L629.108 132.872L627.533 143.19L629.51 143.492ZM621.068 144.341H628.521V142.341H621.068V144.341ZM624.319 95.8964L620.072 143.252L622.064 143.43L626.311 96.0751L624.319 95.8964ZM658.339 114.723L659.156 112.552L657.284 111.848L656.467 114.019L658.339 114.723ZM658.259 114.616L659.137 112.599L657.303 111.801L656.425 113.817L658.259 114.616ZM658.332 114.002L658.271 113.847L656.412 114.586L656.474 114.74L658.332 114.002Z" fill="#69696B" mask="url(#path-76-inside-2_7694_39089)"/>
    </g>
    <defs>
        <clipPath id="clip0_7694_39089">
            <rect width="161.169" height="194" fill="white" transform="translate(0 34)"/>
        </clipPath>
        <clipPath id="clip1_7694_39089">
            <rect width="155.584" height="194" fill="white" transform="matrix(-1 0 0 1 690 34)"/>
        </clipPath>
    </defs>
</svg>
