<svg width="246" height="219" viewBox="0 0 246 219" fill="none" xmlns="http://www.w3.org/2000/svg">
    <g clip-path="url(#clip0_7694_39033)">
        <path d="M187.463 104.437L186.419 107.05C186.419 107.05 185.457 110.707 186.583 112.166C187.71 113.625 187.96 124.792 186.751 125.617C185.539 126.443 202.1 117.971 202.1 117.971C202.1 117.971 195.634 102.978 195.525 102.924C195.415 102.869 191.179 101.547 191.179 101.547L187.467 104.434L187.463 104.437Z" fill="#303032"/>
        <path d="M197.27 111.691L197.713 117L193.196 118.486V111.691H197.27Z" fill="#9B616A" stroke="#444446"/>
        <path d="M180.794 162.602L180.794 162.602L180.792 162.611C180.655 163.442 180.312 164.133 179.896 164.581C179.476 165.032 179.029 165.197 178.646 165.131C178.26 165.062 177.887 164.752 177.633 164.179C177.382 163.611 177.279 162.841 177.416 162.009L177.416 162.009L177.417 162.002C177.515 161.352 177.773 160.738 178.169 160.207L178.24 160.112L178.261 159.995L179.547 152.767L182.286 153.341L180.648 160.384L180.617 160.518L180.659 160.65C180.864 161.287 180.912 161.956 180.794 162.602Z" fill="#9B616A" stroke="#444446"/>
        <path d="M191.463 213.631V207.258H195.661V213.631H191.463Z" fill="#9B616A" stroke="#444446"/>
        <path d="M184.548 218.047L184.547 218.047C183.958 217.993 183.356 217.745 182.806 217.421C182.259 217.098 181.792 216.718 181.477 216.434L181.476 216.433C181.336 216.308 181.293 216.109 181.365 215.941L181.365 215.941L181.367 215.936C181.418 215.813 181.521 215.721 181.652 215.684L181.652 215.684L185.299 214.643L185.376 214.621L185.442 214.576L190.891 210.9C191.076 211.261 191.339 211.81 191.45 212.218L191.45 212.218L191.451 212.222C191.501 212.4 191.465 212.463 191.457 212.476L191.456 212.476C191.445 212.494 191.426 212.51 191.391 212.526L190.761 212.817L191.236 213.323C191.46 213.562 191.937 213.809 192.994 213.978L192.994 213.978C193.462 214.052 193.867 213.99 194.206 213.83C194.541 213.672 194.783 213.434 194.954 213.199C195.125 212.966 195.232 212.726 195.298 212.545C195.323 212.475 195.343 212.412 195.358 212.359C195.616 212.196 195.825 212.076 195.986 211.995C195.99 212.017 195.995 212.04 196 212.065C196.1 212.588 196.245 213.643 196.459 215.77L196.464 215.825L196.482 215.878C196.52 215.993 196.773 216.843 196.614 217.631C196.606 217.638 196.593 217.648 196.571 217.661C196.49 217.71 196.352 217.764 196.145 217.813C195.734 217.91 195.171 217.958 194.556 217.973C193.335 218.002 192.024 217.896 191.585 217.856L191.562 217.853H191.539C191.517 217.853 191.48 217.856 191.467 217.857C191.465 217.857 191.464 217.857 191.463 217.857L191.35 217.865C191.252 217.871 191.112 217.881 190.937 217.892C190.586 217.914 190.098 217.944 189.54 217.974C188.421 218.034 187.028 218.093 185.902 218.093C185.359 218.093 184.891 218.079 184.548 218.047ZM196.625 217.62C196.625 217.62 196.625 217.621 196.624 217.622C196.625 217.621 196.625 217.62 196.625 217.62ZM196.259 211.883C196.259 211.883 196.256 211.884 196.251 211.884C196.257 211.883 196.26 211.883 196.259 211.883Z" fill="#EE7538" stroke="#444446"/>
        <path d="M210.606 209.28L207.234 203.873L210.796 201.651L214.169 207.058L210.606 209.28Z" fill="#9B616A" stroke="#444446"/>
        <path d="M203.617 216.947L203.62 216.947C203.996 217.015 204.527 217.083 205.1 217.083H205.106C205.796 217.083 206.506 216.981 207.083 216.691C207.897 216.281 209.329 215.336 210.586 214.469C211.208 214.04 211.779 213.637 212.196 213.34C212.405 213.191 212.574 213.069 212.692 212.984C212.751 212.941 212.797 212.908 212.829 212.885C212.848 212.87 212.858 212.863 212.862 212.86L212.895 212.832L212.949 212.805C213.342 212.607 214.51 212.003 215.531 211.332C216.045 210.995 216.497 210.656 216.794 210.356C216.944 210.205 217.033 210.086 217.076 210.001C217.087 209.978 217.093 209.962 217.097 209.952C216.816 209.196 216.151 208.612 216.055 208.532L216.014 208.497L215.981 208.455C214.674 206.764 213.993 205.946 213.631 205.555C213.613 205.536 213.597 205.519 213.581 205.502C213.488 205.656 213.375 205.867 213.243 206.14C213.302 206.341 213.375 206.686 213.347 207.073C213.326 207.363 213.246 207.693 213.045 208.004C212.841 208.319 212.531 208.586 212.095 208.77L203.617 216.947ZM203.617 216.947C203.436 216.915 203.293 216.772 203.261 216.586M203.617 216.947L203.261 216.586M203.261 216.586C203.24 216.448 203.28 216.317 203.368 216.22C203.368 216.22 203.368 216.22 203.368 216.22L205.912 213.405L205.965 213.346L205.998 213.273L208.677 207.27C208.753 207.316 208.838 207.368 208.927 207.424C209.257 207.631 209.62 207.88 209.852 208.095L209.854 208.096C209.993 208.224 209.994 208.295 209.993 208.307L209.993 208.315V208.323C209.993 208.327 209.992 208.333 209.988 208.344C209.984 208.356 209.976 208.371 209.965 208.389L209.581 208.977L210.262 209.147C210.574 209.225 211.103 209.19 212.095 208.77L203.261 216.586ZM217.1 209.938C217.1 209.937 217.1 209.938 217.1 209.94L217.1 209.938ZM213.754 205.262C213.754 205.262 213.751 205.264 213.747 205.268C213.751 205.263 213.754 205.261 213.754 205.262Z" fill="#EE7538" stroke="#444446"/>
        <path d="M199.987 145.107H185.44L184.118 158.641L189.895 208.645H197.322L194.353 179.763L206.401 205.837L213.003 201.217L203.596 176.876C203.596 176.876 206.955 155.668 204.315 150.388C201.675 145.107 199.99 145.107 199.99 145.107H199.987Z" fill="#303032"/>
        <path d="M198.554 107.527C198.554 110.303 196.303 112.554 193.527 112.554C190.751 112.554 188.5 110.303 188.5 107.527C188.5 104.751 190.751 102.5 193.527 102.5C196.303 102.5 198.554 104.751 198.554 107.527Z" fill="#9B616A" stroke="#444446"/>
        <path d="M194.456 99.2842C194.456 99.2842 201.113 97.5788 203.148 106.434C203.148 106.434 203.202 108.746 204.356 109.681C205.51 110.616 205.127 115.458 205.127 115.458C205.127 115.458 207.329 119.088 205.456 120.738C205.456 120.738 204.63 124.094 205.839 126.019C207.048 127.944 211.616 138.535 204.024 139.179C204.024 139.179 200.175 136.854 201.99 129.923C203.805 122.992 201.771 119.163 201.771 119.163C201.771 119.163 195.939 117.05 196.271 112.537C196.6 108.027 192.532 103.572 192.254 103.626C191.977 103.681 189.118 102.031 187.854 107.092L186.498 106.863C186.498 106.863 185.929 98.3459 194.456 99.2808V99.2842Z" fill="#303032"/>
        <path d="M207.745 160.354L206.378 153.142L209.141 152.706L210.111 159.874L210.129 160.011L210.216 160.12C210.634 160.642 210.914 161.251 211.036 161.899L211.09 162.186C211.189 162.903 211.107 163.56 210.904 164.061C210.672 164.631 210.312 164.943 209.929 165.018C209.545 165.091 209.086 164.933 208.646 164.488C208.209 164.047 207.84 163.363 207.672 162.536L207.672 162.536L207.67 162.529C207.53 161.887 207.552 161.218 207.734 160.586L207.767 160.471L207.745 160.354Z" fill="#9B616A" stroke="#444446"/>
        <mask id="path-12-inside-1_7694_39033" fill="white">
            <path fill-rule="evenodd" clip-rule="evenodd" d="M203.474 145.932H185.433L182.406 158.479H177.29C177.29 158.479 185.046 119.201 185.707 117.55C186.152 116.439 189.138 116.15 191.042 116.08L191.048 116.06H191.921C192.125 116.059 192.293 116.059 192.415 116.06H197.062C197.792 115.988 199.537 115.856 200.942 116.06H201.116L201.122 116.089C201.985 116.236 202.69 116.524 202.901 117.05C203.562 118.701 211.318 157.979 211.318 157.979H206.202L203.474 145.932Z"/>
        </mask>
        <path fill-rule="evenodd" clip-rule="evenodd" d="M203.474 145.932H185.433L182.406 158.479H177.29C177.29 158.479 185.046 119.201 185.707 117.55C186.152 116.439 189.138 116.15 191.042 116.08L191.048 116.06H191.921C192.125 116.059 192.293 116.059 192.415 116.06H197.062C197.792 115.988 199.537 115.856 200.942 116.06H201.116L201.122 116.089C201.985 116.236 202.69 116.524 202.901 117.05C203.562 118.701 211.318 157.979 211.318 157.979H206.202L203.474 145.932Z" fill="#9654F4"/>
        <path d="M185.433 145.932V144.932H184.645L184.46 145.697L185.433 145.932ZM203.474 145.932L204.45 145.711L204.273 144.932H203.474V145.932ZM182.406 158.479V159.479H183.193L183.378 158.714L182.406 158.479ZM177.29 158.479L176.308 158.285L176.073 159.479H177.29V158.479ZM185.707 117.55L186.635 117.922V117.922L185.707 117.55ZM191.042 116.08L191.079 117.08L191.792 117.053L191.999 116.371L191.042 116.08ZM191.048 116.06V115.06H190.307L190.092 115.77L191.048 116.06ZM191.921 116.06V117.06L191.929 117.06L191.921 116.06ZM192.415 116.06L192.406 117.06H192.415V116.06ZM197.062 116.06V117.06H197.112L197.161 117.055L197.062 116.06ZM200.942 116.06L200.798 117.05L200.869 117.06H200.942V116.06ZM201.116 116.06L202.096 115.86L201.933 115.06H201.116V116.06ZM201.122 116.089L200.142 116.289L200.279 116.959L200.954 117.075L201.122 116.089ZM202.901 117.05L203.829 116.678L203.829 116.678L202.901 117.05ZM211.318 157.979V158.979H212.535L212.299 157.785L211.318 157.979ZM206.202 157.979L205.227 158.2L205.403 158.979H206.202V157.979ZM185.433 146.932H203.474V144.932H185.433V146.932ZM183.378 158.714L186.405 146.166L184.46 145.697L181.434 158.245L183.378 158.714ZM177.29 159.479H182.406V157.479H177.29V159.479ZM184.779 117.178C184.706 117.36 184.62 117.687 184.532 118.043C184.437 118.431 184.318 118.946 184.18 119.564C183.903 120.803 183.544 122.478 183.134 124.436C182.313 128.355 181.281 133.422 180.27 138.436C179.259 143.45 178.269 148.412 177.531 152.121C177.162 153.975 176.857 155.516 176.643 156.594C176.536 157.133 176.453 157.555 176.396 157.844C176.367 157.988 176.345 158.098 176.331 158.173C176.323 158.21 176.318 158.238 176.314 158.257C176.312 158.266 176.311 158.273 176.31 158.278C176.309 158.281 176.309 158.282 176.309 158.284C176.309 158.284 176.309 158.285 176.309 158.285C176.309 158.285 176.308 158.285 177.29 158.479C178.271 158.673 178.271 158.673 178.271 158.672C178.271 158.672 178.271 158.672 178.271 158.671C178.271 158.67 178.272 158.668 178.272 158.666C178.273 158.661 178.274 158.654 178.276 158.644C178.28 158.626 178.286 158.597 178.293 158.56C178.308 158.486 178.329 158.376 178.358 158.232C178.415 157.944 178.498 157.521 178.605 156.982C178.818 155.905 179.124 154.365 179.493 152.511C180.23 148.803 181.22 143.843 182.231 138.831C183.241 133.819 184.272 128.757 185.092 124.847C185.501 122.891 185.858 121.226 186.131 120.001C186.268 119.387 186.384 118.889 186.474 118.521C186.52 118.336 186.558 118.19 186.588 118.08C186.622 117.958 186.637 117.917 186.635 117.922L184.779 117.178ZM191.006 115.081C190.034 115.117 188.744 115.209 187.62 115.446C187.061 115.565 186.495 115.728 186.016 115.965C185.561 116.191 185.026 116.561 184.779 117.178L186.635 117.922C186.611 117.983 186.615 117.901 186.904 117.758C187.17 117.626 187.553 117.505 188.034 117.403C188.99 117.201 190.146 117.114 191.079 117.08L191.006 115.081ZM190.092 115.77L190.086 115.789L191.999 116.371L192.005 116.351L190.092 115.77ZM191.921 115.06H191.048V117.06H191.921V115.06ZM192.425 115.06C192.297 115.059 192.123 115.059 191.912 115.06L191.929 117.06C192.127 117.059 192.289 117.059 192.406 117.06L192.425 115.06ZM197.062 115.06H192.415V117.06H197.062V115.06ZM197.161 117.055C197.884 116.984 199.523 116.864 200.798 117.05L201.086 115.071C199.551 114.847 197.7 114.993 196.964 115.065L197.161 117.055ZM201.116 115.06H200.942V117.06H201.116V115.06ZM202.102 115.889L202.096 115.86L200.137 116.261L200.142 116.289L202.102 115.889ZM200.954 117.075C201.335 117.14 201.62 117.227 201.807 117.321C201.997 117.417 201.992 117.47 201.973 117.422L203.829 116.678C203.599 116.104 203.136 115.75 202.705 115.534C202.271 115.316 201.772 115.185 201.291 115.103L200.954 117.075ZM201.973 117.422C201.971 117.417 201.986 117.458 202.02 117.58C202.05 117.69 202.088 117.836 202.133 118.021C202.224 118.389 202.339 118.887 202.476 119.501C202.75 120.726 203.106 122.391 203.516 124.347C204.335 128.257 205.366 133.319 206.377 138.331C207.388 143.343 208.378 148.304 209.115 152.011C209.484 153.865 209.789 155.405 210.003 156.483C210.109 157.021 210.193 157.444 210.25 157.732C210.278 157.876 210.3 157.986 210.315 158.06C210.322 158.097 210.328 158.126 210.332 158.145C210.333 158.154 210.335 158.161 210.336 158.166C210.336 158.168 210.337 158.17 210.337 158.171C210.337 158.172 210.337 158.172 210.337 158.172C210.337 158.173 210.337 158.173 211.318 157.979C212.299 157.785 212.299 157.785 212.299 157.785C212.299 157.785 212.299 157.784 212.299 157.784C212.299 157.782 212.298 157.781 212.298 157.778C212.297 157.774 212.296 157.766 212.294 157.757C212.29 157.738 212.284 157.71 212.277 157.673C212.262 157.598 212.24 157.488 212.212 157.344C212.155 157.055 212.071 156.633 211.965 156.094C211.751 155.016 211.446 153.475 211.077 151.621C210.339 147.912 209.349 142.95 208.338 137.936C207.327 132.922 206.295 127.855 205.474 123.936C205.063 121.978 204.705 120.303 204.428 119.064C204.29 118.446 204.171 117.931 204.075 117.543C203.988 117.187 203.902 116.86 203.829 116.678L201.973 117.422ZM211.318 156.979H206.202V158.979H211.318V156.979ZM207.177 157.758L204.45 145.711L202.499 146.153L205.227 158.2L207.177 157.758Z" fill="#444446" mask="url(#path-12-inside-1_7694_39033)"/>
        <path d="M27.0511 65.8026H10.9938C9.73704 65.8026 8.71655 64.7821 8.71655 63.5253C8.71655 62.2685 9.73704 61.248 10.9938 61.248H27.0511C28.3079 61.248 29.3284 62.2685 29.3284 63.5253C29.3284 64.7821 28.3079 65.8026 27.0511 65.8026Z" fill="#69696B"/>
        <path d="M86.4965 65.8026H70.4391C69.1824 65.8026 68.1619 64.7821 68.1619 63.5253C68.1619 62.2685 69.1824 61.248 70.4391 61.248H86.4965C87.7532 61.248 88.7737 62.2685 88.7737 63.5253C88.7737 64.7821 87.7532 65.8026 86.4965 65.8026Z" fill="#69696B"/>
        <path d="M145.945 65.8026H129.888C128.631 65.8026 127.611 64.7821 127.611 63.5253C127.611 62.2685 128.631 61.248 129.888 61.248H145.945C147.202 61.248 148.222 62.2685 148.222 63.5253C148.222 64.7821 147.202 65.8026 145.945 65.8026Z" fill="#69696B"/>
        <path d="M145.945 139.793H129.888C128.631 139.793 127.611 138.772 127.611 137.516C127.611 136.259 128.631 135.238 129.888 135.238H145.945C147.202 135.238 148.222 136.259 148.222 137.516C148.222 138.772 147.202 139.793 145.945 139.793Z" fill="#69696B"/>
        <path d="M204.394 65.8026H188.337C187.08 65.8026 186.059 64.7821 186.059 63.5253C186.059 62.2685 187.08 61.248 188.337 61.248H204.394C205.651 61.248 206.671 62.2685 206.671 63.5253C206.671 64.7821 205.651 65.8026 204.394 65.8026Z" fill="#69696B"/>
        <path d="M27.0511 139.107H10.9938C9.73704 139.107 8.71655 138.087 8.71655 136.83C8.71655 135.573 9.73704 134.553 10.9938 134.553H27.0511C28.3079 134.553 29.3284 135.573 29.3284 136.83C29.3284 138.087 28.3079 139.107 27.0511 139.107Z" fill="#69696B"/>
        <path d="M86.4965 139.107H70.4391C69.1824 139.107 68.1619 138.087 68.1619 136.83C68.1619 135.573 69.1824 134.553 70.4391 134.553H86.4965C87.7532 134.553 88.7737 135.573 88.7737 136.83C88.7737 138.087 87.7532 139.107 86.4965 139.107Z" fill="#69696B"/>
        <path d="M102.228 162.994C103.31 162.994 104.187 162.117 104.187 161.035C104.187 159.953 103.31 159.076 102.228 159.076C101.147 159.076 100.27 159.953 100.27 161.035C100.27 162.117 101.147 162.994 102.228 162.994Z" fill="#EE7538"/>
        <path d="M108.036 162.994C109.118 162.994 109.995 162.117 109.995 161.035C109.995 159.953 109.118 159.076 108.036 159.076C106.954 159.076 106.077 159.953 106.077 161.035C106.077 162.117 106.954 162.994 108.036 162.994Z" fill="#69696B"/>
        <path d="M113.844 162.994C114.926 162.994 115.803 162.117 115.803 161.035C115.803 159.953 114.926 159.076 113.844 159.076C112.762 159.076 111.885 159.953 111.885 161.035C111.885 162.117 112.762 162.994 113.844 162.994Z" fill="#69696B"/>
        <path d="M134.939 9.65405H81.1268C78.466 9.65405 76.3018 7.48979 76.3018 4.82898C76.3018 2.16817 78.466 0.00390625 81.1268 0.00390625H134.939C137.6 0.00390625 139.764 2.16817 139.764 4.82898C139.764 7.48979 137.6 9.65405 134.939 9.65405ZM81.1303 0.685375C78.8461 0.685375 76.9901 2.54486 76.9901 4.82555C76.9901 7.10625 78.8496 8.96573 81.1303 8.96573H134.942C137.226 8.96573 139.082 7.10625 139.082 4.82555C139.082 2.54486 137.223 0.685375 134.942 0.685375H81.1303Z" fill="#444446"/>
        <path d="M96.5335 6.0885C95.4514 6.0885 94.5713 5.20841 94.5713 4.12628C94.5713 3.04415 95.4514 2.16406 96.5335 2.16406C97.6156 2.16406 98.4957 3.04415 98.4957 4.12628C98.4957 5.20841 97.6156 6.0885 96.5335 6.0885ZM96.5335 2.69828C95.7459 2.69828 95.1055 3.33865 95.1055 4.12628C95.1055 4.91391 95.7459 5.55428 96.5335 5.55428C97.3211 5.55428 97.9615 4.91391 97.9615 4.12628C97.9615 3.33865 97.3211 2.69828 96.5335 2.69828Z" fill="#EE7538"/>
        <path d="M100.232 7.69422C100.17 7.69422 100.109 7.67368 100.057 7.62916L97.578 5.50256C97.465 5.40668 97.4547 5.23888 97.5506 5.12587C97.6465 5.01286 97.8143 5.00259 97.9273 5.09848L100.407 7.22507C100.52 7.32096 100.53 7.48875 100.434 7.60176C100.383 7.6634 100.307 7.69422 100.232 7.69422Z" fill="#EE7538"/>
        <path opacity="0.4" d="M31.5882 57.687H8.23112C3.77305 57.687 0.14624 54.0602 0.14624 49.6021V26.245C0.14624 21.787 3.77305 18.1602 8.23112 18.1602H31.5882C36.0463 18.1602 39.6731 21.787 39.6731 26.245V49.6021C39.6731 54.0602 36.0463 57.687 31.5882 57.687Z" fill="#EE7538"/>
        <path opacity="0.4" d="M90.3443 57.687H66.9872C62.5292 57.687 58.9023 54.0602 58.9023 49.6021V26.245C58.9023 21.787 62.5292 18.1602 66.9872 18.1602H90.3443C94.8024 18.1602 98.4292 21.787 98.4292 26.245V49.6021C98.4292 54.0602 94.8024 57.687 90.3443 57.687Z" fill="#EE7538"/>
        <path d="M149.1 57.687H125.743C121.285 57.687 117.658 54.0602 117.658 49.6021V26.245C117.658 21.787 121.285 18.1602 125.743 18.1602H149.1C153.558 18.1602 157.185 21.787 157.185 26.245V49.6021C157.185 54.0602 153.558 57.687 149.1 57.687Z" fill="#444446"/>
        <path opacity="0.4" d="M206.788 57.687H183.431C178.973 57.687 175.346 54.0602 175.346 49.6021V26.245C175.346 21.787 178.973 18.1602 183.431 18.1602H206.788C211.246 18.1602 214.873 21.787 214.873 26.245V49.6021C214.873 54.0602 211.246 57.687 206.788 57.687Z" fill="#EE7538"/>
        <path opacity="0.4" d="M149.1 130.332H125.743C121.285 130.332 117.658 126.705 117.658 122.247V98.8896C117.658 94.4315 121.285 90.8047 125.743 90.8047H149.1C153.558 90.8047 157.185 94.4315 157.185 98.8896V122.247C157.185 126.705 153.558 130.332 149.1 130.332Z" fill="#EE7538"/>
        <path opacity="0.4" d="M90.3443 130.332H66.9872C62.5292 130.332 58.9023 126.705 58.9023 122.247V98.8896C58.9023 94.4315 62.5292 90.8047 66.9872 90.8047H90.3443C94.8024 90.8047 98.4292 94.4315 98.4292 98.8896V122.247C98.4292 126.705 94.8024 130.332 90.3443 130.332Z" fill="#EE7538"/>
        <path d="M31.5882 130.332H8.23112C3.77305 130.332 0.14624 126.705 0.14624 122.247V98.8896C0.14624 94.4315 3.77305 90.8047 8.23112 90.8047H31.5882C36.0463 90.8047 39.6731 94.4315 39.6731 98.8896V122.247C39.6731 126.705 36.0463 130.332 31.5882 130.332Z" fill="#444446"/>
        <path d="M38.29 101.123C42.6986 101.123 46.2725 97.5492 46.2725 93.1406C46.2725 88.7321 42.6986 85.1582 38.29 85.1582C33.8815 85.1582 30.3076 88.7321 30.3076 93.1406C30.3076 97.5492 33.8815 101.123 38.29 101.123Z" fill="#EE7538"/>
        <path d="M156.328 27.8184C160.737 27.8184 164.311 24.2445 164.311 19.8359C164.311 15.4274 160.737 11.8535 156.328 11.8535C151.92 11.8535 148.346 15.4274 148.346 19.8359C148.346 24.2445 151.92 27.8184 156.328 27.8184Z" fill="#EE7538"/>
    </g>
    <defs>
        <clipPath id="clip0_7694_39033">
            <rect width="245.707" height="219" fill="white" transform="translate(0.14624)"/>
        </clipPath>
    </defs>
</svg>
