<svg width="214" height="217" viewBox="0 0 214 217" fill="none" xmlns="http://www.w3.org/2000/svg">
    <path opacity="0.4" d="M39.182 48H10.818C5.40427 48 1 43.5957 1 38.182V9.818C1 4.40427 5.40427 0 10.818 0H39.182C44.5957 0 49 4.40427 49 9.818V38.182C49 43.5957 44.5957 48 39.182 48Z" fill="#EE7538"/>
    <path opacity="0.4" d="M121.182 48H92.818C87.4043 48 83 43.5957 83 38.182V9.818C83 4.40427 87.4043 0 92.818 0H121.182C126.596 0 131 4.40427 131 9.818V38.182C131 43.5957 126.596 48 121.182 48Z" fill="#EE7538"/>
    <path opacity="0.4" d="M203.182 48H174.818C169.404 48 165 43.5957 165 38.182V9.818C165 4.40427 169.404 0 174.818 0H203.182C208.596 0 213 4.40427 213 9.818V38.182C213 43.5957 208.596 48 203.182 48Z" fill="#EE7538"/>
    <path d="M39.182 118H10.818C5.40427 118 1 113.596 1 108.182V79.818C1 74.4043 5.40427 70 10.818 70H39.182C44.5957 70 49 74.4043 49 79.818V108.182C49 113.596 44.5957 118 39.182 118Z" fill="#444446"/>
    <path opacity="0.4" d="M121.182 118H92.818C87.4043 118 83 113.596 83 108.182V79.818C83 74.4043 87.4043 70 92.818 70H121.182C126.596 70 131 74.4043 131 79.818V108.182C131 113.596 126.596 118 121.182 118Z" fill="#EE7538"/>
    <path opacity="0.4" d="M203.182 118H174.818C169.404 118 165 113.596 165 108.182V79.818C165 74.4043 169.404 70 174.818 70H203.182C208.596 70 213 74.4043 213 79.818V108.182C213 113.596 208.596 118 203.182 118Z" fill="#EE7538"/>
    <path d="M43 84C48.2467 84 52.5 79.7467 52.5 74.5C52.5 69.2533 48.2467 65 43 65C37.7533 65 33.5 69.2533 33.5 74.5C33.5 79.7467 37.7533 84 43 84Z" fill="#EE7538"/>
    <path d="M120.981 50.1004L120.981 50.0996C121.113 49.5408 121.176 48.9826 121.176 48.4382C121.176 44.5782 118.037 41.2598 113.976 41.2598C110.231 41.2598 107.114 44.1296 106.806 47.8611L106.806 47.8614L105.076 68.7422L105.033 69.261L104.516 69.1971L83.9285 66.6505L83.9157 66.6489L83.9029 66.6467L83.8429 66.6361L83.8335 66.6344L83.8336 66.6343L83.816 66.6309L83.6141 66.5912L83.4986 66.421C82.6475 65.167 81.1558 64.1739 79.3152 63.8495C76.0626 63.2773 73.2094 65.0069 72.7704 67.4915L120.981 50.1004ZM120.981 50.1004L115.079 75.216L115.079 75.2162M120.981 50.1004L115.079 75.2162M115.079 75.2162C114.306 78.512 111.008 80.5551 107.715 79.7853L84.0781 72.451L84.0774 72.4508M115.079 75.2162L84.0774 72.4508M84.0774 72.4508L82.9225 72.0941L82.6839 72.0205M84.0774 72.4508L82.6839 72.0205M82.6839 72.0205L82.4816 72.167M82.6839 72.0205L82.4816 72.167M82.4816 72.167C81.2535 73.0565 79.5139 73.481 77.6737 73.1567M82.4816 72.167L77.6737 73.1567M77.6737 73.1567C74.4211 72.5812 72.3316 69.9798 72.7703 67.4916L77.6737 73.1567Z" fill="#D9AAA7" stroke="#252527"/>
    <path d="M121.676 48.4382C121.676 49.0209 121.609 49.6178 121.467 50.2148L116.625 76.3899C115.788 79.9607 112.21 82.1717 108.643 81.3276L84.9895 74.7511L86.0491 64.5085L104.062 66.9808L106.308 47.8201C106.637 43.829 109.971 40.7598 113.976 40.7598C118.32 40.7598 121.676 44.3094 121.676 48.4382Z" fill="#252527"/>
    <path d="M151 195.59L147.381 190.682L152.29 187.063L155.908 191.972L151 195.59Z" fill="#D9AAA7" stroke="#252527"/>
    <path d="M147.813 192.542L143.265 201.918L143.242 201.967L143.209 202.009L139.532 206.692C139.209 207.104 139.2 207.688 139.511 208.109C139.775 208.468 140.232 208.648 140.67 208.565L140.761 209.045L140.67 208.565L143.703 207.991C144.896 207.765 146.045 207.264 147.022 206.543L159.167 197.59C159.865 197.075 160.36 196.35 160.567 195.556L161.051 195.682L160.567 195.556C160.741 194.89 160.668 194.408 160.446 194.061L160.446 194.061C160.188 193.657 159.646 193.318 158.69 193.145L158.516 193.113L158.401 192.98C158.333 192.901 157.863 192.363 157.33 191.835C157.063 191.571 156.789 191.318 156.547 191.129C156.425 191.034 156.32 190.961 156.235 190.913C156.159 190.869 156.12 190.857 156.112 190.855C156.11 190.854 156.11 190.854 156.111 190.854L155.816 190.813L155.712 190.533C155.693 190.482 155.604 190.257 155.449 190.022C155.287 189.779 155.096 189.59 154.894 189.516L147.813 192.542ZM147.813 192.542C148.047 192.754 148.288 192.973 148.502 193.165C148.684 193.329 148.848 193.475 148.972 193.584C149.034 193.638 149.088 193.685 149.129 193.72C149.131 193.721 149.132 193.722 149.134 193.724C149.16 193.746 149.219 193.796 149.27 193.826L149.339 193.866L149.417 193.884C150.991 194.232 152.333 194.065 153.272 193.214L152.937 192.843L153.272 193.214C154.073 192.488 154.365 191.446 154.471 190.649C154.532 190.189 154.535 189.782 154.525 189.509C154.67 189.468 154.79 189.478 154.894 189.516L147.813 192.542Z" fill="#EE7538" stroke="#252527"/>
    <path d="M96.8044 209.633V203.535H102.902V209.633H96.8044Z" fill="#D9AAA7" stroke="#252527"/>
    <path d="M86.8231 210.138L96.0476 205.289C96.1096 205.599 96.1742 205.917 96.2324 206.2C96.2819 206.44 96.327 206.655 96.3623 206.816C96.3799 206.896 96.3955 206.965 96.4082 207.018C96.4087 207.02 96.4091 207.022 96.4097 207.024C96.4175 207.057 96.4354 207.133 96.4587 207.187L96.4899 207.261L96.5423 207.321C97.6023 208.535 98.7825 209.197 100.043 209.069C101.118 208.961 101.972 208.295 102.53 207.716C102.852 207.383 103.096 207.056 103.25 206.831C103.391 206.884 103.481 206.963 103.543 207.056C103.661 207.235 103.703 207.5 103.689 207.792C103.675 208.073 103.613 208.307 103.598 208.36L103.515 208.646L103.729 208.855C103.728 208.854 103.728 208.854 103.729 208.856C103.734 208.862 103.758 208.895 103.793 208.975C103.833 209.065 103.875 209.186 103.916 209.334C103.999 209.63 104.069 209.997 104.128 210.368C104.243 211.109 104.302 211.821 104.31 211.925L104.324 212.101L104.445 212.229C105.111 212.935 105.346 213.53 105.315 214.008L105.315 214.008C105.287 214.42 105.06 214.851 104.525 215.284L104.84 215.672L104.525 215.284C103.887 215.8 103.059 216.089 102.191 216.089H87.1032C85.8886 216.089 84.6667 215.811 83.572 215.285L83.3554 215.735L83.572 215.285L80.7905 213.948L80.5739 214.398L80.7905 213.948C80.3886 213.755 80.1272 213.339 80.1272 212.893C80.1272 212.369 80.4809 211.905 80.9855 211.765C80.9855 211.765 80.9855 211.765 80.9855 211.765L86.7238 210.177L86.7756 210.163L86.8231 210.138Z" fill="#EE7538" stroke="#252527"/>
    <path d="M132.364 92.0801H98.3457L92.9232 204.934H104.903L112.644 153.637L143.703 194.674L155.043 184.415L132.364 153.637V92.0801Z" fill="#252527"/>
    <path d="M123.606 17.9136C123.606 17.9136 132.979 17.8933 129.477 8.86245C125.976 -0.168441 119.456 3.87518 119.456 3.87518C119.456 3.87518 116.709 5.32626 117.276 8.56377" fill="#252527"/>
    <path d="M108.745 34.1353L108.698 33.8265L108.4 33.733C103.514 32.2004 99.9698 27.6368 99.9698 22.2461C99.9698 15.5982 105.359 10.209 112.007 10.209C118.655 10.209 124.044 15.5982 124.044 22.2461C124.044 26.436 121.903 30.1248 118.653 32.2814L118.322 32.501L118.461 32.8729C119.194 34.835 120.239 36.6761 121.095 38.0208C121.524 38.6947 121.908 39.2474 122.185 39.6324C122.243 39.713 122.296 39.7863 122.344 39.8518L111.036 49.2753L108.745 34.1353Z" fill="#D9AAA7" stroke="#252527"/>
    <path d="M118.03 32.8363C118.03 32.8363 119.695 26.4532 116.973 23.5183C114.257 20.59 113.906 25.1463 113.906 25.1463L111.946 24.7202C111.946 24.7202 112.287 20.2893 108.453 19.5224L110.924 14.2393C110.924 14.2393 101.463 16.0763 101.202 15.16C99.1504 7.95013 118.724 1.79123 124.131 12.7908C132.541 29.8987 118.03 32.8363 118.03 32.8363Z" fill="#252527"/>
    <path d="M124.894 76.6094L130.45 92.9818L99.0154 92.6286L103.702 77.669L124.894 76.6094Z" fill="#D9AAA7"/>
    <path d="M134.731 110.746H126.335L124.524 100.783L123.541 100.779L121.652 110.693L95.5297 107.504L108.551 40.2785L121.837 35.6598C123.297 38.1172 124.266 40.8358 124.689 43.665L134.731 110.746Z" fill="#9654F4" stroke="#252527"/>
    <path d="M117.647 114.984L117.642 115.195L117.791 115.346C118.857 116.425 119.539 118.081 119.499 119.949C119.427 123.251 117.174 125.713 114.649 125.658C112.125 125.603 109.98 123.046 110.052 119.744C110.092 117.877 110.846 116.251 111.958 115.219L112.113 115.075L112.117 114.864L112.349 104.181L117.879 104.301L117.647 114.984Z" fill="#D9AAA7" stroke="#252527"/>
    <path d="M109.133 59.0234V113.228H120.472L123.823 59.481" fill="#252527"/>
    <path d="M131.967 116.515C131.768 116.515 131.569 116.508 131.369 116.493C128.987 116.314 126.936 115.037 125.275 112.696C119.024 103.888 106.419 74.7379 106.419 66.4486C106.419 58.5271 108.143 40.3718 108.203 40.0997L120.934 33.0508C127.042 34.4847 131.293 40.0779 131.044 46.3503C130.434 61.6752 132.005 96.6097 142.284 111.087L142.369 111.206L142.268 111.312C142.055 111.532 137.186 116.515 131.967 116.515Z" fill="#252527"/>
</svg>
