<svg width="330" height="432" viewBox="0 0 330 432" fill="none" xmlns="http://www.w3.org/2000/svg">
<path d="M268.278 404.599H70.6844C63.3662 404.599 57.4336 410.534 57.4336 417.857V418.052C57.4336 425.374 63.3662 431.31 70.6844 431.31H268.278C275.596 431.31 281.529 425.374 281.529 418.052V417.857C281.529 410.534 275.596 404.599 268.278 404.599Z" fill="#241B2E"/>
<path d="M312.538 176.09L13.1758 208.1C5.89901 208.878 0.630423 215.411 1.40809 222.692L2.87829 236.456C3.65596 243.737 10.1854 249.009 17.4622 248.23L316.824 216.221C324.101 215.442 329.37 208.909 328.592 201.629L327.122 187.864C326.344 180.583 319.815 175.312 312.538 176.09Z" fill="#241B2E"/>
<path d="M245.674 303.603L125.637 316.472C80.4282 321.346 28.9838 292.295 24.1122 247.062L17.2919 183.306C12.4203 138.073 45.5473 96.9339 90.7561 92.2546L210.793 79.3865C256.002 74.5123 297.118 107.657 301.795 152.891L308.615 216.646C313.487 261.88 290.688 298.729 245.479 303.603H245.674Z" fill="#5C4998"/>
<path d="M119.209 8.41807C131.681 5.88344 151.167 4.71361 150.193 23.0409C149.024 43.5129 114.532 28.89 111.415 50.3369C106.153 86.0166 170.459 63.205 190.725 66.3245C240.22 73.7334 242.754 146.263 195.791 156.791C184.489 159.326 139.28 164.59 128.173 164.005C113.168 163.225 110.245 139.634 125.64 135.734C143.567 131.055 173.966 134.174 190.53 128.325C202.611 124.036 204.365 105.709 193.843 98.2998C175.135 85.2367 127.588 115.847 96.9946 87.7713C69.3237 62.2301 82.5745 16.2169 119.014 8.80801L119.209 8.41807Z" fill="#5C4998"/>
<path d="M177.28 1.20301C198.91 -3.67127 204.172 27.7191 185.075 31.4235C164.419 35.5179 158.768 5.2974 177.28 1.20301Z" fill="#5C4998"/>
<path d="M188.502 104.369L119.329 111.765C73.8493 116.629 40.9206 157.46 45.781 202.964L48.2245 225.841C53.0849 271.345 93.8938 304.292 139.374 299.429L208.547 292.032C254.027 287.169 286.955 246.338 282.095 200.834L279.652 177.957C274.791 132.453 233.982 99.5059 188.502 104.369Z" fill="#241B2E"/>
<path d="M94.2632 322.126H94.0683C85.1358 322.126 77.8945 329.372 77.8945 338.309V362.68C77.8945 371.618 85.1358 378.863 94.0683 378.863H94.2632C103.196 378.863 110.437 371.618 110.437 362.68V338.309C110.437 329.372 103.196 322.126 94.2632 322.126Z" fill="#5C4998"/>
<path d="M232.306 318.128L255.476 310.641C263.972 307.892 273.091 312.571 275.839 321.072C278.587 329.572 273.91 338.697 265.414 341.446L242.244 348.933C233.748 351.682 224.629 347.003 221.881 338.502C219.133 330.001 223.81 320.877 232.306 318.128Z" fill="#5C4998"/>
<path d="M200.465 302.239H138.498C129.534 302.239 122.129 310.427 122.129 320.371V376.717C122.129 386.661 129.534 394.85 138.498 394.85C146.682 394.85 153.112 387.441 153.112 378.472V377.692C153.112 368.724 158.764 360.535 166.948 359.17C176.886 357.61 185.655 366.189 185.655 376.912V378.082C185.655 387.246 192.28 394.655 200.465 394.655C209.429 394.655 216.833 386.466 216.833 376.523V320.176C216.833 310.232 209.429 302.044 200.465 302.044V302.239Z" fill="#5C4998"/>
<path d="M167.535 214.11C169.094 219.374 179.422 223.664 185.268 223.079C191.114 222.494 195.401 217.815 195.791 212.355L167.535 214.305V214.11Z" fill="#D9BDDC"/>
<path d="M215.336 187.38L216.817 203.075L258.167 216.859L262.474 203.952L231.861 193.736L261.344 177.3L254.718 165.406L215.336 187.38Z" fill="#D9BDDC"/>
<path d="M143.818 194.906V210.66L103.91 228.265L98.4344 215.807L127.976 202.783L97.0703 189.174L102.566 176.715L143.818 194.906Z" fill="#D9BDDC"/>
</svg>
