<svg width="330" height="436" viewBox="0 0 330 436" fill="none" xmlns="http://www.w3.org/2000/svg">
<path d="M65.3726 408.495H264.236C271.696 408.495 277.782 414.581 277.782 421.844C277.782 429.304 271.696 435.193 264.236 435.193H65.3726C57.9128 435.193 52.0234 429.108 52.0234 421.844C52.0234 414.384 58.1091 408.495 65.3726 408.495Z" fill="#241B2E"/>
<path d="M316.454 190.784H13.5455C6.06453 190.784 0 196.848 0 204.329V217.875C0 225.356 6.06453 231.42 13.5455 231.42H316.454C323.935 231.42 330 225.356 330 217.875V204.329C330 196.848 323.935 190.784 316.454 190.784Z" fill="#241B2E"/>
<path d="M226.543 83.2081H105.026C58.9477 83.2081 21.5938 120.562 21.5938 166.641V231.031C21.5938 277.109 58.9477 314.463 105.026 314.463H226.543C272.622 314.463 309.976 277.109 309.976 231.031V166.641C309.976 120.562 272.622 83.2081 226.543 83.2081Z" fill="#5C4998"/>
<path d="M141.148 2.12922C153.908 0.951347 173.54 1.93291 170.595 19.9936C167.258 40.2137 134.277 21.9567 128.78 43.1584C119.75 78.2982 186.496 62.3969 206.52 67.501C255.205 80.2613 250.101 153.093 202.005 158.59C190.422 159.964 144.485 160.356 133.688 158.59C118.572 156.234 118.376 132.284 134.277 129.928C152.73 127.18 182.962 133.658 200.238 129.339C212.802 126.198 216.532 108.138 206.716 99.6961C189.441 84.5801 138.4 110.297 110.916 78.8871C85.9845 50.4219 104.045 5.85914 141.344 2.12922H141.148Z" fill="#5C4998"/>
<path d="M199.846 0.951586C222.029 -1.60047 223.992 30.3983 204.361 32.1651C183.355 34.1283 180.803 3.11102 199.846 0.951586Z" fill="#5C4998"/>
<path d="M199.844 105.585H129.761C83.6821 105.585 46.3281 142.939 46.3281 189.017V212.182C46.3281 258.26 83.6821 295.614 129.761 295.614H199.844C245.922 295.614 283.276 258.26 283.276 212.182V189.017C283.276 142.939 245.922 105.585 199.844 105.585Z" fill="#241B2E"/>
<path d="M65.0978 337.687C70.3001 345.029 68.5922 355.198 61.2501 360.4L41.2459 374.613C33.9039 379.815 23.7349 378.108 18.5327 370.765C13.3304 363.423 15.0383 353.254 22.3804 348.052L42.3845 333.839C49.7266 328.637 59.8955 330.345 65.0978 337.687Z" fill="#5C4998"/>
<path d="M240.677 325.653C249.668 325.653 256.971 332.955 256.971 341.946V366.485C256.971 375.476 249.668 382.779 240.677 382.779C231.686 382.779 224.383 375.476 224.383 366.485V341.946C224.383 332.955 231.686 325.653 240.677 325.653Z" fill="#5C4998"/>
<path d="M196.117 314.857H133.689C124.659 314.857 117.199 322.316 117.199 331.347V382.388C117.199 391.418 124.659 398.878 133.689 398.878C141.934 398.878 148.413 392.203 148.413 384.155V383.566C148.413 375.321 154.106 368.057 162.351 366.879C172.363 365.309 181.197 373.161 181.197 382.977V383.958C181.197 392.203 187.871 398.878 196.117 398.878C205.147 398.878 212.607 391.418 212.607 382.388V331.347C212.607 322.316 205.147 314.857 196.117 314.857Z" fill="#5C4998"/>
<path d="M106.597 225.337C120.041 225.337 130.939 214.438 130.939 200.994C130.939 187.55 120.041 176.652 106.597 176.652C93.1525 176.652 82.2539 187.55 82.2539 200.994C82.2539 214.438 93.1525 225.337 106.597 225.337Z" fill="#D9BDDC"/>
<path d="M223.206 224.942C236.65 224.942 247.549 214.043 247.549 200.599C247.549 187.155 236.65 176.256 223.206 176.256C209.762 176.256 198.863 187.155 198.863 200.599C198.863 214.043 209.762 224.942 223.206 224.942Z" fill="#D9BDDC"/>
<path d="M153.125 217.287C154.303 217.248 159.014 220.664 164.904 220.664C170.793 220.664 175.505 217.248 176.682 217.287H153.125Z" fill="#D9BDDC"/>
<path d="M308.642 198.933L306.503 175.454C306.503 175.454 260.958 156.235 178.056 175.454L165.61 175.12H165.335H165.08L152.633 175.454C69.731 156.235 24.1867 175.454 24.1867 175.454L22.0469 198.933L29.546 208.258C28.5055 211.183 34.866 233.091 34.866 233.091C37.0058 245.91 49.8054 245.91 49.8054 245.91C94.6429 254.45 122.401 245.91 133.061 243.771C143.74 241.631 143.741 233.091 143.741 233.091L150.14 207.472C152.025 188.685 162.586 188.646 165.08 188.901V188.98C165.08 188.98 165.178 188.96 165.354 188.941C165.531 188.96 165.629 188.98 165.629 188.98V188.901C168.142 188.646 178.704 188.685 180.569 207.472L186.968 233.091C186.968 233.091 186.968 241.631 197.648 243.771C208.327 245.91 236.086 254.45 280.903 245.91C280.903 245.91 293.723 245.91 295.843 233.091C295.843 233.091 302.203 211.202 301.163 208.258L308.662 198.933H308.642ZM145.861 205.333C141.581 230.951 135.181 235.231 130.921 237.351C126.661 239.471 96.7631 248.031 51.9255 239.491C51.9255 239.491 39.1064 233.091 39.1064 203.193V190.609C39.1064 187.508 39.9505 184.425 41.7566 181.913C43.386 179.635 45.938 177.574 49.7857 177.574C49.7857 177.574 82.9624 171.174 134.691 177.574C134.691 177.574 150.121 179.714 145.861 205.333ZM291.563 203.193C291.563 233.091 278.744 239.491 278.744 239.491C233.906 248.031 204.028 239.491 199.748 237.351C195.469 235.211 189.069 230.951 184.809 205.333C180.529 179.714 195.979 177.574 195.979 177.574C247.707 171.174 280.884 177.574 280.884 177.574C284.732 177.574 287.264 179.635 288.913 181.913C290.719 184.425 291.563 187.508 291.563 190.609V203.193Z" fill="#CEB0FA"/>
<path d="M87.792 249.875L9.58139 267.602C7.6379 268.033 6.42077 269.977 6.85265 271.92L35.8283 399.7C36.2601 401.643 38.2036 402.86 40.1471 402.428L134.573 381.011C136.517 380.579 137.734 378.635 137.302 376.692L111.271 261.889C103.379 257.865 95.7622 253.389 87.792 249.875Z" fill="#CEB0FA" fill-opacity="0.16" stroke="#B78AF7" stroke-miterlimit="10"/>
<path d="M87.9882 250.678L91.0114 263.968C91.2077 264.793 92.0126 265.343 92.8371 265.186L110.623 261.986C110.839 261.946 110.878 261.652 110.682 261.554L88.5379 250.227C88.2434 250.07 87.9097 250.344 87.9882 250.658V250.678Z" fill="#B78AF7"/>
<path d="M75.3791 264.893L14.4961 278.691L16.4661 287.384L77.3491 273.585L75.3791 264.893Z" fill="#8133F1"/>
<path d="M107.211 277.5L18.7773 297.543L19.1071 298.998L107.541 278.955L107.211 277.5Z" fill="#CEB0FA"/>
<path d="M108.187 281.847L19.7539 301.89L20.0837 303.345L108.517 283.302L108.187 281.847Z" fill="#CEB0FA"/>
<path d="M96.1106 289.136L20.7344 306.22L21.0642 307.675L96.4404 290.591L96.1106 289.136Z" fill="#CEB0FA"/>
<path d="M104.545 299.433L23.3672 317.832L23.697 319.287L104.874 300.888L104.545 299.433Z" fill="#CEB0FA"/>
<path d="M105.521 303.783L24.3438 322.182L24.6735 323.637L105.851 305.238L105.521 303.783Z" fill="#CEB0FA"/>
<path d="M100.7 309.448L25.3242 326.531L25.654 327.987L101.03 310.903L100.7 309.448Z" fill="#CEB0FA"/>
<path d="M94.6451 323.01L27.9609 338.123L28.2907 339.579L94.9748 324.465L94.6451 323.01Z" fill="#CEB0FA"/>
<path d="M95.6412 327.371L28.957 342.485L29.2868 343.94L95.9709 328.826L95.6412 327.371Z" fill="#CEB0FA"/>
<path d="M103.257 340.876L32.2266 356.975L32.5563 358.43L103.587 342.331L103.257 340.876Z" fill="#CEB0FA"/>
<path d="M105.734 363.184C106.873 366.737 109.798 369.623 113.175 370.565C113.469 370.644 113.646 370.958 113.587 371.252C112.88 374.216 107.972 374.589 106.677 371.821C106.539 371.507 106.677 371.154 106.991 371.056L110.701 369.858C110.956 369.78 111.094 369.505 111.054 369.23L110.446 365.716C110.367 365.225 110.858 364.892 111.251 365.167C113.803 367.012 116.001 369.426 117.67 372.194L116.826 370.388C116.59 369.878 117.12 369.368 117.552 369.682C118.298 370.212 119.123 370.604 119.987 370.84C120.399 370.958 120.752 370.526 120.576 370.094L120.183 369.034C119.967 368.445 120.654 367.993 121.047 368.484L121.95 371.017C122.146 371.9 118.396 367.306 116.532 365.009C116.178 364.578 116.571 363.93 117.081 364.106C119.79 365.068 122.323 366.658 124.463 368.72C121.636 366.757 119.103 364.263 117.022 361.397C116.689 360.926 117.16 360.298 117.65 360.553C121.361 362.516 124.541 365.697 126.583 369.544" stroke="#1D1D1D" stroke-width="0.25" stroke-miterlimit="10"/>
<g opacity="0.51">
<path d="M57.7755 368.149C58.7767 367.187 58.6197 366.559 59.9153 366.048C61.211 365.538 62.8208 365.616 63.8023 366.617C64.1557 366.99 64.4109 367.442 64.6268 367.913C66.1384 371.27 66.0599 375.118 65.4121 378.73C65.1765 380.006 64.882 381.302 64.2342 382.421C63.3508 383.952 61.8392 385.071 60.1902 385.719C58.5412 386.366 56.7351 386.543 54.9683 386.504C54.0456 386.484 53.1033 386.386 52.2396 386.072C50.885 385.581 49.7857 384.6 48.7648 383.598C47.9992 382.813 47.2532 382.008 46.5661 381.164C46.2324 380.772 45.9183 380.34 45.7416 379.849C45.349 378.651 46.0557 377.395 46.2717 376.158C46.468 375.059 46.2717 373.94 46.0557 372.841C45.8791 371.918 45.7024 370.936 46.0557 370.073C46.2324 369.601 46.5465 369.189 46.8802 368.816C48.5685 366.991 51.1402 366.009 53.6137 366.284C54.7523 366.402 55.8713 366.775 57.0296 366.696C58.2663 366.598 59.3853 365.989 60.5828 365.695C61.7803 365.4 63.1741 365.597 63.8416 366.617" fill="#6200EE"/>
</g>
<g opacity="0.51">
<path d="M63.4115 380.796C64.0005 382.052 64.6483 382.111 64.7268 383.485C64.8053 384.86 64.2164 386.391 62.96 386.98C62.4889 387.196 61.9784 387.294 61.468 387.353C57.8166 387.726 54.1849 386.43 50.9654 384.663C49.8267 384.035 48.7078 383.348 47.844 382.366C46.6661 381.031 46.0772 379.265 45.9987 377.478C45.9201 375.692 46.2931 373.945 46.9017 372.276C47.2158 371.412 47.6084 370.548 48.1777 369.822C49.0611 368.703 50.3372 367.957 51.6328 367.309C52.6144 366.819 53.6156 366.387 54.6364 365.994C55.1272 365.817 55.6179 365.621 56.1284 365.641C57.3847 365.641 58.3467 366.72 59.4657 367.309C60.4472 367.839 61.5662 367.996 62.6655 368.153C63.5882 368.291 64.5698 368.428 65.2961 369.017C65.6887 369.331 65.9832 369.763 66.2188 370.195C67.4163 372.374 67.5341 375.123 66.4936 377.38C66.0225 378.421 65.3157 379.363 65.0213 380.482C64.7268 381.679 64.9427 382.936 64.8446 384.172C64.7464 385.409 64.1182 386.666 62.9404 386.96" fill="#6200EE"/>
</g>
<g opacity="0.51">
<path d="M48.9631 377.397C47.7263 376.788 47.1767 377.142 46.254 376.101C45.3313 375.061 44.8602 373.51 45.4688 372.253C45.6847 371.782 46.0381 371.409 46.4111 371.036C49.0416 368.484 52.693 367.247 56.3248 366.639C57.6008 366.423 58.9161 366.266 60.1921 366.501C61.9393 366.816 63.5098 367.856 64.668 369.191C65.8263 370.526 66.6312 372.155 67.1808 373.844C67.4753 374.727 67.7109 375.63 67.7109 376.553C67.7109 377.986 67.1612 379.36 66.5526 380.656C66.0815 381.637 65.5711 382.619 65.0214 383.561C64.7662 384.012 64.4717 384.464 64.0595 384.778C63.0583 385.544 61.6448 385.308 60.4081 385.524C59.3087 385.72 58.3272 386.29 57.3653 386.839C56.5604 387.311 55.6966 387.801 54.7543 387.801C54.2439 387.801 53.7531 387.644 53.3016 387.448C51.0048 386.486 49.2183 384.405 48.6294 381.971C48.3545 380.852 48.3349 379.674 47.8638 378.634C47.3534 377.515 46.3914 376.651 45.7043 375.63C45.0172 374.609 44.7228 373.235 45.4688 372.253" fill="#6200EE"/>
</g>
<path d="M52.7125 371.333C53.537 371.058 54.8523 370.842 54.9308 372.079C55.0093 373.473 52.5554 372.766 52.5162 374.238C52.4573 376.712 56.6387 374.651 58.0325 374.69C61.4483 374.788 62.1943 379.696 59.0926 380.776C58.3466 381.031 55.3038 381.757 54.5578 381.796C53.5174 381.855 53.1444 380.285 54.1652 379.892C55.3431 379.421 57.4436 379.401 58.5233 378.871C59.3086 378.479 59.2889 377.222 58.5233 376.81C57.1491 376.064 54.1652 378.538 51.8683 376.869C49.7874 375.357 50.3175 372.138 52.7321 371.333H52.7125Z" fill="#CEB0FA" fill-opacity="0.16"/>
<path d="M56.5991 370.387C58.0321 369.876 58.6407 371.977 57.3647 372.389C56.0101 372.841 55.3819 370.819 56.5991 370.387Z" fill="#CEB0FA" fill-opacity="0.16"/>
<path d="M33.9164 375.707C40.1158 373.08 42.5838 364.914 39.4287 357.466C36.2736 350.019 28.6903 346.111 22.4908 348.737C16.2913 351.364 13.8233 359.53 16.9784 366.978C20.1335 374.425 27.7169 378.333 33.9164 375.707Z" fill="#5C4998"/>
</svg>
