<svg width="330" height="440" viewBox="0 0 330 440" fill="none" xmlns="http://www.w3.org/2000/svg">
<path d="M65.4565 412.914H264.348C271.808 412.914 277.895 419.005 277.895 426.275C277.895 433.741 271.808 439.635 264.348 439.635H65.4565C57.9956 439.635 52.1055 433.544 52.1055 426.275C52.1055 418.809 58.192 412.914 65.4565 412.914Z" fill="#241B2E"/>
<path d="M316.454 192.469H13.5455C6.06453 192.469 0 198.65 0 206.275V220.08C0 227.705 6.06453 233.886 13.5455 233.886H316.454C323.935 233.886 330 227.705 330 220.08V206.275C330 198.65 323.935 192.469 316.454 192.469Z" fill="#241B2E"/>
<path d="M226.854 84.2505H105.815C59.9179 84.2505 22.7109 122.016 22.7109 168.603V233.704C22.7109 280.29 59.9179 318.056 105.815 318.056H226.854C272.751 318.056 309.958 280.29 309.958 233.704V168.603C309.958 122.016 272.751 84.2505 226.854 84.2505Z" fill="#5C4998"/>
<path d="M141.49 1.70311C154.227 0.511997 173.823 1.50459 170.883 19.7683C167.552 40.2158 134.632 21.7535 129.145 43.1936C120.131 78.7285 186.756 62.6484 206.743 67.8099C255.34 80.7136 250.245 154.364 202.236 159.923C190.675 161.312 144.821 161.709 134.044 159.923C118.955 157.54 118.759 133.321 134.632 130.939C153.052 128.16 183.229 134.711 200.473 130.343C213.014 127.167 216.737 108.903 206.939 100.367C189.695 85.0811 138.747 111.087 111.313 79.324C86.4269 50.5388 104.455 5.47497 141.686 1.70311H141.49Z" fill="#5C4998"/>
<path d="M200.08 0.51132C222.223 -2.06943 224.183 30.2892 204.587 32.0758C183.62 34.061 181.072 2.69503 200.08 0.51132Z" fill="#5C4998"/>
<path d="M199.973 106.963H130.029C84.0416 106.963 46.7617 144.518 46.7617 190.845V214.134C46.7617 260.461 84.0416 298.016 130.029 298.016H199.973C245.96 298.016 283.239 260.461 283.239 214.134V190.845C283.239 144.518 245.96 106.963 199.973 106.963Z" fill="#241B2E"/>
<path d="M105.327 360.589C101.501 368.93 91.7877 372.488 83.6443 368.568L61.4511 357.855C53.3076 353.936 49.8344 343.986 53.6609 335.645C57.4873 327.304 67.2005 323.746 75.3439 327.666L97.5372 338.379C105.681 342.298 109.154 352.247 105.327 360.589Z" fill="#5C4998"/>
<path d="M220.382 358.696C216.916 350.288 220.772 340.585 229.01 337.038L251.445 327.375C259.663 323.828 269.147 327.773 272.614 336.201C276.08 344.61 272.224 354.313 263.986 357.86L241.551 367.523C233.333 371.07 223.849 367.125 220.382 358.696Z" fill="#5C4998"/>
<path d="M196.033 318.056H133.966C124.987 318.056 117.57 325.648 117.57 334.838V386.781C117.57 395.971 124.987 403.562 133.966 403.562C142.163 403.562 148.604 396.77 148.604 388.579V387.979C148.604 379.589 154.264 372.197 162.462 370.998C172.416 369.4 181.2 377.391 181.2 387.38V388.379C181.2 396.77 187.836 403.562 196.033 403.562C205.012 403.562 212.429 395.971 212.429 386.781V334.838C212.429 325.648 205.012 318.056 196.033 318.056Z" fill="#5C4998"/>
<path d="M130.933 202.76C130.933 208.423 129.11 213.662 126.046 217.854L83.1075 206.509C82.9329 205.279 82.8359 204.03 82.8359 202.76C82.8359 188.957 93.5996 177.773 106.885 177.773C120.169 177.773 130.933 188.957 130.933 202.76Z" fill="#D9BDDC"/>
<path d="M197.734 202.76C197.734 208.423 199.608 213.662 202.757 217.854L246.889 206.509C247.068 205.279 247.168 204.03 247.168 202.76C247.168 188.957 236.105 177.773 222.451 177.773C208.797 177.773 197.734 188.957 197.734 202.76Z" fill="#D9BDDC"/>
<path d="M153.645 217.854C154.78 223.198 159.323 227.206 165.001 227.206C170.679 227.206 175.221 223.198 176.357 217.854H153.645Z" fill="#D9BDDC"/>
</svg>
